<svg width="50" height="50" viewBox="0 0 50 50" fill="none" xmlns="http://www.w3.org/2000/svg">
<path d="M25 6.25C25 5.1 25.9313 4.16667 27.0833 4.16667H33.3333C34.1229 4.16667 34.8438 4.6125 35.1979 5.31875C35.55 6.025 35.475 6.86875 35 7.5L31.25 12.5H33.3333C34.4854 12.5 35.4167 13.4333 35.4167 14.5833C35.4167 15.7333 34.4854 16.6667 33.3333 16.6667H27.0833C26.2938 16.6667 25.5729 16.2208 25.2188 15.5146C24.8667 14.8083 24.9417 13.9646 25.4167 13.3333L29.1667 8.33333H27.0833C25.9313 8.33333 25 7.4 25 6.25ZM41.6667 4.16667H43.75L40 9.16667C39.525 9.79792 39.45 10.6417 39.8021 11.3479C40.1563 12.0542 40.8771 12.5 41.6667 12.5H47.9167C49.0688 12.5 50 11.5667 50 10.4167C50 9.26667 49.0688 8.33333 47.9167 8.33333H45.8333L49.5833 3.33333C50.0583 2.70208 50.1333 1.85833 49.7813 1.15208C49.4271 0.445833 48.7063 0 47.9167 0H41.6667C40.5146 0 39.5833 0.933333 39.5833 2.08333C39.5833 3.23333 40.5146 4.16667 41.6667 4.16667ZM33.275 24.9937C32.3917 24.9896 31.5667 24.5375 30.8188 23.6542C30.0771 22.7771 28.7646 22.6625 27.8813 23.4104C27.0042 24.1521 26.8938 25.4687 27.6375 26.3458C29.5917 28.6542 31.7667 29.15 33.2479 29.1604H33.2896C35.4333 29.1604 37.6167 28.1187 39.1375 26.3667C39.8896 25.4979 39.7958 24.1812 38.9271 23.4271C38.0583 22.675 36.7417 22.7646 35.9875 23.6354C35.2604 24.4729 34.2271 24.9937 33.2896 24.9937H33.275ZM46.4875 16.7458C45.3813 17.0583 44.7375 18.2104 45.0521 19.3167C45.5708 21.1583 45.8354 23.0687 45.8354 25C45.8354 36.4875 36.4896 45.8333 25.0021 45.8333C13.5146 45.8333 4.16667 36.4875 4.16667 25C4.16667 15.7167 10.3958 7.47292 19.3167 4.95C20.4229 4.6375 21.0667 3.48542 20.7521 2.37917C20.4417 1.26875 19.275 0.6375 18.1813 0.941667C7.47708 3.96875 0 13.8625 0 25C0 38.7854 11.2146 50 25 50C38.7854 50 50 38.7854 50 25C50 22.6875 49.6833 20.3937 49.0583 18.1833C48.7479 17.075 47.5958 16.4375 46.4875 16.7458ZM20.8354 37.5C20.8354 39.8021 22.7 41.6667 25.0021 41.6667C27.3042 41.6667 29.1688 39.8021 29.1688 37.5C29.1688 35.1979 27.3042 33.3333 25.0021 33.3333C22.7 33.3333 20.8354 35.1979 20.8354 37.5ZM19.3208 23.6354C18.5938 24.4729 17.5604 24.9937 16.6229 24.9937H16.6083C15.725 24.9896 14.9 24.5375 14.1521 23.6542C13.4083 22.7771 12.0979 22.6625 11.2146 23.4104C10.3375 24.1521 10.2271 25.4687 10.9708 26.3458C12.925 28.6542 15.1 29.15 16.5813 29.1604H16.6229C18.7667 29.1604 20.95 28.1187 22.4708 26.3667C23.2229 25.4979 23.1292 24.1812 22.2604 23.4271C21.3917 22.675 20.0771 22.7646 19.3208 23.6354Z" fill="#4A90E2"/>
</svg>
