<svg width="24" height="24" viewBox="0 0 24 24" fill="none" xmlns="http://www.w3.org/2000/svg">
<path d="M12 0C5.383 0 0 5.383 0 12C0 18.617 5.383 24 12 24C18.617 24 24 18.617 24 12C24 5.383 18.617 0 12 0ZM12 23C5.935 23 1 18.065 1 12C1 5.935 5.935 1 12 1C18.065 1 23 5.935 23 12C23 18.065 18.065 23 12 23ZM17 12C17 12.276 16.776 12.5 16.5 12.5H12.5V16.5C12.5 16.776 12.276 17 12 17C11.724 17 11.5 16.776 11.5 16.5V12.5H7.5C7.224 12.5 7 12.276 7 12C7 11.724 7.224 11.5 7.5 11.5H11.5V7.5C11.5 7.224 11.724 7 12 7C12.276 7 12.5 7.224 12.5 7.5V11.5H16.5C16.776 11.5 17 11.724 17 12Z" fill="#4A90E2"/>
</svg>
