<svg width="24" height="24" viewBox="0 0 24 24" fill="none" xmlns="http://www.w3.org/2000/svg">
<path d="M12 0C5.383 0 0 5.383 0 12C0 18.617 5.383 24 12 24C18.617 24 24 18.617 24 12C24 5.383 18.617 0 12 0ZM12 23C5.935 23 1 18.065 1 12C1 5.935 5.935 1 12 1C18.065 1 23 5.935 23 12C23 18.065 18.065 23 12 23ZM14.244 5.816L7.318 12.742C6.467 13.592 6 14.722 6 15.925V17.5C6 17.776 6.224 18 6.5 18H8.075C9.277 18 10.408 17.532 11.258 16.682L18.184 9.756C18.71 9.23 19 8.53 19 7.786C19 7.042 18.71 6.343 18.184 5.816C17.131 4.763 15.296 4.763 14.244 5.816ZM10.551 15.974C9.89 16.635 9.011 16.999 8.075 16.999H7V15.924C7 14.988 7.364 14.11 8.025 13.448L13.133 8.34L15.658 10.865L10.55 15.973L10.551 15.974ZM17.477 9.048L16.367 10.158L13.842 7.633L14.952 6.523C15.628 5.847 16.802 5.847 17.477 6.523C17.815 6.861 18 7.309 18 7.786C18 8.263 17.814 8.71 17.477 9.048Z" fill="#4A90E2"/>
</svg>
