<?xml version="1.0" encoding="UTF-8"?>
<svg xmlns="http://www.w3.org/2000/svg" id="Layer_1" data-name="Layer 1" viewBox="0 0 24 24">
  <path d="M22.337,10.954c-.985-1.366-1.337-2.164-1.337-2.454V3.938c0-1.727-1.239-3.181-2.947-3.457C14.116-.158,9.888-.158,5.947,.481c-1.708,.276-2.947,1.73-2.947,3.457v4.562c0,.291-.351,1.088-1.337,2.454-.434,.601-.663,1.309-.663,2.049v6.498c0,2.481,2.019,4.5,4.5,4.5h13c2.481,0,4.5-2.019,4.5-4.5v-6.498c0-.74-.229-1.448-.663-2.049ZM15.876,1.204l-3.876,9.475L8.126,1.209c1.283-.133,2.593-.209,3.874-.209,1.454,0,2.768,.088,3.876,.204ZM2,19.5v-.5H6.5c.276,0,.5-.224,.5-.5s-.224-.5-.5-.5H2v-4.998c0-.528,.164-1.034,.474-1.464,1.526-2.113,1.526-2.81,1.526-3.039V3.938c0-1.233,.886-2.272,2.107-2.47,.324-.052,.656-.095,.988-.139l4.405,10.769v10.901H5.5c-1.93,0-3.5-1.57-3.5-3.5Zm16.5,3.5h-6V12.098L16.908,1.325c.361,.048,.695,.097,.985,.144,1.222,.197,2.107,1.236,2.107,2.47v4.562c0,.229,0,.923,1.526,3.039,.31,.43,.474,.936,.474,1.464v4.998h-4.5c-.276,0-.5,.224-.5,.5s.224,.5,.5,.5h4.5v.5c0,1.93-1.57,3.5-3.5,3.5Zm-.562-6.84c.766-.64,2.062-2.079,2.062-3.41,0-.965-.785-1.75-1.75-1.75-.479,0-.927,.185-1.25,.473-.323-.288-.771-.473-1.25-.473-.965,0-1.75,.785-1.75,1.75,0,1.307,1.297,2.754,2.063,3.403,.541,.459,1.331,.462,1.875,.006Zm-1.229-.769c-.829-.702-1.71-1.866-1.71-2.641,0-.414,.337-.75,.75-.75,.436,0,.75,.299,.75,.5,0,.276,.224,.5,.5,.5s.5-.224,.5-.5c0-.201,.314-.5,.75-.5,.413,0,.75,.336,.75,.75,0,.894-1.019,2.07-1.702,2.643-.175,.144-.415,.144-.588-.002Z"/>
</svg>
