<svg width="39" height="40" viewBox="0 0 39 40" fill="none" xmlns="http://www.w3.org/2000/svg">
<path d="M28.1117 39.1184L28.0976 39.0678C26.9601 35.0026 23.2439 32.1681 19.0737 32.1681C14.9036 32.1681 11.1888 35.0025 10.0497 39.068L10.0496 39.0682C9.99418 39.2658 10.1073 39.4432 10.2539 39.4884L28.1117 39.1184ZM28.1117 39.1184C28.1361 39.2945 28.0302 39.4457 27.8964 39.4868L27.8943 39.4875C27.8655 39.4964 27.841 39.4997 27.8192 39.4997C27.7052 39.4997 27.5817 39.4208 27.5397 39.2685L27.539 39.2663C26.4756 35.4784 22.9985 32.8331 19.0753 32.8331C15.1521 32.8331 11.6749 35.4784 10.6115 39.2662L10.6109 39.2683C10.5594 39.4548 10.3884 39.5295 10.2541 39.4885L28.1117 39.1184ZM37.6396 24.0664L37.6397 24.0667C37.6956 24.2658 37.5821 24.4423 37.4368 24.4869L37.4347 24.4876C37.4059 24.4965 37.3814 24.4998 37.3596 24.4998C37.2455 24.4998 37.1219 24.421 37.0802 24.2692L37.0794 24.2664C36.016 20.4784 32.5372 17.8332 28.6157 17.8332C28.475 17.8332 28.3208 17.7062 28.3208 17.4999C28.3208 17.2935 28.475 17.1666 28.6157 17.1666C32.7858 17.1666 36.5005 20.001 37.6396 24.0664ZM0.514022 24.0667L0.514141 24.0662C1.65164 20.001 5.36629 17.1666 9.53805 17.1666C9.67871 17.1666 9.83295 17.2935 9.83295 17.4999C9.83295 17.7076 9.67903 17.8332 9.53964 17.8332C5.61644 17.8332 2.13926 20.4785 1.07586 24.2664L1.07523 24.2686C1.03325 24.4209 0.909733 24.4998 0.79574 24.4998C0.773921 24.4998 0.749395 24.4965 0.720614 24.4876L0.718497 24.4869C0.571795 24.4418 0.458527 24.2643 0.514022 24.0667ZM19.0769 15.4999C22.2858 15.4999 24.9361 18.2435 24.9361 21.6665C24.9361 25.0895 22.2858 27.8331 19.0769 27.8331C15.8679 27.8331 13.2177 25.0895 13.2177 21.6665C13.2177 18.2435 15.8679 15.4999 19.0769 15.4999ZM13.8075 21.6665C13.8075 24.6768 16.1492 27.1665 19.0769 27.1665C22.0045 27.1665 24.3463 24.6768 24.3463 21.6665C24.3463 18.6562 22.0045 16.1666 19.0769 16.1666C16.1492 16.1666 13.8075 18.6562 13.8075 21.6665ZM22.7565 6.66662C22.7565 3.24361 25.4067 0.5 28.6157 0.5C31.8246 0.5 34.4749 3.24361 34.4749 6.66662C34.4749 10.0896 31.8246 12.8332 28.6157 12.8332C25.4067 12.8332 22.7565 10.0896 22.7565 6.66662ZM23.3463 6.66662C23.3463 9.6769 25.688 12.1666 28.6157 12.1666C31.5433 12.1666 33.8851 9.6769 33.8851 6.66662C33.8851 3.65634 31.5433 1.16666 28.6157 1.16666C25.688 1.16666 23.3463 3.65634 23.3463 6.66662ZM3.67885 6.66662C3.67885 3.24361 6.32908 0.5 9.53805 0.5C12.747 0.5 15.3973 3.24361 15.3973 6.66662C15.3973 10.0896 12.747 12.8332 9.53805 12.8332C6.32908 12.8332 3.67885 10.0896 3.67885 6.66662ZM4.26865 6.66662C4.26865 9.6769 6.6104 12.1666 9.53805 12.1666C12.4657 12.1666 14.8075 9.6769 14.8075 6.66662C14.8075 3.65634 12.4657 1.16666 9.53805 1.16666C6.6104 1.16666 4.26865 3.65634 4.26865 6.66662ZM37.5837 24.9648C38.0066 24.8348 38.2451 24.3732 38.1211 23.9315L28.6157 16.6666C28.1769 16.6666 27.8208 17.0399 27.8208 17.4999C27.8208 17.9599 28.1769 18.3332 28.6157 18.3332C32.3119 18.3332 35.5949 20.8282 36.598 24.4015C36.6982 24.7665 37.0162 24.9998 37.3596 24.9998C37.4343 24.9998 37.509 24.9882 37.5837 24.9648Z" fill="#4A90E2" fill-opacity="0.1" stroke="#4A90E2"/>
</svg>
