<svg width="26" height="25" viewBox="0 0 26 25" fill="none" xmlns="http://www.w3.org/2000/svg">
<path d="M15.545 1.01491C15.7188 1.13649 15.8942 1.25562 16.0695 1.37502C16.26 1.50493 16.4502 1.63547 16.6403 1.76596C16.8742 1.92642 17.1084 2.08652 17.3425 2.24666C17.4356 2.31038 17.5288 2.37409 17.6219 2.43781C17.668 2.46935 17.7141 2.50088 17.7616 2.53338C19.0885 3.44131 19.0885 3.44131 20.4155 4.34924C20.4847 4.39657 20.4847 4.39657 20.5552 4.44484C20.6482 4.50846 20.7412 4.57208 20.8342 4.6357C21.1167 4.82899 21.3992 5.02223 21.6817 5.21541C21.7757 5.27969 21.8696 5.34403 21.9635 5.40842C22.1836 5.55932 22.4041 5.70966 22.6256 5.85841C23.8907 6.71044 24.7834 7.62139 25.1353 9.15724C25.1854 9.4548 25.2027 9.74458 25.2024 10.0457C25.2026 10.1152 25.2026 10.1152 25.2029 10.186C25.2034 10.3404 25.2035 10.4947 25.2036 10.6491C25.2039 10.7601 25.2042 10.8711 25.2045 10.9822C25.2052 11.2833 25.2056 11.5845 25.2059 11.8856C25.2061 12.0741 25.2063 12.2625 25.2066 12.451C25.2074 13.0416 25.2079 13.6322 25.2082 14.2228C25.2084 14.9028 25.2095 15.5827 25.2112 16.2627C25.2124 16.7894 25.213 17.3162 25.2131 17.8429C25.2132 18.1569 25.2135 18.471 25.2146 18.785C25.2155 19.0808 25.2157 19.3766 25.2151 19.6725C25.2151 19.7804 25.2154 19.8883 25.2159 19.9963C25.2234 21.4529 24.8876 22.6775 23.8414 23.743C23.8016 23.7842 23.7618 23.8255 23.7208 23.868C22.8448 24.7126 21.6824 24.9872 20.4993 24.9863C20.4294 24.9865 20.3595 24.9867 20.2876 24.9868C20.0944 24.9873 19.9012 24.9874 19.708 24.9875C19.4994 24.9876 19.2908 24.988 19.0821 24.9884C18.6262 24.9892 18.1702 24.9896 17.7143 24.9898C17.4293 24.99 17.1443 24.9902 16.8592 24.9905C16.0692 24.9912 15.2792 24.9918 14.4892 24.992C14.4135 24.9921 14.4135 24.9921 14.3362 24.9921C14.2855 24.9921 14.2349 24.9921 14.1827 24.9921C14.0801 24.9921 13.9775 24.9922 13.8749 24.9922C13.7985 24.9922 13.7985 24.9922 13.7207 24.9922C12.8967 24.9925 12.0728 24.9935 11.2489 24.9949C10.4019 24.9963 9.55483 24.997 8.70778 24.9971C8.23266 24.9971 7.75755 24.9974 7.28243 24.9985C6.8777 24.9994 6.47297 24.9997 6.06824 24.9992C5.86206 24.999 5.65589 24.9991 5.44971 24.9999C3.81198 25.0054 2.4757 24.822 1.25704 23.6254C1.2158 23.5855 1.17456 23.5457 1.13207 23.5047C0.361095 22.7052 0.0123925 21.5964 0.0137019 20.502C0.0135272 20.4557 0.0133525 20.4094 0.0131725 20.3616C0.0126648 20.2073 0.0125731 20.053 0.012485 19.8986C0.0122126 19.7876 0.0119171 19.6765 0.0116002 19.5655C0.0108303 19.2644 0.0104492 18.9632 0.0101876 18.6621C0.0100149 18.4736 0.00977336 18.2852 0.00951099 18.0967C0.00870713 17.5061 0.00813908 16.9155 0.00791178 16.3249C0.00764859 15.6449 0.00661823 14.9649 0.0049126 14.285C0.00363765 13.7582 0.00304721 13.2315 0.00296878 12.7048C0.00290738 12.3908 0.00256565 12.0767 0.00150957 11.7627C0.000534099 11.4669 0.000416715 11.171 0.000929839 10.8752C0.000974822 10.7673 0.000724076 10.6593 0.000138313 10.5514C-0.0061921 9.31111 0.203157 8.23488 0.962977 7.2164C0.994288 7.17417 1.0256 7.13194 1.05786 7.08843C1.5166 6.52042 2.17776 6.12436 2.78206 5.72768C3.04548 5.55457 3.30555 5.37669 3.56547 5.19836C3.61245 5.16616 3.65942 5.13395 3.70782 5.10077C3.8037 5.03501 3.89957 4.96925 3.99543 4.90346C4.22935 4.74301 4.4635 4.5829 4.69763 4.42276C4.79075 4.35905 4.88387 4.29533 4.97699 4.23162C5.90821 3.59447 6.83942 2.95733 7.77063 2.32018C7.81675 2.28862 7.86287 2.25707 7.91039 2.22455C8.00326 2.16101 8.09614 2.09749 8.18903 2.03398C8.42574 1.87212 8.66225 1.70998 8.89843 1.54733C9.17365 1.35792 9.44965 1.16968 9.72618 0.982174C9.78432 0.942542 9.78432 0.942542 9.84363 0.90211C11.7125 -0.36576 13.7165 -0.268946 15.545 1.01491ZM8.96161 19.5672C8.86745 19.7555 8.87343 19.951 8.90279 20.1554C9.00828 20.3206 9.08034 20.4206 9.25567 20.5082C9.34442 20.5142 9.43343 20.5164 9.52238 20.5169C9.57853 20.5173 9.63468 20.5177 9.69253 20.5182C9.75434 20.5183 9.81615 20.5185 9.87983 20.5186C9.94477 20.519 10.0097 20.5194 10.0766 20.5198C10.2922 20.521 10.5079 20.5217 10.7235 20.5223C10.797 20.5225 10.8705 20.5227 10.9462 20.523C11.295 20.5241 11.6438 20.5249 11.9926 20.5254C12.3951 20.526 12.7976 20.5275 13.2002 20.5299C13.5489 20.5319 13.8976 20.5326 14.2463 20.5328C14.3946 20.5331 14.5429 20.5338 14.6912 20.5349C14.8986 20.5363 15.106 20.5363 15.3134 20.5359C15.3749 20.5366 15.4363 20.5374 15.4996 20.5382C15.8393 20.5358 15.8393 20.5358 16.1442 20.3962C16.317 20.2031 16.3329 20.0645 16.3305 19.8048C16.3037 19.6183 16.2102 19.519 16.078 19.3908C15.9376 19.3206 15.8505 19.3241 15.6937 19.3233C15.6376 19.3229 15.5814 19.3225 15.5235 19.322C15.4617 19.3219 15.3999 19.3217 15.3362 19.3216C15.2713 19.3212 15.2064 19.3208 15.1395 19.3204C14.9238 19.3192 14.7082 19.3185 14.4926 19.318C14.4191 19.3177 14.3456 19.3175 14.2699 19.3172C13.9211 19.3161 13.5723 19.3153 13.2235 19.3148C12.821 19.3142 12.4184 19.3127 12.0159 19.3103C11.6672 19.3083 11.3185 19.3076 10.9698 19.3074C10.8215 19.3071 10.6732 19.3064 10.5249 19.3053C10.3174 19.3039 10.1101 19.3039 9.90266 19.3043C9.84121 19.3036 9.77976 19.3028 9.71644 19.302C9.39218 19.3044 9.19082 19.311 8.96161 19.5672Z" fill="#4A90E2"/>
</svg>
