<svg width="25" height="25" viewBox="0 0 25 25" fill="none" xmlns="http://www.w3.org/2000/svg">
<path d="M15.4572 1.21796C15.5212 1.26807 15.5853 1.31804 15.6494 1.3679C16.039 1.67112 16.4244 1.97962 16.8095 2.28843C17.1522 2.56293 17.4973 2.83424 17.8429 3.10498C18.0451 3.26349 18.2471 3.42235 18.4491 3.58114C18.6169 3.71301 18.7848 3.84481 18.9528 3.97642C19.3386 4.27877 19.7224 4.58336 20.1048 4.88997C20.4475 5.16445 20.7925 5.43576 21.1381 5.7065C21.3403 5.86494 21.5422 6.0237 21.7441 6.18252C21.9131 6.31543 22.0823 6.44802 22.2521 6.57996C22.4213 6.7116 22.5897 6.84419 22.7574 6.97767C22.8238 7.03048 22.8905 7.08308 22.9572 7.13546C23.9849 7.94527 24.6047 8.98141 24.7649 10.2943C24.7702 10.4452 24.7732 10.5946 24.773 10.7454C24.7732 10.8109 24.7732 10.8109 24.7735 10.8776C24.774 11.023 24.7741 11.1683 24.7742 11.3136C24.7745 11.4182 24.7747 11.5228 24.7751 11.6274C24.7758 11.911 24.7762 12.1946 24.7764 12.4781C24.7766 12.6557 24.7768 12.8332 24.7771 13.0107C24.7779 13.567 24.7785 14.1233 24.7787 14.6796C24.7789 15.32 24.78 15.9604 24.7816 16.6008C24.7829 17.097 24.7835 17.5931 24.7835 18.0892C24.7836 18.385 24.7839 18.6808 24.785 18.9765C24.7859 19.2552 24.786 19.5338 24.7855 19.8125C24.7855 19.9141 24.7857 20.0157 24.7863 20.1173C24.7939 21.5342 24.4508 22.7301 23.4352 23.7644C23.3961 23.8049 23.357 23.8455 23.3166 23.8872C22.4556 24.7175 21.313 24.9875 20.15 24.9866C20.0813 24.9867 20.0127 24.9869 19.9419 24.9871C19.752 24.9875 19.5622 24.9876 19.3723 24.9877C19.1672 24.9878 18.9621 24.9882 18.757 24.9886C18.3088 24.9894 17.8606 24.9898 17.4125 24.99C17.1323 24.9902 16.8522 24.9904 16.572 24.9907C15.7955 24.9914 15.0189 24.992 14.2424 24.9922C14.1679 24.9922 14.1679 24.9922 14.0919 24.9922C14.0421 24.9922 13.9923 24.9922 13.9411 24.9922C13.8402 24.9923 13.7393 24.9923 13.6385 24.9923C13.5634 24.9923 13.5634 24.9923 13.4869 24.9924C12.677 24.9926 11.8671 24.9936 11.0573 24.9949C10.2247 24.9963 9.39205 24.997 8.55943 24.9971C8.0924 24.9972 7.62539 24.9975 7.15837 24.9985C6.76053 24.9994 6.3627 24.9997 5.96486 24.9992C5.76219 24.999 5.55953 24.9991 5.35686 24.9999C3.74704 25.0053 2.43352 24.825 1.23563 23.6488C1.19509 23.6096 1.15455 23.5705 1.11279 23.5302C0.360981 22.7505 0.012141 21.6646 0.0134766 20.5962C0.0133048 20.5526 0.0131331 20.5089 0.0129562 20.464C0.0124574 20.3186 0.012367 20.1733 0.0122804 20.028C0.0120126 19.9234 0.0117221 19.8188 0.0114107 19.7142C0.0106541 19.4306 0.0102794 19.147 0.0100222 18.8635C0.00985236 18.686 0.00961492 18.5084 0.00935705 18.3309C0.00856694 17.7746 0.00800854 17.2183 0.0077851 16.662C0.00752642 16.0216 0.00651372 15.3812 0.00483701 14.7408C0.00358348 14.2446 0.00300339 13.7485 0.00292631 13.2524C0.00286598 12.9566 0.00253052 12.6608 0.00149197 12.3651C0.000532583 12.0864 0.000417981 11.8078 0.000922111 11.5291C0.0009663 11.4275 0.000720228 11.3259 0.000144071 11.2243C-0.00638508 9.99973 0.207229 8.89419 1.00439 7.92408C1.03442 7.88465 1.06445 7.84523 1.0954 7.80461C1.3812 7.44826 1.74737 7.18578 2.108 6.91068C2.29149 6.76941 2.47162 6.62399 2.65201 6.47879C3.03094 6.17484 3.41231 5.87412 3.79472 5.57456C3.96316 5.44255 4.13139 5.31028 4.29964 5.17804C4.5012 5.0196 4.7028 4.86122 4.90463 4.70312C5.2536 4.4296 5.60133 4.15465 5.94726 3.87728C6.32625 3.5734 6.70756 3.27261 7.08997 2.97304C7.25841 2.84104 7.42664 2.70877 7.59489 2.57652C7.79645 2.41809 7.99805 2.25971 8.19987 2.10161C8.26679 2.04915 8.33371 1.99668 8.40063 1.94421C8.43374 1.9183 8.46686 1.89238 8.50097 1.86568C8.6787 1.72623 8.85518 1.58545 9.03024 1.44265C9.80425 0.812117 10.6254 0.208257 11.6417 0.061728C11.6838 0.0547228 11.7259 0.0477177 11.7693 0.0405003C13.1744 -0.150576 14.3819 0.349787 15.4572 1.21796ZM9.79082 2.53204C9.58954 2.69814 9.38501 2.85915 9.17747 3.01733C8.59752 3.46016 8.02589 3.91321 7.45661 4.36965C7.11397 4.64414 6.76889 4.91546 6.42327 5.18619C6.25484 5.3182 6.08661 5.45047 5.91836 5.58272C5.71679 5.74115 5.51519 5.89953 5.31337 6.05763C4.96439 6.33115 4.61666 6.6061 4.27073 6.88347C3.99115 7.10764 3.71069 7.3306 3.42885 7.55192C3.39594 7.57788 3.36303 7.60385 3.32912 7.6306C3.1587 7.7648 2.9872 7.89714 2.81348 8.02705C2.06112 8.594 1.47804 9.26366 1.33467 10.2331C1.28149 10.7073 1.28488 11.1818 1.28505 11.6584C1.28488 11.7544 1.28468 11.8505 1.28446 11.9466C1.28395 12.2062 1.28381 12.4657 1.28378 12.7253C1.28374 12.8879 1.28361 13.0505 1.28346 13.2131C1.28292 13.7816 1.28269 14.3501 1.28273 14.9186C1.28277 15.4466 1.28216 15.9745 1.28125 16.5024C1.28049 16.9573 1.28018 17.4122 1.28022 17.8671C1.28023 18.1381 1.28007 18.409 1.27945 18.68C1.27889 18.9351 1.27889 19.1903 1.27931 19.4454C1.27937 19.5384 1.27924 19.6313 1.27889 19.7243C1.27502 20.814 1.34275 21.8136 2.10281 22.666C2.14808 22.7193 2.14808 22.7193 2.19426 22.7737C2.76691 23.4021 3.53467 23.6496 4.35745 23.7066C4.58223 23.7141 4.80677 23.7146 5.03166 23.7143C5.09721 23.7144 5.16277 23.7146 5.2303 23.7147C5.44872 23.7151 5.66714 23.715 5.88556 23.715C6.04267 23.7151 6.19978 23.7153 6.35689 23.7156C6.73864 23.716 7.12039 23.7162 7.50214 23.7162C7.81268 23.7163 8.12321 23.7164 8.43374 23.7166C9.31559 23.7171 10.1974 23.7173 11.0793 23.7173C11.1505 23.7173 11.1505 23.7173 11.2231 23.7173C11.2706 23.7173 11.3182 23.7173 11.3671 23.7173C12.137 23.7173 12.9069 23.7178 13.6768 23.7186C14.4687 23.7195 15.2607 23.7199 16.0526 23.7198C16.4966 23.7198 16.9407 23.72 17.3847 23.7206C17.7628 23.7211 18.1409 23.7212 18.519 23.7208C18.7116 23.7206 18.9042 23.7207 19.0968 23.7211C20.9037 23.7441 20.9037 23.7441 22.4524 22.8972C22.488 22.867 22.5235 22.8369 22.5601 22.8058C23.2079 22.2154 23.4437 21.4307 23.493 20.5848C23.5012 20.2625 23.5015 19.9403 23.5014 19.6179C23.5016 19.5218 23.5018 19.4256 23.502 19.3294C23.5025 19.0698 23.5026 18.8103 23.5027 18.5507C23.5027 18.3881 23.5029 18.2255 23.503 18.0629C23.5035 17.4945 23.5038 16.9261 23.5037 16.3576C23.5037 15.8297 23.5043 15.3017 23.5052 14.7738C23.506 14.3188 23.5063 13.8639 23.5062 13.4089C23.5062 13.1379 23.5064 12.8669 23.507 12.596C23.5076 12.3409 23.5076 12.0858 23.5072 11.8308C23.5071 11.7378 23.5072 11.6448 23.5076 11.5519C23.5116 10.43 23.4 9.4305 22.6258 8.56C22.3902 8.33042 22.1334 8.12629 21.8743 7.92408C21.8432 7.89972 21.8121 7.87536 21.78 7.85026C21.6255 7.72974 21.4701 7.61043 21.314 7.49185C20.7926 7.09531 20.2815 6.68524 19.7704 6.27548C19.4278 6.00098 19.0827 5.72967 18.7371 5.45893C18.5349 5.30043 18.3329 5.14157 18.1309 4.98278C17.9631 4.85091 17.7952 4.71911 17.6272 4.5875C17.2414 4.28514 16.8576 3.98056 16.4752 3.67395C16.1657 3.42605 15.8544 3.18063 15.5421 2.93626C15.4067 2.83021 15.2719 2.72341 15.1375 2.61604C13.2366 1.10048 11.7228 0.935079 9.79082 2.53204Z" fill="#4A90E2"/>
<path d="M9.35968 19.3622C9.44235 19.3616 9.44235 19.3616 9.52669 19.361C9.58735 19.3608 9.64802 19.3606 9.71052 19.3605C9.77426 19.3601 9.838 19.3597 9.90367 19.3593C10.1153 19.3582 10.327 19.3575 10.5387 19.3569C10.6109 19.3567 10.683 19.3565 10.7574 19.3562C11.0999 19.3552 11.4425 19.3543 11.7851 19.3538C12.1803 19.3533 12.5755 19.3517 12.9707 19.3494C13.3131 19.3474 13.6555 19.3468 13.998 19.3465C14.1436 19.3462 14.2892 19.3456 14.4347 19.3445C14.6385 19.3431 14.8421 19.3432 15.0459 19.3436C15.1061 19.3428 15.1663 19.3421 15.2283 19.3413C15.5725 19.3438 15.7739 19.3707 16.0353 19.602C16.1426 19.8167 16.1269 20.0619 16.0931 20.2957C15.9665 20.459 15.8717 20.5509 15.6884 20.6426C15.6013 20.6484 15.5139 20.6506 15.4266 20.6511C15.344 20.6517 15.344 20.6517 15.2596 20.6523C15.1686 20.6526 15.1686 20.6526 15.0758 20.6528C15.0121 20.6532 14.9483 20.6536 14.8826 20.654C14.671 20.6551 14.4593 20.6558 14.2476 20.6563C14.1755 20.6566 14.1033 20.6568 14.0289 20.6571C13.6864 20.6581 13.3438 20.659 13.0012 20.6595C12.606 20.66 12.2109 20.6616 11.8157 20.6639C11.4732 20.6658 11.1308 20.6665 10.7883 20.6668C10.6427 20.667 10.4972 20.6677 10.3516 20.6688C10.1479 20.6702 9.94418 20.6701 9.74044 20.6697C9.68025 20.6705 9.62005 20.6712 9.55803 20.672C9.21385 20.6695 9.01239 20.6426 8.75104 20.4113C8.64367 20.1966 8.65941 19.9514 8.69323 19.7176C8.89518 19.4572 9.03784 19.3639 9.35968 19.3622Z" fill="#4A90E2"/>
</svg>
