<svg width="22" height="22" viewBox="0 0 22 22" fill="none" xmlns="http://www.w3.org/2000/svg">
<path d="M10.971 0C3.921 0.044 0 4.202 0 10.991C0 17.957 3.823 21.958 10.977 22C18.124 21.958 21.816 18.26 21.948 10.991C21.826 3.949 17.93 0.045 10.971 0ZM10.977 21C4.389 20.961 1.125 17.69 1 11C1.12 4.405 4.477 1.041 10.97 1C15.443 1.029 20.805 2.79 20.947 10.991C20.825 17.687 17.562 20.961 10.976 21H10.977Z" fill="black"/>
<path d="M11.5681 9.78491H10.3801C10.1041 9.78491 9.88013 10.0089 9.88013 10.2849C9.88013 10.5609 10.1041 10.7849 10.3801 10.7849H11.0681V14.9379C11.0681 15.2139 11.2921 15.4379 11.5681 15.4379C11.8441 15.4379 12.0681 15.2139 12.0681 14.9379V10.2849C12.0681 10.0089 11.8441 9.78491 11.5681 9.78491Z" fill="black"/>
<path d="M10.9741 8.06494C11.3883 8.06494 11.7241 7.72915 11.7241 7.31494C11.7241 6.90073 11.3883 6.56494 10.9741 6.56494C10.5599 6.56494 10.2241 6.90073 10.2241 7.31494C10.2241 7.72915 10.5599 8.06494 10.9741 8.06494Z" fill="black"/>
</svg>
