<svg width="25" height="25" viewBox="0 0 25 25" fill="none" xmlns="http://www.w3.org/2000/svg">
<path d="M23.8374 5.91125C23.0827 3.65642 21.2882 1.85847 19.039 1.10042C14.6771 -0.366807 10.2561 -0.366807 5.89534 1.10042C3.64619 1.85847 1.85165 3.65642 1.09701 5.91125C-0.365671 10.2823 -0.365671 14.7135 1.09701 19.0845C1.85165 21.3393 3.64619 23.1373 5.89648 23.8953C8.07516 24.6284 10.2868 25 12.4678 25C16.0102 25 19.6027 24.5318 23.1452 23.6089C23.3452 23.5566 23.4998 23.4009 23.5521 23.202C24.4727 19.6527 24.9398 16.0512 24.9398 12.4996C24.9398 10.3118 24.5693 8.09561 23.8385 5.91352L23.8374 5.91125ZM22.5338 22.5917C19.1902 23.435 15.8045 23.8635 12.4666 23.8635C10.4084 23.8635 8.31951 23.5112 6.25788 22.8179C4.34287 22.1746 2.81655 20.6438 2.17442 18.7242C0.792429 14.593 0.792429 10.4039 2.17442 6.27266C2.81655 4.3531 4.34401 2.82223 6.25788 2.17897C8.31723 1.4857 10.3925 1.13906 12.4666 1.13906C14.5407 1.13906 16.616 1.4857 18.6753 2.17897C20.5904 2.82223 22.1167 4.3531 22.7588 6.27266C23.4498 8.33883 23.801 10.4334 23.801 12.4984C23.801 15.8466 23.3759 19.2413 22.5338 22.5917Z" fill="#4A90E2"/>
<path d="M18.4944 11.929H6.43837C6.12469 11.929 5.87012 12.1835 5.87012 12.4972C5.87012 12.8109 6.12469 13.0655 6.43837 13.0655H18.4933C18.807 13.0655 19.0615 12.8109 19.0615 12.4972C19.0615 12.1835 18.807 11.929 18.4933 11.929H18.4944Z" fill="#4A90E2"/>
<path d="M17.3037 15.5909H7.62978C7.3161 15.5909 7.06152 15.8455 7.06152 16.1592C7.06152 16.4729 7.3161 16.7274 7.62978 16.7274H17.3048C17.6185 16.7274 17.8731 16.4729 17.8731 16.1592C17.8731 15.8455 17.6174 15.5909 17.3037 15.5909Z" fill="#4A90E2"/>
<path d="M7.62978 9.40384H11.087C11.4007 9.40384 11.6553 9.14926 11.6553 8.83559C11.6553 8.52191 11.4007 8.26733 11.087 8.26733H7.62978C7.3161 8.26733 7.06152 8.52191 7.06152 8.83559C7.06152 9.14926 7.3161 9.40384 7.62978 9.40384Z" fill="#4A90E2"/>
</svg>
