<svg width="25" height="25" viewBox="0 0 25 25" fill="none" xmlns="http://www.w3.org/2000/svg">
<path d="M23.9191 6.03562C23.1383 3.71139 21.2858 1.85882 18.9627 1.07915C14.6734 -0.359716 10.3238 -0.359716 6.03562 1.07915C3.71139 1.85882 1.85882 3.71139 1.07915 6.03448C-0.359716 10.3238 -0.359716 14.6722 1.07915 18.9615C1.85882 21.2846 3.71139 23.1383 6.03562 23.918C8.17687 24.6363 10.3511 25 12.4991 25C15.9338 25 19.4139 24.5477 22.8428 23.6555C23.2418 23.552 23.5532 23.2406 23.6566 22.8417C24.5488 19.4127 25.0011 15.9326 25.0011 12.498C25.0011 10.3511 24.6374 8.17687 23.9191 6.03448V6.03562ZM7.88023 6.79142H11.1808C11.8081 6.79142 12.3173 7.30059 12.3173 7.92797C12.3173 8.55534 11.8081 9.06451 11.1808 9.06451H7.88023C7.25286 9.06451 6.74369 8.55534 6.74369 7.92797C6.74369 7.30059 7.25286 6.79142 7.88023 6.79142ZM17.1181 18.2057H7.88023C7.25286 18.2057 6.74369 17.6966 6.74369 17.0692C6.74369 16.4418 7.25286 15.9326 7.88023 15.9326H17.1181C17.7454 15.9326 18.2546 16.4418 18.2546 17.0692C18.2546 17.6966 17.7454 18.2057 17.1181 18.2057ZM18.2546 13.6357H6.74369C6.11631 13.6357 5.60714 13.1265 5.60714 12.4991C5.60714 11.8718 6.11631 11.3626 6.74369 11.3626H18.2546C18.882 11.3626 19.3912 11.8718 19.3912 12.4991C19.3912 13.1265 18.882 13.6357 18.2546 13.6357Z" fill="#4A90E2"/>
</svg>
