<svg width="24" height="24" viewBox="0 0 24 24" fill="none" xmlns="http://www.w3.org/2000/svg">
<path d="M16 23.314C14.748 23.758 13.402 24 12 24C10.598 24 9.252 23.758 8 23.314V21C8 18.794 9.794 17 12 17C14.206 17 16 18.794 16 21V23.314ZM12 7C10.897 7 10 7.897 10 9C10 10.103 10.897 11 12 11C13.103 11 14 10.103 14 9C14 7.897 13.103 7 12 7ZM24 12C24 16.433 21.584 20.311 18 22.389V21C18 17.691 15.309 15 12 15C8.691 15 6 17.691 6 21V22.389C2.416 20.311 0 16.433 0 12C0 5.383 5.383 0 12 0C18.617 0 24 5.383 24 12ZM16 9C16 6.794 14.206 5 12 5C9.794 5 8 6.794 8 9C8 11.206 9.794 13 12 13C14.206 13 16 11.206 16 9Z" fill="#4A90E2"/>
</svg>
