<svg width="20" height="20" viewBox="0 0 20 20" fill="none" xmlns="http://www.w3.org/2000/svg">
<path d="M14.7674 2.5L13.5899 0.973334C13.3554 0.671505 13.0552 0.427014 12.7121 0.258378C12.3691 0.0897429 11.9922 0.00138587 11.6099 0L8.38992 0C8.00767 0.00138587 7.63075 0.0897429 7.2877 0.258378C6.94465 0.427014 6.64448 0.671505 6.40992 0.973334L5.23242 2.5H14.7674Z" fill="black" fill-opacity="0.4"/>
<path d="M10.0003 14.9999C11.8413 14.9999 13.3337 13.5075 13.3337 11.6666C13.3337 9.82564 11.8413 8.33325 10.0003 8.33325C8.15938 8.33325 6.66699 9.82564 6.66699 11.6666C6.66699 13.5075 8.15938 14.9999 10.0003 14.9999Z" fill="black" fill-opacity="0.4"/>
<path d="M15.8333 4.16675H4.16667C3.06201 4.16807 2.00297 4.60748 1.22185 5.3886C0.440735 6.16971 0.00132321 7.22875 0 8.33342L0 15.8334C0.00132321 16.9381 0.440735 17.9971 1.22185 18.7782C2.00297 19.5594 3.06201 19.9988 4.16667 20.0001H15.8333C16.938 19.9988 17.997 19.5594 18.7782 18.7782C19.5593 17.9971 19.9987 16.9381 20 15.8334V8.33342C19.9987 7.22875 19.5593 6.16971 18.7782 5.3886C17.997 4.60748 16.938 4.16807 15.8333 4.16675ZM10 16.6668C9.0111 16.6668 8.0444 16.3735 7.22215 15.8241C6.3999 15.2747 5.75904 14.4938 5.3806 13.5802C5.00217 12.6665 4.90315 11.6612 5.09608 10.6913C5.289 9.72139 5.76521 8.83048 6.46447 8.13122C7.16373 7.43195 8.05465 6.95575 9.02455 6.76282C9.99446 6.5699 10.9998 6.66891 11.9134 7.04735C12.8271 7.42579 13.6079 8.06665 14.1574 8.8889C14.7068 9.71114 15 10.6778 15 11.6668C14.9987 12.9924 14.4715 14.2634 13.5341 15.2008C12.5967 16.1382 11.3257 16.6654 10 16.6668Z" fill="black" fill-opacity="0.4"/>
</svg>
