<svg width="515" height="465" viewBox="0 0 515 465" fill="none" xmlns="http://www.w3.org/2000/svg">
<path d="M152.331 3.60368C154.373 6.12179 154.939 7.71338 155.206 10.9162C156.341 10.8543 157.475 10.7924 158.644 10.7287C170.088 10.7467 181.533 13.744 192.351 17.2443C195.206 17.9161 196.537 18.0438 199.206 16.9162C199.866 16.2562 200.526 15.5962 201.206 14.9162C207.865 13.7198 212.896 15.6453 218.581 18.9162C219.319 19.3255 220.058 19.7349 220.818 20.1567C231.546 26.2194 240.86 33.9568 250.206 41.9162C251.97 39.2703 253.339 36.6849 254.769 33.8537C258.107 27.6975 262.281 22.8586 267.206 17.9162C267.748 17.3516 268.289 16.787 268.847 16.2052C279.152 6.36886 294.118 1.98243 308.019 1.47868C318.937 1.74647 329.709 4.37701 339.093 10.0607C342.736 11.5353 345.397 10.2544 348.89 8.79509C349.799 8.36067 350.707 7.92626 351.644 7.47868C366.398 0.624922 381.638 0.103718 397.206 4.91618C404.707 7.88259 410.684 11.123 416.269 16.9787C419.689 20.2948 419.689 20.2948 424.253 21.0412C426.467 20.6599 428.669 20.2066 430.855 19.6896C444.843 16.4615 461.658 20.0114 473.796 27.5177C476.328 29.2466 478.775 31.0485 481.206 32.9162C481.834 33.3777 482.462 33.8391 483.109 34.3146C495.932 44.3758 502.675 60.2094 505.206 75.9162C506.665 90.1169 504.122 104.733 496.183 116.717C494.943 118.863 494.943 118.863 495.839 120.99C497.251 122.979 498.755 124.669 500.456 126.416C504.877 131.381 507.619 136.825 510.206 142.916C510.721 144.125 510.721 144.125 511.245 145.358C516.329 160.158 514.251 177.954 507.851 191.861C504.749 197.966 500.962 203.006 496.206 207.916C496.688 208.955 497.17 209.994 497.667 211.065C505.294 227.769 508.248 243.898 502.206 261.916C496.38 276.788 486.545 288.499 472.206 295.916C460.308 300.916 460.308 300.916 454.206 300.916C454.18 301.715 454.155 302.515 454.128 303.338C453.302 319.334 447.266 334.921 435.206 345.916C424.952 354.164 412.962 361.139 399.456 360.979C398.471 360.97 397.487 360.961 396.472 360.951C395.724 360.94 394.977 360.928 394.206 360.916C394.299 362.525 394.299 362.525 394.394 364.166C394.276 377.667 387.634 393.447 378.175 403.186C365.531 414.299 351.364 421.774 334.206 420.916C334.289 421.989 334.371 423.061 334.456 424.166C334.38 434.915 329.185 444.059 322.206 451.916C312.648 460.826 301.329 464.456 288.405 464.24C280.68 463.457 273.799 460.918 267.206 456.916C266.546 456.916 265.886 456.916 265.206 456.916C264.608 457.7 264.01 458.484 263.394 459.291C260.17 463.16 257.694 463.754 252.769 464.291C245.45 463.521 240.707 457.702 235.751 452.704C235.03 451.985 234.309 451.266 233.566 450.525C231.193 448.155 228.826 445.778 226.46 443.401C224.804 441.744 223.148 440.087 221.492 438.431C218.023 434.96 214.557 431.487 211.095 428.01C206.67 423.569 202.24 419.135 197.807 414.702C194.386 411.281 190.968 407.858 187.55 404.433C185.918 402.798 184.286 401.163 182.653 399.529C180.363 397.237 178.076 394.942 175.79 392.646C175.124 391.979 174.457 391.313 173.77 390.627C170.649 387.485 167.633 384.3 164.74 380.947C161.042 376.67 157.098 372.681 153.087 368.699C152.307 367.921 151.527 367.143 150.724 366.341C149.044 364.664 147.362 362.988 145.679 361.314C143.011 358.659 140.346 356 137.682 353.341C132.026 347.697 126.367 342.056 120.706 336.416C114.143 329.877 107.582 323.336 101.025 316.79C98.4082 314.181 95.7889 311.574 93.1695 308.967C91.5546 307.356 89.9399 305.744 88.3254 304.133C87.6041 303.417 86.8829 302.701 86.1398 301.963C82.1677 297.991 78.3932 293.911 74.7244 289.658C72.9813 287.658 71.1593 285.767 69.2655 283.91C68.5776 283.231 67.8897 282.553 67.1809 281.854C66.1009 280.796 66.1009 280.796 64.9992 279.717C63.4266 278.162 61.8544 276.607 60.2824 275.051C57.8439 272.643 55.4032 270.238 52.957 267.838C29.2371 244.545 12.3861 219.417 4.20622 186.916C3.93721 185.881 3.93721 185.881 3.66276 184.825C-1.40593 164.384 -1.2038 138.231 4.20622 117.916C4.37783 117.24 4.54943 116.563 4.72624 115.866C13.2095 82.744 31.6962 52.5998 59.2062 31.9162C59.9809 31.3258 60.7557 30.7354 61.5539 30.1271C80.9392 15.9522 128.228 -9.41207 152.331 3.60368Z" fill="#4A90E2"/>
<path d="M328.205 23.9162C328.205 28.6309 326.564 31.4543 324.393 35.4787C321.81 40.3439 319.869 44.553 318.955 50.0412C318.147 53.6423 317.638 54.6193 314.541 56.7443C312.418 57.7671 310.272 58.7423 308.104 59.6662C304.307 61.3036 302.498 62.4775 300.205 65.9162C299.508 69.4598 299.554 72.6142 301.205 75.9162C304.561 77.594 307.62 77.7249 311.205 76.9162C313.427 75.5821 313.427 75.5821 315.58 73.9162C319.685 70.9591 322.604 70.0242 327.659 70.3068C331.581 71.2452 334.55 73.3576 337.881 75.5646C341.179 77.4824 343.492 77.6588 347.205 76.9162C349.769 75.4362 349.769 75.4362 351.205 72.9162C351.834 69.2231 351.638 67.5708 349.565 64.4318C346.893 61.5835 344.481 60.2514 340.955 58.6037C339.878 58.0919 338.8 57.5802 337.69 57.0529C336.46 56.4902 336.46 56.4902 335.205 55.9162C335.364 46.426 339.242 39.3771 345.506 32.3263C355.702 22.5533 366.669 19.3224 380.475 19.5763C391.93 20.1297 401.524 25.7488 409.17 34.049C416.277 42.6735 418.615 50.4451 419.42 61.4631C420.389 65.7218 421.725 67.3254 425.205 69.9162C427.656 70.3078 427.656 70.3078 430.018 69.7287C430.808 69.5908 431.598 69.4528 432.412 69.3107C433.3 69.1154 433.3 69.1154 434.205 68.9162C437.236 59.8244 435.162 50.2383 432.08 41.4631C431.205 38.9162 431.205 38.9162 431.205 36.9162C433.872 36.8616 436.538 36.8222 439.205 36.7912C440.321 36.766 440.321 36.766 441.459 36.7404C453.197 36.6383 464.994 41.0695 473.623 49.174C484.133 60.747 488.329 72.5837 487.702 88.0373C487.079 96.1878 484.357 103.511 479.205 109.916C477.893 109.625 476.58 109.333 475.268 109.041C474.017 108.77 474.017 108.77 472.741 108.494C471.218 108.147 469.702 107.771 468.202 107.338C453.368 103.274 440.014 106.448 426.069 111.725C423.271 112.012 421.635 110.882 419.205 109.541C412.575 105.923 406.76 105.114 399.205 105.916C396.365 107.254 396.365 107.254 395.205 109.916C394.669 113.674 394.63 115.902 396.518 119.229C400.041 121.441 403.322 121.738 407.393 122.377C415.426 123.917 420.616 128.252 425.205 134.916C427.856 139.916 428.755 145.261 429.58 150.815C430.073 153.289 430.073 153.289 433.205 154.916C437.165 155.519 438.729 155.237 442.08 152.979C445.01 148.757 445.035 145.907 444.205 140.916C442.706 135.366 440.891 130.01 438.205 124.916C448.462 120.846 461.523 121.652 471.666 125.662C483.163 131.34 490.834 141.002 495.205 152.916C498.687 163.788 496.16 175.046 491.205 184.916C485.027 196.778 475.238 202.595 462.905 206.678C459.96 207.695 457.533 208.638 455.143 210.666C453.719 214.084 454.245 216.396 455.205 219.916C457.269 221.916 458.514 222.848 461.397 223.131C468.082 222.349 473.983 220.46 480.205 217.916C481.005 219.119 481.795 220.329 482.58 221.541C483.021 222.214 483.462 222.887 483.916 223.58C488.843 232.508 488.604 243.921 486.33 253.666C481.853 266.156 473.612 275.582 461.58 281.291C451.875 285.193 439.57 285.48 429.674 282.01C419.494 277.5 410.592 270.458 406.205 259.916C406.205 258.926 406.205 257.936 406.205 256.916C407.244 256.504 408.283 256.091 409.354 255.666C419.505 251.512 429.923 247.17 435.205 236.916C435.61 233.616 435.495 231.604 434.205 228.541C431.685 226.493 429.601 226.177 426.381 226.33C422.861 227.278 420.786 229.542 418.213 232.033C410.136 239.607 401.76 241.336 390.901 241.166C384.245 240.716 379.541 238.9 374.08 235.166C371.04 233.157 370.26 232.917 366.393 232.854C363.258 233.712 363.258 233.712 361.205 235.416C359.695 239.194 359.848 243.075 361.205 246.916C362.948 248.102 362.948 248.102 365.205 248.916C366.507 249.61 366.507 249.61 367.834 250.319C372.975 253.009 377.403 255.069 383.143 256.041C386.629 256.889 387.819 257.303 389.756 260.377C390.573 262.448 391.336 264.541 392.049 266.651C397.035 280.732 408.363 289.682 421.361 296.118C426.093 298.166 431.138 299.108 436.205 299.916C436.169 312.122 433.395 322.316 424.889 331.397C416.979 338.536 406.291 344.138 395.455 343.979C394.656 343.97 393.857 343.961 393.034 343.951C392.129 343.934 392.129 343.934 391.205 343.916C390.721 342.877 390.236 341.838 389.737 340.768C382.385 325.327 374.016 314.497 358.205 306.916C359.497 303.539 360.984 300.405 362.705 297.229C365.237 292.195 366.548 287.499 367.205 281.916C367.301 281.107 367.396 280.297 367.495 279.463C367.762 275.215 367.572 273.444 365.08 269.854C361.695 267.572 360.202 267.151 356.205 267.916C353.304 270.131 352.316 271.367 351.588 274.983C351.503 276.136 351.418 277.29 351.33 278.479C350.176 288.139 346.275 295.926 339.022 302.49C332.864 307.324 326.524 308.667 318.84 309.614C315.212 310.148 313.403 310.728 310.721 313.287C308.904 315.934 308.904 315.934 309.205 319.541C309.962 322.844 309.962 322.844 311.705 324.854C319.183 328.032 327.825 325.278 335.205 322.916C336.278 322.339 337.35 321.761 338.455 321.166C343.135 319.039 346.96 320.125 351.588 321.756C363.381 326.95 370.392 336.246 375.205 347.916C378.509 357.826 377.044 370.738 372.807 380.053C366.459 391.403 358.01 398.164 345.705 402.354C334.44 405.422 323.438 404.515 313.073 398.725C312.498 398.355 311.923 397.985 311.33 397.604C307.403 395.483 305.445 395.693 301.205 396.916C299.161 397.96 299.161 397.96 298.205 399.916C297.785 403.87 297.931 406.637 300.205 409.916C302.52 411.301 304.712 412.475 307.143 413.604C308.093 414.065 308.093 414.065 309.063 414.535C311.747 415.825 314.378 416.974 317.205 417.916C317.856 425.394 315.398 431.555 311.33 437.791C305.436 443.685 299.1 446.191 290.83 446.291C283.569 446.135 279.304 444.826 274.014 439.858C268.266 433.76 265.959 428.844 265.948 420.349C265.939 418.381 265.939 418.381 265.929 416.373C265.932 414.924 265.935 413.475 265.938 412.025C265.934 410.481 265.93 408.936 265.924 407.391C265.912 403.148 265.912 398.906 265.915 394.663C265.915 390.086 265.904 385.509 265.895 380.932C265.878 371.966 265.872 363 265.871 354.034C265.87 346.745 265.866 339.457 265.86 332.168C265.842 311.503 265.833 290.837 265.835 270.172C265.835 269.058 265.835 267.943 265.835 266.796C265.835 265.68 265.835 264.565 265.835 263.415C265.836 245.339 265.817 227.262 265.789 209.186C265.76 190.624 265.746 172.062 265.748 153.5C265.748 143.08 265.743 132.659 265.721 122.239C265.703 113.366 265.699 104.493 265.712 95.6204C265.719 91.0946 265.719 86.5691 265.702 82.0433C265.686 77.8966 265.689 73.7505 265.706 69.6039C265.709 68.1072 265.706 66.6106 265.695 65.114C265.599 51.4123 268.62 41.7349 278.241 31.8185C291.956 18.8772 311.08 15.631 328.205 23.9162Z" fill="#4A90E2"/>
<path d="M152.331 3.47872C154.82 6.71349 155.206 8.85158 155.206 12.9162C153.571 16.7882 152.028 18.3351 148.206 19.9162C146.094 20.2634 146.094 20.2634 143.82 20.4084C142.972 20.4712 142.125 20.5339 141.252 20.5986C139.899 20.6939 139.899 20.6939 138.519 20.7912C110.625 23.1618 85.2797 33.2972 64.2062 51.9162C63.5037 52.4873 62.8011 53.0583 62.0773 53.6467C56.2978 58.4083 51.7791 64.0126 47.2062 69.9162C46.5475 70.7361 45.8888 71.5559 45.2101 72.4006C35.744 84.6665 28.6427 99.0975 24.2062 113.916C23.9123 114.895 23.6184 115.873 23.3156 116.881C13.9822 150.966 19.0513 187.464 36.2033 218.173C46.5775 236.204 61.3506 250.313 76.0231 264.812C79.3553 268.106 82.682 271.405 86.006 274.707C87.7651 276.454 89.5268 278.199 91.2917 279.94C92.0966 280.738 92.9014 281.536 93.7306 282.359C94.428 283.048 95.1254 283.737 95.844 284.447C97.798 286.49 99.65 288.566 101.496 290.705C105.175 294.938 109.071 298.908 113.05 302.858C113.801 303.607 114.551 304.356 115.324 305.128C116.941 306.74 118.559 308.352 120.178 309.963C122.745 312.517 125.309 315.075 127.872 317.633C133.314 323.064 138.76 328.49 144.206 333.916C150.521 340.208 156.835 346.501 163.144 352.799C165.661 355.309 168.181 357.816 170.7 360.323C172.255 361.873 173.809 363.424 175.362 364.975C176.402 366.007 176.402 366.007 177.463 367.06C178.119 367.715 178.775 368.371 179.45 369.047C180.01 369.604 180.57 370.162 181.146 370.736C182.87 372.561 184.492 374.421 186.119 376.33C191.556 382.572 197.496 388.329 203.359 394.166C204.627 395.433 205.895 396.699 207.162 397.966C210.476 401.276 213.793 404.582 217.11 407.889C220.504 411.272 223.895 414.659 227.286 418.045C233.923 424.672 240.564 431.295 247.206 437.916C247.504 390.62 247.733 343.323 247.87 296.026C247.886 290.44 247.903 284.854 247.92 279.268C247.924 278.155 247.927 277.043 247.931 275.898C247.987 257.9 248.09 239.903 248.209 221.906C248.331 203.433 248.403 184.961 248.429 166.489C248.447 155.093 248.503 143.699 248.609 132.305C248.678 124.486 248.699 116.669 248.682 108.85C248.673 104.342 248.686 99.8353 248.756 95.3269C250.037 75.4488 250.037 75.4488 242.647 58.0229C239.991 55.5978 237.291 53.7745 234.206 51.9162C232.86 50.817 231.524 49.7035 230.218 48.5568C229.12 47.746 228.012 46.9485 226.894 46.1662C226.285 45.7285 225.677 45.2908 225.05 44.8398C219.783 41.1351 214.251 37.9358 208.572 34.9074C204.791 32.886 201.35 30.8493 198.206 27.9162C197.031 23.8768 196.753 21.8649 198.581 18.0412C200.944 14.9515 200.944 14.9515 202.978 14.6779C209.192 14.4745 213.24 15.8432 218.581 18.9162C219.319 19.3256 220.058 19.7349 220.818 20.1567C231.546 26.2194 240.86 33.9568 250.206 41.9162C251.97 39.2703 253.339 36.6849 254.769 33.8537C258.107 27.6976 262.281 22.8587 267.206 17.9162C267.748 17.3516 268.289 16.787 268.847 16.2053C279.152 6.3689 294.118 1.98247 308.019 1.47872C318.937 1.74651 329.709 4.37704 339.093 10.0607C342.736 11.5353 345.397 10.2544 348.89 8.79512C349.799 8.36071 350.707 7.92629 351.644 7.47872C366.398 0.624958 381.638 0.103754 397.206 4.91622C404.707 7.88262 410.684 11.123 416.269 16.9787C419.689 20.2948 419.689 20.2948 424.253 21.0412C426.467 20.6599 428.669 20.2067 430.855 19.6897C444.843 16.4615 461.658 20.0114 473.796 27.5178C476.328 29.2466 478.775 31.0485 481.206 32.9162C481.834 33.3777 482.462 33.8392 483.109 34.3147C495.932 44.3758 502.675 60.2095 505.206 75.9162C506.665 90.1169 504.122 104.733 496.183 116.717C494.942 118.863 494.942 118.863 495.839 120.99C497.251 122.98 498.755 124.669 500.456 126.416C504.877 131.381 507.619 136.825 510.206 142.916C510.721 144.125 510.721 144.125 511.245 145.358C516.329 160.159 514.251 177.954 507.851 191.862C504.749 197.966 500.962 203.006 496.206 207.916C496.688 208.955 497.17 209.994 497.667 211.065C505.294 227.769 508.248 243.898 502.206 261.916C496.38 276.788 486.545 288.499 472.206 295.916C460.308 300.916 460.308 300.916 454.206 300.916C454.18 301.715 454.155 302.515 454.128 303.338C453.302 319.334 447.266 334.921 435.206 345.916C424.952 354.164 412.962 361.14 399.456 360.979C398.471 360.97 397.487 360.961 396.472 360.951C395.724 360.94 394.977 360.928 394.206 360.916C394.299 362.525 394.299 362.525 394.394 364.166C394.276 377.667 387.634 393.448 378.175 403.186C365.531 414.299 351.364 421.774 334.206 420.916C334.289 421.989 334.371 423.061 334.456 424.166C334.38 434.915 329.185 444.059 322.206 451.916C312.648 460.826 301.329 464.456 288.405 464.24C280.68 463.458 273.799 460.918 267.206 456.916C266.546 456.916 265.886 456.916 265.206 456.916C264.608 457.7 264.01 458.484 263.394 459.291C260.17 463.16 257.694 463.754 252.769 464.291C245.45 463.521 240.707 457.702 235.751 452.704C235.03 451.985 234.309 451.266 233.566 450.525C231.193 448.155 228.826 445.778 226.46 443.401C224.804 441.744 223.148 440.087 221.492 438.431C218.023 434.96 214.557 431.487 211.095 428.01C206.67 423.569 202.24 419.135 197.807 414.702C194.386 411.281 190.968 407.858 187.55 404.433C185.918 402.798 184.286 401.163 182.653 399.53C180.363 397.237 178.076 394.942 175.79 392.646C175.124 391.979 174.457 391.313 173.77 390.627C170.649 387.485 167.633 384.3 164.74 380.947C161.042 376.67 157.098 372.681 153.087 368.699C152.307 367.921 151.527 367.143 150.724 366.341C149.044 364.664 147.362 362.989 145.679 361.314C143.011 358.659 140.346 356 137.682 353.341C132.026 347.697 126.367 342.056 120.706 336.416C114.143 329.877 107.582 323.336 101.025 316.79C98.4082 314.181 95.7889 311.574 93.1695 308.967C91.5546 307.356 89.9399 305.745 88.3254 304.133C87.6041 303.417 86.8829 302.701 86.1398 301.963C82.1677 297.991 78.3932 293.912 74.7244 289.658C72.9813 287.658 71.1593 285.767 69.2655 283.91C68.5776 283.231 67.8897 282.553 67.1809 281.855C66.1009 280.796 66.1009 280.796 64.9992 279.717C63.4266 278.162 61.8544 276.607 60.2824 275.051C57.8439 272.643 55.4032 270.238 52.957 267.838C29.2371 244.545 12.3861 219.417 4.20622 186.916C3.93721 185.881 3.93721 185.881 3.66276 184.825C-1.40593 164.384 -1.2038 138.231 4.20622 117.916C4.37783 117.24 4.54943 116.563 4.72624 115.866C13.2095 82.744 31.6962 52.5998 59.2062 31.9162C59.9809 31.3258 60.7557 30.7354 61.5539 30.1272C81.3661 15.6401 127.554 -8.91005 152.331 3.47872ZM280.206 29.9162C279.23 30.7032 279.23 30.7032 278.234 31.5061C272.213 36.9177 268.74 44.315 266.206 51.9162C266.11 53.9813 266.075 56.0494 266.072 58.1167C266.068 59.4234 266.063 60.7301 266.059 62.0764C266.059 63.5352 266.059 64.994 266.059 66.4529C266.056 67.9958 266.052 69.5388 266.048 71.0818C266.038 75.3332 266.034 79.5846 266.032 83.8361C266.028 88.417 266.018 92.998 266.009 97.5789C265.99 108.648 265.979 119.717 265.971 130.786C265.966 135.997 265.961 141.208 265.956 146.419C265.939 163.738 265.924 181.058 265.917 198.378C265.915 202.874 265.913 207.37 265.911 211.865C265.911 212.983 265.91 214.1 265.91 215.252C265.901 233.355 265.876 251.458 265.843 269.561C265.81 288.142 265.792 306.723 265.789 325.304C265.787 335.739 265.778 346.173 265.753 356.608C265.731 365.494 265.723 374.381 265.733 383.267C265.737 387.801 265.735 392.334 265.716 396.868C265.698 401.021 265.699 405.173 265.715 409.326C265.717 410.826 265.713 412.326 265.701 413.826C265.631 423.222 266.072 431.072 272.39 438.475C273.134 439.095 273.877 439.715 274.644 440.354C275.385 440.992 276.126 441.63 276.89 442.287C283.218 446.737 289.703 446.645 297.206 445.916C300.498 444.982 303.279 443.675 306.206 441.916C307.567 441.112 307.567 441.112 308.956 440.291C314.848 434.072 317.365 426.312 317.206 417.916C316.398 417.59 315.59 417.264 314.757 416.928C313.688 416.491 312.62 416.054 311.519 415.604C310.463 415.174 309.407 414.745 308.319 414.303C301.032 411.057 301.032 411.057 298.894 408.104C297.957 405.124 297.753 403.022 298.206 399.916C300.269 397.479 300.269 397.479 303.206 395.916C308.821 395.806 312.897 398.183 317.737 400.705C327.854 405.667 338.548 404.791 348.999 401.233C360.9 396.348 368.875 388.698 374.206 376.979C377.764 366.742 378.049 354.574 374.269 344.354C369.308 334.335 360.476 325.43 350.144 320.979C343.345 318.761 337.827 321.385 331.55 323.994C328.731 325.103 326.226 325.659 323.206 325.916C322.123 326.028 322.123 326.028 321.019 326.143C316.727 326.411 314.762 326.283 311.081 323.854C309.206 320.916 309.206 320.916 309.206 317.291C310.524 312.843 310.524 312.843 313.206 310.916C315.772 310.345 318.238 309.907 320.831 309.541C332.305 307.614 339.155 303.349 346.206 293.916C350.323 288.077 350.905 282.113 351.519 275.088C352.311 271.434 353.26 270.157 356.206 267.916C360.203 267.151 361.696 267.572 365.081 269.854C368.556 274.862 367.697 278.965 366.73 284.78C365.297 291.434 362.891 296.897 359.413 302.737C358.045 304.793 358.045 304.793 358.206 306.916C359.024 307.336 359.024 307.336 359.859 307.764C375.547 316.104 384.497 327.603 391.206 343.916C402.057 344.64 411.44 341.234 420.206 334.916C421.052 334.359 421.897 333.802 422.769 333.229C432.845 323.669 435.663 313.41 436.206 299.916C435.395 299.769 434.585 299.622 433.749 299.471C417.926 296.266 405.171 288.167 395.964 274.803C392.708 269.455 390.184 263.851 388.206 257.916C385.291 256.872 385.291 256.872 381.769 256.104C375.881 254.554 371.252 252.543 366.194 249.186C364.135 247.757 364.135 247.757 361.206 246.916C360.54 243.888 360.097 241.022 360.206 237.916C362.206 234.791 362.206 234.791 365.206 232.916C371.069 232.571 375.068 235.413 379.777 238.541C386.788 242.509 397.489 242.063 405.163 240.197C411.613 237.74 417.117 234.327 421.644 229.104C424.327 226.813 424.981 226.525 428.331 226.354C432.206 226.916 432.206 226.916 434.206 228.541C435.566 231.772 435.812 233.419 435.206 236.916C429.644 248.018 417.167 252.765 406.206 256.916C406.976 261.481 408.446 264.159 411.206 267.916C411.887 268.886 412.567 269.855 413.269 270.854C419.192 277.758 428.289 282.48 437.206 283.916C451.204 284.976 463.015 282.316 473.956 273.229C478.449 269.006 481.49 264.427 484.206 258.916C484.547 258.255 484.887 257.594 485.237 256.912C489.285 247.338 488.68 234.4 484.894 224.916C483.241 221.344 482.541 220.14 479.206 217.916C476.981 218.531 476.981 218.531 474.644 219.729C469.577 221.892 464.775 223.477 459.206 222.916C456.019 220.916 456.019 220.916 454.206 217.916C454.206 214.52 454.321 212.154 456.331 209.342C459.059 207.268 461.92 206.661 465.206 205.729C475.753 202.464 484.598 196.641 490.206 186.916C495.719 176.116 498.183 165.919 495.523 153.803C491.734 142.687 484.756 132.587 474.206 127.104C467.219 123.736 460.806 122.59 453.144 122.666C452.367 122.658 451.59 122.651 450.79 122.643C446.206 122.658 442.52 123.177 438.206 124.916C438.556 125.736 438.905 126.556 439.265 127.401C439.72 128.478 440.175 129.556 440.644 130.666C441.322 132.267 441.322 132.267 442.015 133.901C444.107 139.196 445.097 144.227 444.206 149.916C441.748 153.458 440.393 154.698 436.144 155.479C433.206 154.916 433.206 154.916 430.956 153.604C428.663 150.082 428.39 146.837 427.745 142.729C426.206 134.696 421.87 129.505 415.206 124.916C410.206 122.266 404.862 121.367 399.308 120.541C397.206 119.916 397.206 119.916 395.206 116.916C394.799 113.184 394.723 110.814 396.519 107.479C400.982 104.884 405.183 105.17 410.206 105.916C413.686 107.014 417.003 108.294 420.359 109.725C424.732 111.75 424.732 111.75 429.284 111.209C430.001 110.844 430.718 110.48 431.456 110.104C438.254 106.668 444.938 105.547 452.456 105.604C453.56 105.607 453.56 105.607 454.686 105.61C460.226 105.711 465.27 106.568 470.593 108.162C473.445 108.985 476.273 109.474 479.206 109.916C479.99 108.779 480.757 107.631 481.519 106.479C481.948 105.841 482.377 105.203 482.819 104.545C486.493 97.5804 487.767 90.9321 487.706 83.1037C487.7 82.2279 487.693 81.352 487.687 80.4497C487.48 73.0884 486.028 67.2833 482.206 60.9162C481.352 59.4873 481.352 59.4873 480.48 58.0295C473.769 47.908 463.516 39.9582 451.499 37.3225C447.42 36.8193 443.435 36.8085 439.331 36.8537C438.547 36.8582 437.764 36.8627 436.956 36.8674C435.04 36.8791 433.123 36.897 431.206 36.9162C431.684 38.8541 432.163 40.7915 432.644 42.7287C432.911 43.8077 433.177 44.8866 433.452 45.9982C433.967 47.9903 434.556 49.9643 435.206 51.9162C435.301 54.248 435.336 56.5825 435.331 58.9162C435.334 60.1537 435.336 61.3912 435.339 62.6662C435.206 65.9162 435.206 65.9162 434.206 68.9162C432.818 69.2218 431.419 69.4842 430.019 69.7287C429.241 69.8795 428.464 70.0304 427.663 70.1857C425.206 69.9162 425.206 69.9162 422.464 67.8693C419.746 64.3138 419.534 62.2817 419.269 57.8537C418.178 46.2317 412.891 36.6906 404.206 28.9162C401.015 26.5655 397.759 24.6671 394.206 22.9162C393.545 22.5759 392.884 22.2356 392.202 21.885C382.873 17.9415 369.953 18.3623 360.644 21.9787C349.148 27.6472 341.09 36.0021 335.835 47.6779C335.048 50.4796 335.103 53.0211 335.206 55.9162C336.026 56.2913 336.846 56.6664 337.691 57.0529C338.768 57.5647 339.846 58.0764 340.956 58.6037C342.024 59.1026 343.091 59.6014 344.191 60.1154C347.419 62.0433 349.144 63.7932 351.206 66.9162C351.804 70.5794 351.69 72.1808 349.644 75.2912C346.117 77.642 344.407 77.5937 340.206 76.9162C338.572 75.966 336.97 74.9602 335.394 73.9162C330.294 70.6408 326.185 69.6771 320.206 70.9162C316.784 72.6403 316.784 72.6403 314.206 74.9162C310.385 77.4639 307.681 77.4849 303.206 76.9162C301.206 75.9162 301.206 75.9162 300.206 73.9162C299.598 70.6012 299.321 69.0437 300.206 65.9162C303.626 61.4294 307.55 59.0297 312.894 57.4787C315.266 56.6789 315.266 56.6789 317.206 54.9162C318.882 51.0202 319.95 47.1478 321.011 43.0529C322.275 38.2954 324.494 34.3286 327.069 30.1506C328.508 27.7398 328.508 27.7398 328.206 23.9162C311.75 15.9545 294.188 18.6226 280.206 29.9162Z" fill="black"/>
<path d="M152.206 36.9162C155.681 39.7112 157.027 41.0031 157.894 45.4162C157.191 48.9921 156.465 50.8375 153.472 52.9982C149.298 54.6895 144.855 54.4611 140.402 54.631C115.258 55.9442 93.4553 69.8405 76.5814 87.6662C68.2318 97.2085 62.7167 108.139 58.2064 119.916C57.7288 121.14 57.7288 121.14 57.2416 122.389C55.0971 128.609 54.5281 134.971 54.0277 141.497C53.6135 146.239 52.802 149.798 50.2064 153.916C46.4414 156.426 44.6635 156.531 40.2064 155.916C37.5024 153.787 36.5045 152.942 35.2064 149.916C34.3392 142.403 35.6269 135.042 37.2689 127.729C37.4901 126.731 37.7112 125.734 37.9391 124.706C40.0122 115.874 43.1124 107.985 47.2064 99.9162C47.6782 98.9378 48.15 97.9594 48.6361 96.9513C61.6589 71.3104 84.2631 53.9276 110.206 42.9162C111.415 42.3941 111.415 42.3941 112.648 41.8615C123.922 37.5814 140.358 34.6734 152.206 36.9162Z" fill="white" fill-opacity="0.5"/>
<path d="M356.331 140.291C359.007 142.61 359.176 143.65 359.581 147.229C359.206 150.916 359.206 150.916 357.101 153.58C353.697 156.327 351.831 156.636 347.519 156.979C334.864 158.432 325.58 163.371 317.394 173.229C311.57 181.236 309.77 188.921 308.991 198.717C307.999 202.76 306.431 204.346 303.206 206.916C299.644 207.479 299.644 207.479 296.206 206.916C293.841 205.049 292.546 203.596 291.206 200.916C289.774 188.24 294.024 175.296 301.206 164.916C312.737 150.498 336.369 131.508 356.331 140.291Z" fill="black"/>
<path d="M52.2059 173.916C56.7624 176.954 57.9708 181.816 59.2059 186.916C59.7283 190.797 59.5468 192.303 57.6434 195.729C54.4359 198.607 52.491 198.991 48.2059 198.916C43.8624 196.896 42.5504 193.87 40.8309 189.604C39.3301 185.009 38.5751 181.617 40.2059 176.916C43.9556 172.505 46.7624 172.333 52.2059 173.916Z" fill="white" fill-opacity="0.5"/>
</svg>
