<svg width="18" height="17" viewBox="0 0 18 17" fill="none" xmlns="http://www.w3.org/2000/svg">
<path d="M12.1653 3.37061C10.7437 3.37061 10.0518 4.06335 10.0518 5.48818C10.0518 6.91301 10.7429 7.60656 12.1653 7.60656C13.5877 7.60656 14.2797 6.91381 14.2797 5.48818C14.2797 4.06255 13.5885 3.37061 12.1653 3.37061ZM12.1653 6.80384C11.3152 6.80384 10.8545 6.59433 10.8545 5.48818C10.8545 4.38203 11.3152 4.17333 12.1653 4.17333C13.0154 4.17333 13.477 4.38284 13.477 5.48818C13.477 6.59353 13.0162 6.80384 12.1653 6.80384Z" fill="black"/>
<path d="M16.6717 1.2113C16.6299 1.08126 16.5256 0.980924 16.3939 0.945604C16.2511 0.907073 12.854 0 8.82992 0C4.80588 0 1.40958 0.907073 1.26669 0.945604C1.13424 0.980924 1.02989 1.08207 0.988148 1.21291C0.948012 1.34134 0 4.40211 0 8.5C0 12.6324 0.948012 15.6611 0.988148 15.7879C1.02989 15.9179 1.13424 16.0183 1.26589 16.0536C1.40877 16.0921 4.80588 17 8.82992 17C12.854 17 16.2503 16.0929 16.3939 16.0536C16.5256 16.0183 16.6307 15.9171 16.6717 15.7871C16.7126 15.6587 17.6598 12.5979 17.6598 8.5C17.6598 4.3668 16.711 1.33813 16.6717 1.2113ZM1.69133 15.3336C1.5926 14.9812 1.39031 14.2041 1.20408 13.1277C3.25021 10.1865 5.92006 8.74403 6.52049 8.44461C7.16748 8.62763 10.1207 9.58046 13.0972 12.4919C14.1672 13.5387 15.0341 14.6296 15.6257 15.4138C14.4995 15.6691 11.8064 16.1973 8.82992 16.1973C5.48017 16.1973 2.50127 15.531 1.69133 15.3336ZM16.1202 14.7387C15.519 13.9521 14.6801 12.9182 13.6583 11.918C10.1335 8.4719 6.71314 7.66035 6.56946 7.62744C6.48598 7.60898 6.39687 7.61701 6.3174 7.65152C6.19057 7.70772 3.39149 8.97601 1.0339 12.0047C0.900652 10.9852 0.801917 9.79479 0.801917 8.5C0.801917 5.13018 1.48102 2.42421 1.69133 1.66564C2.50288 1.46817 5.48338 0.80272 8.82911 0.80272C12.1748 0.80272 15.1578 1.46898 15.9677 1.66564C16.1788 2.41779 16.8563 5.09727 16.8563 8.5C16.8563 11.2598 16.4012 13.5748 16.1202 14.7387Z" fill="black"/>
</svg>
