<svg width="18" height="18" viewBox="0 0 18 18" fill="none" xmlns="http://www.w3.org/2000/svg">
<path d="M17.7754 6.74631C17.5741 6.64403 17.3278 6.72586 17.2263 6.92795C17.2124 6.95496 15.8296 9.66651 12.7744 12.7225C10.0866 15.4104 7.58779 16.8619 7.03632 17.1671C3.55973 16.6369 1.36284 14.4408 0.833452 10.9658C1.13865 10.4144 2.59015 7.91635 5.2788 5.22935C7.98544 2.5227 10.4221 1.12929 10.9621 0.836365C13.1917 1.18738 14.4861 2.48097 14.8134 4.6836C14.5213 5.2228 13.1181 7.67007 10.4196 10.3685C8.4461 12.3412 6.89149 13.0433 6.37602 13.2372C5.62408 12.6481 5.37371 12.392 4.77723 11.6065C4.97033 11.0935 5.67236 9.53723 7.64834 7.56043C8.50664 6.70295 9.41731 5.89701 10.355 5.16553C10.5334 5.02725 10.5653 4.76951 10.4262 4.59114C10.2863 4.41195 10.031 4.38086 9.85179 4.52077C8.88793 5.27189 7.95271 6.09992 7.07068 6.98196C4.47695 9.57569 3.94757 11.496 3.92548 11.5762C3.89193 11.7022 3.9222 11.8348 4.00075 11.9346C4.78705 12.9803 5.03824 13.2347 6.04874 14.0178C6.14938 14.0963 6.28193 14.1217 6.40466 14.0898C6.48484 14.0685 8.40519 13.5399 10.9997 10.9454C14.1425 7.80262 15.5457 5.05589 15.6038 4.94052C15.6406 4.8677 15.6545 4.78506 15.6447 4.70324C15.2994 2.0465 13.6319 0.377348 10.9482 0.00424352C10.8655 -0.00802966 10.7829 0.00669824 10.7076 0.0435178C10.5931 0.100793 7.85862 1.49175 4.70196 4.6476C1.57148 7.77808 0.106061 10.5854 0.0455136 10.7032C0.00705761 10.7776 -0.00767021 10.8636 0.00378476 10.947C0.55035 14.8793 3.12117 17.4485 7.05432 17.9959C7.07314 17.9984 7.09196 18 7.11077 18C7.17541 18 7.24005 17.9845 7.29815 17.9542C7.41597 17.8936 10.2233 16.4282 13.3513 13.3002C16.5071 10.1443 17.8981 7.40988 17.9562 7.29451C18.0568 7.09241 17.975 6.84695 17.7737 6.74549L17.7754 6.74631Z" fill="black"/>
</svg>
