<svg width="18" height="18" viewBox="0 0 18 18" fill="none" xmlns="http://www.w3.org/2000/svg">
<path d="M9 18C4.03725 18 0 13.9628 0 9C0 4.03725 4.03725 0 9 0C13.9628 0 18 4.03725 18 9C18 13.9628 13.9628 18 9 18ZM9 0.75C4.45125 0.75 0.75 4.45125 0.75 9C0.75 13.5487 4.45125 17.25 9 17.25C13.5487 17.25 17.25 13.5487 17.25 9C17.25 4.45125 13.5487 0.75 9 0.75ZM9 14.25C6.71175 14.25 4.803 12.8595 3.927 11.4825C3.67875 11.0918 3.69 10.6125 3.95625 10.2315C4.221 9.85275 4.6635 9.67725 5.11275 9.777C5.32875 9.82425 5.57325 9.894 5.8485 9.9735C6.6195 10.1955 7.6755 10.5 8.99625 10.5C10.3193 10.5 11.3783 10.1947 12.1508 9.97275C12.426 9.894 12.6705 9.8235 12.885 9.777C13.338 9.6765 13.7782 9.85275 14.0422 10.2315C14.3085 10.6125 14.3197 11.0918 14.0715 11.4825C13.1955 12.8595 11.2867 14.25 8.9985 14.25H9ZM4.86825 10.5C4.698 10.5 4.6005 10.62 4.57125 10.6613C4.5375 10.71 4.4355 10.884 4.56 11.0798C5.32575 12.2843 6.996 13.5 9 13.5C11.004 13.5 12.6735 12.2843 13.44 11.0798C13.5645 10.884 13.4625 10.71 13.4288 10.6613C13.395 10.6132 13.269 10.4625 13.0463 10.509C12.8453 10.5533 12.6165 10.6193 12.3585 10.6935C11.5425 10.9275 10.425 11.2493 8.997 11.25C7.5705 11.25 6.45525 10.9283 5.6415 10.6943C5.3835 10.62 5.15475 10.5533 4.95225 10.509C4.923 10.5022 4.8945 10.5 4.86825 10.5ZM6.75 7.5C6.75 7.914 6.414 8.25 6 8.25C5.586 8.25 5.25 7.914 5.25 7.5C5.25 7.086 5.586 6.75 6 6.75C6.414 6.75 6.75 7.086 6.75 7.5ZM12 6.75C11.586 6.75 11.25 7.086 11.25 7.5C11.25 7.914 11.586 8.25 12 8.25C12.414 8.25 12.75 7.914 12.75 7.5C12.75 7.086 12.414 6.75 12 6.75Z" fill="black"/>
</svg>
