<svg width="15" height="16" viewBox="0 0 15 16" fill="none" xmlns="http://www.w3.org/2000/svg">
<path d="M7.5 15.8641C3.36437 15.8641 0 12.4908 0 8.34426C0 4.19769 3.36437 0.824402 7.5 0.824402C11.6356 0.824402 15 4.19769 15 8.34426C15 12.4908 11.6356 15.8641 7.5 15.8641ZM7.5 1.45106C3.70937 1.45106 0.625 4.5436 0.625 8.34426C0.625 12.1449 3.70937 15.2375 7.5 15.2375C11.2906 15.2375 14.375 12.1449 14.375 8.34426C14.375 4.5436 11.2906 1.45106 7.5 1.45106ZM9.25 11.4149C9.38813 11.3108 9.41625 11.1147 9.31312 10.9762L7.50063 8.55294V4.271C7.50063 4.09805 7.36063 3.95768 7.18813 3.95768C7.01563 3.95768 6.87563 4.09805 6.87563 4.271V8.65759C6.87563 8.72527 6.8975 8.79107 6.93812 8.84558L8.81312 11.3522C8.875 11.4343 8.96875 11.4775 9.06313 11.4775C9.12813 11.4775 9.19375 11.4569 9.25 11.4149Z" fill="black" fill-opacity="0.5"/>
</svg>
