<svg width="247" height="280" viewBox="0 0 247 280" fill="none" xmlns="http://www.w3.org/2000/svg">
<rect width="247" height="280" rx="30" fill="url(#paint0_linear_1326_194)"/>
<path d="M216.547 130.164C206.121 139.224 198.993 150.929 185.188 155.314C165.557 161.552 135.312 156.032 126.741 135.251C122.817 125.731 118.892 117.757 107.784 115.821C99.238 114.334 90.7796 117.801 84.927 124.055C77.3546 132.144 72.5122 144.776 60.0894 146.512C33.0591 150.288 42.3071 98.3435 30.4094 86.5059C26.5851 82.6977 22.3398 81.5632 18.0586 82.1525C16.0703 89.6086 15 97.4375 15 105.519V146.347C25.2622 151.947 44.8285 162.302 54.353 165.232C74.3602 171.389 93.4174 152.681 103.082 144.062C114.114 134.225 114.912 144.972 113.853 147.898C111.769 153.667 99.306 166.41 99.306 166.41C93.289 173.75 106.289 175.43 110.029 175.386C119.566 175.282 137.633 170.76 146.969 168.792C155.904 166.908 154.273 176.368 151.415 177.378C142.956 180.369 125.739 184.293 116.587 186.045C106.109 188.053 113.509 190.507 115.132 190.43C134.706 189.472 140.583 188.466 149.37 187.256C164.956 185.115 158.642 195.092 154.926 196.331C140.054 201.282 116.146 203.21 116.146 203.21C110.775 203.198 111.601 205.643 112.667 205.683C129.952 206.293 138.278 206.385 146.52 204.986C159.4 202.797 154.144 209.78 154.144 209.78C145.654 219.393 113 217.845 113 217.845C113 217.845 127.174 221.389 131.62 223.333C134.61 224.644 134.975 226.661 134.747 228.144C134.578 229.226 133.496 229.92 132.422 229.691C132.422 229.691 112.306 224.841 105.479 223.919C86.9875 221.429 63.629 213.003 52.3808 209.127C43.8704 206.192 30.1368 197.53 19.8506 190.591C27.7516 211.744 44.6882 228.489 65.9661 236.137C66.2988 242.455 63.176 252.508 45.1691 262.935C45.1691 262.935 75.7151 275.033 101.763 240.663H138.226C189.822 240.663 231.648 198.836 231.648 147.241V121.838C225.727 123.879 220.315 126.889 216.547 130.164ZM168.816 219.164C167.072 220.884 164.262 220.864 162.543 219.12C160.823 217.372 160.843 214.566 162.587 212.847C164.33 211.127 167.141 211.147 168.86 212.891C170.584 214.639 170.564 217.445 168.816 219.164ZM174.845 200.039C173.731 201.137 171.935 201.125 170.836 200.011C169.738 198.897 169.75 197.101 170.865 196.002C171.979 194.9 173.775 194.916 174.873 196.03C175.976 197.145 175.96 198.941 174.845 200.039ZM174.039 169.325C177.162 166.246 182.193 166.278 185.272 169.405C188.354 172.528 188.318 177.559 185.192 180.637C182.069 183.716 177.038 183.684 173.955 180.557C170.877 177.434 170.913 172.403 174.039 169.325ZM196.781 210.546C193.906 213.38 189.268 213.352 186.434 210.47C183.596 207.591 183.628 202.957 186.506 200.119C189.385 197.285 194.019 197.317 196.857 200.195C199.695 203.078 199.659 207.712 196.781 210.546ZM205.624 165.717C203.904 163.973 203.924 161.163 205.672 159.447C207.415 157.728 210.226 157.748 211.941 159.496C213.661 161.239 213.641 164.049 211.897 165.765C210.149 167.481 207.343 167.461 205.624 165.717ZM209.171 184.946C208.057 186.045 206.261 186.033 205.163 184.918C204.064 183.804 204.076 182.008 205.191 180.91C206.305 179.811 208.101 179.823 209.199 180.942C210.302 182.052 210.286 183.844 209.171 184.946Z" fill="#E8E8E8"/>
<path d="M226.164 67.1967C222.051 72.1874 217.943 76.6932 214.587 79.395C206.129 86.1977 188.683 100.645 173.583 108.494C168.007 111.392 152.241 121.771 152.241 121.771C151.391 122.3 150.248 122.039 149.767 121.161C149.11 119.963 148.801 118.115 150.966 116.066C154.181 113.024 165.249 105.604 165.249 105.604C165.249 105.604 137.701 117.016 127.443 111.392C127.443 111.392 120.773 107.023 132.506 104.922C140.014 103.579 147.13 100.925 161.777 95.0648C162.679 94.704 162.635 92.347 158.029 94.0186C158.029 94.0186 136.912 99.7469 122.621 100.092C119.049 100.176 110.547 93.5616 124.585 90.5871C132.498 88.9115 137.854 87.9575 154.951 82.7342C156.37 82.3013 161.966 77.9038 152.349 79.4191C143.951 80.742 127.964 82.6902 119.779 82.7383C117.013 82.7543 112.691 75.1377 120.941 73.9953C129.56 72.8007 146.464 71.1011 154.682 68.2469C157.905 67.1285 168.544 61.6728 161.112 57.2312C161.112 57.2312 146.48 50.1438 142.905 45.8345C141.093 43.6498 138.459 34.1814 150.966 39.2162C161.926 43.6297 184.061 53.7998 199.33 42.335C201.106 41.0041 203.263 39.096 205.608 36.8712C191.036 23.3059 171.506 15 150.028 15H105.528C65.0364 15 30.7664 41.5853 19.1895 78.2485C31.9931 77.2463 37.481 86.346 39.8301 97.7426C41.7703 107.151 43.5421 116.599 45.5825 125.988C47.8594 136.458 54.0087 146.985 66.2151 139.332C73.8315 134.558 77.1587 124.917 83.7689 118.964C88.2186 114.96 93.8186 112.158 99.7675 111.284C110.807 109.66 122.003 114.908 127.271 124.833C131.688 133.155 132.731 141.124 141.682 146.279C149.423 150.741 159.316 152.733 168.139 153.026C178.285 153.363 188.174 150.925 196.127 144.391C201.752 139.769 206.149 133.877 211.412 128.882C216.431 124.12 223.767 119.935 231.644 117.413V96.6202C231.648 86.2378 229.692 76.3244 226.164 67.1967ZM126.525 52.7736C128.273 52.7936 129.672 54.2287 129.648 55.9725C129.624 57.7203 128.193 59.1152 126.445 59.0952C124.701 59.0752 123.302 57.64 123.326 55.8922C123.346 54.1485 124.781 52.7495 126.525 52.7736ZM40.9083 64.13C39.1606 64.1099 37.7656 62.675 37.7856 60.9312C37.8097 59.1834 39.2408 57.7883 40.9886 57.8084C42.7364 57.8284 44.1313 59.2635 44.1113 61.0113C44.0872 62.7551 42.6561 64.154 40.9083 64.13ZM74.9138 33.2113C79.1429 33.524 82.3178 37.2079 82.0011 41.4371C81.6884 45.6662 78.0045 48.841 73.7753 48.5283C69.5462 48.2156 66.3714 44.5278 66.6841 40.2986C66.9968 36.0735 70.6806 32.8986 74.9138 33.2113ZM54.2211 43.1127C57.2236 43.3372 59.4804 45.9549 59.2559 48.9573C59.0315 51.9598 56.4179 54.2166 53.4114 53.9921C50.4049 53.7677 48.152 51.15 48.3765 48.1475C48.601 45.145 51.2146 42.8882 54.2211 43.1127ZM89.8981 85.6284C89.0082 97.5822 78.6018 106.554 66.648 105.66C54.6942 104.774 45.7228 94.3633 46.6127 82.4135C47.5026 70.4597 57.9091 61.4884 69.8629 62.3783C81.8127 63.2682 90.7841 73.6746 89.8981 85.6284ZM89.4733 37.1157C90.0305 29.5955 96.5846 23.9473 104.105 24.5045C111.629 25.0617 117.269 31.6159 116.712 39.1401C116.155 46.6644 109.601 52.3045 102.08 51.7473C94.5602 51.1861 88.9161 44.636 89.4733 37.1157ZM103.616 77.2063C98.621 76.8375 94.8729 72.4881 95.2458 67.4933C95.6145 62.5026 99.9638 58.7504 104.959 59.1232C109.953 59.492 113.702 63.8454 113.329 68.8362C112.96 73.831 108.611 77.5751 103.616 77.2063Z" fill="#E8E8E8"/>
<ellipse cx="93.1679" cy="47.0694" rx="46.0995" ry="28.0606" fill="#E8E8E8"/>
<ellipse cx="71.1225" cy="67.1123" rx="44.0952" ry="28.0606" fill="#E8E8E8"/>
<ellipse cx="77.1341" cy="83.1475" rx="34.0736" ry="28.0606" fill="#E8E8E8"/>
<ellipse cx="205.41" cy="175.346" rx="18.0389" ry="28.0606" fill="#E8E8E8"/>
<ellipse cx="185.369" cy="191.38" rx="18.0389" ry="28.0606" fill="#E8E8E8"/>
<ellipse cx="181.359" cy="191.38" rx="18.0389" ry="28.0606" fill="#E8E8E8"/>
<ellipse cx="173.342" cy="213.428" rx="18.0389" ry="14.0303" fill="#E8E8E8"/>
<defs>
<linearGradient id="paint0_linear_1326_194" x1="123.5" y1="0" x2="123.5" y2="305.667" gradientUnits="userSpaceOnUse">
<stop offset="0.1" stop-color="#2C86EE"/>
<stop offset="1" stop-color="#2D5B90"/>
</linearGradient>
</defs>
</svg>
