<svg width="28" height="28" viewBox="0 0 28 28" fill="none" xmlns="http://www.w3.org/2000/svg">
<path d="M8.73135 0.0121899C8.7753 0.0119188 8.81924 0.0116477 8.86452 0.0113684C9.00963 0.0105719 9.15474 0.010199 9.29985 0.00989691C9.4007 0.00958281 9.50155 0.00926841 9.60239 0.00895372C9.81366 0.00838046 10.0249 0.00806096 10.2362 0.00787054C10.5072 0.00757035 10.7783 0.00625656 11.0493 0.00470495C11.2575 0.00368963 11.4657 0.00340369 11.6739 0.00331994C11.7738 0.00315438 11.8738 0.00271499 11.9737 0.0019993C12.1133 0.00107098 12.2528 0.00116953 12.3923 0.00152478C12.4338 0.0010216 12.4752 0.000518425 12.5179 0C12.794 0.00220845 12.794 0.00220845 12.9285 0.090462C12.9806 0.184805 12.9806 0.184805 12.9806 0.403227C13.3281 0.403227 13.6756 0.403227 14.0337 0.403227C14.0511 0.313128 14.0684 0.223029 14.0863 0.1302C14.2197 -0.008147 14.3043 0.00745913 14.4863 0.00558087C14.5274 0.00571615 14.5686 0.00585143 14.6109 0.00599081C14.6759 0.00557218 14.6759 0.00557218 14.7423 0.0051451C14.8862 0.00438345 15.0301 0.00443883 15.174 0.00456435C15.2741 0.00435211 15.3742 0.00411541 15.4743 0.00385528C15.6847 0.00344708 15.895 0.00346412 16.1054 0.00375113C16.3739 0.00406608 16.6424 0.00314696 16.9109 0.00187572C17.118 0.00106753 17.3251 0.00102388 17.5322 0.00119368C17.6311 0.00116578 17.73 0.000882065 17.8289 0.000330265C18.7397 -0.00412322 19.4655 0.135293 20.1596 0.803383C20.4576 1.11464 20.4576 1.11464 20.4576 1.27692C20.5414 1.27619 20.5414 1.27619 20.6269 1.27545C21.156 1.271 21.685 1.26773 22.214 1.2656C22.486 1.26446 22.7579 1.26293 23.0298 1.26044C23.2927 1.25805 23.5556 1.25675 23.8185 1.25619C23.9183 1.25579 24.0181 1.25501 24.1179 1.25382C24.9907 1.24386 25.6832 1.33575 26.353 1.97634C26.7196 2.37562 26.9901 2.90356 26.9962 3.46007C26.9969 3.51401 26.9976 3.56795 26.9983 3.62353C26.9988 3.71039 26.9988 3.71039 26.9994 3.79901C26.9999 3.85878 27.0003 3.91856 27.0007 3.98014C27.0015 4.10646 27.002 4.23277 27.0024 4.35909C27.0033 4.55252 27.0057 4.7459 27.008 4.93932C27.0085 5.06204 27.009 5.18476 27.0093 5.30748C27.0102 5.36539 27.0112 5.4233 27.0121 5.48297C27.011 5.88174 27.011 5.88174 26.8901 6.06578C26.7763 6.13681 26.7763 6.13681 26.6183 6.13681C26.6183 6.47918 26.6183 6.82156 26.6183 7.17431C26.7052 7.21035 26.7921 7.24639 26.8816 7.28352C27.0422 7.45011 27.0051 7.64449 27.0064 7.86818C27.0069 7.91604 27.0074 7.96389 27.0079 8.0132C27.0086 8.11497 27.0091 8.21674 27.0093 8.31851C27.0099 8.47194 27.0125 8.62526 27.0152 8.77867C27.022 9.55206 26.9261 10.1595 26.4198 10.7663C25.815 11.3903 25.1442 11.5521 24.3221 11.5614C24.2768 11.5629 24.2315 11.5644 24.1848 11.566C24.1237 11.5672 24.1237 11.5672 24.0612 11.5684C23.874 11.6106 23.7641 11.6891 23.617 11.8158C23.5492 11.9473 23.501 12.0589 23.4553 12.1978C23.4422 12.2344 23.4291 12.271 23.4157 12.3088C23.3743 12.4251 23.3343 12.5418 23.2944 12.6588C23.2541 12.7754 23.2134 12.8919 23.1721 13.0082C23.1466 13.0803 23.1216 13.1526 23.0972 13.2251C23.0048 13.4888 22.8946 13.7089 22.656 13.8532C22.3893 13.9224 22.1754 13.9215 21.9188 13.8294C21.651 13.64 21.5395 13.3647 21.4369 13.0544C21.415 12.9902 21.3931 12.926 21.3706 12.8598C21.3258 12.7256 21.2812 12.5914 21.2369 12.4571C21.2149 12.3929 21.193 12.3288 21.1703 12.2626C21.1413 12.1753 21.1413 12.1753 21.1117 12.0861C21.0113 11.8701 20.8773 11.7057 20.6683 11.5974C20.1554 11.5607 19.6751 11.5268 19.2161 11.8C18.831 12.0126 18.4463 11.9957 18.0192 11.9964C17.9162 11.9975 17.8131 11.9985 17.7101 11.9996C17.4575 12.002 17.2048 12.0033 16.9522 12.0045C16.81 12.0052 16.6678 12.0063 16.5256 12.0079C16.3922 12.0093 16.2587 12.0101 16.1253 12.0101C15.6987 12.0152 15.366 12.0243 15.0446 12.3453C14.9172 12.5437 14.8368 12.7307 14.7608 12.9542C14.7465 12.9943 14.7321 13.0344 14.7174 13.0757C14.6721 13.2027 14.6276 13.33 14.5833 13.4574C14.5387 13.5849 14.494 13.7124 14.4486 13.8396C14.4205 13.9184 14.3929 13.9974 14.3658 14.0766C14.2718 14.3409 14.1628 14.5636 13.9345 14.7257C13.6367 14.8294 13.2983 14.8089 13.0102 14.6894C12.6252 14.2804 12.4856 13.6508 12.3122 13.1223C12.211 12.8212 12.1156 12.5606 11.9275 12.3072C11.8933 12.2599 11.8933 12.2599 11.8584 12.2117C11.5352 11.9635 11.0871 12.0189 10.7076 12.0193C10.5701 12.0182 10.4326 12.017 10.2951 12.0159C10.0797 12.0145 9.86435 12.0137 9.64899 12.0134C9.44018 12.0131 9.23139 12.011 9.02259 12.009C8.92728 12.0094 8.92728 12.0094 8.83005 12.0099C8.34525 12.0041 7.92401 11.9092 7.4962 11.6671C7.27969 11.5662 7.08088 11.5714 6.84624 11.5735C6.80259 11.5724 6.75895 11.5713 6.71398 11.5702C6.64994 11.5702 6.64994 11.5702 6.58461 11.5703C6.54636 11.5702 6.50811 11.5701 6.4687 11.57C6.28413 11.6112 6.17518 11.6913 6.03008 11.8158C5.96238 11.9473 5.91411 12.0589 5.86841 12.1978C5.84879 12.2527 5.84879 12.2527 5.82878 12.3088C5.78738 12.4251 5.74739 12.5418 5.70757 12.6588C5.66718 12.7754 5.62649 12.8919 5.58522 13.0082C5.5597 13.0803 5.5347 13.1526 5.51031 13.2251C5.41797 13.4888 5.30772 13.7089 5.06912 13.8532C4.80245 13.9224 4.58853 13.9215 4.33195 13.8294C4.05587 13.6342 3.94701 13.3475 3.84036 13.0286C3.81613 12.9585 3.79185 12.8884 3.76755 12.8183C3.73027 12.7093 3.69332 12.6002 3.65704 12.4908C3.62145 12.3842 3.58456 12.2781 3.54747 12.172C3.52619 12.1089 3.50492 12.0458 3.48301 11.9807C3.37773 11.7781 3.27681 11.7033 3.08138 11.5974C2.96158 11.5668 2.96158 11.5668 2.84423 11.5718C2.80122 11.5712 2.75822 11.5705 2.71391 11.5699C2.66902 11.57 2.62412 11.57 2.57787 11.5701C1.83953 11.5496 1.21401 11.3667 0.655948 10.8395C0.421241 10.5798 0.264692 10.2863 0.132686 9.95919C0.114493 9.91509 0.0962991 9.871 0.0775544 9.82557C0.00713673 9.55331 0.0118471 9.29313 0.0120776 9.01241C0.0117239 8.95048 0.0113702 8.88855 0.0110057 8.82474C0.0100063 8.62022 0.0097997 8.4157 0.00968647 8.21117C0.00934796 8.06862 0.00899367 7.92606 0.0086243 7.7835C0.00795158 7.48464 0.0077941 7.18577 0.00786102 6.8869C0.00792417 6.54272 0.0068152 6.19856 0.00515015 5.85439C0.00360016 5.52201 0.003229 5.18964 0.00329176 4.85726C0.00316787 4.71647 0.00270381 4.57569 0.00188732 4.4349C0.000849581 4.23745 0.00116079 4.04004 0.00179331 3.84259C0.00120152 3.78501 0.000609727 3.72743 0 3.66811C0.00553829 2.98394 0.256881 2.42817 0.705518 1.93197C1.19775 1.45451 1.78021 1.25821 2.44397 1.26452C2.48871 1.2645 2.53345 1.26449 2.57955 1.26447C2.72599 1.26454 2.87242 1.26539 3.01886 1.26625C3.12096 1.26645 3.22307 1.26661 3.32517 1.26672C3.59283 1.26713 3.86048 1.26821 4.12813 1.26942C4.40168 1.27054 4.67524 1.27103 4.9488 1.27158C5.48474 1.27275 6.02069 1.27461 6.55663 1.27692C6.57279 1.24276 6.58895 1.20861 6.6056 1.17342C6.89235 0.588521 7.5066 0.273998 8.08364 0.0755942C8.29943 0.0125241 8.50855 0.0125189 8.73135 0.0121899Z" fill="#000101"/>
<path d="M15.1624 16.1312C15.8615 16.6882 16.2038 17.3736 16.3505 18.2591C16.4447 19.1141 16.1244 19.9275 15.6186 20.5892C15.5995 20.6132 15.5804 20.6371 15.5606 20.6618C15.5989 20.6731 15.6372 20.6844 15.6766 20.6961C16.337 20.9059 16.8361 21.2202 17.2983 21.7539C17.327 21.7222 17.3557 21.6905 17.3853 21.6579C17.7669 21.2479 18.1385 20.9412 18.6673 20.771C18.7194 20.771 18.7716 20.771 18.8253 20.771C18.8011 20.7385 18.7769 20.7061 18.752 20.6726C18.3186 20.0654 18.1379 19.4393 18.2041 18.683C18.3047 17.9899 18.6626 17.3749 19.1939 16.9486C19.8114 16.552 20.4224 16.4101 21.1456 16.541C21.8843 16.7359 22.3953 17.1523 22.8022 17.824C22.9896 18.2157 23.0672 18.5733 23.064 19.0099C23.0638 19.0575 23.0635 19.1051 23.0632 19.1541C23.0475 19.7637 22.8487 20.2561 22.4585 20.7164C22.5168 20.7383 22.5168 20.7383 22.5763 20.7607C23.3839 21.0842 23.9423 21.5854 24.301 22.4074C24.45 22.8722 24.4761 23.3269 24.4771 23.8139C24.4774 23.8788 24.4778 23.9437 24.4781 24.0105C24.4787 24.1468 24.4789 24.2831 24.4789 24.4194C24.4791 24.6273 24.481 24.8351 24.483 25.043C24.4833 25.176 24.4836 25.3089 24.4837 25.4419C24.4844 25.5036 24.4852 25.5653 24.486 25.6289C24.4836 26.0486 24.429 26.3473 24.1531 26.6716C24.1228 26.6964 24.0924 26.7213 24.0612 26.7469C24.0307 26.7727 24.0002 26.7985 23.9688 26.8251C23.8097 26.9358 23.6711 26.9482 23.4853 26.948C23.4368 26.948 23.3883 26.9481 23.3383 26.9482C23.2852 26.948 23.2321 26.9478 23.1774 26.9476C23.0934 26.9476 23.0934 26.9476 23.0077 26.9476C22.8222 26.9476 22.6368 26.9472 22.4513 26.9467C22.3228 26.9466 22.1944 26.9465 22.0659 26.9465C21.7275 26.9463 21.3892 26.9457 21.0508 26.9451C20.7056 26.9446 20.3604 26.9443 20.0153 26.9441C19.3378 26.9435 18.6603 26.9426 17.9828 26.9414C17.9713 27.0325 17.9713 27.0325 17.9597 27.1254C17.9104 27.4559 17.7551 27.6363 17.5023 27.8356C17.2884 27.9609 17.1381 27.9858 16.8962 27.9866C16.8344 27.9869 16.7726 27.9872 16.709 27.9875C16.6411 27.9876 16.5733 27.9876 16.5033 27.9877C16.4312 27.9879 16.3591 27.9882 16.2869 27.9885C16.0909 27.9892 15.8948 27.9896 15.6988 27.9898C15.5763 27.99 15.4538 27.9902 15.3312 27.9905C14.9479 27.9912 14.5645 27.9917 14.1811 27.9919C13.7387 27.9922 13.2963 27.9931 12.8539 27.9947C12.5119 27.9959 12.1698 27.9965 11.8278 27.9965C11.6235 27.9966 11.4193 27.9969 11.215 27.9979C11.0228 27.9988 10.8306 27.9989 10.6384 27.9984C10.5345 27.9984 10.4305 27.9991 10.3266 27.9999C10.2644 27.9996 10.2021 27.9993 10.138 27.999C10.0841 27.999 10.0303 27.9991 9.97477 27.9992C9.65407 27.9568 9.45323 27.7848 9.242 27.5421C9.19639 27.4914 9.19639 27.4914 9.14986 27.4397C9.05917 27.2798 9.05341 27.1238 9.03138 26.9414C9.00209 26.9415 8.9728 26.9417 8.94263 26.9419C8.22934 26.9455 7.51606 26.9482 6.80276 26.9499C6.45782 26.9507 6.11288 26.9519 5.76793 26.9538C5.43506 26.9555 5.10219 26.9565 4.76931 26.9569C4.6423 26.9572 4.51528 26.9578 4.38827 26.9587C4.2104 26.9599 4.03256 26.9601 3.85468 26.96C3.80215 26.9606 3.74962 26.9612 3.69549 26.9618C3.36902 26.9603 3.13173 26.9232 2.87976 26.6876C2.8427 26.6409 2.8427 26.6409 2.80489 26.5933C2.76702 26.547 2.76702 26.547 2.72838 26.4999C2.58517 26.2807 2.54155 26.0835 2.54032 25.821C2.53981 25.7619 2.53931 25.7028 2.53879 25.642C2.53884 25.5785 2.53889 25.5151 2.53894 25.4498C2.53871 25.3838 2.53849 25.3179 2.53826 25.25C2.53795 25.1104 2.53793 24.9708 2.53816 24.8312C2.53832 24.6194 2.53709 24.4075 2.53575 24.1957C2.53563 24.0597 2.5356 23.9237 2.53565 23.7877C2.53516 23.7251 2.53468 23.6624 2.53418 23.5979C2.53874 22.7602 2.77296 22.0459 3.33083 21.4299C3.68699 21.0924 4.10355 20.8801 4.55568 20.7164C4.53593 20.6931 4.51618 20.6698 4.49583 20.6458C4.01245 20.0334 3.90368 19.3748 3.96138 18.6047C4.04078 17.9355 4.42762 17.4006 4.91563 16.9795C5.47926 16.5564 6.08236 16.4506 6.7672 16.5117C7.20718 16.6021 7.57793 16.7639 7.92562 17.0578C7.97989 17.103 7.97989 17.103 8.03525 17.1491C8.52114 17.6 8.77484 18.2528 8.83002 18.9165C8.85453 19.5883 8.59255 20.2512 8.1889 20.771C8.25854 20.7803 8.25854 20.7803 8.32958 20.7897C8.89784 20.9059 9.32012 21.3434 9.7159 21.7539C9.74156 21.7235 9.76721 21.6931 9.79365 21.6617C10.2467 21.156 10.7996 20.8118 11.4535 20.6618C11.4344 20.6378 11.4152 20.6139 11.3955 20.5892C10.8897 19.9275 10.5695 19.1141 10.6637 18.2591C10.8138 17.353 11.1739 16.6493 11.8962 16.0851C12.8836 15.4202 14.1958 15.4435 15.1624 16.1312Z" fill="#010101"/>
<path d="M12.9798 0.40332C13.3273 0.40332 13.6749 0.40332 14.0329 0.40332C14.085 0.511439 14.1372 0.619558 14.1909 0.730953C14.347 0.811929 14.5064 0.794382 14.6776 0.795038C14.717 0.795403 14.7563 0.795768 14.7968 0.796144C14.8823 0.796912 14.9679 0.797561 15.0535 0.798107C15.1892 0.799003 15.3249 0.800272 15.4606 0.801651C15.8466 0.805513 16.2326 0.808785 16.6186 0.811595C16.8546 0.81334 17.0907 0.815596 17.3267 0.818158C17.4164 0.819029 17.5061 0.819704 17.5958 0.820174C18.3548 0.824207 18.9926 0.862922 19.5749 1.42376C19.8857 1.76215 20.094 2.18868 20.096 2.65842C20.0966 2.74843 20.0966 2.74843 20.0972 2.84025C20.0973 2.90612 20.0974 2.97199 20.0976 3.03985C20.0979 3.10921 20.0983 3.17857 20.0986 3.25004C20.0997 3.48027 20.1003 3.7105 20.1008 3.94073C20.101 4.02015 20.1012 4.09957 20.1015 4.17898C20.1025 4.55238 20.1032 4.92578 20.1037 5.29918C20.1042 5.72921 20.1056 6.15921 20.1077 6.58923C20.1093 6.92216 20.1101 7.25509 20.1102 7.58802C20.1104 7.78658 20.1108 7.98512 20.1122 8.18367C20.1136 8.40572 20.1134 8.62773 20.113 8.84979C20.114 8.94726 20.114 8.94726 20.1151 9.04671C20.1113 9.68277 19.9571 10.148 19.5276 10.6058C18.9944 11.1137 18.3869 11.1846 17.6838 11.1809C17.5463 11.1818 17.4087 11.1828 17.2712 11.1837C17.0568 11.1845 16.8423 11.1845 16.6279 11.1844C16.4193 11.1844 16.2107 11.1861 16.0021 11.1877C15.9384 11.1872 15.8748 11.1868 15.8091 11.1863C15.4322 11.1898 15.151 11.2385 14.8227 11.4336C14.7848 11.4556 14.7469 11.4776 14.7078 11.5002C14.0165 11.9268 13.8036 13.1556 13.559 13.8909C13.5243 13.8909 13.4895 13.8909 13.4537 13.8909C13.4299 13.8207 13.4299 13.8207 13.4055 13.7492C13.3453 13.5729 13.2846 13.3969 13.2236 13.221C13.1975 13.1453 13.1715 13.0696 13.1458 12.9938C12.8517 12.0996 12.8517 12.0996 12.2235 11.4475C11.7773 11.2275 11.3879 11.193 10.8956 11.1969C10.7917 11.1964 10.6879 11.1958 10.584 11.1952C10.3303 11.194 10.0766 11.1946 9.82289 11.1955C9.67991 11.196 9.53696 11.1958 9.39398 11.1948C9.26018 11.1939 9.12636 11.1941 8.99257 11.1957C8.41263 11.1905 7.91434 11.0312 7.49028 10.6079C7.00809 10.0698 6.9005 9.59727 6.90317 8.86825C6.90281 8.79876 6.90245 8.72926 6.90207 8.65765C6.90113 8.46834 6.90119 8.27903 6.90149 8.08971C6.90166 7.93109 6.90133 7.77247 6.90102 7.61384C6.90028 7.23936 6.90036 6.86489 6.90096 6.49041C6.90156 6.10531 6.90082 5.72024 6.89941 5.33515C6.89824 5.00332 6.89789 4.6715 6.8982 4.33968C6.89838 4.14202 6.89826 3.94437 6.89735 3.74671C6.89638 3.52612 6.89713 3.30557 6.89803 3.08498C6.89752 3.02031 6.89701 2.95565 6.89648 2.88902C6.90184 2.2616 7.06995 1.84783 7.48843 1.39688C8.03183 0.856444 8.60568 0.816527 9.33346 0.819407C9.47204 0.819909 9.61057 0.819342 9.74915 0.8185C10.1427 0.816321 10.5363 0.816245 10.9298 0.816368C11.1715 0.816371 11.4131 0.815326 11.6548 0.813674C11.7912 0.813083 11.9275 0.813745 12.0639 0.814429C12.1474 0.813943 12.2308 0.813393 12.3143 0.812768C12.3521 0.8133 12.3899 0.813832 12.4288 0.814381C12.6065 0.811724 12.7007 0.798072 12.8437 0.684886C12.9362 0.567054 12.9362 0.567054 12.9798 0.40332Z" fill="#5FB8FD"/>
<path d="M20.8266 2.09603C21.3374 2.09095 21.8483 2.08708 22.3592 2.08471C22.5964 2.08358 22.8337 2.08204 23.071 2.07955C23.3004 2.07716 23.5298 2.07587 23.7593 2.07531C23.8463 2.07491 23.9334 2.07413 24.0205 2.07294C24.624 2.06503 25.1862 2.08711 25.6906 2.47827C26.2007 3.00706 26.2373 3.56456 26.2414 4.27502C26.241 4.38712 26.2407 4.49921 26.2402 4.6113C26.241 4.78049 26.2421 4.94967 26.2435 5.11886C26.2442 5.2235 26.2444 5.32816 26.2442 5.43281C26.2442 5.47987 26.2443 5.52694 26.2443 5.57544C26.2442 5.61675 26.244 5.65806 26.2439 5.70063C26.2462 5.82074 26.2462 5.82074 26.3027 5.97302C26.407 6.02708 26.5113 6.08114 26.6187 6.13684C26.6187 6.49723 26.6187 6.85763 26.6187 7.22895C26.5318 7.26499 26.4449 7.30103 26.3554 7.33816C26.2231 7.47539 26.2374 7.55963 26.2355 7.74685C26.2356 7.8082 26.2356 7.8082 26.2357 7.87078C26.2346 7.95777 26.2335 8.04476 26.2324 8.13175C26.2312 8.26858 26.2303 8.40538 26.23 8.54221C26.2263 9.511 26.2263 9.511 25.9868 9.90462C25.9674 9.93998 25.9481 9.97535 25.9281 10.0118C25.7523 10.3231 25.4296 10.5416 25.099 10.6452C24.9778 10.6709 24.8661 10.6769 24.7424 10.6787C23.8303 10.6963 23.8303 10.6963 23.0651 11.1723C22.693 11.628 22.5436 12.2986 22.3536 12.8533C22.3188 12.8533 22.2841 12.8533 22.2483 12.8533C22.2356 12.8159 22.2229 12.7785 22.2098 12.7399C22.151 12.5681 22.091 12.3967 22.0311 12.2254C22.0111 12.1665 21.9912 12.1077 21.9706 12.047C21.8 11.5635 21.6008 11.1502 21.1584 10.8856C20.934 10.788 20.6983 10.7544 20.458 10.7237C20.539 10.5091 20.63 10.3019 20.7264 10.0945C20.8662 9.69664 20.8337 9.26375 20.8326 8.84686C20.8326 8.7731 20.8326 8.69934 20.8326 8.62558C20.8326 8.42626 20.8323 8.22693 20.8319 8.02761C20.8316 7.81896 20.8316 7.61031 20.8315 7.40166C20.8313 7.00696 20.8309 6.61227 20.8304 6.21757C20.8298 5.76805 20.8295 5.31853 20.8292 4.869C20.8287 3.94468 20.8278 3.02035 20.8266 2.09603Z" fill="#FEE458"/>
<path d="M3.03125 2.0747C3.12258 2.07511 3.21391 2.07542 3.30524 2.07564C3.54399 2.07647 3.78271 2.07861 4.02145 2.08103C4.26572 2.08328 4.50999 2.08427 4.75427 2.08537C5.23236 2.0877 5.71043 2.09142 6.18851 2.09603C6.18836 2.15318 6.18836 2.15318 6.18822 2.21149C6.18589 3.13991 6.18415 4.06833 6.18305 4.99675C6.18251 5.44574 6.18177 5.89472 6.18057 6.3437C6.17951 6.73518 6.17884 7.12665 6.1786 7.51812C6.17846 7.72528 6.17814 7.93243 6.17738 8.13958C6.17666 8.33486 6.17644 8.53013 6.1766 8.72541C6.17656 8.83064 6.17599 8.93587 6.17541 9.04109C6.17649 9.51642 6.20763 9.94005 6.43204 10.3654C6.5571 10.6049 6.5571 10.6049 6.5571 10.7237C6.50263 10.7298 6.50263 10.7298 6.44706 10.7361C6.03386 10.796 5.69488 10.9112 5.42809 11.2597C5.20846 11.5802 5.07921 11.9129 4.95769 12.2834C4.92969 12.366 4.92969 12.366 4.90113 12.4503C4.85576 12.5844 4.81101 12.7188 4.76682 12.8533C4.73206 12.8533 4.69731 12.8533 4.66151 12.8533C4.6488 12.8159 4.6361 12.7785 4.62302 12.7399C4.5642 12.5681 4.50426 12.3967 4.4443 12.2254C4.42435 12.1665 4.40439 12.1077 4.38383 12.047C4.1925 11.5047 3.9678 11.0874 3.45043 10.8329C3.16535 10.7072 2.8992 10.7087 2.59478 10.7032C2.03587 10.6839 1.58965 10.6057 1.18626 10.1776C0.876204 9.74505 0.801847 9.361 0.800699 8.82997C0.800176 8.77186 0.799654 8.71375 0.799115 8.65387C0.79758 8.46202 0.796859 8.27018 0.796277 8.07832C0.795671 7.94447 0.795065 7.81061 0.794458 7.67675C0.793352 7.39611 0.792736 7.11547 0.792369 6.83482C0.791792 6.47641 0.789263 6.11805 0.786264 5.75965C0.784296 5.48307 0.783754 5.20649 0.783593 4.9299C0.783276 4.79784 0.782435 4.66579 0.781046 4.53374C0.767423 3.13848 0.767423 3.13848 1.22885 2.58177C1.74442 2.05966 2.3546 2.06577 3.03125 2.0747Z" fill="#6A7DD7"/>
<path d="M11.9752 21.4712C12.0295 21.4707 12.0295 21.4707 12.0848 21.4702C12.2042 21.4691 12.3236 21.4684 12.443 21.4679C12.5045 21.4676 12.5045 21.4676 12.5672 21.4672C12.7843 21.4661 13.0013 21.4653 13.2184 21.4648C13.4415 21.4642 13.6645 21.4623 13.8876 21.4601C14.06 21.4587 14.2325 21.4582 14.405 21.4581C14.4872 21.4578 14.5693 21.4572 14.6515 21.4561C15.3967 21.4475 15.9764 21.6079 16.5308 22.1522C16.7874 22.4326 16.9671 22.6987 17.0878 23.0645C17.1146 23.1383 17.1146 23.1383 17.1419 23.2137C17.1954 23.4001 17.2074 23.5517 17.2092 23.7458C17.2101 23.8148 17.2109 23.8839 17.2118 23.955C17.2121 24.0297 17.2124 24.1043 17.2126 24.179C17.2131 24.2562 17.2136 24.3334 17.2141 24.4107C17.215 24.5721 17.2154 24.7335 17.2155 24.8949C17.2158 25.1015 17.2178 25.3079 17.2202 25.5144C17.2218 25.6737 17.2221 25.8331 17.2222 25.9924C17.2224 26.0685 17.2231 26.1447 17.2242 26.2208C17.2256 26.3273 17.2252 26.4338 17.2247 26.5402C17.2249 26.6007 17.2252 26.6612 17.2255 26.7235C17.179 26.958 17.1236 27.0271 16.9298 27.1599C16.71 27.2003 16.4929 27.1972 16.2701 27.1952C16.2031 27.1957 16.1361 27.1962 16.0671 27.1967C15.8838 27.1979 15.7005 27.1974 15.5172 27.1966C15.3252 27.1959 15.1333 27.1965 14.9413 27.1969C14.619 27.1974 14.2967 27.1968 13.9745 27.1955C13.6019 27.194 13.2294 27.1945 12.8569 27.196C12.5369 27.1972 12.2169 27.1974 11.8968 27.1967C11.7058 27.1962 11.5147 27.1962 11.3237 27.1971C11.1107 27.198 10.8979 27.1967 10.6849 27.1952C10.6216 27.1958 10.5583 27.1963 10.493 27.1969C10.0706 27.1913 10.0706 27.1913 9.88762 27.0424C9.81191 26.8646 9.79434 26.7406 9.79327 26.5463C9.79244 26.4787 9.79161 26.411 9.79075 26.3413C9.79095 26.2677 9.79122 26.1942 9.79154 26.1207C9.79126 26.0444 9.79093 25.9681 9.79055 25.8919C9.79 25.732 9.79024 25.5721 9.79101 25.4121C9.79191 25.2091 9.79069 25.0062 9.78883 24.8032C9.78766 24.6455 9.78775 24.4878 9.78818 24.3301C9.78825 24.2195 9.78721 24.1089 9.78613 23.9983C9.7932 23.2587 10.0107 22.6606 10.5075 22.1315C10.9395 21.7071 11.3802 21.4761 11.9752 21.4712Z" fill="#5FB8FD"/>
<path d="M9.32684 0.82981C9.40055 0.830633 9.47425 0.83138 9.54795 0.832049C9.72658 0.833966 9.90516 0.83665 10.0838 0.840048C10.0421 0.883219 10.0004 0.92639 9.95747 0.970869C9.32332 1.62918 9.12376 2.2693 9.11417 3.19C9.11315 3.25112 9.11213 3.31224 9.11107 3.37521C9.10795 3.56879 9.10549 3.76238 9.10306 3.95597C9.10105 4.0879 9.09899 4.21983 9.09689 4.35176C9.09185 4.67373 9.08737 4.99571 9.08331 5.3177C9.11796 5.29835 9.15261 5.27899 9.18831 5.25905C9.23457 5.23399 9.28083 5.20893 9.32849 5.18311C9.374 5.15812 9.41951 5.13314 9.4664 5.1074C9.79473 4.96385 10.1308 5.00947 10.4622 5.12317C10.7921 5.27592 11.0365 5.54988 11.1994 5.8821C11.3036 6.23628 11.3042 6.65941 11.1881 7.01004C10.991 7.38267 10.7074 7.58811 10.347 7.77495C9.94821 7.80284 9.59422 7.81909 9.24128 7.61113C9.18915 7.5841 9.18915 7.5841 9.13597 7.55653C9.1307 7.82448 9.12691 8.09241 9.1244 8.36041C9.12335 8.45128 9.12192 8.54215 9.12008 8.63301C9.10473 9.41127 9.19187 10.0832 9.66252 10.7236C9.77152 10.8355 9.88281 10.9372 10.0027 11.0361C10.0295 11.0592 10.0562 11.0822 10.0838 11.1059C10.0838 11.1239 10.0838 11.1419 10.0838 11.1605C9.86287 11.1673 9.64203 11.1722 9.42107 11.1755C9.34621 11.1768 9.27135 11.1787 9.19652 11.1811C8.58776 11.2 8.07749 11.1169 7.58922 10.7066C7.16737 10.2855 6.924 9.8659 6.90403 9.24786C6.90294 9.12129 6.90271 8.99471 6.90317 8.86814C6.90281 8.79864 6.90245 8.72914 6.90207 8.65754C6.90113 8.46822 6.90119 8.27891 6.90149 8.08959C6.90166 7.93097 6.90133 7.77235 6.90102 7.61373C6.90028 7.23925 6.90036 6.86477 6.90096 6.49029C6.90156 6.1052 6.90082 5.72012 6.89941 5.33503C6.89824 5.00321 6.89789 4.67139 6.8982 4.33956C6.89838 4.1419 6.89826 3.94425 6.89735 3.74659C6.89638 3.526 6.89713 3.30545 6.89803 3.08486C6.89752 3.0202 6.89701 2.95553 6.89648 2.88891C6.90184 2.26148 7.06995 1.84772 7.48843 1.39677C8.0307 0.857447 8.59811 0.815522 9.32684 0.82981Z" fill="#1CA7FE"/>
<path d="M19.7576 21.5079C19.8268 21.5074 19.896 21.5069 19.9673 21.5063C20.1133 21.5053 20.2594 21.505 20.4054 21.5051C20.5908 21.5051 20.7762 21.5029 20.9616 21.5001C21.1406 21.4978 21.3195 21.4979 21.4985 21.4977C21.5642 21.4965 21.6298 21.4954 21.6975 21.4941C22.2257 21.4984 22.6312 21.6648 23.0576 21.986C23.3782 22.3343 23.6299 22.7766 23.6307 23.2652C23.631 23.326 23.6313 23.3869 23.6317 23.4496C23.6315 23.5147 23.6313 23.5798 23.631 23.6469C23.6311 23.7142 23.6312 23.7814 23.6313 23.8507C23.6314 23.9925 23.6312 24.1344 23.6308 24.2763C23.6304 24.422 23.6303 24.5677 23.6308 24.7134C23.6314 24.9233 23.6314 25.1332 23.631 25.3431C23.6313 25.4086 23.6315 25.4741 23.6317 25.5415C23.6312 25.632 23.6312 25.632 23.6307 25.7243C23.6306 25.7776 23.6305 25.8309 23.6304 25.8857C23.6171 26.0131 23.6171 26.0131 23.5117 26.1223C23.4124 26.1358 23.4124 26.1358 23.2892 26.1355C23.2425 26.1356 23.1959 26.1358 23.1478 26.1359C23.0965 26.1355 23.0451 26.1351 22.9923 26.1347C22.9113 26.1347 22.9113 26.1347 22.8288 26.1348C22.6499 26.1347 22.471 26.1338 22.292 26.133C22.1682 26.1328 22.0444 26.1326 21.9206 26.1325C21.5943 26.1321 21.2679 26.131 20.9416 26.1298C20.6087 26.1287 20.2759 26.1282 19.9431 26.1277C19.2897 26.1265 18.6363 26.1246 17.9829 26.1223C17.9826 26.0886 17.9823 26.055 17.982 26.0203C17.9786 25.6677 17.9742 25.3151 17.9691 24.9625C17.9674 24.8312 17.9659 24.6998 17.9647 24.5685C17.9629 24.3789 17.9602 24.1895 17.9572 24C17.9569 23.9419 17.9565 23.8838 17.9562 23.8239C17.9501 23.4962 17.9121 23.222 17.8008 22.9142C17.757 22.7251 17.7934 22.578 17.8826 22.4096C18.3894 21.7058 18.9329 21.5102 19.7576 21.5079Z" fill="#FEE458"/>
<path d="M5.50908 21.5012C5.57843 21.501 5.64778 21.5009 5.71923 21.5008C5.86501 21.5006 6.01075 21.5014 6.15653 21.5029C6.34213 21.5048 6.52765 21.5044 6.71325 21.5034C6.89217 21.5027 7.07107 21.5037 7.25 21.5046C7.34899 21.5042 7.34899 21.5042 7.44998 21.5037C8.0232 21.5117 8.44981 21.678 8.87367 22.0815C9.0683 22.3049 9.20462 22.4877 9.24226 22.7914C9.21379 22.9142 9.21379 22.9142 9.16825 23.0401C9.06756 23.3619 9.0593 23.6637 9.05735 24C9.05593 24.0916 9.05593 24.0916 9.05448 24.185C9.05165 24.378 9.04986 24.571 9.04809 24.764C9.04634 24.8957 9.04453 25.0274 9.04264 25.1591C9.03819 25.4802 9.03458 25.8013 9.03164 26.1224C8.31259 26.1249 7.59354 26.1268 6.87449 26.128C6.54064 26.1286 6.20679 26.1294 5.87294 26.1306C5.55099 26.1318 5.22904 26.1324 4.90709 26.1327C4.78402 26.1329 4.66095 26.1333 4.53788 26.1339C4.36602 26.1347 4.19417 26.1348 4.02231 26.1348C3.97099 26.1351 3.91967 26.1355 3.8668 26.1359C3.7968 26.1357 3.7968 26.1357 3.72539 26.1355C3.68472 26.1356 3.64404 26.1357 3.60213 26.1358C3.50283 26.1224 3.50283 26.1224 3.39752 26.0131C3.38238 25.8891 3.38238 25.8891 3.37972 25.7322C3.37853 25.6734 3.37735 25.6147 3.37613 25.5542C3.37552 25.4902 3.37491 25.4263 3.37428 25.3604C3.37319 25.2616 3.37319 25.2616 3.37208 25.1607C3.37085 25.0206 3.36994 24.8805 3.36933 24.7404C3.36792 24.5282 3.36398 24.3162 3.35998 24.1041C3.35194 23.3124 3.35538 22.6973 3.86302 22.0712C4.32905 21.597 4.87951 21.4942 5.50908 21.5012Z" fill="#6A7DD8"/>
<path d="M3.03125 2.0747C3.12258 2.07511 3.21391 2.07542 3.30524 2.07564C3.54399 2.07647 3.78271 2.07861 4.02145 2.08103C4.26572 2.08328 4.50999 2.08427 4.75427 2.08537C5.23236 2.0877 5.71043 2.09142 6.18851 2.09603C6.18851 2.11405 6.18851 2.13207 6.18851 2.15064C6.15844 2.15023 6.12837 2.14982 6.09739 2.1494C5.78299 2.14563 5.46871 2.14532 5.1543 2.14697C5.03714 2.14714 4.91998 2.14644 4.80284 2.14484C4.1545 2.11341 4.1545 2.11341 3.54813 2.29934C3.42805 2.43054 3.36362 2.53123 3.29247 2.69669C3.27541 2.7339 3.25835 2.77112 3.24077 2.80945C3.08555 3.17168 3.05084 3.48051 3.05209 3.87407C3.05146 3.9347 3.05084 3.99534 3.0502 4.05781C3.04848 4.25682 3.04831 4.45579 3.04832 4.65481C3.04778 4.79422 3.04719 4.93362 3.04657 5.07302C3.04555 5.36476 3.04536 5.65649 3.04571 5.94823C3.04609 6.28355 3.04433 6.61881 3.04155 6.95413C3.03895 7.27887 3.03843 7.60359 3.03867 7.92834C3.03852 8.06548 3.03779 8.20263 3.03644 8.33977C3.02559 9.49903 3.02559 9.49903 3.5687 10.4808C3.98856 10.9178 4.52075 11.0499 5.09591 11.0821C5.15476 11.0856 5.15476 11.0856 5.2148 11.0892C5.31119 11.095 5.40759 11.1005 5.50399 11.1059C5.48386 11.138 5.46372 11.17 5.44298 11.2031C5.23187 11.5514 5.08618 11.8985 4.95769 12.2868C4.92969 12.369 4.92969 12.369 4.90113 12.4529C4.85584 12.5862 4.81108 12.7197 4.76682 12.8533C4.73206 12.8533 4.69731 12.8533 4.66151 12.8533C4.6488 12.8159 4.6361 12.7785 4.62302 12.7399C4.5642 12.5681 4.50426 12.3967 4.4443 12.2254C4.42435 12.1665 4.40439 12.1077 4.38383 12.047C4.1925 11.5047 3.9678 11.0874 3.45043 10.8329C3.16535 10.7072 2.8992 10.7087 2.59478 10.7032C2.03587 10.6839 1.58965 10.6057 1.18626 10.1776C0.876204 9.74505 0.801847 9.361 0.800699 8.82997C0.800176 8.77186 0.799654 8.71375 0.799115 8.65387C0.79758 8.46202 0.796859 8.27018 0.796277 8.07832C0.795671 7.94447 0.795065 7.81061 0.794458 7.67675C0.793352 7.39611 0.792736 7.11547 0.792369 6.83482C0.791792 6.47641 0.789263 6.11805 0.786264 5.75965C0.784296 5.48307 0.783754 5.20649 0.783593 4.9299C0.783276 4.79784 0.782435 4.66579 0.781046 4.53374C0.767423 3.13848 0.767423 3.13848 1.22885 2.58177C1.74442 2.05966 2.3546 2.06577 3.03125 2.0747Z" fill="#4C65D0"/>
<path d="M20.8266 2.09619C22.1472 2.09619 23.4678 2.09619 24.8284 2.09619C24.8284 2.11421 24.8284 2.13223 24.8284 2.1508C24.2202 2.1508 23.6121 2.1508 22.9855 2.1508C23.0202 2.25892 23.055 2.36703 23.0908 2.47843C23.1043 2.62677 23.1043 2.62677 23.1049 2.78047C23.1053 2.83917 23.1058 2.89786 23.1062 2.95834C23.1062 3.02191 23.1061 3.08549 23.1061 3.15099C23.1064 3.2186 23.1068 3.28621 23.1071 3.35587C23.108 3.54081 23.1083 3.72574 23.1084 3.91068C23.1085 4.02655 23.1087 4.14241 23.109 4.25827C23.1099 4.66342 23.1104 5.06857 23.1103 5.47372C23.1102 5.84978 23.1113 6.22583 23.113 6.60188C23.1144 6.92592 23.1149 7.24994 23.1149 7.57398C23.1148 7.76698 23.1151 7.95996 23.1163 8.15296C23.1175 8.36882 23.117 8.58466 23.1164 8.80052C23.1169 8.86332 23.1175 8.92613 23.1181 8.99083C23.1126 9.74122 22.8994 10.3613 22.3954 10.9035C22.1686 11.1238 21.9635 11.2752 21.6691 11.3791C21.6332 11.3296 21.5974 11.28 21.5605 11.229C21.257 10.8572 20.9056 10.7877 20.458 10.7239C20.539 10.5093 20.63 10.3021 20.7264 10.0946C20.8662 9.6968 20.8337 9.26391 20.8326 8.84702C20.8326 8.77326 20.8326 8.6995 20.8326 8.62575C20.8326 8.42642 20.8323 8.22709 20.8319 8.02777C20.8316 7.81912 20.8316 7.61047 20.8315 7.40182C20.8313 7.00713 20.8309 6.61243 20.8304 6.21773C20.8297 5.68409 20.8294 5.15045 20.8291 4.6168C20.8286 3.7766 20.8276 2.9364 20.8266 2.09619Z" fill="#FCD200"/>
<path d="M14.5938 16.7643C15.0483 17.1041 15.3709 17.5262 15.5087 18.0954C15.5783 18.7388 15.5007 19.2985 15.127 19.8325C14.9443 20.0582 14.7491 20.2332 14.5083 20.3888C14.4757 20.4114 14.4431 20.434 14.4095 20.4573C13.9813 20.7062 13.4079 20.6625 12.9366 20.5814C12.4439 20.4309 12.0196 20.0804 11.7605 19.6237C11.4928 19.0898 11.4118 18.5234 11.5431 17.9324C11.7757 17.2851 12.2183 16.8618 12.8058 16.5653C13.3861 16.3123 14.0691 16.43 14.5938 16.7643Z" fill="#FDCCBC"/>
<path d="M11.9087 21.4759C11.9932 21.4761 11.9932 21.4761 12.0794 21.4764C12.1379 21.4768 12.1964 21.4773 12.2567 21.4778C12.3457 21.4781 12.3457 21.4781 12.4364 21.4785C12.5828 21.4792 12.7291 21.4801 12.8754 21.4812C12.633 21.7347 12.633 21.7347 12.5187 21.8415C12.0182 22.3162 11.7535 22.9448 11.7028 23.6415C11.698 23.855 11.6977 24.0681 11.6997 24.2816C11.6998 24.3599 11.6999 24.4381 11.7 24.5164C11.7002 24.6789 11.701 24.8414 11.7021 25.0039C11.7036 25.2121 11.7042 25.4203 11.7044 25.6285C11.7047 25.828 11.7055 26.0275 11.7063 26.227C11.7064 26.2838 11.7064 26.2838 11.7066 26.3417C11.7069 26.4486 11.7077 26.5555 11.7085 26.6623C11.7088 26.723 11.7092 26.7838 11.7096 26.8463C11.7107 27.0013 11.7107 27.0013 11.7696 27.1602C11.526 27.1669 11.2825 27.1719 11.0388 27.1752C10.9559 27.1765 10.8731 27.1784 10.7903 27.1808C10.671 27.1841 10.5519 27.1856 10.4327 27.1868C10.3773 27.1889 10.3773 27.1889 10.3208 27.1911C10.135 27.1912 10.0515 27.1801 9.91697 27.043C9.80502 26.8605 9.79446 26.7613 9.79327 26.5466C9.79244 26.4789 9.79161 26.4113 9.79075 26.3416C9.79095 26.268 9.79122 26.1945 9.79154 26.121C9.79126 26.0447 9.79093 25.9684 9.79055 25.8922C9.79 25.7322 9.79024 25.5723 9.79101 25.4124C9.79191 25.2094 9.79069 25.0065 9.78883 24.8035C9.78766 24.6458 9.78775 24.4881 9.78818 24.3304C9.78825 24.2198 9.78721 24.1092 9.78613 23.9986C9.7932 23.259 10.0107 22.6609 10.5075 22.1318C10.9093 21.7371 11.3482 21.4728 11.9087 21.4759Z" fill="#1CA7FE"/>
<path d="M21.3833 17.4914C21.7893 17.746 22.133 18.1587 22.2489 18.6415C22.3098 19.1652 22.24 19.5962 21.949 20.0308C21.6567 20.4032 21.3541 20.6308 20.8881 20.6858C20.4122 20.7096 19.9869 20.6603 19.6034 20.3471C19.2727 20.028 19.0614 19.6628 19.0243 19.1921C19.0116 18.6088 19.1311 18.24 19.5141 17.8111C20.0025 17.3425 20.7669 17.2007 21.3833 17.4914Z" fill="#FCAF9E"/>
<path d="M6.33847 17.3617C6.37546 17.3621 6.41246 17.3626 6.45057 17.363C6.96989 17.3805 7.30761 17.6043 7.66144 17.9862C7.97841 18.4101 8.02428 18.8285 7.97737 19.3514C7.8659 19.8449 7.5841 20.2199 7.17767 20.4947C6.80561 20.7265 6.34504 20.7098 5.92381 20.6619C5.46107 20.5335 5.14139 20.1886 4.9032 19.7692C4.71598 19.3517 4.68352 18.9052 4.8199 18.4659C5.01872 18.0105 5.29882 17.6856 5.72862 17.4572C5.93728 17.3806 6.11975 17.3582 6.33847 17.3617Z" fill="#FCAF9E"/>
<path d="M5.48728 21.5185C5.54996 21.5197 5.61264 21.5209 5.67723 21.5222C5.83009 21.5254 5.98281 21.5298 6.1356 21.5355C6.09541 21.5766 6.05523 21.6176 6.01383 21.6599C5.45935 22.2424 5.25337 22.8551 5.25588 23.6694C5.25509 23.74 5.25429 23.8106 5.25347 23.8833C5.25139 24.0686 5.25084 24.2538 5.25062 24.4391C5.25013 24.6291 5.24816 24.8191 5.24632 25.0092C5.24294 25.3802 5.24117 25.7513 5.24046 26.1224C4.99492 26.1251 4.74939 26.1271 4.50385 26.1284C4.42029 26.1289 4.33673 26.1297 4.25317 26.1306C4.13318 26.1319 4.01321 26.1326 3.89322 26.133C3.85576 26.1336 3.81829 26.1342 3.77969 26.1348C3.68732 26.1348 3.59498 26.129 3.50283 26.1224C3.36784 25.9824 3.38302 25.9269 3.37972 25.7322C3.37853 25.6734 3.37735 25.6147 3.37613 25.5542C3.37552 25.4903 3.37491 25.4263 3.37428 25.3605C3.37319 25.2616 3.37319 25.2616 3.37208 25.1607C3.37085 25.0206 3.36994 24.8805 3.36933 24.7404C3.36792 24.5283 3.36398 24.3162 3.35998 24.1041C3.35194 23.3124 3.35538 22.6973 3.86302 22.0713C4.32493 21.6012 4.86197 21.4948 5.48728 21.5185Z" fill="#4D65D1"/>
<path d="M19.6942 21.5253C19.7818 21.5264 19.7818 21.5264 19.8711 21.5275C20.014 21.5295 20.1569 21.5321 20.2998 21.5355C20.2689 21.5719 20.2689 21.5719 20.2375 21.609C20.0759 21.8015 19.9242 21.9935 19.7897 22.2079C19.7601 22.2538 19.7306 22.2998 19.7002 22.3472C19.4666 22.8181 19.4352 23.2636 19.4419 23.7867C19.4422 23.8874 19.4422 23.8874 19.4425 23.9901C19.4434 24.2026 19.4454 24.4151 19.4474 24.6276C19.4482 24.7724 19.4489 24.9172 19.4496 25.0621C19.4512 25.4155 19.4543 25.7689 19.4573 26.1224C18.9707 26.1224 18.4842 26.1224 17.9829 26.1224C17.981 25.9277 17.979 25.733 17.977 25.5324C17.9745 25.3425 17.9718 25.1525 17.9691 24.9626C17.9674 24.8312 17.9659 24.6999 17.9647 24.5685C17.9629 24.379 17.9602 24.1895 17.9572 24C17.9569 23.9419 17.9565 23.8838 17.9562 23.824C17.9501 23.4963 17.9121 23.222 17.8008 22.9143C17.757 22.7252 17.7934 22.5781 17.8826 22.4097C18.3707 21.7319 18.8944 21.506 19.6942 21.5253Z" fill="#FED400"/>
<path d="M17.7192 5.1986C18.0766 5.41836 18.2745 5.67484 18.4035 6.08231C18.4749 6.53561 18.3984 6.91004 18.1402 7.28363C17.8748 7.58824 17.628 7.74633 17.2295 7.79727C16.7878 7.8097 16.4739 7.76132 16.1393 7.44745C15.7765 6.98802 15.7307 6.60904 15.7707 6.02771C15.8572 5.65868 16.1129 5.42372 16.4026 5.20862C16.824 4.95305 17.291 4.96983 17.7192 5.1986Z" fill="#020304"/>
<path d="M10.5913 5.18286C10.8941 5.37802 11.1378 5.67231 11.2423 6.02754C11.2949 6.48645 11.2901 6.88876 11.0278 7.27835C10.8128 7.5207 10.5125 7.76335 10.1886 7.78601C9.63744 7.7933 9.32535 7.73412 8.91497 7.33829C8.63812 7.0188 8.57051 6.66814 8.58608 6.24575C8.644 5.84163 8.8333 5.51902 9.14636 5.27309C9.60153 4.96351 10.0989 4.95482 10.5913 5.18286Z" fill="#020304"/>
<path d="M14.1351 5.19487C14.4644 5.40146 14.6596 5.60106 14.7884 5.98494C14.8784 6.37845 14.8854 6.77504 14.6822 7.12995C14.4538 7.45423 14.2132 7.70152 13.8227 7.77498C13.4364 7.81668 13.0774 7.84286 12.7562 7.59069C12.4593 7.3041 12.2187 7.04802 12.1708 6.61547C12.1619 6.12463 12.2146 5.80344 12.5402 5.43932C12.9977 5.00028 13.5762 4.89625 14.1351 5.19487Z" fill="#010203"/>
<path d="M13.4764 16.4504C13.535 16.4502 13.5935 16.4501 13.6539 16.45C13.8042 16.4564 13.9391 16.4761 14.0852 16.5118C14.0852 16.5298 14.0852 16.5478 14.0852 16.5664C14.0418 16.5743 13.9983 16.5822 13.9536 16.5903C13.5143 16.7937 13.2559 17.2632 13.0848 17.7131C12.8811 18.346 12.9158 19.022 13.1901 19.6243C13.4139 20.0572 13.6404 20.3361 14.0326 20.6072C13.2889 20.6297 12.7399 20.6184 12.137 20.1158C11.7769 19.7623 11.532 19.2792 11.4874 18.7651C11.473 18.1028 11.5991 17.6129 12.0317 17.1125C12.4254 16.6881 12.9103 16.449 13.4764 16.4504Z" fill="#FCAF9E"/>
<path d="M21.2515 17.4878C21.6003 17.5549 21.8393 17.8467 22.0331 18.1358C22.2764 18.5845 22.3276 18.9987 22.2154 19.5001C22.0812 19.905 21.8224 20.2355 21.4883 20.4845C21.3371 20.5608 21.2558 20.5812 21.0903 20.5525C20.7509 20.284 20.539 19.8347 20.4584 19.4058C20.4083 18.7373 20.5049 18.2163 20.913 17.6889C21.0768 17.4952 21.0768 17.4952 21.2515 17.4878Z" fill="#FCCCBC"/>
<path d="M6.97815 17.4846C7.28959 17.5415 7.5121 17.807 7.71532 18.0409C7.98056 18.4593 8.01628 18.8624 7.9786 19.3514C7.87411 19.8188 7.60482 20.188 7.23484 20.4709C6.99259 20.6019 6.99259 20.6019 6.82018 20.5528C6.4267 20.2019 6.22564 19.6815 6.17475 19.1569C6.15013 18.5579 6.36739 18.0725 6.71487 17.6041C6.82018 17.4949 6.82018 17.4949 6.97815 17.4846Z" fill="#FDCCBC"/>
<path d="M12.4023 11.5429C12.6356 11.5402 12.8688 11.5382 13.102 11.5369C13.1812 11.5364 13.2604 11.5356 13.3396 11.5347C13.454 11.5333 13.5683 11.5327 13.6827 11.5323C13.7514 11.5317 13.8201 11.5311 13.8908 11.5305C14.0985 11.5436 14.2592 11.5854 14.4559 11.6521C14.431 11.6994 14.4061 11.7466 14.3804 11.7953C14.0368 12.4671 13.798 13.1727 13.5608 13.891C13.526 13.891 13.4913 13.891 13.4554 13.891C13.4396 13.8442 13.4237 13.7974 13.4073 13.7492C13.3471 13.573 13.2864 13.397 13.2253 13.221C13.1992 13.1454 13.1733 13.0697 13.1475 12.9939C12.8853 12.2015 12.8853 12.2015 12.4023 11.5429Z" fill="#1CA6FC"/>
<path d="M13.4645 5.84668C13.6975 5.86649 13.8013 5.9312 13.9811 6.08217C14.0654 6.257 14.0601 6.43851 14.0338 6.62822C13.9393 6.78166 13.8748 6.87446 13.7179 6.95585C13.5555 6.98198 13.406 6.98569 13.244 6.95585C13.0768 6.81434 13.0046 6.73337 12.9558 6.5188C12.94 6.29728 12.9727 6.20133 13.109 6.03097C13.1536 5.99381 13.1981 5.95664 13.244 5.91835C13.2966 5.86374 13.2966 5.86374 13.4645 5.84668Z" fill="#D6E7F9"/>
<path d="M17.2452 5.86382C17.4315 5.954 17.4985 6.01213 17.6138 6.19146C17.6381 6.46409 17.6183 6.6283 17.4558 6.84672C17.2444 6.9929 17.0723 7.00645 16.8239 6.95593C16.6572 6.81478 16.583 6.73424 16.5376 6.51888C16.5258 6.31728 16.555 6.20062 16.6594 6.03105C16.8498 5.8394 16.9832 5.8454 17.2452 5.86382Z" fill="#D6E8F9"/>
<path d="M9.88767 5.8501C10.0959 5.86449 10.1854 5.89714 10.3484 6.02757C10.4778 6.22879 10.4906 6.3945 10.4537 6.62823C10.3593 6.78167 10.2948 6.87446 10.1378 6.95586C9.76593 6.98747 9.76593 6.98747 9.56186 6.85689C9.42139 6.70238 9.40334 6.59911 9.38086 6.38933C9.40562 6.14115 9.48252 6.07432 9.66388 5.91835C9.71654 5.86375 9.71654 5.86375 9.88767 5.8501Z" fill="#D6E8FA"/>
</svg>
