<svg width="22" height="26" viewBox="0 0 22 26" fill="none" xmlns="http://www.w3.org/2000/svg">
<path d="M14.4502 0.952204C14.971 1.37501 15.3196 1.87179 15.6776 2.42677C15.7244 2.49871 15.7244 2.49871 15.7721 2.5721C17.3553 5.0147 18.5272 7.20887 17.8662 10.15C17.3595 12.238 16.4875 14.2759 15.3129 16.091C15.3447 16.1041 15.3765 16.1172 15.4093 16.1307C15.6113 16.2396 15.7815 16.3825 15.9588 16.5254C17.4932 17.7396 19.176 18.8251 20.9169 19.7342C20.9786 19.7665 21.0403 19.7988 21.1038 19.8321C21.2223 19.8936 21.3411 19.9545 21.4603 20.0147C21.5133 20.042 21.5664 20.0694 21.621 20.0977C21.6679 20.1214 21.7148 20.1451 21.7631 20.1695C21.905 20.2682 21.9505 20.3235 22 20.4873C21.9847 20.8016 21.8975 21.0093 21.7302 21.2752C21.7088 21.3096 21.6875 21.3441 21.6654 21.3795C21.5952 21.4922 21.5241 21.6043 21.4529 21.7163C21.4032 21.7956 21.3537 21.875 21.3042 21.9543C21.202 22.1179 21.0994 22.2813 20.9966 22.4444C20.8541 22.6705 20.713 22.8974 20.5723 23.1245C20.4015 23.4004 20.2303 23.676 20.0587 23.9514C19.8936 24.2165 19.7295 24.4821 19.5662 24.7483C19.508 24.8427 19.508 24.8427 19.4487 24.9391C19.3761 25.057 19.3038 25.1751 19.2318 25.2933C19.1995 25.3456 19.1672 25.3979 19.134 25.4517C19.1062 25.4971 19.0784 25.5425 19.0497 25.5893C18.9502 25.7297 18.8499 25.8417 18.7172 25.953C18.2785 26.0193 17.9868 25.8633 17.6078 25.6596C17.5479 25.6282 17.488 25.5968 17.4263 25.5645C15.3158 24.4418 13.333 23.1171 11.5184 21.5781C11.3663 21.4503 11.2119 21.3252 11.0575 21.2002C10.7756 21.2856 10.5989 21.4447 10.3925 21.6421C10.0206 21.9871 9.63143 22.2995 9.22337 22.6027C9.11081 22.6864 8.9989 22.771 8.887 22.8556C7.50542 23.8923 6.01019 24.7691 4.48814 25.5928C4.42273 25.629 4.35732 25.6653 4.28992 25.7026C3.66018 26.0374 3.66018 26.0374 3.2761 25.953C2.90484 25.637 2.68099 25.1777 2.43544 24.7647C2.3076 24.5497 2.17838 24.3355 2.04934 24.1213C2.02388 24.0789 1.99842 24.0366 1.9722 23.9929C1.76977 23.6567 1.56158 23.3243 1.34975 22.9936C1.25681 22.8473 1.16403 22.7008 1.07129 22.5544C0.993502 22.4317 0.915431 22.3093 0.837209 22.1869C0.721686 22.006 0.60751 21.8243 0.494028 21.6422C0.449476 21.5711 0.404515 21.5002 0.35912 21.4297C0.295788 21.3311 0.234055 21.2316 0.172387 21.132C0.136349 21.0749 0.100311 21.0178 0.063181 20.959C-0.0273601 20.7326 -0.0116725 20.6015 0.0541275 20.3685C0.201913 20.1829 0.363825 20.084 0.577745 19.9809C0.63284 19.9538 0.687935 19.9267 0.7447 19.8988C0.803939 19.87 0.863178 19.8412 0.924211 19.8115C2.81987 18.8654 4.62888 17.672 6.2549 16.3286C6.37638 16.2295 6.49802 16.1305 6.61965 16.0316C6.59089 15.9832 6.56213 15.9349 6.5325 15.8851C6.39777 15.6576 6.26511 15.429 6.13332 15.1998C6.11155 15.162 6.08979 15.1242 6.06736 15.0853C5.09707 13.3847 4.373 11.5312 4.0056 9.61533C3.99079 9.53959 3.97598 9.46385 3.96072 9.38582C3.65358 7.58285 4.37618 6.09213 5.21322 4.51753C5.29185 4.36914 5.36929 4.22017 5.4468 4.07121C7.05497 0.998388 7.05497 0.998388 8.56499 0.406842C10.4074 -0.170252 12.8312 -0.251988 14.4502 0.952204ZM7.71391 6.11017C8.16233 8.10044 9.39824 9.95476 10.6927 11.5164C10.7738 11.6155 10.8548 11.7145 10.9359 11.8135C11.1421 11.7291 11.2456 11.6328 11.3788 11.4587C11.4157 11.4106 11.4526 11.3626 11.4907 11.3131C11.5295 11.2613 11.5684 11.2096 11.6084 11.1563C11.6488 11.1029 11.6892 11.0496 11.7308 10.9946C13.4636 8.73198 13.4636 8.73198 14.2794 6.11017C13.7212 5.90661 13.1653 5.78065 12.5773 5.6943C12.5196 5.68564 12.5196 5.68564 12.4607 5.67681C11.9892 5.61572 11.5132 5.62041 11.0385 5.62004C10.9925 5.62 10.9466 5.61996 10.8992 5.61991C9.78326 5.62146 8.77558 5.77014 7.71391 6.11017Z" fill="#000100"/>
<path d="M6.37614 4.5061C6.3962 4.5061 6.41626 4.5061 6.43693 4.5061C6.44118 4.53923 6.44543 4.57236 6.44981 4.60649C6.54076 5.30198 6.64575 5.97478 6.86247 6.64485C6.87591 6.68755 6.88935 6.73026 6.9032 6.77426C7.73115 9.36774 9.3815 11.6276 11.2575 13.5988C11.3829 13.731 11.5039 13.8664 11.6244 14.0028C11.8494 14.255 12.0872 14.4925 12.3299 14.7283C12.3703 14.768 12.4107 14.8077 12.4524 14.8486C12.6916 15.0819 12.9375 15.304 13.1934 15.5198C13.3523 15.6547 13.5057 15.7948 13.6598 15.935C13.939 16.1868 14.2251 16.427 14.5213 16.6598C14.6558 16.7655 14.7893 16.872 14.9221 16.9796C16.7302 18.4389 18.7007 19.6336 20.723 20.7843C20.6883 21.0057 20.6274 21.1612 20.5065 21.3508C20.4571 21.4291 20.4571 21.4291 20.4067 21.5089C20.3527 21.5932 20.3527 21.5932 20.2975 21.6792C20.2201 21.8015 20.1428 21.9238 20.0655 22.0461C20.0243 22.1109 19.9832 22.1758 19.9408 22.2426C19.8057 22.4558 19.6726 22.6702 19.5397 22.8848C19.5171 22.9214 19.4944 22.958 19.471 22.9957C19.3816 23.1401 19.2923 23.2845 19.203 23.429C18.9847 23.7817 18.7652 24.1338 18.5419 24.4835C18.5082 24.5364 18.4746 24.5892 18.4399 24.6437C18.3521 24.7648 18.3521 24.7648 18.2306 24.8242C18.1218 24.7841 18.1218 24.7841 17.9886 24.7163C17.9386 24.6909 17.8886 24.6655 17.837 24.6394C17.7826 24.6109 17.7281 24.5825 17.672 24.5531C17.5871 24.5091 17.5871 24.5091 17.5004 24.4641C15.5125 23.4194 13.6008 22.136 11.9462 20.6307C11.8195 20.5169 11.6912 20.4068 11.5608 20.2972C11.2676 20.0473 10.9933 19.7802 10.719 19.5107C10.6696 19.4628 10.6203 19.4148 10.5695 19.3654C10.2736 19.0757 9.99047 18.7795 9.71969 18.4674C9.67023 18.4107 9.67023 18.4107 9.61976 18.3529C8.39526 16.9414 7.40629 15.4276 6.55851 13.774C6.53574 13.7306 6.51296 13.6872 6.4895 13.6424C5.70627 12.1479 5.03835 10.3497 4.91713 8.66478C4.90655 8.54887 4.90655 8.54887 4.89576 8.43062C4.80714 7.0555 5.70063 5.66036 6.37614 4.5061Z" fill="#00BF80"/>
<path d="M7.22932 16.8633C7.50325 17.112 7.71162 17.3909 7.92842 17.6876C8.31692 18.2108 8.73123 18.701 9.17466 19.1803C9.20517 19.2134 9.23568 19.2466 9.26712 19.2808C9.59159 19.633 9.92212 19.9777 10.2689 20.309C10.0257 20.8886 9.22957 21.3418 8.73237 21.7152C8.63455 21.789 8.53745 21.8637 8.4404 21.9384C7.13145 22.9404 5.72434 23.7937 4.27711 24.5902C4.23302 24.6147 4.18893 24.6391 4.1435 24.6643C3.84723 24.8242 3.84723 24.8242 3.64259 24.8242C3.53956 24.6858 3.53956 24.6858 3.4265 24.4912C3.40596 24.4563 3.38541 24.4214 3.36425 24.3855C3.31998 24.3102 3.27601 24.2347 3.23231 24.1591C3.11726 23.9601 3.00005 23.7623 2.88317 23.5643C2.85983 23.5246 2.83649 23.4849 2.81244 23.444C2.60984 23.1002 2.39887 22.7619 2.18359 22.4255C2.15197 22.3758 2.12035 22.3261 2.08777 22.2749C1.96952 22.0891 1.85105 21.9034 1.73127 21.7185C1.6509 21.5944 1.57142 21.4698 1.49208 21.345C1.46849 21.3092 1.44491 21.2735 1.4206 21.2366C1.2691 20.9963 1.2691 20.9963 1.28102 20.8422C1.35071 20.6834 1.42729 20.6524 1.58398 20.575C1.63726 20.5479 1.69054 20.5208 1.74543 20.4928C1.80351 20.464 1.86159 20.4352 1.92142 20.4056C3.65785 19.5129 5.29982 18.3826 6.80995 17.1602C7.09707 16.9279 7.09707 16.9279 7.22932 16.8633Z" fill="#21A470"/>
<path d="M15.5577 4.20898C15.7234 4.35323 15.8152 4.50676 15.9179 4.69819C15.9511 4.76009 15.9844 4.822 16.0186 4.88578C16.0533 4.95162 16.088 5.01745 16.1238 5.08528C16.177 5.18598 16.177 5.18598 16.2313 5.28871C16.7017 6.1885 17.1154 7.07601 17.1003 8.10403C17.0996 8.16646 17.0989 8.22889 17.0981 8.29321C17.0498 10.5715 16.0002 12.957 14.8586 14.9101C14.8344 14.9524 14.8103 14.9946 14.7855 15.0381C14.7161 15.152 14.7161 15.152 14.585 15.3186C14.3418 15.3186 14.3418 15.3186 14.2421 15.2422C14.2098 15.2074 14.1775 15.1725 14.1443 15.1366C14.0055 14.9886 13.8612 14.8551 13.7052 14.725C13.3844 14.4532 13.086 14.1597 12.7866 13.8659C12.6888 13.77 12.5907 13.6744 12.4926 13.5789C12.4292 13.517 12.366 13.4551 12.3027 13.3931C12.2463 13.3379 12.1898 13.2827 12.1317 13.2258C11.9676 13.0576 11.8171 12.8846 11.667 12.7046C11.7292 12.4886 11.8315 12.3522 11.9833 12.1896C13.2926 10.7504 14.3203 8.94006 14.9648 7.12908C15.0041 7.01915 15.0456 6.90997 15.0875 6.80096C15.3953 5.97381 15.4691 5.07924 15.5577 4.20898Z" fill="#21A370"/>
<path d="M14.0523 1.89217C14.4378 2.25708 14.5685 2.77616 14.5949 3.28581C14.5978 3.47923 14.5986 3.67242 14.5968 3.86585C14.5956 3.98694 14.5955 4.108 14.5955 4.2291C14.5926 4.87277 14.5926 4.87277 14.5234 5.15969C14.2215 5.09577 13.922 5.0276 13.623 4.95176C11.7343 4.4909 9.65848 4.55207 7.79953 5.10098C7.59317 5.15969 7.59317 5.15969 7.47159 5.15969C7.33494 4.89261 7.39697 4.52729 7.39619 4.23019C7.39561 4.0964 7.39373 3.96267 7.3918 3.8289C7.38713 3.20722 7.41138 2.51396 7.83634 2.01098C9.36479 0.543212 12.4224 0.659645 14.0523 1.89217Z" fill="#21A370"/>
</svg>
