<svg width="23" height="28" viewBox="0 0 23 28" fill="none" xmlns="http://www.w3.org/2000/svg">
<path d="M3.7843 0.00778638C3.85205 0.00749237 3.91979 0.00719837 3.98958 0.00689546C4.17598 0.00625338 4.36234 0.00633637 4.54874 0.0067408C4.7504 0.00700034 4.95206 0.00631509 5.15372 0.00575721C5.54817 0.00482098 5.94262 0.00477262 6.33707 0.00505915C6.65789 0.00528027 6.97871 0.00520042 7.29953 0.00490912C7.34529 0.00486826 7.39104 0.00482741 7.43819 0.00478531C7.53116 0.0047017 7.62413 0.00461772 7.7171 0.00453338C8.58797 0.00378485 9.45883 0.00408043 10.3297 0.00470726C11.1252 0.00524928 11.9207 0.00454325 12.7162 0.0032369C13.5343 0.00190356 14.3524 0.00138133 15.1706 0.00174399C15.6294 0.00193425 16.0881 0.00181534 16.5469 0.000856832C16.9375 5.08668e-05 17.3281 2.14102e-05 17.7187 0.000969884C17.9177 0.00143274 18.1167 0.00155604 18.3157 0.000715952C18.5321 -0.000186266 18.7485 0.000627366 18.9649 0.00158893C19.0269 0.00106458 19.0888 0.000540235 19.1526 0C20.1549 0.009108 21.005 0.414692 21.7027 1.12077C21.7414 1.15828 21.7801 1.19578 21.82 1.23443C22.5733 2.01232 22.7747 3.06547 22.7676 4.10957C22.7679 4.19234 22.7682 4.27511 22.7687 4.35788C22.7696 4.58266 22.7691 4.80742 22.7685 5.03219C22.768 5.27564 22.7687 5.51909 22.7693 5.76254C22.7703 6.2384 22.7701 6.71425 22.7695 7.19011C22.769 7.57711 22.7689 7.9641 22.7691 8.3511C22.7692 8.40633 22.7692 8.46157 22.7692 8.51847C22.7693 8.6307 22.7694 8.74294 22.7694 8.85517C22.7701 9.90575 22.7694 10.9563 22.7682 12.0069C22.7672 12.9069 22.7674 13.8069 22.7684 14.7069C22.7695 15.7539 22.77 16.801 22.7693 17.848C22.7693 17.9598 22.7692 18.0716 22.7691 18.1834C22.7691 18.2659 22.7691 18.2659 22.769 18.35C22.7688 18.7362 22.7692 19.1224 22.7697 19.5086C22.7703 19.9798 22.7701 20.4509 22.769 20.922C22.7684 21.162 22.7682 21.4021 22.7689 21.6421C22.7695 21.8624 22.7692 22.0827 22.768 22.303C22.7678 22.3821 22.7679 22.4612 22.7684 22.5403C22.7749 23.5856 22.5083 24.5824 21.7712 25.352C21.0509 26.0739 20.2079 26.5188 19.1739 26.526C19.0569 26.5259 18.9399 26.525 18.8229 26.5241C18.7378 26.5241 18.6527 26.5241 18.5677 26.5242C18.3385 26.5242 18.1094 26.5233 17.8802 26.5221C17.6401 26.5211 17.3999 26.521 17.1598 26.5208C16.7059 26.5203 16.2519 26.519 15.798 26.5173C15.2809 26.5155 14.7637 26.5146 14.2466 26.5138C13.1835 26.5121 12.1205 26.5092 11.0575 26.5055C11.0581 26.5656 11.0588 26.6257 11.0595 26.6876C11.0562 27.0166 10.9571 27.2967 10.7408 27.5477C10.3291 27.9257 9.99375 28.0112 9.44042 27.9989C9.11279 27.9644 8.9105 27.8268 8.64864 27.6383C8.46175 27.5245 8.37982 27.5207 8.16415 27.5427C8.00335 27.6218 8.00335 27.6218 7.85366 27.7304C7.4523 28.0052 7.11799 28.0244 6.63561 27.9795C6.2592 27.8677 5.97093 27.6572 5.76215 27.3244C5.61614 27.0429 5.59575 26.8233 5.59838 26.5055C5.56862 26.506 5.53885 26.5065 5.50819 26.507C5.19462 26.5119 4.88107 26.5151 4.56747 26.5175C4.45089 26.5186 4.33432 26.5201 4.21775 26.522C3.5511 26.5326 2.95122 26.5368 2.32293 26.2872C2.26652 26.2653 2.26652 26.2653 2.20897 26.243C1.30969 25.8588 0.614561 25.0471 0.248474 24.1581C0.0641275 23.5758 -0.00175416 23.036 0.00238225 22.4249C0.00212987 22.3421 0.00178274 22.2594 0.00135017 22.1766C0.000448086 21.9518 0.000884761 21.7271 0.0015655 21.5023C0.00206327 21.2588 0.00129498 21.0154 0.000696277 20.7719C-0.00027097 20.2961 -6.66697e-05 19.8202 0.000567996 19.3444C0.00106262 18.9574 0.00112741 18.5704 0.000890363 18.1834C0.000856903 18.1281 0.00082363 18.0729 0.000789155 18.016C0.000719334 17.9038 0.000648503 17.7915 0.000576742 17.6793C-4.48373e-05 16.6287 0.000668266 15.5781 0.0018433 14.5276C0.0028188 13.6276 0.00264919 12.7275 0.00164255 11.8275C0.000472044 10.7805 1.51576e-05 9.73351 0.000684615 8.6865C0.000754168 8.5747 0.000822634 8.4629 0.000890363 8.3511C0.000924052 8.2961 0.000957696 8.2411 0.000992405 8.18444C0.00118036 7.79824 0.000864003 7.41204 0.00034892 7.02584C-0.000265658 6.55471 -9.3325e-05 6.0836 0.00106529 5.61248C0.00163629 5.37244 0.00186888 5.13242 0.00114193 4.89238C0.000484859 4.67208 0.000859016 4.4518 0.00201032 4.2315C0.00225156 4.15238 0.00213648 4.07326 0.0016009 3.99414C-0.00497605 2.94062 0.26556 1.94676 1.01069 1.17451C1.08355 1.10138 1.1573 1.02915 1.23111 0.956995C1.27703 0.908439 1.27703 0.908439 1.32387 0.858902C1.53067 0.656986 1.78143 0.531817 2.03633 0.40085C2.07145 0.382642 2.10658 0.364433 2.14277 0.345673C2.67753 0.082697 3.19257 0.0046702 3.7843 0.00778638Z" fill="#020203"/>
<path d="M4.17937 0.847834C6.10345 0.845333 8.02752 0.84341 9.95159 0.842258C10.1789 0.842122 10.4061 0.84198 10.6334 0.841836C10.6786 0.841807 10.7239 0.841779 10.7705 0.841749C11.5026 0.841274 12.2348 0.840414 12.9669 0.83941C13.7184 0.838388 14.4699 0.837782 15.2214 0.837561C15.6849 0.837411 16.1484 0.836939 16.612 0.836051C16.93 0.835473 17.2481 0.8353 17.5662 0.835441C17.7495 0.835511 17.9329 0.835346 18.1163 0.834818C18.3155 0.834274 18.5147 0.834406 18.7138 0.834704C18.7713 0.834386 18.8288 0.834068 18.888 0.83374C19.7411 0.837178 20.4736 1.09918 21.0927 1.70103C21.684 2.34423 21.9098 3.02104 21.8978 3.88825C21.8977 3.9658 21.8978 4.04335 21.8979 4.12091C21.898 4.32909 21.8964 4.53723 21.8945 4.7454C21.8928 4.96382 21.8926 5.18225 21.8923 5.40068C21.8915 5.81325 21.8892 6.2258 21.8865 6.63836C21.8828 7.1966 21.8814 7.75484 21.8798 8.31309C21.8772 9.19112 21.8718 10.0691 21.8668 10.9471C20.6778 10.9471 19.4888 10.9471 18.2638 10.9471C18.2098 10.6769 18.1557 10.4067 18.1 10.1283C17.7423 9.34833 17.2551 8.74492 16.4487 8.41549C15.3899 8.09543 14.3888 8.4092 13.4485 8.89721C13.2916 8.98167 13.2916 8.98167 13.1323 9.09105C12.8562 9.07729 12.6499 8.96366 12.4158 8.82834C11.5863 8.36748 10.6419 8.16807 9.70137 8.37242C9.29255 8.51762 8.97023 8.74042 8.65582 9.03646C8.62113 9.06827 8.58644 9.10008 8.55069 9.13285C8.0585 9.63487 7.89499 10.2714 7.78237 10.9471C6.59338 10.9471 5.40439 10.9471 4.17937 10.9471C4.17821 10.3608 4.17821 10.3608 4.17703 9.76256C4.17593 9.51502 4.17476 9.26748 4.1733 9.01994C4.17098 8.62696 4.16896 8.234 4.1687 7.84102C4.16846 7.52421 4.16691 7.20744 4.16445 6.89064C4.16374 6.76973 4.1635 6.64882 4.16375 6.52792C4.16402 6.35863 4.1626 6.18944 4.16078 6.02017C4.16125 5.97011 4.16172 5.92004 4.16221 5.86846C4.1578 5.62391 4.14816 5.51913 3.99693 5.31811C3.85783 5.19773 3.85783 5.19773 3.67782 5.21851C3.51894 5.25876 3.51894 5.25876 3.4151 5.37888C3.39818 5.4827 3.39818 5.4827 3.40027 5.60303C3.39974 5.64995 3.39921 5.69688 3.39866 5.74522C3.39863 5.79681 3.39859 5.8484 3.39856 5.90155C3.39787 5.98291 3.39787 5.98291 3.39717 6.06591C3.39575 6.24583 3.39509 6.42575 3.39442 6.60568C3.39353 6.73023 3.3926 6.85479 3.3916 6.97934C3.38911 7.3077 3.38721 7.63606 3.38548 7.96443C3.38265 8.49029 3.3791 9.01614 3.37521 9.542C3.37395 9.72626 3.37307 9.91052 3.37222 10.0948C3.37149 10.207 3.37074 10.3193 3.36999 10.4315C3.36977 10.5091 3.36977 10.5091 3.36955 10.5882C3.36671 10.9409 3.36671 10.9409 3.30592 11.0017C3.19573 11.0218 3.08537 11.0409 2.97496 11.0597C2.24253 11.2155 1.66333 11.5542 1.13636 12.0814C1.0131 12.2027 1.0131 12.2027 0.903921 12.2573C0.897533 11.0738 0.892726 9.89028 0.889779 8.70674C0.888374 8.15715 0.88646 7.60757 0.88333 7.05798C0.880601 6.57872 0.878846 6.09947 0.878239 5.6202C0.877885 5.36665 0.877057 5.11312 0.875062 4.85957C0.873195 4.62043 0.87264 4.38132 0.873048 4.14217C0.872973 4.05487 0.872439 3.96758 0.871384 3.88029C0.861079 2.98323 1.12502 2.28832 1.73984 1.62575C2.17125 1.21649 2.76141 0.893696 3.36051 0.902424C3.36083 0.942412 3.36115 0.982399 3.36148 1.0236C3.36464 1.40034 3.36857 1.77706 3.37338 2.15378C3.37582 2.34746 3.37796 2.54114 3.37942 2.73483C3.38111 2.95748 3.3841 3.18009 3.38717 3.40273C3.38751 3.47234 3.38786 3.54194 3.38822 3.61366C3.3893 3.67813 3.39038 3.7426 3.3915 3.80903C3.39241 3.89431 3.39241 3.89431 3.39333 3.98131C3.40408 4.12441 3.40408 4.12441 3.48844 4.22332C3.63188 4.32442 3.73617 4.31138 3.90642 4.28706C4.05554 4.17228 4.11749 4.10695 4.15311 3.92016C4.15384 3.83506 4.15384 3.83506 4.15458 3.74824C4.15566 3.68377 4.15674 3.6193 4.15785 3.55288C4.15791 3.48356 4.15798 3.41423 4.15805 3.34281C4.15895 3.27163 4.15985 3.20044 4.16078 3.12711C4.16317 2.93828 4.16426 2.74947 4.16508 2.56063C4.16615 2.36778 4.16844 2.17493 4.17063 1.98209C4.17474 1.60401 4.17749 1.22593 4.17937 0.847834Z" fill="#A3E6FE"/>
<path d="M4.17903 15.0415C5.43998 15.0174 5.43998 15.0174 5.97914 15.0122C6.3465 15.0086 6.71378 15.0044 7.08107 14.9962C7.37735 14.9897 7.67353 14.9861 7.96987 14.9845C8.08269 14.9834 8.1955 14.9813 8.30828 14.978C9.19254 14.9536 9.19254 14.9536 9.48528 15.1717C9.60961 15.3229 9.70538 15.4722 9.80189 15.642C9.86452 15.7149 9.92897 15.7863 9.99637 15.8548C10.027 15.8862 10.0575 15.9176 10.0891 15.9499C10.8408 16.6995 11.848 17.683 12.9716 17.6858C13.7656 17.6822 14.3305 17.3202 14.9334 16.843C14.9633 16.8195 14.9931 16.796 15.0238 16.7717C15.3844 16.4842 15.7213 16.1743 16.0491 15.8501C16.0801 15.8197 16.1111 15.7892 16.143 15.7579C16.3022 15.5974 16.43 15.4428 16.5503 15.2512C16.6435 15.1267 16.6989 15.0543 16.8464 15.002C16.9805 14.9878 17.1084 14.9874 17.2432 14.9919C17.3183 14.9918 17.3183 14.9918 17.395 14.9917C17.5599 14.992 17.7246 14.9954 17.8894 14.9989C18.004 14.9997 18.1186 15.0003 18.2332 15.0007C18.5342 15.0024 18.8352 15.0067 19.1362 15.0115C19.4436 15.016 19.751 15.018 20.0584 15.0202C20.6611 15.0249 21.2638 15.0323 21.8665 15.0415C21.8733 15.2753 21.8782 15.509 21.8815 15.7429C21.8828 15.822 21.8847 15.9012 21.8871 15.9803C21.9147 16.9163 21.6844 17.6468 21.0284 18.3443C20.4485 18.9039 19.7011 19.1607 18.9034 19.158C18.827 19.1589 18.827 19.1589 18.749 19.1598C18.5335 19.1623 18.3179 19.1629 18.1023 19.1637C17.944 19.1646 17.7857 19.1664 17.6274 19.1682C17.5542 19.168 17.5542 19.168 17.4795 19.1677C17.4343 19.1683 17.3891 19.1688 17.3425 19.1694C17.3028 19.1695 17.2631 19.1696 17.2222 19.1698C17.0847 19.1968 17.0365 19.2428 16.9533 19.3542C16.9208 19.6066 16.9208 19.6066 17.0218 19.8288C17.1405 19.9177 17.2043 19.9208 17.3516 19.9213C17.3989 19.9218 17.4461 19.9223 17.4948 19.9229C17.5458 19.9225 17.5968 19.9222 17.6493 19.9218C17.7022 19.922 17.7551 19.9222 17.8095 19.9223C17.9217 19.9224 18.0338 19.9221 18.146 19.9214C18.3159 19.9206 18.4857 19.9214 18.6556 19.9225C18.7649 19.9224 18.8741 19.9222 18.9834 19.9218C19.0586 19.9223 19.0586 19.9223 19.1353 19.9229C20.0926 19.9127 20.9861 19.4812 21.6549 18.8083C21.6991 18.761 21.6991 18.761 21.7441 18.7127C21.7664 18.6902 21.7888 18.6677 21.8119 18.6445C21.8299 18.6445 21.8479 18.6445 21.8665 18.6445C21.8713 18.8595 21.8742 19.0744 21.8767 19.2894C21.8788 19.3795 21.8788 19.3795 21.8809 19.4714C21.8882 20.2991 21.637 20.9779 21.0642 21.5788C20.5353 22.0952 19.8563 22.4184 19.1104 22.4178C19.0031 22.418 19.0031 22.418 18.8935 22.4181C18.8146 22.4179 18.7357 22.4177 18.6567 22.4175C18.5733 22.4175 18.4899 22.4175 18.4065 22.4175C18.1804 22.4175 17.9543 22.4172 17.7282 22.4168C17.4917 22.4165 17.2553 22.4164 17.0189 22.4164C16.5713 22.4162 16.1237 22.4158 15.6762 22.4152C15.1666 22.4146 14.657 22.4143 14.1474 22.414C13.0992 22.4135 12.051 22.4125 11.0029 22.4113C10.9966 22.3632 10.9903 22.3151 10.9838 22.2655C10.9749 22.2021 10.966 22.1386 10.9568 22.0733C10.9483 22.0105 10.9397 21.9478 10.9309 21.8832C10.8617 21.5453 10.7057 21.313 10.429 21.1094C10.1386 20.93 9.9095 20.822 9.56505 20.8185C9.50544 20.8178 9.44584 20.8171 9.38442 20.8164C9.31994 20.816 9.25546 20.8155 9.18902 20.8151C9.12256 20.8147 9.0561 20.8143 8.98763 20.8138C8.84675 20.813 8.70586 20.8125 8.56498 20.812C8.35039 20.8111 8.13585 20.8087 7.92127 20.8063C7.7843 20.8057 7.64732 20.8053 7.51035 20.8049C7.44653 20.8039 7.38271 20.803 7.31695 20.802C6.77597 20.8034 6.36646 20.9335 5.98053 21.3195C5.73079 21.6524 5.6995 22.0042 5.65298 22.4113C5.25099 22.4525 4.96572 22.4183 4.62876 22.1861C4.35378 21.9557 4.20497 21.7561 4.14789 21.396C4.13039 21.0159 4.1426 20.6902 4.39853 20.3927C4.77495 20.0077 5.13702 19.9196 5.65756 19.9115C5.80308 19.9111 5.94855 19.9122 6.09407 19.9134C6.1993 19.913 6.30453 19.9125 6.40976 19.9119C6.6942 19.9106 6.9786 19.9112 7.26304 19.9123C7.56096 19.913 7.85886 19.9118 8.15678 19.9108C8.72054 19.9092 9.28428 19.9092 9.84805 19.9099C10.6765 19.9107 11.505 19.9092 12.3335 19.9076C12.4556 19.9074 12.5777 19.9072 12.6999 19.9069C12.7595 19.9068 12.8191 19.9067 12.8805 19.9066C13.2353 19.906 13.59 19.9058 13.9448 19.9061C14.165 19.9062 14.3851 19.9062 14.6053 19.9061C14.7076 19.9061 14.8099 19.9062 14.9122 19.9064C15.0515 19.9067 15.1908 19.9067 15.3301 19.9065C15.3912 19.9068 15.3912 19.9068 15.4536 19.907C15.623 19.9066 15.7541 19.8995 15.9161 19.8455C16.045 19.6875 16.045 19.6875 16.015 19.4873C15.9898 19.2855 15.9898 19.2855 15.8069 19.1904C15.6649 19.1799 15.5287 19.1757 15.3867 19.1766C15.3435 19.1764 15.3003 19.1762 15.2557 19.176C15.1104 19.1756 14.9651 19.1759 14.8198 19.1763C14.7157 19.1761 14.6117 19.1759 14.5077 19.1757C14.2247 19.1752 13.9417 19.1754 13.6587 19.1757C13.3625 19.176 13.0663 19.1758 12.7701 19.1756C12.2722 19.1754 11.7743 19.1757 11.2764 19.1762C10.7014 19.1768 10.1265 19.1766 9.55156 19.176C9.0578 19.1755 8.56404 19.1754 8.07028 19.1757C7.77546 19.1759 7.48065 19.1759 7.18583 19.1755C6.90824 19.1752 6.63066 19.1754 6.35308 19.1761C6.25146 19.1762 6.14983 19.1762 6.04821 19.1759C5.34405 19.1744 4.82264 19.1962 4.17903 19.518C4.17903 18.0407 4.17903 16.5635 4.17903 15.0415Z" fill="#A3E6FE"/>
<path d="M12.4166 9.69445C12.7075 9.86438 12.9615 9.91391 13.296 9.85535C13.4784 9.78721 13.6406 9.6953 13.8078 9.59605C13.899 9.54556 13.9904 9.49537 14.082 9.4455C14.1255 9.42169 14.1689 9.39789 14.2137 9.37337C14.8088 9.05501 15.5408 8.95567 16.198 9.13928C16.3353 9.20334 16.45 9.27385 16.5714 9.36404C16.6097 9.3905 16.648 9.41696 16.6874 9.44422C17.0706 9.74033 17.3991 10.227 17.4877 10.7092C17.6167 12.1253 17.0702 13.4027 16.1893 14.4956C16.1656 14.5254 16.1419 14.5551 16.1175 14.5858C15.4996 15.3565 14.813 15.9997 14.0057 16.57C13.9235 16.6282 13.9235 16.6282 13.8398 16.6875C13.4552 16.9286 13.0874 16.9723 12.6409 16.8976C11.8921 16.6354 11.2421 15.9622 10.6756 15.4236C10.6383 15.3898 10.601 15.3561 10.5626 15.3213C9.52761 14.3512 8.57165 12.8467 8.52354 11.4058C8.51871 10.7205 8.67963 10.1375 9.15112 9.62249C10.1213 8.7082 11.3877 9.06149 12.4166 9.69445Z" fill="#FC796D"/>
<path d="M21.8119 18.6445C21.8299 18.6445 21.8479 18.6445 21.8665 18.6445C21.8713 18.8595 21.8742 19.0744 21.8767 19.2894C21.8788 19.3795 21.8788 19.3795 21.8809 19.4714C21.8882 20.2991 21.637 20.9779 21.0642 21.5788C20.5353 22.0952 19.8563 22.4185 19.1104 22.4179C19.0031 22.418 19.0031 22.418 18.8935 22.4181C18.8146 22.4179 18.7357 22.4177 18.6567 22.4175C18.5733 22.4175 18.4899 22.4175 18.4065 22.4175C18.1804 22.4175 17.9543 22.4172 17.7282 22.4168C17.4917 22.4165 17.2553 22.4165 17.0189 22.4164C16.5713 22.4162 16.1237 22.4158 15.6762 22.4152C15.1666 22.4146 14.657 22.4143 14.1474 22.414C13.0992 22.4135 12.051 22.4125 11.0029 22.4113C10.9966 22.3632 10.9903 22.3151 10.9838 22.2655C10.9749 22.2021 10.966 22.1387 10.9568 22.0733C10.9483 22.0106 10.9397 21.9478 10.9309 21.8832C10.8617 21.5453 10.7057 21.313 10.429 21.1094C10.1386 20.9301 9.9095 20.822 9.56505 20.8185C9.50544 20.8178 9.44584 20.8171 9.38442 20.8164C9.31994 20.816 9.25546 20.8156 9.18902 20.8152C9.12256 20.8147 9.0561 20.8143 8.98763 20.8138C8.84675 20.8131 8.70587 20.8125 8.56498 20.8121C8.35039 20.8111 8.13585 20.8087 7.92127 20.8063C7.7843 20.8058 7.64732 20.8053 7.51035 20.8049C7.44653 20.804 7.38271 20.803 7.31695 20.802C6.77597 20.8035 6.36646 20.9335 5.98053 21.3195C5.73079 21.6525 5.69951 22.0042 5.65298 22.4113C5.25099 22.4526 4.96572 22.4183 4.62876 22.1861C4.35378 21.9558 4.20497 21.7561 4.14789 21.396C4.13039 21.016 4.1426 20.6903 4.39853 20.3928C4.77495 20.0077 5.13702 19.9196 5.65756 19.9115C5.80308 19.9111 5.94855 19.9122 6.09407 19.9134C6.1993 19.913 6.30453 19.9125 6.40976 19.9119C6.6942 19.9106 6.9786 19.9112 7.26304 19.9123C7.56096 19.913 7.85886 19.9118 8.15678 19.9108C8.72054 19.9092 9.28428 19.9093 9.84805 19.9099C10.6765 19.9108 11.505 19.9092 12.3335 19.9076C12.4556 19.9074 12.5777 19.9072 12.6999 19.907C12.7595 19.9069 12.8191 19.9067 12.8805 19.9066C13.2353 19.906 13.59 19.9059 13.9448 19.9061C14.165 19.9063 14.3851 19.9062 14.6053 19.9061C14.7076 19.9061 14.8099 19.9062 14.9122 19.9064C15.0515 19.9067 15.1908 19.9067 15.3301 19.9066C15.3912 19.9068 15.3912 19.9068 15.4536 19.9071C15.623 19.9066 15.7541 19.8995 15.9161 19.8455C16.0093 19.6818 16.0093 19.6818 16.0798 19.518C16.7752 19.4678 16.7752 19.4678 16.9416 19.589C16.9976 19.6783 16.9976 19.6783 17.0625 19.8455C17.1461 19.9292 17.2226 19.9079 17.3392 19.9089C17.3865 19.9094 17.4337 19.91 17.4824 19.9105C17.5597 19.9109 17.5597 19.9109 17.6387 19.9112C17.6917 19.9115 17.7447 19.9118 17.7993 19.9122C17.9121 19.9127 18.025 19.913 18.1378 19.9132C18.3086 19.9138 18.4794 19.9155 18.6503 19.9172C18.76 19.9175 18.8698 19.9178 18.9796 19.918C19.03 19.9187 19.0805 19.9194 19.1325 19.9201C20.0903 19.9169 20.9865 19.4808 21.6549 18.8083C21.6991 18.761 21.6991 18.761 21.7441 18.7128C21.7776 18.679 21.7776 18.679 21.8119 18.6445Z" fill="#EFEFEF"/>
<path d="M3.36107 15.0961C3.36115 15.129 3.36123 15.162 3.36131 15.1959C3.36334 15.9993 3.36657 16.8027 3.37111 17.606C3.37328 17.9946 3.37505 18.3831 3.37587 18.7716C3.37658 19.1105 3.37806 19.4493 3.38043 19.7882C3.38166 19.9674 3.38241 20.1466 3.38247 20.3259C3.3826 20.5266 3.38408 20.7272 3.38586 20.9279C3.38559 20.9865 3.38531 21.0451 3.38503 21.1055C3.39288 21.6788 3.55181 22.2137 3.96157 22.6297C4.49129 23.0851 4.95363 23.1665 5.65389 23.2302C5.65389 24.0408 5.65389 24.8515 5.65389 25.6867C5.10668 25.6918 5.10668 25.6918 4.54842 25.697C4.37782 25.6992 4.37782 25.6992 4.20377 25.7015C3.20594 25.7092 2.4287 25.5452 1.68432 24.835C0.881878 23.9928 0.862815 23.0611 0.868232 21.9588C0.868047 21.8258 0.867782 21.6928 0.86744 21.5598C0.86704 21.2824 0.867616 21.005 0.868898 20.7276C0.870455 20.3737 0.869555 20.0198 0.867923 19.6658C0.866932 19.3917 0.867252 19.1175 0.867958 18.8433C0.868139 18.7129 0.867921 18.5824 0.867281 18.452C0.863201 17.3867 0.990105 16.628 1.74041 15.8194C2.17181 15.4102 2.76197 15.0874 3.36107 15.0961Z" fill="#59D3FC"/>
<path d="M21.8119 21.9199C21.8299 21.9199 21.848 21.9199 21.8665 21.9199C21.9066 23.0056 21.9164 23.9027 21.1568 24.7586C20.6746 25.2751 19.9911 25.6445 19.2797 25.7015C19.0616 25.7068 18.8439 25.707 18.6258 25.7053C18.5423 25.7052 18.4589 25.7053 18.3755 25.7054C18.1505 25.7054 17.9255 25.7044 17.7005 25.7033C17.4648 25.7023 17.2291 25.7022 16.9934 25.702C16.5478 25.7015 16.1022 25.7001 15.6566 25.6985C15.1489 25.6967 14.6413 25.6958 14.1337 25.6949C13.0901 25.6932 12.0465 25.6902 11.0029 25.6867C11.0029 24.876 11.0029 24.0653 11.0029 23.2301C11.2594 23.2293 11.5159 23.2285 11.7802 23.2277C12.6282 23.2249 13.4762 23.2213 14.3243 23.2172C14.8384 23.2148 15.3525 23.2126 15.8666 23.2112C16.3148 23.2099 16.7631 23.2081 17.2114 23.2056C17.4486 23.2043 17.6857 23.2033 17.9229 23.2029C18.1466 23.2026 18.3702 23.2015 18.5938 23.1998C18.6755 23.1994 18.7572 23.1992 18.8389 23.1993C19.3067 23.1996 19.7288 23.1648 20.1742 23.0117C20.2339 22.9918 20.2935 22.9719 20.355 22.9514C20.8985 22.7326 21.3446 22.4163 21.7441 21.9882C21.7665 21.9656 21.7889 21.9431 21.8119 21.9199Z" fill="#59D5FD"/>
<path d="M3.36051 0.902517C3.36083 0.942504 3.36115 0.982492 3.36148 1.02369C3.36464 1.40043 3.36857 1.77715 3.37338 2.15388C3.37582 2.34756 3.37796 2.54123 3.37942 2.73492C3.38111 2.95757 3.3841 3.18019 3.38717 3.40282C3.38751 3.47243 3.38786 3.54203 3.38822 3.61375C3.3893 3.67822 3.39038 3.74269 3.3915 3.80912C3.39241 3.8944 3.39241 3.8944 3.39333 3.98141C3.41818 4.14343 3.45002 4.18994 3.57887 4.28715C3.69351 4.35134 3.69351 4.35134 3.79724 4.39633C3.79691 4.51918 3.79417 4.64203 3.79041 4.76482C3.78915 4.83322 3.78788 4.90162 3.78657 4.9721C3.77208 5.0343 3.75758 5.09651 3.74265 5.1606C3.68855 5.18949 3.63445 5.21837 3.57871 5.24813C3.41001 5.35709 3.41001 5.35709 3.38434 5.48718C3.37288 5.63031 3.37166 5.77045 3.37377 5.91404C3.37328 5.9683 3.37279 6.02255 3.37228 6.07845C3.37102 6.25781 3.37206 6.43707 3.37309 6.61643C3.37262 6.74083 3.37199 6.86523 3.37122 6.98963C3.36956 7.3171 3.3698 7.64454 3.37049 7.97202C3.371 8.37063 3.36945 8.76923 3.36803 9.16784C3.36693 9.47779 3.36621 9.78773 3.36662 10.0977C3.36659 10.1829 3.36659 10.1829 3.36656 10.2698C3.36654 10.3764 3.36671 10.4829 3.36713 10.5895C3.36667 10.9411 3.36667 10.9411 3.30592 11.0018C3.19573 11.0219 3.08537 11.041 2.97496 11.0598C2.24253 11.2156 1.66333 11.5543 1.13636 12.0815C1.0131 12.2028 1.0131 12.2028 0.903921 12.2574C0.897533 11.0739 0.892726 9.89037 0.889779 8.70683C0.888374 8.15724 0.88646 7.60766 0.88333 7.05808C0.880601 6.57882 0.878846 6.09956 0.878239 5.6203C0.877885 5.36674 0.877057 5.11321 0.875062 4.85967C0.873195 4.62052 0.87264 4.38141 0.873048 4.14226C0.872973 4.05496 0.872439 3.96767 0.871384 3.88038C0.861079 2.98332 1.12502 2.28841 1.73984 1.62585C2.17125 1.21659 2.76141 0.893788 3.36051 0.902517Z" fill="#58D3FC"/>
<path d="M10.2389 9.09106C10.2449 9.15644 10.2509 9.22181 10.257 9.28917C10.4268 11.0685 11.0244 12.6559 12.4225 13.8405C13.11 14.3761 13.875 14.7574 14.7153 14.9869C14.7829 15.0083 14.8505 15.0297 14.9201 15.0517C15.1417 15.1071 15.3615 15.1311 15.5888 15.1507C15.061 15.8104 14.1042 16.7896 13.2271 16.9251C12.1771 16.943 11.3957 16.1082 10.6756 15.4236C10.6383 15.3898 10.601 15.356 10.5626 15.3212C9.52761 14.3512 8.57165 12.8467 8.52354 11.4058C8.51871 10.7205 8.67963 10.1375 9.15112 9.62247C9.46542 9.32628 9.7965 9.09106 10.2389 9.09106Z" fill="#F65546"/>
<path d="M7.17592 21.5764C7.25766 21.5753 7.25766 21.5753 7.34106 21.5743C7.39991 21.5741 7.45877 21.574 7.51941 21.5739C7.61039 21.5734 7.61039 21.5734 7.70322 21.5728C7.83171 21.5722 7.9602 21.572 8.08869 21.572C8.28472 21.5718 8.48068 21.5698 8.67669 21.5677C8.80158 21.5674 8.92647 21.5672 9.05136 21.5671C9.10978 21.5663 9.16819 21.5655 9.22837 21.5647C9.57664 21.5668 9.79229 21.6002 10.0741 21.8106C10.2137 22.02 10.1998 22.1918 10.2 22.4346C10.2005 22.4816 10.2009 22.5286 10.2014 22.577C10.2027 22.7325 10.2032 22.888 10.2035 23.0436C10.204 23.1516 10.2045 23.2597 10.205 23.3677C10.2059 23.5943 10.2063 23.8209 10.2065 24.0475C10.2068 24.3379 10.2089 24.6282 10.2113 24.9186C10.213 25.1418 10.2134 25.365 10.2134 25.5882C10.2136 25.6952 10.2143 25.8023 10.2155 25.9093C10.2169 26.0591 10.2167 26.2088 10.216 26.3586C10.2168 26.4028 10.2176 26.447 10.2184 26.4925C10.2154 26.7253 10.2036 26.8078 10.0516 26.9957C9.84478 27.1571 9.7363 27.1831 9.47359 27.1605C9.316 27.0788 9.316 27.0788 9.1631 26.9728C8.75336 26.6923 8.37608 26.6706 7.89045 26.7238C7.68557 26.8075 7.51912 26.9166 7.34454 27.0513C7.14052 27.1873 7.04029 27.1855 6.79864 27.1605C6.64833 27.0625 6.55154 26.9939 6.47109 26.833C6.46458 26.6812 6.46135 26.5307 6.46056 26.3789C6.46012 26.3319 6.45967 26.285 6.45921 26.2366C6.45785 26.0807 6.45695 25.9249 6.45616 25.7691C6.45587 25.7159 6.45558 25.6628 6.45528 25.608C6.45382 25.3266 6.45277 25.0453 6.45198 24.7639C6.45107 24.4731 6.44862 24.1824 6.44584 23.8916C6.44401 23.6681 6.44338 23.4447 6.44307 23.2213C6.4427 23.1141 6.44187 23.0069 6.44056 22.8997C6.43884 22.7496 6.43883 22.5997 6.43924 22.4496C6.43789 22.3832 6.43789 22.3832 6.43652 22.3155C6.43906 22.0855 6.45008 22.0005 6.59932 21.815C6.80585 21.6529 6.91487 21.5786 7.17592 21.5764Z" fill="#B08BD8"/>
<path d="M8.54534 21.5923C8.72843 21.5859 8.91149 21.5821 9.09466 21.5787C9.14613 21.5769 9.19761 21.575 9.25065 21.5731C9.59347 21.5684 9.79588 21.6054 10.0739 21.8107C10.2135 22.0201 10.1996 22.1919 10.1998 22.4347C10.2002 22.4817 10.2007 22.5287 10.2012 22.5771C10.2025 22.7326 10.203 22.8881 10.2033 23.0437C10.2038 23.1517 10.2043 23.2598 10.2048 23.3678C10.2057 23.5944 10.2061 23.821 10.2063 24.0476C10.2066 24.338 10.2086 24.6283 10.2111 24.9187C10.2128 25.1419 10.2132 25.3651 10.2132 25.5883C10.2134 25.6953 10.2141 25.8024 10.2153 25.9094C10.2167 26.0592 10.2165 26.2089 10.2158 26.3587C10.2166 26.4029 10.2174 26.4471 10.2182 26.4926C10.2152 26.7254 10.2034 26.8079 10.0514 26.9958C9.84472 27.157 9.73588 27.1827 9.47338 27.1606C9.32923 27.0828 9.32923 27.0828 9.18678 26.9798C8.99215 26.8391 8.81812 26.7565 8.58911 26.6904C8.51545 26.6689 8.51545 26.6689 8.4403 26.647C8.4029 26.6364 8.36551 26.6257 8.32697 26.6147C8.32191 26.0163 8.31803 25.4179 8.31566 24.8195C8.31452 24.5416 8.31298 24.2637 8.3105 23.9858C8.30812 23.7175 8.30682 23.4492 8.30626 23.1809C8.30585 23.0787 8.30507 22.9764 8.30389 22.8742C8.30229 22.7307 8.30208 22.5873 8.30218 22.4438C8.3014 22.4018 8.30061 22.3598 8.2998 22.3165C8.30208 22.0161 8.37889 21.8424 8.54534 21.5923Z" fill="#C6ADE3"/>
<path d="M18.2641 11.7659C19.4531 11.7659 20.6421 11.7659 21.8671 11.7659C21.8671 12.5765 21.8671 13.3872 21.8671 14.2225C20.3898 14.2225 18.9126 14.2225 17.3906 14.2225C17.4568 14.0571 17.5205 13.9014 17.5983 13.7429C17.9172 13.0852 18.132 12.4921 18.2641 11.7659Z" fill="#C6ADE3"/>
<path d="M4.17969 11.7659C5.36868 11.7659 6.55767 11.7659 7.78268 11.7659C7.83673 12.0361 7.89077 12.3063 7.94646 12.5847C8.01219 12.7715 8.07723 12.9448 8.158 13.1238C8.1758 13.1655 8.1936 13.2071 8.21195 13.2501C8.327 13.5142 8.45891 13.764 8.60435 14.0127C8.65614 14.1133 8.65614 14.1133 8.65614 14.2225C7.17891 14.2225 5.70168 14.2225 4.17969 14.2225C4.17969 13.4118 4.17969 12.6011 4.17969 11.7659Z" fill="#C6ADE3"/>
<path d="M9.50149 3.27368C9.69256 3.30439 9.69256 3.30439 9.81262 3.38308C9.9615 3.59461 9.93654 3.78934 9.92798 4.04137C9.92719 4.11135 9.92719 4.11135 9.92638 4.18275C9.92023 4.52607 9.92023 4.52607 9.87867 4.67758C9.84269 4.78408 9.84269 4.78408 9.92265 4.88411C9.95369 4.92127 9.98472 4.95842 10.0167 4.99671C10.2301 5.29867 10.2403 5.5653 10.1839 5.92475C10.0866 6.26451 9.87902 6.50154 9.58338 6.68902C9.0804 6.96399 8.45594 7.00166 7.90151 6.87135C7.51439 6.71637 7.17514 6.44078 6.99031 6.06464C6.86975 5.74709 6.85312 5.47555 6.99031 5.15707C7.18777 4.80441 7.52381 4.53141 7.89554 4.3768C8.26742 4.29466 8.65913 4.32692 9.03747 4.34162C9.03958 4.26361 9.03958 4.26361 9.04174 4.18403C9.04638 4.08132 9.04638 4.08132 9.05112 3.97654C9.05365 3.90877 9.05618 3.841 9.05879 3.77118C9.10899 3.47869 9.2018 3.32185 9.50149 3.27368Z" fill="#FDA1AC"/>
<path d="M16.7346 3.30447C16.905 3.46283 16.9501 3.54968 16.9743 3.78321C16.9728 3.85681 16.9702 3.93039 16.9666 4.00392C16.9656 4.04174 16.9646 4.07957 16.9636 4.11854C16.961 4.21115 16.9571 4.30373 16.9529 4.39629C16.989 4.37827 17.025 4.36026 17.0621 4.3417C17.6542 4.28938 18.1466 4.30526 18.6453 4.66924C18.9417 4.93694 19.1169 5.18203 19.157 5.58364C19.1462 5.90406 19.0342 6.17393 18.8237 6.4153C18.7148 6.51706 18.6038 6.60391 18.4815 6.68911C18.4481 6.71289 18.4148 6.73668 18.3804 6.76118C17.9668 6.99683 17.4118 6.97196 16.9529 6.90747C16.5447 6.78507 16.1932 6.56899 15.9703 6.19779C15.8265 5.89463 15.8105 5.59956 15.8611 5.26974C15.9363 5.1258 16.0184 5.00864 16.1223 4.88419C16.2023 4.78417 16.2023 4.78417 16.1663 4.67767C16.1557 4.63886 16.145 4.60005 16.1341 4.56006C16.1198 4.38736 16.119 4.21468 16.117 4.04145C16.1154 3.99479 16.1138 3.94814 16.1122 3.90007C16.1088 3.55881 16.1088 3.55881 16.2324 3.38316C16.4103 3.26653 16.5269 3.2711 16.7346 3.30447Z" fill="#FEA1AC"/>
<path d="M6.06113 19.9226C6.15826 19.9232 6.2554 19.9237 6.35253 19.924C6.60654 19.9252 6.86048 19.9284 7.11446 19.9321C7.37429 19.9354 7.63413 19.9369 7.89397 19.9386C8.40259 19.9421 8.91116 19.9476 9.41975 19.9546C9.398 19.9817 9.37626 20.0087 9.35385 20.0367C9.16869 20.2741 9.03416 20.4915 8.92843 20.7734C8.86651 20.7739 8.80458 20.7744 8.74079 20.775C8.5091 20.7772 8.27745 20.7808 8.04579 20.7848C7.94589 20.7863 7.84598 20.7874 7.74608 20.7882C7.60171 20.7894 7.45743 20.792 7.31309 20.7948C7.24704 20.7949 7.24704 20.7949 7.17966 20.795C6.70708 20.8069 6.31377 20.9861 5.98052 21.3193C5.73079 21.6523 5.6995 22.0041 5.65298 22.4112C5.25098 22.4524 4.96572 22.4181 4.62876 22.186C4.35378 21.9556 4.20497 21.756 4.14789 21.3959C4.13039 21.0158 4.14265 20.6903 4.39839 20.3927C4.89056 19.8897 5.40259 19.9103 6.06113 19.9226Z" fill="#D7D7D7"/>
<path d="M3.35976 11.8205C3.36114 12.1616 3.36209 12.5026 3.36276 12.8437C3.36303 12.9599 3.3634 13.076 3.36387 13.1921C3.36453 13.3587 3.36485 13.5252 3.36509 13.6917C3.36537 13.744 3.36565 13.7962 3.36594 13.8501C3.36595 13.8982 3.36595 13.9462 3.36595 13.9958C3.36608 14.0383 3.3662 14.0809 3.36632 14.1247C3.35976 14.2225 3.35976 14.2225 3.30517 14.2771C3.19497 14.2971 3.08462 14.3163 2.97421 14.3351C2.24178 14.4908 1.66258 14.8296 1.13561 15.3567C1.01235 15.4781 1.01235 15.4781 0.903168 15.5327C0.895114 15.2927 0.890349 15.0528 0.886108 14.8127C0.883821 14.7458 0.881534 14.6788 0.879178 14.6098C0.868305 13.7857 1.18478 13.1412 1.73909 12.5438C2.1705 12.1346 2.76066 11.8118 3.35976 11.8205Z" fill="#AD89D4"/>
<path d="M12.3138 3.95952C12.4426 4.03817 12.532 4.12575 12.6413 4.23248C12.8298 4.32674 13.0353 4.30689 13.2418 4.28707C13.4123 4.22076 13.529 4.17068 13.6478 4.03117C13.7331 3.95952 13.7331 3.95952 13.9208 3.93905C14.1153 3.95952 14.1153 3.95952 14.2483 4.01411C14.3563 4.15224 14.3777 4.26974 14.3684 4.44402C14.2846 4.7236 14.0179 4.86373 13.7854 5.01445C13.3927 5.22442 12.9253 5.23216 12.4985 5.12448C12.1998 5.00514 11.9094 4.81735 11.7133 4.56002C11.6576 4.36344 11.6751 4.19963 11.7679 4.01411C11.9477 3.92422 12.1209 3.91905 12.3138 3.95952Z" fill="#030404"/>
<path d="M16.7339 3.30453C16.9056 3.46338 16.9493 3.55327 16.9774 3.78754C16.977 3.86425 16.9754 3.94096 16.9727 4.01763C16.9726 4.05623 16.9726 4.09482 16.9725 4.13459C16.9691 4.3369 16.9626 4.50196 16.8431 4.66931C16.6525 4.79637 16.576 4.80595 16.3517 4.77849C16.2338 4.70044 16.2338 4.70044 16.1334 4.56012C16.1009 4.38671 16.1029 4.21746 16.1061 4.04151C16.1052 3.99485 16.1044 3.9482 16.1035 3.90013C16.1049 3.68505 16.1057 3.56189 16.2323 3.38322C16.4098 3.26627 16.5265 3.27121 16.7339 3.30453Z" fill="#050607"/>
<path d="M9.50181 3.27368C9.69287 3.30439 9.69287 3.30439 9.81208 3.38308C9.96193 3.59415 9.94518 3.78864 9.94194 4.04137C9.94325 4.08802 9.94455 4.13468 9.94589 4.18275C9.94509 4.52345 9.94509 4.52345 9.78158 4.69987C9.62046 4.7881 9.5453 4.81526 9.36533 4.77834C9.24281 4.67624 9.16365 4.59334 9.09237 4.4508C9.08269 4.30774 9.07723 4.16746 9.07531 4.02431C9.07373 3.98543 9.07215 3.94655 9.07052 3.90649C9.0681 3.70563 9.08596 3.58795 9.19068 3.41485C9.31074 3.30439 9.31074 3.30439 9.50181 3.27368Z" fill="#050606"/>
</svg>
