<svg width="28" height="25" viewBox="0 0 28 25" fill="none" xmlns="http://www.w3.org/2000/svg">
<path d="M18.3892 2.66894C18.4405 2.71335 18.4919 2.75775 18.5448 2.80351C19.7066 3.82217 20.5287 5.17896 20.6646 6.74356C20.679 7.15223 20.6777 7.55659 20.6117 7.96066C20.6446 7.96462 20.6776 7.96857 20.7115 7.97265C21.092 8.02677 21.456 8.11771 21.8255 8.22194C21.8737 8.23532 21.922 8.2487 21.9717 8.26248C22.5461 8.42813 22.5461 8.42813 22.7284 8.7015C22.735 8.84372 22.735 8.84372 22.7284 8.96609C22.7731 8.98028 22.8179 8.99446 22.864 9.00908C23.0459 9.07192 23.0459 9.07192 23.2377 9.16122C23.4198 9.23204 23.4556 9.24449 23.628 9.17776C23.8337 9.11697 23.9273 9.11803 24.1307 9.19429C25.4338 9.92156 26.5347 11.0863 26.9882 12.5248C27.3292 13.7436 27.1291 14.9575 26.5439 16.0598C26.3923 16.3272 26.2073 16.5638 26.0092 16.7978C25.9672 16.8478 25.9252 16.8978 25.8819 16.9493C24.9527 18.0124 23.679 18.7211 22.358 19.1791C22.323 19.1791 22.2881 19.1791 22.2521 19.1791C22.253 19.2333 22.2538 19.2874 22.2546 19.3432C22.2575 19.5455 22.2593 19.7478 22.2608 19.9501C22.2616 20.0374 22.2627 20.1247 22.2641 20.212C22.266 20.3379 22.2669 20.4639 22.2676 20.5899C22.2684 20.6285 22.2693 20.6671 22.2701 20.7069C22.2702 20.9766 22.2196 21.162 22.0934 21.4016C21.8892 21.5868 21.7315 21.6368 21.465 21.6362C21.0886 21.5594 20.9337 21.3464 20.7341 21.0444C20.7064 21.005 20.6788 20.9655 20.6504 20.9249C20.5121 20.7269 20.3829 20.5279 20.2648 20.3172C20.084 20.0016 20.084 20.0016 19.8179 19.7612C19.4832 19.6841 19.1442 19.7485 18.8125 19.8141C18.8118 19.8482 18.811 19.8822 18.8102 19.9173C18.7614 20.8415 18.2541 21.6249 17.5954 22.2483C17.2321 22.5571 16.8306 22.8034 16.4081 23.0222C16.3565 23.0495 16.3565 23.0495 16.3039 23.0772C16.0735 23.1907 15.8929 23.2275 15.6375 23.2008C15.5851 23.1659 15.5327 23.131 15.4787 23.095C15.4787 23.0601 15.4787 23.0251 15.4787 22.9891C15.4013 23.0121 15.4013 23.0121 15.3222 23.0354C15.2542 23.0553 15.1862 23.0751 15.1182 23.095C15.0513 23.1146 14.9844 23.1343 14.9154 23.1545C14.7379 23.2008 14.7379 23.2008 14.5791 23.2008C14.5748 23.2499 14.5704 23.299 14.5659 23.3496C14.5262 23.5183 14.5262 23.5183 14.4452 23.6043C14.2632 23.7057 14.0818 23.7212 13.878 23.7399C13.836 23.7441 13.7941 23.7483 13.7509 23.7527C13.1796 23.8056 12.6081 23.8113 12.0391 23.73C12.0279 23.7648 12.0167 23.7996 12.0052 23.8354C11.9067 24.0533 11.7716 24.2335 11.629 24.4245C11.6018 24.4624 11.5747 24.5002 11.5467 24.5392C11.3821 24.7605 11.2487 24.9047 10.9808 25C10.7407 25 10.6424 24.9743 10.4582 24.8181C10.298 24.6249 10.2864 24.5354 10.2877 24.2885C10.2878 24.2316 10.288 24.1746 10.2882 24.1159C10.2886 24.0562 10.2891 23.9965 10.2895 23.935C10.2898 23.8749 10.29 23.8148 10.2903 23.7529C10.2909 23.6042 10.2917 23.4554 10.2928 23.3066C10.2337 23.2962 10.2337 23.2962 10.1733 23.2855C9.36777 23.1091 8.64826 22.5417 8.07031 21.9837C8.0332 21.9486 7.9961 21.9135 7.95786 21.8773C7.35072 21.2547 7.0729 20.4077 7.06272 19.5522C7.08129 18.6236 7.58217 17.8432 8.22906 17.2212C8.26317 17.1867 8.29728 17.1521 8.33242 17.1166C8.84965 16.6241 9.53022 16.315 10.187 16.057C10.1198 15.8467 10.0422 15.6467 9.95218 15.4451C9.78545 15.05 9.65783 14.6362 9.65783 14.2049C9.00324 14.0977 9.00324 14.0977 8.39247 14.2726C8.21407 14.4636 8.09994 14.694 7.98135 14.925C7.85727 15.15 7.70104 15.3518 7.54775 15.5576C7.49157 15.6348 7.43547 15.712 7.37949 15.7893C7.34002 15.8432 7.34002 15.8432 7.29976 15.8983C7.24942 15.9682 7.20016 16.039 7.15206 16.1105C6.9408 16.4226 6.9408 16.4226 6.74738 16.4803C6.5204 16.5199 6.30747 16.5312 6.10328 16.4148C5.94617 16.284 5.86046 16.2008 5.79487 16.0041C5.79027 15.9221 5.78864 15.8399 5.78886 15.7577C5.78887 15.6831 5.78887 15.6831 5.78888 15.6069C5.78915 15.5533 5.78942 15.4997 5.7897 15.4445C5.78978 15.3895 5.78985 15.3346 5.78993 15.2779C5.79023 15.1021 5.79089 14.9264 5.79156 14.7506C5.79183 14.6315 5.79207 14.5124 5.79229 14.3933C5.79287 14.1012 5.79376 13.8091 5.79487 13.517C5.73591 13.5014 5.73591 13.5014 5.67575 13.4855C5.59788 13.4646 5.59788 13.4646 5.51843 13.4433C5.46711 13.4296 5.4158 13.416 5.36293 13.4019C5.15211 13.3406 4.95555 13.2579 4.75637 13.1664C4.6957 13.1388 4.6957 13.1388 4.63381 13.1106C3.01672 12.3653 1.49434 11.2922 0.608986 9.70693C0.580132 9.65638 0.551277 9.60583 0.521549 9.55376C0.357313 9.24827 0.23644 8.93566 0.132731 8.60559C0.12044 8.56826 0.108149 8.53093 0.0954849 8.49247C0.019276 8.23336 0.0199387 8.05729 0.132731 7.80191C0.24518 7.72584 0.24518 7.72584 0.3444 7.69607C0.343479 7.63192 0.343479 7.63192 0.34254 7.56647C0.342062 7.50992 0.341585 7.45337 0.341093 7.39511C0.340479 7.33924 0.339865 7.28337 0.339232 7.22581C0.343942 7.07567 0.362953 6.94233 0.397317 6.79648C0.355843 6.79102 0.314369 6.78557 0.271639 6.77994C0.132731 6.74356 0.132731 6.74356 0.0268967 6.58481C-0.132956 5.75863 0.453306 4.73823 0.898325 4.0772C2.49429 1.80368 5.21616 0.67225 7.86828 0.20661C11.3831 -0.377469 15.651 0.22612 18.3892 2.66894Z" fill="#010101"/>
<path d="M14.2092 1.39893C14.2733 1.41753 14.2733 1.41753 14.3388 1.43652C16.2798 2.0124 18.2615 3.15683 19.2805 4.96838C19.5818 5.53004 19.8247 6.13301 19.8254 6.77891C19.8255 6.83488 19.8255 6.89085 19.8256 6.94851C19.8254 7.00639 19.8252 7.06427 19.825 7.12391C19.8252 7.1824 19.8254 7.24089 19.8256 7.30116C19.8255 7.3848 19.8255 7.3848 19.8254 7.47014C19.8253 7.52111 19.8253 7.57208 19.8252 7.62459C19.8184 7.74899 19.8184 7.74899 19.7655 7.85482C19.696 7.85372 19.6265 7.85261 19.555 7.85147C17.6637 7.80747 17.6637 7.80747 15.7967 8.06649C15.7419 8.07898 15.6872 8.09148 15.6308 8.10435C14.1597 8.45322 12.7805 9.05243 11.6162 10.0244C11.5624 10.0689 11.5086 10.1134 11.4531 10.1592C10.4606 11.0067 9.96653 12.1144 9.65827 13.3582C9.614 13.3554 9.56973 13.3527 9.52412 13.3498C9.35805 13.3407 9.19211 13.3341 9.02588 13.3291C8.91929 13.3252 8.81283 13.3185 8.70638 13.3117C8.32191 13.2963 8.32191 13.2963 7.98983 13.4636C7.87987 13.5995 7.7893 13.737 7.70034 13.8874C7.64954 13.9599 7.59832 14.032 7.54655 14.1038C7.50061 14.1716 7.45486 14.2394 7.40929 14.3074C7.35988 14.3801 7.3104 14.4528 7.26088 14.5255C7.23695 14.5606 7.21302 14.5957 7.18837 14.6319C7.02934 14.8636 6.86942 15.0959 6.69491 15.3161C6.67745 15.3161 6.65999 15.3161 6.64199 15.3161C6.6415 15.2499 6.641 15.1837 6.64049 15.1155C6.63838 14.8697 6.6349 14.624 6.63101 14.3782C6.62952 14.2719 6.6284 14.1655 6.62765 14.0592C6.62652 13.9062 6.62405 13.7534 6.62132 13.6005C6.62126 13.553 6.62119 13.5054 6.62113 13.4565C6.61631 13.1911 6.61631 13.1911 6.49431 12.9612C6.38368 12.8862 6.29537 12.8391 6.16801 12.8007C6.12719 12.7877 6.08638 12.7747 6.04432 12.7613C6.00035 12.7476 5.95638 12.734 5.91107 12.7199C4.55963 12.2722 3.39596 11.574 2.3557 10.6065C2.30178 10.5578 2.30178 10.5578 2.24676 10.5081C1.57042 9.87125 1.04444 8.98497 0.856448 8.07187C0.814081 7.93857 0.775073 7.88449 0.662349 7.80191C0.524441 7.7637 0.524441 7.7637 0.397763 7.74899C0.38738 7.63989 0.377569 7.53074 0.367997 7.42156C0.362472 7.36079 0.356947 7.30001 0.351254 7.23739C0.340451 6.94013 0.340451 6.94013 0.397763 6.79648C0.474094 6.76241 0.474094 6.76241 0.551967 6.72765C0.734525 6.65006 0.734525 6.65006 0.789268 6.44363C0.807455 6.36412 0.824625 6.28438 0.840945 6.20447C1.01019 5.50197 1.32598 4.87762 1.77361 4.30937C1.83715 4.22792 1.83715 4.22792 1.90198 4.14483C2.67949 3.17395 3.72347 2.50053 4.84281 1.98101C4.89247 1.9568 4.94213 1.93258 4.99329 1.90763C7.80106 0.567175 11.2622 0.539389 14.2092 1.39893Z" fill="#FC7F86"/>
<path d="M21.9346 9.1248C22.1247 9.18817 22.2641 9.19523 22.4638 9.17772C22.5354 9.10823 22.606 9.03776 22.6754 8.96605C22.8849 8.98638 23.0586 9.06575 23.2476 9.15457C23.2992 9.17865 23.3509 9.20273 23.4041 9.22754C23.443 9.24602 23.482 9.26451 23.5221 9.28356C23.5139 9.38015 23.5139 9.38015 23.5056 9.47869C23.5074 9.65039 23.5151 9.69693 23.618 9.84249C23.754 9.95814 23.9062 10.0468 24.0579 10.1402C24.4968 10.4112 24.8541 10.7707 25.2155 11.1357C25.2458 11.1661 25.2762 11.1966 25.3074 11.2281C25.7251 11.6768 26.0259 12.2503 26.2209 12.829C26.2427 12.8923 26.2645 12.9556 26.287 13.0208C26.507 13.9891 26.2031 15.0152 25.6983 15.8399C25.2885 16.4381 24.8034 16.913 24.21 17.327C24.1779 17.3496 24.1457 17.3722 24.1125 17.3955C23.3695 17.9096 22.5352 18.2429 21.6859 18.5403C21.5478 18.5918 21.5478 18.5918 21.4583 18.7557C21.4457 18.8861 21.4386 19.0111 21.4364 19.1417C21.4349 19.1977 21.4349 19.1977 21.4333 19.2549C21.4302 19.374 21.4277 19.4932 21.4253 19.6123C21.4232 19.6932 21.4212 19.774 21.4191 19.8549C21.414 20.053 21.4095 20.251 21.4054 20.4491C21.2412 20.2904 21.0965 20.135 20.9682 19.9462C20.9385 19.9026 20.9088 19.8591 20.8782 19.8142C20.8481 19.7694 20.818 19.7246 20.787 19.6785C20.7562 19.6335 20.7255 19.5885 20.6938 19.5422C20.4635 19.2026 20.4635 19.2026 20.4004 19.0621C20.3506 18.9488 20.3506 18.9488 20.1883 18.9145C20.1124 18.9096 20.0362 18.9076 19.9601 18.9079C19.921 18.9077 19.8819 18.9076 19.8417 18.9075C19.7078 18.9121 19.7078 18.9121 19.5606 18.9412C19.3812 18.9695 19.2123 18.9726 19.0308 18.9707C18.9698 18.9702 18.9088 18.9698 18.846 18.9693C18.8 18.9687 18.754 18.968 18.7066 18.9674C18.6886 18.9207 18.6706 18.874 18.6521 18.8258C18.4734 18.3833 18.2671 18.0188 17.9658 17.6445C17.9416 17.6116 17.9174 17.5787 17.8924 17.5448C17.4568 16.9823 16.7947 16.6257 16.1666 16.3215C16.1163 16.2966 16.0661 16.2716 16.0143 16.2459C15.0618 15.8096 13.9386 15.6657 12.9023 15.67C12.8337 15.6701 12.765 15.6701 12.6943 15.6702C12.1463 15.6757 11.6222 15.732 11.0866 15.8453C10.6064 14.9362 10.2368 13.9602 10.5301 12.9229C10.7319 12.2849 11.0179 11.7486 11.457 11.2415C11.501 11.187 11.501 11.187 11.5459 11.1313C12.5172 9.95319 14.048 9.31274 15.4787 8.91314C15.5404 8.89588 15.6022 8.87862 15.6658 8.86084C15.832 8.819 15.998 8.78555 16.1666 8.75438C16.2004 8.7473 16.2342 8.74021 16.269 8.73291C18.0592 8.36486 20.2213 8.47259 21.9346 9.1248Z" fill="#89C8FD"/>
<path d="M17.1451 17.864C17.5755 18.2648 17.949 18.8062 17.9856 19.4077C18.0043 20.1439 17.8645 20.6699 17.3838 21.2429C17.3467 21.2942 17.3096 21.3455 17.2714 21.3983C16.871 21.8642 16.3078 22.1431 15.7694 22.4151C15.5872 22.4999 15.5872 22.4999 15.4788 22.6187C15.4576 22.7416 15.4397 22.8652 15.4259 22.9892C15.3158 23.0248 15.2055 23.06 15.0952 23.095C15.0338 23.1146 14.9724 23.1343 14.9091 23.1545C14.738 23.2008 14.738 23.2008 14.5263 23.2008C14.5078 23.1579 14.4893 23.115 14.4703 23.0707C14.3832 22.9269 14.3832 22.9269 14.2533 22.9108C14.0959 22.9011 13.9403 22.8996 13.7826 22.9011C13.7247 22.9008 13.6668 22.9006 13.6072 22.9003C13.4847 22.9002 13.3622 22.9006 13.2397 22.9017C13.0523 22.9032 12.8651 22.9018 12.6777 22.9001C12.5587 22.9002 12.4397 22.9006 12.3207 22.9011C12.2647 22.9006 12.2087 22.9 12.151 22.8995C11.8294 22.903 11.8294 22.903 11.5571 23.064C11.5241 23.1092 11.4911 23.1543 11.4571 23.2008C11.4301 23.2361 11.4031 23.2714 11.3753 23.3077C11.3542 23.339 11.3332 23.3703 11.3116 23.4026C11.2526 23.4861 11.2526 23.4861 11.1925 23.5712C11.1751 23.5712 11.1576 23.5712 11.1396 23.5712C11.1389 23.5285 11.1381 23.4857 11.1373 23.4416C11.1243 23.0951 11.1243 23.0951 10.9941 22.7808C10.7787 22.6441 10.557 22.5629 10.3177 22.4759C9.4048 22.1336 8.57134 21.5428 8.12332 20.6608C7.89889 20.1506 7.81357 19.6037 7.95775 19.0574C8.42384 17.8792 9.38182 17.3184 10.4796 16.8187C12.6312 15.9547 15.3934 16.3516 17.1451 17.864Z" fill="#FCD101"/>
<path d="M13.6798 1.29297C15.7098 1.6204 17.7952 2.84896 19.0036 4.51864C19.4531 5.17788 19.8242 5.96842 19.8252 6.77879C19.8253 6.83476 19.8253 6.89073 19.8254 6.94839C19.8252 7.00627 19.825 7.06415 19.8248 7.12378C19.825 7.18228 19.8252 7.24077 19.8254 7.30104C19.8253 7.38468 19.8253 7.38468 19.8252 7.47002C19.8251 7.52099 19.8251 7.57196 19.825 7.62447C19.8182 7.74887 19.8182 7.74887 19.7652 7.8547C19.6958 7.85359 19.6263 7.85249 19.5547 7.85134C17.6635 7.80734 17.6635 7.80734 15.7964 8.06637C15.7417 8.07886 15.687 8.09135 15.6306 8.10422C14.1595 8.4531 12.7803 9.05231 11.616 10.0243C11.5622 10.0688 11.5083 10.1133 11.4529 10.1591C10.6034 10.8845 10.0429 11.8584 9.76389 12.9348C9.75202 12.9798 9.74015 13.0249 9.72792 13.0714C9.70355 13.1667 9.68058 13.2623 9.65805 13.3581C9.48343 13.3581 9.3088 13.3581 9.12888 13.3581C8.87714 12.3389 9.19574 11.3253 9.71097 10.4476C9.84128 10.2436 9.98143 10.0532 10.1343 9.86556C10.1694 9.82176 10.2046 9.77797 10.2408 9.73285C11.0275 8.805 12.2221 8.09654 13.3623 7.69595C13.3273 7.65993 13.2924 7.62392 13.2564 7.58681C13.1238 7.39201 13.1127 7.29224 13.1506 7.06094C13.277 6.92013 13.3631 6.861 13.5475 6.81951C13.7501 6.8651 13.8253 6.94577 13.9443 7.11386C13.9508 7.26673 13.9248 7.38569 13.8914 7.5372C13.9216 7.52758 13.9519 7.51796 13.983 7.50805C15.0367 7.1814 16.1207 7.01754 17.2225 7.00265C17.2891 7.00133 17.3557 7.00001 17.4243 6.99865C17.5591 6.99611 17.6939 6.99469 17.8287 6.99446C17.9223 6.99258 17.9223 6.99258 18.0177 6.99066C18.074 6.99017 18.1302 6.98967 18.1882 6.98916C18.3468 6.96641 18.3468 6.96641 18.4608 6.83238C18.6336 6.55179 18.5546 6.26762 18.4853 5.96291C18.0149 4.23088 16.7225 2.98554 15.2111 2.10713C14.7823 1.86368 14.3403 1.65528 13.8914 1.45172C13.8206 1.4169 13.75 1.38186 13.6798 1.34589C13.6798 1.32842 13.6798 1.31096 13.6798 1.29297Z" fill="#FC636E"/>
<path d="M21.3002 8.96606C21.4948 8.99102 21.6688 9.035 21.8525 9.10166C22.0643 9.1737 22.2389 9.20868 22.4643 9.17773C22.5359 9.10824 22.6066 9.03777 22.676 8.96606C22.8854 8.98639 23.0592 9.06577 23.2482 9.15458C23.2998 9.17866 23.3515 9.20274 23.4047 9.22755C23.4436 9.24604 23.4826 9.26452 23.5227 9.28357C23.5172 9.34796 23.5118 9.41235 23.5062 9.4787C23.508 9.6504 23.5156 9.69694 23.6186 9.84251C23.7545 9.95815 23.9067 10.0468 24.0585 10.1402C24.4974 10.4112 24.8547 10.7707 25.216 11.1357C25.2464 11.1662 25.2767 11.1967 25.308 11.2281C25.7257 11.6768 26.0265 12.2503 26.2215 12.829C26.2433 12.8923 26.2651 12.9556 26.2876 13.0208C26.5076 13.9891 26.2037 15.0153 25.6989 15.8399C25.2891 16.4381 24.8039 16.913 24.2106 17.327C24.1784 17.3496 24.1463 17.3722 24.1131 17.3956C23.3701 17.9096 22.5358 18.2429 21.6865 18.5404C21.5483 18.5918 21.5483 18.5918 21.4589 18.7557C21.4462 18.8861 21.4392 19.0111 21.437 19.1417C21.436 19.179 21.435 19.2164 21.4339 19.2549C21.4307 19.374 21.4283 19.4932 21.4258 19.6123C21.4238 19.6932 21.4218 19.7741 21.4196 19.8549C21.4146 20.053 21.4101 20.251 21.406 20.4491C21.2411 20.29 21.0968 20.1343 20.9688 19.9443C20.9243 19.8786 20.9243 19.8786 20.8788 19.8116C20.8487 19.7666 20.8186 19.7216 20.7875 19.6752C20.7568 19.6298 20.7261 19.5843 20.6944 19.5375C20.5782 19.3655 20.4628 19.193 20.3477 19.0203C20.6232 18.7585 20.9275 18.6251 21.2737 18.4746C22.0359 18.1333 22.7198 17.7542 23.3639 17.2211C23.4141 17.1804 23.4642 17.1397 23.5159 17.0977C24.3429 16.3904 24.9825 15.3504 25.1102 14.2578C25.115 14.1182 25.1178 13.9805 25.1168 13.8411C25.1164 13.7851 25.1164 13.7851 25.116 13.7279C25.1039 12.6707 24.692 11.7673 23.9989 10.9769C23.9521 10.9187 23.9521 10.9187 23.9043 10.8593C23.2237 10.0383 22.2463 9.52527 21.3002 9.0719C21.3002 9.03697 21.3002 9.00205 21.3002 8.96606Z" fill="#5FB5FC"/>
<path d="M12.9845 14.9879C13.0242 14.9876 13.0639 14.9873 13.1048 14.987C13.1888 14.9865 13.2728 14.9862 13.3568 14.986C13.4821 14.9855 13.6073 14.9838 13.7326 14.9821C14.5132 14.9766 15.2472 15.0831 15.9848 15.3493C16.0362 15.3676 16.0877 15.386 16.1406 15.4049C17.2473 15.8139 18.2353 16.485 18.7564 17.5784C18.9462 18.0374 18.9863 18.4166 18.9713 18.9145C19.111 18.9145 19.2507 18.9145 19.3947 18.9145C19.3947 18.932 19.3947 18.9495 19.3947 18.9675C19.1677 18.9675 18.9406 18.9675 18.7067 18.9675C18.6887 18.9207 18.6707 18.874 18.6522 18.8259C18.4735 18.3834 18.2672 18.0189 17.9659 17.6445C17.9417 17.6117 17.9175 17.5788 17.8925 17.5449C17.4569 16.9824 16.7948 16.6258 16.1667 16.3216C16.1164 16.2966 16.0662 16.2717 16.0144 16.246C15.0619 15.8097 13.9387 15.6657 12.9024 15.6701C12.8338 15.6701 12.7651 15.6702 12.6944 15.6703C12.1464 15.6757 11.6223 15.732 11.0867 15.8454C11.0168 15.7056 10.947 15.5659 10.875 15.422C11.3245 15.2379 11.7742 15.1356 12.2508 15.0516C12.2985 15.0424 12.3461 15.0332 12.3951 15.0238C12.5922 14.9952 12.7858 14.9891 12.9845 14.9879Z" fill="#5FB5FC"/>
<path d="M21.2469 13.7817C21.4023 13.8908 21.4023 13.8908 21.5115 14.0462C21.515 14.2501 21.5047 14.3637 21.3693 14.5192C21.2079 14.5933 21.1051 14.601 20.9294 14.5754C20.8037 14.4927 20.8037 14.4927 20.7177 14.3637C20.6877 14.1534 20.6847 14.0428 20.8037 13.8643C20.9694 13.7553 21.0519 13.7458 21.2469 13.7817Z" fill="#06080B"/>
<path d="M7.09788 6.84937C7.35915 6.92678 7.35915 6.92678 7.43523 7.06103C7.4617 7.26905 7.46696 7.38386 7.34924 7.56044C7.18351 7.66947 7.10103 7.67894 6.90606 7.64312C6.74678 7.52194 6.65746 7.4425 6.6084 7.24624C6.67653 6.97373 6.81898 6.84937 7.09788 6.84937Z" fill="#0B0506"/>
<path d="M15.134 19.6223C15.333 19.6721 15.4117 19.7552 15.5309 19.92C15.5309 20.1075 15.5129 20.2304 15.4185 20.3929C15.2566 20.4847 15.1304 20.4714 14.9488 20.4491C14.8199 20.3632 14.8199 20.3632 14.7372 20.2375C14.7074 20.082 14.7074 20.082 14.7372 19.92C14.8584 19.7607 14.9378 19.6714 15.134 19.6223Z" fill="#0A0800"/>
<path d="M13.0974 19.6552C13.2495 19.7644 13.2495 19.7644 13.362 19.9198C13.3655 20.1237 13.3552 20.2372 13.2198 20.3928C13.0584 20.4669 12.9556 20.4746 12.7799 20.449C12.6542 20.3663 12.6542 20.3663 12.5682 20.2373C12.5385 20.0521 12.5385 20.0521 12.5682 19.8669C12.7271 19.6899 12.859 19.6016 13.0974 19.6552Z" fill="#0A0900"/>
<path d="M15.9027 13.8346C16.0053 13.8941 16.0053 13.8941 16.0615 13.9933C16.0879 14.1752 16.0879 14.1752 16.0615 14.3637C15.9523 14.496 15.9523 14.496 15.7969 14.5754C15.5957 14.5754 15.4784 14.5647 15.3206 14.4365C15.2429 14.2518 15.2686 14.1314 15.3206 13.9404C15.49 13.732 15.6581 13.7723 15.9027 13.8346Z" fill="#050709"/>
<path d="M13.6794 6.84933C13.8316 6.95847 13.8316 6.95847 13.944 7.11391C13.9475 7.31775 13.9373 7.43134 13.8018 7.58686C13.6405 7.66098 13.5376 7.66871 13.3619 7.64308C13.2362 7.5604 13.2362 7.5604 13.1503 7.43142C13.1205 7.24621 13.1205 7.24621 13.1503 7.061C13.3091 6.88395 13.441 6.79569 13.6794 6.84933Z" fill="#090405"/>
<path d="M18.5487 13.7816C18.6743 13.8643 18.6743 13.8643 18.7603 13.9933C18.7904 14.2036 18.7933 14.3142 18.6743 14.4927C18.5107 14.6004 18.4236 14.6075 18.2311 14.5754C18.1055 14.4927 18.1055 14.4927 18.0195 14.3637C17.9894 14.1534 17.9865 14.0428 18.1055 13.8643C18.2691 13.7567 18.3562 13.7496 18.5487 13.7816Z" fill="#040607"/>
<path d="M10.322 6.85273C10.5039 6.90234 10.5039 6.90234 10.6064 6.95856C10.6992 7.12762 10.6974 7.29694 10.6627 7.48443C10.5469 7.6269 10.473 7.63997 10.2922 7.66633C10.1335 7.64318 10.1335 7.64318 10.0078 7.5605C9.88884 7.38203 9.89178 7.27143 9.92182 7.06109C10.0419 6.86902 10.094 6.84873 10.322 6.85273Z" fill="#070303"/>
<path d="M10.8283 19.6587C11.0593 19.7341 11.0593 19.7341 11.1391 19.8671C11.1656 20.0751 11.1709 20.1899 11.0532 20.3665C10.8895 20.4741 10.8024 20.4812 10.61 20.4492C10.4843 20.3665 10.4843 20.3665 10.3983 20.2375C10.3685 20.0523 10.3685 20.0523 10.3983 19.8671C10.5398 19.7006 10.6083 19.6543 10.8283 19.6587Z" fill="#050400"/>
</svg>
