<svg width="23" height="26" viewBox="0 0 23 26" fill="none" xmlns="http://www.w3.org/2000/svg">
<path d="M12.6128 0.21713C12.6682 0.232226 12.6682 0.232226 12.7247 0.247627C14.2409 0.678019 15.439 1.58031 16.2265 2.95423C16.7772 3.94257 17.0954 5.01902 17.2223 6.14364C17.228 6.19236 17.2336 6.24107 17.2394 6.29125C17.2997 6.94841 17.2775 7.61197 17.273 8.27111C17.3026 8.27348 17.3322 8.27585 17.3627 8.2783C17.8479 8.32348 18.3158 8.49926 18.6407 8.87896C18.8652 9.23403 18.9349 9.5762 18.8939 9.99335C18.7541 10.593 18.3711 11.0524 17.8808 11.4117C17.3605 11.7156 17.3605 11.7156 17.121 11.7156C17.1154 11.7726 17.1097 11.8297 17.1038 11.8885C16.9847 12.8317 16.5597 13.8347 16.0067 14.6029C15.9687 14.6558 15.9306 14.7088 15.8915 14.7633C15.4436 15.3726 14.876 16.0408 14.1679 16.3467C14.0017 16.5051 14.0064 16.5613 13.9904 16.7849C13.9877 16.906 13.9866 17.0271 13.9868 17.1482C13.9858 17.2101 13.9847 17.272 13.9837 17.3358C13.9813 17.4886 13.9803 17.6413 13.9805 17.7941C14.0266 17.8162 14.0266 17.8162 14.0735 17.8387C14.2197 17.9143 14.3428 18.0118 14.4744 18.1106C14.8105 18.3564 15.1634 18.571 15.5223 18.7818C15.6006 18.8283 15.6006 18.8283 15.6804 18.8756C15.7556 18.9193 15.7556 18.9193 15.8323 18.9638C15.8992 19.0028 15.8992 19.0028 15.9674 19.0425C16.1381 19.1308 16.1381 19.1308 16.4625 19.2124C17.8667 17.8082 19.2708 16.4041 20.7175 14.9574C21.1164 15.2993 21.1164 15.2993 21.2797 15.4633C21.3162 15.4997 21.3527 15.5362 21.3903 15.5738C21.4473 15.6313 21.4473 15.6313 21.5056 15.6899C21.5655 15.75 21.5655 15.75 21.6267 15.8113C21.7533 15.9381 21.8796 16.0651 22.006 16.1921C22.0922 16.2786 22.1784 16.3651 22.2647 16.4515C22.4751 16.6625 22.6854 16.8737 22.8956 17.0849C22.6954 17.325 22.4865 17.5514 22.2642 17.7711C22.2331 17.8021 22.2019 17.8331 22.1698 17.865C22.1027 17.9317 22.0357 17.9983 21.9685 18.0649C21.8624 18.1701 21.7565 18.2755 21.6506 18.381C21.3497 18.6806 21.0486 18.98 20.7472 19.2791C20.5624 19.4625 20.3778 19.6462 20.1934 19.8301C20.1231 19.9001 20.0527 19.97 19.9822 20.0398C19.8841 20.1369 19.7863 20.2344 19.6886 20.3319C19.6592 20.3608 19.6299 20.3897 19.5996 20.4195C19.4488 20.5508 19.4488 20.5508 19.4005 20.732C19.4668 20.7886 19.5361 20.8417 19.6063 20.8934C20.223 21.3779 20.7393 21.9207 21.1227 22.6062C21.1517 22.656 21.1807 22.7058 21.2106 22.7572C21.78 23.8015 21.6292 24.8082 21.6292 26C14.4916 26 7.35394 26 0 26C0 23.5825 0 23.5825 0.392568 22.8468C0.409974 22.8132 0.427379 22.7796 0.445312 22.7451C0.715023 22.2381 1.07058 21.802 1.46896 21.3905C1.50703 21.3511 1.5451 21.3117 1.58432 21.2712C2.54875 20.3372 3.81369 19.7516 5.05887 19.2909C5.82378 19.0036 6.52836 18.571 7.19286 18.098C7.22729 18.0793 7.26172 18.0607 7.29719 18.0415C7.47484 17.9344 7.57845 17.8567 7.64191 17.6544C7.66397 17.4835 7.66983 17.3205 7.66774 17.1482C7.66703 17.0588 7.66703 17.0588 7.6663 16.9675C7.65031 16.6005 7.65031 16.6005 7.46176 16.2994C7.31508 16.1877 7.1531 16.1073 6.98817 16.026C6.81579 15.9296 6.67922 15.7964 6.53753 15.6603C6.51005 15.6343 6.48257 15.6083 6.45426 15.5816C5.57032 14.7368 5.01874 13.6901 4.66966 12.5292C4.65917 12.4945 4.64868 12.4598 4.63787 12.424C4.57006 12.1884 4.53354 11.9594 4.5082 11.7156C4.47118 11.7092 4.43416 11.7028 4.39601 11.6962C3.83966 11.5729 3.37646 11.1642 3.03805 10.7199C2.78636 10.3221 2.66042 9.89555 2.75886 9.42487C2.86574 9.05616 3.02426 8.78211 3.35266 8.57405C3.68586 8.39256 3.97879 8.29554 4.35624 8.27111C4.35571 8.24092 4.35518 8.21072 4.35463 8.17961C4.31941 5.83756 4.64968 3.49458 6.33175 1.73675C6.37905 1.68464 6.37905 1.68464 6.42732 1.63148C7.10788 0.906693 8.06325 0.455939 9.01641 0.21713C9.07955 0.200937 9.14269 0.184744 9.20774 0.168059C10.2457 -0.0632352 11.586 -0.0640223 12.6128 0.21713Z" fill="#232020"/>
<path d="M9.47125 5.63721C9.70586 5.70484 9.91085 5.80474 10.126 5.91725C12.0626 6.92838 14.2243 7.57591 16.4108 7.66337C16.4108 8.13141 16.4108 8.59945 16.4108 9.08168C16.5268 9.07959 16.6428 9.0775 16.7623 9.07535C17.2099 9.07312 17.5709 9.0962 17.9305 9.3856C18.0673 9.59091 18.0645 9.75238 18.0318 9.99345C17.9526 10.1517 17.9526 10.1517 17.8292 10.2974C17.794 10.3403 17.794 10.3403 17.7581 10.384C17.4511 10.7279 17.0354 10.9532 16.5755 11.0002C16.5038 11.0036 16.432 11.0062 16.3602 11.0065C16.3595 11.0392 16.3588 11.072 16.358 11.1057C16.2769 12.7077 15.4521 14.1988 14.2834 15.2615C13.7818 15.6641 13.2091 15.9429 12.6118 16.1732C12.5727 16.1884 12.5337 16.2035 12.4935 16.2191C11.9474 16.4163 11.3831 16.4463 10.8072 16.4455C10.774 16.4455 10.7407 16.4454 10.7064 16.4454C9.18939 16.4387 7.97578 15.8617 6.88156 14.8182C6.27164 14.1909 5.86742 13.3937 5.57089 12.5768C5.55757 12.5432 5.54425 12.5097 5.53053 12.4751C5.43365 12.2151 5.38221 11.95 5.33345 11.6777C5.32679 11.6405 5.32012 11.6034 5.31326 11.5651C5.28131 11.3771 5.25908 11.1973 5.26697 11.0065C5.20219 11.0023 5.13742 10.9982 5.07068 10.9939C4.45435 10.9206 4.06566 10.6033 3.66504 10.1454C3.56989 9.93781 3.54813 9.76185 3.59539 9.53756C3.78985 9.26649 4.04838 9.18395 4.3552 9.08168C4.42283 9.07764 4.49065 9.07622 4.55841 9.07673C4.61029 9.07692 4.61029 9.07692 4.66321 9.07711C4.70679 9.07757 4.75036 9.07804 4.79525 9.07851C4.9342 9.07956 5.07315 9.0806 5.21631 9.08168C5.21631 8.69721 5.21631 8.31275 5.21631 7.91664C5.3375 7.89156 5.45869 7.86649 5.58356 7.84065C7.06564 7.50646 8.36758 6.65817 9.47125 5.63721Z" fill="#FDD9AA"/>
<path d="M8.0999 18.5613C8.23598 18.6168 8.32613 18.6953 8.43726 18.7914C9.26193 19.4676 10.2416 19.7673 11.296 19.6683C12.1045 19.5319 12.8936 19.1346 13.4742 18.554C13.7011 18.5663 13.8266 18.6676 13.9997 18.8072C14.2292 18.9869 14.4644 19.1463 14.7152 19.2948C14.7469 19.3136 14.7786 19.3325 14.8113 19.3519C14.9657 19.4428 15.1212 19.5311 15.2785 19.6167C15.334 19.6473 15.3894 19.6779 15.4465 19.7095C15.4961 19.7359 15.5456 19.7624 15.5967 19.7896C15.6318 19.8165 15.6668 19.8433 15.7029 19.871C15.7029 20.0736 15.7029 20.0736 15.6097 20.1738C15.5667 20.2093 15.5237 20.2449 15.4793 20.2815C14.6734 20.9863 14.3349 21.6468 14.0454 22.6675C13.9947 22.8432 13.94 23.0177 13.8856 23.1924C13.7914 23.4964 13.7007 23.8013 13.6125 24.1071C13.5755 24.2272 13.5755 24.2272 13.5248 24.3285C13.5698 24.3109 13.6148 24.2934 13.6612 24.2753C14.0699 24.1178 14.4816 23.9745 14.8988 23.8412C14.9477 23.8254 14.9966 23.8096 15.047 23.7934C15.2494 23.7282 15.4519 23.663 15.6548 23.5995C15.8052 23.5522 15.9551 23.5037 16.105 23.4549C16.1728 23.4342 16.1728 23.4342 16.2421 23.413C16.565 23.3063 16.7802 23.1495 17.0199 22.9102C17.0764 22.8553 17.0764 22.8553 17.1339 22.7994C17.1778 22.7539 17.1778 22.7539 17.2226 22.7076C17.3461 22.5821 17.4711 22.4634 17.6056 22.3498C17.8246 22.1616 18.0281 21.9584 18.2325 21.7547C18.2838 21.7037 18.2838 21.7037 18.3362 21.6517C18.3682 21.6195 18.4003 21.5873 18.4333 21.5542C18.4623 21.5252 18.4913 21.4961 18.5211 21.4662C18.5953 21.3919 18.5953 21.3919 18.6409 21.2893C19.4247 21.6591 20.0491 22.4226 20.4644 23.1635C20.4985 23.2238 20.4985 23.2238 20.5333 23.2854C20.8721 23.9237 20.7683 24.4088 20.7683 25.1896C14.199 25.1896 7.62971 25.1896 0.861328 25.1896C0.861328 23.7177 1.13204 22.9615 2.10824 21.9672C2.97743 21.0983 4.1613 20.4946 5.31619 20.1038C6.24306 19.788 7.073 19.2413 7.85158 18.6553C8.00354 18.554 8.00354 18.554 8.0999 18.5613Z" fill="#4BBB90"/>
<path d="M14.2029 1.89217C14.2812 1.95839 14.3593 2.02485 14.4372 2.09162C14.4828 2.12629 14.4828 2.12629 14.5294 2.16167C15.3262 2.78063 15.8184 3.85439 16.0748 4.80612C16.0966 4.88474 16.12 4.96296 16.1452 5.04058C16.2513 5.36869 16.3055 5.69127 16.3462 6.03313C16.3527 6.08429 16.3593 6.13545 16.3661 6.18816C16.3939 6.4116 16.4162 6.62764 16.4127 6.85309C15.0651 6.90328 13.777 6.52535 12.5123 6.09328C12.4697 6.07875 12.4271 6.06423 12.3833 6.04926C11.7978 5.84593 11.2371 5.59584 10.6793 5.32714C10.6481 5.31216 10.6169 5.29719 10.5848 5.28175C10.2362 5.11368 9.90097 4.93959 9.57907 4.72427C9.47629 4.66573 9.47629 4.66573 9.36634 4.68438C9.20362 4.75438 9.09775 4.89242 8.9792 5.02005C8.02246 6.0113 6.74703 6.74315 5.42076 7.10636C5.3539 7.10636 5.28703 7.10636 5.21814 7.10636C5.20161 6.65011 5.24854 6.22228 5.32895 5.77353C5.34615 5.67631 5.34615 5.67631 5.36369 5.57713C5.44721 5.12286 5.55015 4.69847 5.72468 4.26974C5.75808 4.18179 5.75808 4.18179 5.79216 4.09206C6.32456 2.75739 7.29302 1.78378 8.60563 1.21843C8.75847 1.1622 8.90997 1.11873 9.06785 1.07854C9.10369 1.0694 9.13954 1.06026 9.17648 1.05084C10.8283 0.64542 12.8281 0.805613 14.2029 1.89217Z" fill="#A57B51"/>
<path d="M20.666 16.1731C20.8293 16.2507 20.9384 16.3322 21.0657 16.4616C21.1196 16.5159 21.1196 16.5159 21.1745 16.5714C21.2115 16.6092 21.2485 16.647 21.2865 16.686C21.3431 16.7433 21.3431 16.7433 21.4009 16.8017C21.4939 16.8959 21.5866 16.9903 21.6791 17.0849C21.604 17.258 21.5059 17.3738 21.3748 17.5088C21.3323 17.5527 21.2898 17.5967 21.2461 17.6419C21.1989 17.6902 21.1516 17.7385 21.1044 17.7868C21.0547 17.838 21.005 17.8892 20.9553 17.9404C20.4993 18.4097 20.0399 18.8758 19.5797 19.3411C19.2407 19.6841 18.9032 20.0285 18.5677 20.3749C18.3306 20.6194 18.0918 20.8621 17.8516 21.1036C17.7088 21.2472 17.5669 21.3915 17.4269 21.5379C16.6764 22.3209 16.0329 22.7967 14.9421 23.0114C14.9087 23.0114 14.8753 23.0114 14.8408 23.0114C14.8647 22.9025 14.8888 22.7938 14.9134 22.6851C14.9312 22.6047 14.9483 22.5242 14.9642 22.4434C15.1544 21.5332 15.7756 20.976 16.4169 20.3555C16.5676 20.2089 16.7164 20.0604 16.8655 19.9121C17.1469 19.6328 17.4299 19.3551 17.7136 19.0781C18.037 18.7621 18.3585 18.4442 18.6798 18.1262C19.3398 17.473 20.0021 16.8223 20.666 16.1731Z" fill="#C8C8C8"/>
<path d="M8.50961 16.8821C8.81101 16.9476 9.10923 17.0199 9.40694 17.1007C9.88673 17.2006 10.3767 17.2 10.865 17.2018C10.9008 17.202 10.9365 17.2022 10.9733 17.2023C11.604 17.2033 12.1781 17.1367 12.7752 16.926C12.9165 16.8821 12.9165 16.8821 13.1191 16.8821C13.2104 17.7057 13.2104 17.7057 13.0123 18.007C12.8544 18.1424 12.6929 18.2513 12.5113 18.351C12.4779 18.3699 12.4446 18.3887 12.4103 18.4081C12.179 18.5366 11.943 18.65 11.7008 18.7563C11.658 18.7757 11.6151 18.7951 11.571 18.815C11.0808 19.0088 10.418 18.9648 9.93354 18.7681C9.50388 18.578 9.11906 18.3556 8.76288 18.0471C8.71743 18.0205 8.67199 17.9938 8.62516 17.9664C8.47159 17.8044 8.48322 17.7011 8.48735 17.4846C8.48947 17.4404 8.49159 17.3962 8.49378 17.3506C8.49492 17.3056 8.49607 17.2607 8.49724 17.2143C8.50022 17.1035 8.50438 16.9928 8.50961 16.8821Z" fill="#FBD7A9"/>
<path d="M6.99121 23.2646C8.79652 23.2646 10.6018 23.2646 12.4618 23.2646C12.4618 23.5321 12.4618 23.7996 12.4618 24.0751C10.6565 24.0751 8.85122 24.0751 6.99121 24.0751C6.99121 23.8077 6.99121 23.5402 6.99121 23.2646Z" fill="#232020"/>
<path d="M8.35742 21.6436C9.7114 21.6436 11.0654 21.6436 12.4604 21.6436C12.4604 21.911 12.4604 22.1785 12.4604 22.454C11.1064 22.454 9.75243 22.454 8.35742 22.454C8.35742 22.1866 8.35742 21.9191 8.35742 21.6436Z" fill="#231F20"/>
<path d="M5.06543 23.2646C5.43318 23.2646 5.80093 23.2646 6.17982 23.2646C6.17982 23.5321 6.17982 23.7996 6.17982 24.0751C5.81207 24.0751 5.44432 24.0751 5.06543 24.0751C5.06543 23.8077 5.06543 23.5402 5.06543 23.2646Z" fill="#242222"/>
</svg>
