<svg width="26" height="26" viewBox="0 0 26 26" fill="none" xmlns="http://www.w3.org/2000/svg">
<path d="M11.9106 0.7768C11.9545 0.776458 11.9985 0.776116 12.0437 0.775764C12.1846 0.774915 12.3255 0.7746 12.4664 0.774514C12.5146 0.774481 12.5628 0.774448 12.6124 0.774414C13.3193 0.775182 14.0056 0.797274 14.7012 0.933049C14.7668 0.944827 14.7668 0.944827 14.8338 0.956844C17.1413 1.37439 19.2746 2.46765 20.9938 4.05498C21.1691 3.98176 21.2712 3.87957 21.3993 3.74095C21.6579 3.47945 21.8648 3.36801 22.2347 3.35071C22.5307 3.36005 22.7506 3.43493 22.9709 3.63501C23.2306 3.92189 23.2552 4.24353 23.2775 4.61118C23.282 4.67754 23.282 4.67754 23.2866 4.74524C23.2961 4.88809 23.3051 5.03097 23.3139 5.17387C23.3202 5.27173 23.3264 5.36959 23.3327 5.46745C23.3449 5.65879 23.3567 5.85013 23.3683 6.0415C23.3776 6.19539 23.3873 6.34924 23.3977 6.50305C23.4082 6.65853 23.4177 6.81402 23.4267 6.96959C23.4297 7.01146 23.4327 7.05333 23.4358 7.09648C23.4524 7.42941 23.3798 7.70486 23.1706 7.97263C22.9669 8.18119 22.7778 8.29028 22.4862 8.30461C22.1649 8.30229 21.8454 8.29024 21.5247 8.27026C21.475 8.26724 21.4253 8.26423 21.3741 8.26112C21.2697 8.25472 21.1653 8.24824 21.061 8.24168C20.9031 8.23182 20.7453 8.22244 20.5874 8.2131C19.0375 8.11854 19.0375 8.11854 18.689 7.74092C18.5409 7.52419 18.4918 7.3444 18.4908 7.08239C18.49 7.03366 18.4892 6.98492 18.4883 6.93472C18.5268 6.61272 18.705 6.42085 18.9298 6.2074C18.9547 6.18312 18.9797 6.15885 19.0054 6.13385C19.0662 6.07469 19.1275 6.01599 19.189 5.9574C17.793 4.5169 15.7731 3.72271 13.8231 3.42083C13.7907 3.41577 13.7582 3.4107 13.7248 3.40548C12.26 3.21057 10.7296 3.39697 9.33537 3.85985C9.30007 3.87155 9.26477 3.88325 9.2284 3.8953C8.72162 4.06685 8.24578 4.29074 7.77441 4.54278C7.74486 4.5585 7.7153 4.57422 7.68485 4.59041C6.15524 5.41199 4.93986 6.64422 4.01834 8.10372C3.98533 8.15547 3.95232 8.20722 3.91831 8.26054C3.24007 9.38187 2.85192 10.6692 2.6525 11.9573C2.64743 11.9898 2.64237 12.0223 2.63715 12.0557C2.30416 14.5581 3.03017 17.2439 4.55792 19.2494C4.83154 19.5996 5.12634 19.9285 5.43297 20.25C5.47195 20.2915 5.51094 20.3331 5.5511 20.3759C5.87485 20.7118 6.22853 20.9986 6.60369 21.2743C6.63139 21.2947 6.65909 21.3151 6.68762 21.3361C7.53587 21.9498 8.49082 22.4069 9.48171 22.7377C9.53583 22.7559 9.53583 22.7559 9.59104 22.7745C12.0541 23.5789 14.7564 23.2395 17.0548 22.1097C17.9627 21.6485 18.7466 21.0476 19.4816 20.3475C19.5221 20.3102 19.5625 20.2729 19.6042 20.2345C19.9857 19.8714 20.295 19.4554 20.6036 19.0305C20.6257 19.0002 20.6479 18.97 20.6707 18.9388C21.793 17.3902 22.3624 15.4775 22.4328 13.5793C22.4538 13.0608 22.5062 12.6821 22.8818 12.2948C23.1806 12.0452 23.5078 11.9736 23.8915 11.9909C24.2611 12.0354 24.5631 12.2019 24.7987 12.4939C25.021 12.8486 25.0242 13.1977 25.0182 13.6067C25.0176 13.6707 25.0171 13.7346 25.0165 13.8005C25.0008 14.7953 24.8384 15.7847 24.5548 16.7378C24.5348 16.8052 24.5348 16.8052 24.5144 16.874C24.0135 18.5322 23.1996 20.0589 22.067 21.3719C22.036 21.4083 22.0051 21.4446 21.9732 21.482C21.3971 22.1408 20.7751 22.7589 20.067 23.2743C20.0109 23.3161 19.9548 23.3579 19.8987 23.3997C19.4992 23.6943 19.0836 23.9558 18.6524 24.2012C18.6232 24.2179 18.5939 24.2346 18.5638 24.2518C16.9368 25.1747 14.9791 25.7622 13.1015 25.772C13.0576 25.7724 13.0137 25.7727 12.9684 25.7731C12.8275 25.7739 12.6866 25.7742 12.5457 25.7743C12.4976 25.7743 12.4494 25.7744 12.3998 25.7744C11.6939 25.7736 11.0051 25.7558 10.311 25.6158C10.267 25.6071 10.223 25.5985 10.1777 25.5896C9.86191 25.5263 9.54957 25.4525 9.23781 25.3719C9.19781 25.3616 9.15781 25.3514 9.1166 25.3409C7.14266 24.8246 5.33669 23.7582 3.872 22.3475C3.83984 22.3167 3.80768 22.2858 3.77454 22.2541C3.3117 21.808 2.88537 21.3545 2.50616 20.8353C2.4643 20.7792 2.42245 20.723 2.38059 20.6669C2.08605 20.2673 1.82466 19.852 1.57934 19.4207C1.56156 19.3899 1.54378 19.3591 1.52546 19.3273C0.797162 18.0549 0.33477 16.6239 0.115935 15.1768C0.103013 15.0947 0.103013 15.0947 0.0898304 15.0109C0.00900654 14.4444 -0.00107516 13.8826 8.26368e-05 13.311C0.000109164 13.2616 0.000135692 13.2123 0.000163024 13.1614C0.00215066 12.3548 0.0472106 11.5783 0.213496 10.7866C0.22369 10.7371 0.233885 10.6876 0.244388 10.6365C0.669818 8.63432 1.61897 6.41402 3.1403 4.9818C3.27425 4.91482 3.3822 4.92696 3.53054 4.93302C3.60298 4.95716 3.60298 4.95716 3.67688 4.9818C4.03606 4.70135 4.03606 4.70135 4.2348 4.31869C4.21945 4.20521 4.21945 4.20521 4.18469 4.10242C4.16468 4.00619 4.16468 4.00619 4.19117 3.91187C4.29362 3.76657 4.42682 3.66738 4.56712 3.56108C4.59753 3.53769 4.62793 3.51431 4.65926 3.49022C4.75413 3.41772 4.84953 3.34598 4.94516 3.27449C4.97392 3.25293 5.00268 3.23136 5.03232 3.20914C5.45775 2.8922 5.89878 2.60988 6.35979 2.34767C6.39061 2.32989 6.42143 2.31211 6.45318 2.29379C8.07817 1.3637 10.0334 0.786649 11.9106 0.7768Z" fill="#373737"/>
<path d="M8.19939 5.31647C8.25659 5.31625 8.25659 5.31625 8.31495 5.31603C8.44287 5.3156 8.57078 5.31553 8.69869 5.31546C8.79036 5.31523 8.88203 5.31499 8.9737 5.31472C9.22285 5.31408 9.47199 5.31377 9.72114 5.31355C9.87682 5.31341 10.0325 5.31321 10.1882 5.31299C10.6753 5.31232 11.1625 5.31185 11.6496 5.31166C12.2119 5.31144 12.7741 5.31059 13.3363 5.30918C13.771 5.30812 14.2056 5.30763 14.6403 5.30756C14.8998 5.30751 15.1594 5.30722 15.419 5.30635C15.6632 5.30555 15.9074 5.30544 16.1517 5.30587C16.2412 5.30591 16.3307 5.3057 16.4202 5.30522C16.5427 5.30459 16.6651 5.30488 16.7876 5.30539C16.8228 5.305 16.8579 5.3046 16.8942 5.3042C17.1816 5.30698 17.456 5.36485 17.6794 5.55521C17.7016 5.58433 17.7238 5.61344 17.7467 5.64344C17.7698 5.67268 17.7928 5.70191 17.8166 5.73204C17.9771 5.96247 17.9333 6.23255 17.9349 6.50435C17.9357 6.60276 17.9378 6.7011 17.94 6.79949C17.9404 6.86193 17.9408 6.92437 17.9412 6.9887C17.9423 7.07437 17.9423 7.07437 17.9434 7.16176C17.9111 7.38961 17.8079 7.53857 17.6412 7.69482C17.5575 7.78569 17.5604 7.84211 17.5592 7.9643C17.5577 8.024 17.5577 8.024 17.5563 8.08491C17.5557 8.12735 17.5552 8.1698 17.5546 8.21354C17.5133 9.47606 17.0752 10.4531 16.1556 11.3254C15.4762 11.9609 15.4762 11.9609 15.1954 12.1722C14.9011 12.3997 14.7259 12.7139 14.6522 13.0794C14.6168 13.4831 14.7207 13.872 14.9815 14.1891C15.1198 14.3351 15.2701 14.4673 15.4232 14.5976C15.5825 14.7337 15.7373 14.8746 15.8925 15.0153C15.9749 15.0894 16.0581 15.1626 16.1421 15.2348C16.9278 15.917 17.4149 16.7664 17.5302 17.811C17.5327 17.8893 17.5344 17.9675 17.5354 18.0458C17.5365 18.1078 17.5365 18.1078 17.5376 18.1712C17.5388 18.2563 17.539 18.3414 17.5383 18.4265C17.5466 18.7553 17.6428 18.9003 17.8717 19.1281C17.9739 19.3324 17.9335 19.5965 17.9349 19.8213C17.9357 19.9197 17.9378 20.0181 17.94 20.1165C17.9404 20.1789 17.9408 20.2413 17.9412 20.3057C17.9423 20.3913 17.9423 20.3913 17.9434 20.4787C17.9054 20.7463 17.7391 20.961 17.5302 21.1281C17.2825 21.2145 17.0548 21.2397 16.7948 21.2383C16.7565 21.2385 16.7182 21.2387 16.6788 21.2389C16.5514 21.2394 16.4239 21.2392 16.2964 21.239C16.2048 21.2392 16.1131 21.2395 16.0214 21.2398C15.7728 21.2404 15.5243 21.2405 15.2758 21.2403C15.0681 21.2403 14.8605 21.2405 14.6528 21.2408C14.1629 21.2413 13.6729 21.2413 13.1829 21.241C12.6778 21.2407 12.1727 21.2413 11.6676 21.2424C11.2336 21.2432 10.7996 21.2435 10.3655 21.2434C10.1064 21.2433 9.84738 21.2434 9.58831 21.2441C9.34468 21.2447 9.10105 21.2446 8.85741 21.244C8.76814 21.2438 8.67886 21.244 8.58959 21.2444C8.46744 21.2449 8.34533 21.2445 8.22318 21.2439C8.18811 21.2442 8.15303 21.2446 8.1169 21.245C7.82982 21.2419 7.55544 21.1838 7.33233 20.9937C7.31013 20.9646 7.28793 20.9355 7.26506 20.9055C7.24199 20.8763 7.21891 20.847 7.19513 20.8169C7.03467 20.5865 7.0785 20.3164 7.07689 20.0446C7.07605 19.9462 7.07391 19.8478 7.07175 19.7495C7.07134 19.687 7.07094 19.6246 7.07051 19.5602C7.0698 19.5031 7.06909 19.446 7.06836 19.3872C7.10069 19.1593 7.2038 19.0104 7.37053 18.8541C7.45428 18.7633 7.45137 18.7068 7.45256 18.5846C7.45352 18.5448 7.45448 18.505 7.45547 18.464C7.45602 18.4216 7.45657 18.3791 7.45714 18.3354C7.49949 17.0405 7.96575 16.0632 8.90072 15.179C9.04366 15.0461 9.189 14.916 9.33517 14.7867C9.39044 14.7376 9.39044 14.7376 9.44683 14.6876C9.70292 14.4621 9.70292 14.4621 9.81649 14.3766C10.1108 14.1492 10.2859 13.8349 10.3596 13.4696C10.395 13.0659 10.2911 12.6769 10.0303 12.3598C9.8919 12.2139 9.74165 12.0817 9.5886 11.9513C9.42929 11.8152 9.27448 11.6743 9.11928 11.5336C9.03685 11.4596 8.95366 11.3864 8.86966 11.3141C8.08392 10.6319 7.59686 9.78255 7.48153 8.73792C7.47905 8.65969 7.47739 8.58143 7.47638 8.50317C7.47566 8.46179 7.47493 8.42042 7.47419 8.37779C7.47298 8.29269 7.47273 8.20756 7.47343 8.12246C7.46518 7.79363 7.36896 7.64866 7.14006 7.42086C7.03821 7.21715 7.07822 6.9544 7.07689 6.73031C7.07605 6.63245 7.07391 6.53461 7.07175 6.43678C7.06782 5.83782 7.06782 5.83782 7.2864 5.56722C7.5573 5.33553 7.85883 5.31606 8.19939 5.31647Z" fill="#373737"/>
<path d="M13.923 1.67987C13.9777 1.68561 14.0324 1.69135 14.0887 1.69726C14.448 1.73932 14.7905 1.81429 15.1394 1.90853C15.2226 1.9289 15.2226 1.9289 15.3075 1.94969C15.3506 1.96025 15.3937 1.97082 15.4382 1.9817C15.5033 1.99755 15.5033 1.99755 15.5697 2.01371C17.4261 2.50633 19.0722 3.45785 20.4698 4.76312C20.717 4.99769 20.717 4.99769 21.0266 5.11887C21.3772 5.10041 21.622 4.74873 21.8465 4.5116C21.8848 4.47154 21.9231 4.43149 21.9625 4.39022C21.9966 4.35287 22.0307 4.31551 22.0658 4.27703C22.1637 4.20119 22.1637 4.20119 22.2708 4.20767C22.3589 4.24997 22.3589 4.24997 22.4076 4.34753C22.4181 4.47625 22.4261 4.60407 22.432 4.73301C22.434 4.77166 22.436 4.81031 22.438 4.85013C22.4444 4.97426 22.4504 5.09839 22.4564 5.22253C22.4644 5.38456 22.4725 5.54659 22.4808 5.70861C22.4828 5.74773 22.4848 5.78684 22.4868 5.82713C22.5 6.07839 22.5197 6.3283 22.5444 6.57871C22.5584 6.74 22.5604 6.89901 22.5601 7.06093C22.5602 7.1189 22.5603 7.17688 22.5605 7.23661C22.554 7.3719 22.554 7.3719 22.5052 7.42068C21.9372 7.46136 21.3535 7.39724 20.7865 7.36352C20.6166 7.35352 20.4466 7.34422 20.2767 7.33493C20.1687 7.32862 20.0608 7.32227 19.9528 7.31588C19.902 7.31318 19.8511 7.31048 19.7987 7.3077C19.7519 7.30478 19.7052 7.30186 19.657 7.29885C19.5952 7.29527 19.5952 7.29527 19.5321 7.29163C19.4321 7.27434 19.4321 7.27434 19.3345 7.17678C19.3496 7.00569 19.424 6.92401 19.5447 6.80769C19.5771 6.77597 19.6095 6.74424 19.6429 6.71156C19.6769 6.67896 19.711 6.64635 19.7461 6.61276C19.8132 6.54776 19.8802 6.48266 19.9471 6.41745C19.9919 6.37448 19.9919 6.37448 20.0375 6.33064C20.1567 6.20653 20.2099 6.11848 20.24 5.94813C20.1602 5.40765 19.4024 4.94462 18.9869 4.63431C18.5375 4.30627 18.0729 4.01699 17.5784 3.76217C17.5402 3.74244 17.502 3.7227 17.4626 3.70237C16.4406 3.18102 15.3939 2.82793 14.2614 2.64023C14.1804 2.62661 14.1804 2.62661 14.0979 2.61271C13.5825 2.53448 13.0744 2.52519 12.5541 2.52743C12.51 2.52753 12.4659 2.52764 12.4205 2.52775C9.7675 2.53789 7.20274 3.48402 5.25572 5.31189C5.15236 5.40864 5.04657 5.50032 4.93827 5.59143C3.14632 7.16255 1.96164 9.79977 1.77366 12.1523C1.7555 12.4885 1.75457 12.8249 1.75537 13.1615C1.75546 13.2306 1.75546 13.2306 1.75555 13.3011C1.76109 14.9048 2.06653 16.4013 2.74926 17.8596C2.76484 17.8933 2.78042 17.927 2.79647 17.9618C3.9893 20.5194 6.22717 22.4829 8.86373 23.4602C10.5614 24.0121 12.3899 24.2627 14.1638 23.9571C14.2026 23.9506 14.2415 23.944 14.2815 23.9373C14.8424 23.8401 15.3828 23.7065 15.9199 23.5181C15.9574 23.5053 15.9948 23.4925 16.0335 23.4793C17.3019 23.042 18.4659 22.3964 19.4808 21.5181C19.5195 21.4849 19.5582 21.4516 19.598 21.4173C20.6486 20.4927 21.4644 19.4391 22.115 18.2011C22.1317 18.1693 22.1484 18.1375 22.1656 18.1048C22.4807 17.4958 22.6958 16.8558 22.8954 16.2011C22.9063 16.166 22.9171 16.1309 22.9282 16.0947C23.1844 15.242 23.3111 14.299 23.3099 13.4095C23.3128 13.2353 23.3308 13.134 23.4215 12.9833C23.5505 12.8648 23.6444 12.8551 23.8175 12.8517C23.981 12.9034 24.0578 12.9959 24.1637 13.128C24.5168 14.7843 23.6613 17.0402 22.9442 18.4938C22.9266 18.5298 22.909 18.5659 22.8909 18.603C22.6284 19.1359 22.3189 19.6242 21.9686 20.1035C21.9482 20.1317 21.9277 20.1598 21.9067 20.1888C21.5984 20.6107 21.2576 20.9956 20.8955 21.3718C20.8685 21.4 20.8416 21.4283 20.8139 21.4574C20.4133 21.8761 19.9951 22.2467 19.5296 22.5913C19.5027 22.6116 19.4759 22.632 19.4482 22.6529C17.0457 24.4706 13.8744 25.2609 10.8955 24.8565C8.45131 24.4938 6.17954 23.3849 4.40779 21.6645C4.37981 21.6378 4.35184 21.611 4.32302 21.5835C3.90395 21.1827 3.53316 20.7645 3.18828 20.2986C3.16794 20.2717 3.1476 20.2449 3.12664 20.2172C2.36536 19.211 1.81142 18.0863 1.41824 16.8907C1.38896 16.803 1.35765 16.7161 1.32587 16.6293C1.17528 16.2142 1.09364 15.7864 1.01612 15.3528C1.00145 15.2714 0.986268 15.19 0.970433 15.1088C0.432504 12.3279 1.17278 9.24312 2.71268 6.89325C2.77266 6.80819 2.83363 6.72381 2.8956 6.6402C2.93107 6.59159 2.96653 6.54298 3.00307 6.49291C3.14692 6.29842 3.29019 6.10585 3.44914 5.92336C3.67781 5.67253 3.67781 5.67253 3.7523 5.35362C3.7348 5.18739 3.7348 5.18739 3.68294 5.0859C3.67608 4.98168 3.67608 4.98168 3.78184 4.84353C3.83029 4.79442 3.87943 4.74598 3.92913 4.69814C3.95331 4.67302 3.97749 4.6479 4.0024 4.62202C4.07452 4.55085 4.07452 4.55085 4.21267 4.44509C4.30356 4.45367 4.30356 4.45367 4.40779 4.49387C4.65418 4.51849 4.74911 4.52526 4.96018 4.38984C5.01552 4.34193 5.07018 4.29322 5.12424 4.24388C7.55882 2.17486 10.7788 1.34664 13.923 1.67987Z" fill="#72C27F"/>
<path d="M8.36066 7.85986C11.0972 7.85986 13.8338 7.85986 16.6533 7.85986C16.6533 8.94671 16.5306 9.73316 15.7672 10.5062C15.5637 10.7036 15.3558 10.8942 15.1411 11.0793C15.0446 11.1638 14.9481 11.2482 14.8518 11.333C14.7782 11.397 14.7036 11.46 14.6285 11.5224C14.2003 11.8873 13.8834 12.329 13.8093 12.9002C13.8028 13.0152 13.8012 13.1288 13.8027 13.244C13.8031 13.2845 13.8034 13.325 13.8038 13.3668C13.8125 13.6921 13.8692 13.9587 14.0192 14.2501C14.0364 14.2885 14.0537 14.327 14.0716 14.3667C14.3666 14.9437 14.9631 15.3598 15.4585 15.759C16.0504 16.2498 16.5661 16.9262 16.6533 17.7134C16.6635 17.9736 16.659 18.2337 16.6533 18.4939C16.4539 18.4115 16.3042 18.2717 16.1441 18.1311C16.0828 18.0779 16.0214 18.0246 15.9601 17.9714C15.9291 17.9445 15.8982 17.9176 15.8664 17.8899C15.7302 17.772 15.5928 17.6558 15.4551 17.5397C15.4028 17.4955 15.3506 17.4514 15.2983 17.4072C15.2725 17.3854 15.2466 17.3636 15.22 17.3411C15.1397 17.2732 15.0595 17.2052 14.9793 17.137C14.7362 16.9306 14.4925 16.7253 14.2448 16.5244C14.0892 16.3983 13.9365 16.2698 13.7863 16.1374C13.7542 16.1092 13.7221 16.0809 13.689 16.0518C13.6263 15.9965 13.5638 15.9409 13.5016 15.885C13.357 15.7574 13.2208 15.6504 13.0496 15.5608C12.8972 15.4696 12.8972 15.4696 12.8477 15.3686C12.842 15.319 12.842 15.319 12.8362 15.2683C12.8242 15.206 12.8121 15.1436 12.7997 15.0793C12.6293 14.9658 12.561 14.9572 12.3606 14.9818C12.2418 15.0559 12.2418 15.0559 12.1655 15.1769C12.1625 15.2232 12.1595 15.2694 12.1564 15.3171C12.1017 15.5273 12.0005 15.5579 11.8202 15.667C11.6396 15.7877 11.4806 15.9265 11.318 16.0702C11.1072 16.2557 10.8962 16.4395 10.6777 16.6159C10.4623 16.7903 10.2525 16.9703 10.0436 17.1525C9.79268 17.3712 9.5389 17.5851 9.27986 17.7942C9.17174 17.8833 9.06543 17.9736 8.95974 18.0656C8.92865 18.0926 8.89756 18.1196 8.86553 18.1474C8.80427 18.2008 8.74319 18.2544 8.6823 18.3082C8.46894 18.4939 8.46894 18.4939 8.36066 18.4939C8.3311 17.6212 8.49781 16.8466 9.10761 16.186C9.34932 15.9328 9.60795 15.6981 9.87285 15.4696C9.97043 15.384 10.068 15.2985 10.1653 15.2127C10.2341 15.1532 10.304 15.0948 10.3746 15.0374C10.8171 14.668 11.098 14.1891 11.1899 13.6159C11.2375 12.8525 11.1222 12.3063 10.6045 11.7135C10.4028 11.5079 10.1874 11.3174 9.97041 11.1281C9.934 11.096 9.89759 11.0639 9.86008 11.0308C9.72834 10.915 9.59617 10.8001 9.46184 10.6874C8.85672 10.1668 8.46287 9.53698 8.36066 8.7379C8.36066 8.44815 8.36066 8.1584 8.36066 7.85986Z" fill="#D4E4E5"/>
<path d="M10.1755 8.66473C10.2585 8.66434 10.2585 8.66434 10.3431 8.66393C10.5259 8.66332 10.7087 8.66413 10.8915 8.66501C11.0185 8.665 11.1455 8.66493 11.2726 8.66479C11.5388 8.66466 11.805 8.66532 12.0712 8.66645C12.3787 8.66775 12.6862 8.66783 12.9936 8.66726C13.2898 8.66673 13.586 8.66704 13.8821 8.66772C14.008 8.66794 14.1339 8.66796 14.2598 8.66777C14.4356 8.66763 14.6115 8.66843 14.7873 8.6695C14.8394 8.66928 14.8915 8.66906 14.9452 8.66883C15.2214 8.67161 15.4221 8.67869 15.6277 8.88433C15.6703 9.17731 15.6415 9.33753 15.4722 9.58249C15.2169 9.9059 14.9129 10.1753 14.6033 10.4453C14.5669 10.4774 14.5305 10.5096 14.493 10.5427C14.4317 10.5965 14.3702 10.6502 14.3086 10.7037C14.1117 10.875 13.9178 11.0495 13.7253 11.2258C13.6898 11.2574 13.6544 11.289 13.6178 11.3216C13.2606 11.6549 13.009 12.0542 12.9867 12.5502C12.9861 12.6066 12.9856 12.663 12.985 12.7212C12.9839 12.7831 12.9827 12.8451 12.9815 12.9089C12.9794 13.0388 12.9779 13.1688 12.9769 13.2987C12.9756 13.3607 12.9742 13.4226 12.9728 13.4864C12.9721 13.5429 12.9714 13.5993 12.9707 13.6574C12.9398 13.8413 12.8785 13.9227 12.7497 14.055C12.6088 14.1255 12.5157 14.1222 12.3595 14.1038C12.2223 13.9849 12.2223 13.9849 12.1156 13.8599C12.0995 13.8438 12.0834 13.8277 12.0668 13.8111C12.0608 13.7116 12.058 13.612 12.0565 13.5123C12.0551 13.4507 12.0537 13.389 12.0523 13.3254C12.0497 13.1955 12.0476 13.0655 12.0458 12.9356C12.0239 12.0326 11.6511 11.5569 11.0187 10.9537C10.8985 10.8407 10.7757 10.7313 10.6501 10.6244C10.4925 10.4898 10.3399 10.3498 10.1865 10.2105C10.112 10.1441 10.0364 10.0788 9.95933 10.0154C9.69371 9.79643 9.43494 9.55218 9.35739 9.20464C9.3459 9.01543 9.3446 8.92904 9.47373 8.78207C9.7033 8.64368 9.91219 8.66235 10.1755 8.66473Z" fill="#393939"/>
<path d="M12.702 16.2501C12.8291 16.3461 12.8291 16.3461 12.955 16.4696C13.002 16.5146 13.0492 16.5594 13.0964 16.6041C13.1319 16.638 13.1319 16.638 13.1682 16.6726C13.2739 16.7707 13.3854 16.8609 13.4977 16.9513C13.7346 17.1428 13.9664 17.3395 14.1973 17.5382C14.3951 17.7085 14.5939 17.8775 14.7934 18.0458C14.9718 18.1966 15.1501 18.3475 15.3269 18.5001C15.3574 18.5264 15.3879 18.5526 15.4194 18.5797C15.4402 18.5997 15.461 18.6197 15.4824 18.6403C15.4824 18.6564 15.4824 18.6725 15.4824 18.6891C13.5185 18.6891 11.5546 18.6891 9.53125 18.6891C9.69992 18.4867 9.81802 18.3508 10.016 18.1952C10.2298 18.0241 10.4397 17.8496 10.6471 17.6708C10.8933 17.4589 11.1405 17.2481 11.3888 17.0387C11.5322 16.9177 11.6748 16.796 11.8169 16.6735C11.8481 16.6466 11.8792 16.6197 11.9114 16.592C11.9719 16.5398 12.0323 16.4876 12.0926 16.4352C12.3207 16.2384 12.4025 16.1711 12.702 16.2501Z" fill="#EDAB53"/>
<path d="M7.92188 19.5183C10.9482 19.5183 13.9745 19.5183 17.0925 19.5183C17.0925 19.792 17.0925 20.0656 17.0925 20.3476C14.0662 20.3476 11.0399 20.3476 7.92188 20.3476C7.92188 20.0739 7.92188 19.8003 7.92188 19.5183Z" fill="#5A697B"/>
<path d="M7.92188 6.20142C10.9482 6.20142 13.9745 6.20142 17.0925 6.20142C17.0925 6.47507 17.0925 6.74873 17.0925 7.03068C14.0662 7.03068 11.0399 7.03068 7.92188 7.03068C7.92188 6.75702 7.92188 6.48336 7.92188 6.20142Z" fill="#5A697B"/>
<path d="M10.7012 9.51831C11.8924 9.51831 13.0836 9.51831 14.3109 9.51831C14.0368 9.8472 14.0368 9.8472 13.8993 9.96343C13.8661 9.99204 13.8329 10.0207 13.7987 10.0501C13.7048 10.1289 13.6103 10.2065 13.5152 10.2837C13.1698 10.5676 12.8888 10.8456 12.6364 11.2157C12.6095 11.2512 12.5825 11.2866 12.5548 11.3232C12.5226 11.3232 12.4904 11.3232 12.4573 11.3232C12.3816 11.2374 12.3816 11.2374 12.2957 11.122C12.2649 11.0816 12.2342 11.0412 12.2025 10.9996C12.137 10.9124 12.0715 10.8251 12.006 10.7378C11.8512 10.5527 11.6555 10.4115 11.4677 10.2616C11.3257 10.1445 11.1979 10.02 11.0705 9.88759C10.9926 9.80979 10.9115 9.74018 10.8262 9.67075C10.7849 9.63654 10.7437 9.60233 10.7012 9.56709C10.7012 9.55099 10.7012 9.5349 10.7012 9.51831Z" fill="#EBA953"/>
</svg>
