<svg width="25" height="26" viewBox="0 0 25 26" fill="none" xmlns="http://www.w3.org/2000/svg">
<path d="M6.0558 0.014125C6.10214 0.0138772 6.14848 0.0136293 6.19623 0.0133739C6.35176 0.0126805 6.50729 0.0127711 6.66283 0.0128613C6.77425 0.012534 6.88566 0.0121618 6.99708 0.0117479C7.29998 0.0107803 7.60287 0.010525 7.90576 0.0104552C8.1586 0.0103514 8.41143 0.00994898 8.66427 0.00956119C9.26087 0.00866993 9.85746 0.00840328 10.4541 0.00848101C11.0694 0.00854671 11.6847 0.00739287 12.3001 0.00566462C12.8284 0.00423375 13.3567 0.00364725 13.885 0.00371717C14.2005 0.00374506 14.516 0.0034335 14.8315 0.00227548C15.1284 0.00121571 15.4253 0.00120813 15.7221 0.00200379C15.831 0.00211814 15.9398 0.00186013 16.0487 0.00119855C16.1975 0.000352525 16.3463 0.000862951 16.4951 0.00170519C16.538 0.00114248 16.5808 0.000579765 16.625 0C17.0669 0.00550807 17.383 0.188019 17.6939 0.496433C17.7437 0.545381 17.7935 0.594329 17.8448 0.64476C17.8977 0.697796 17.9505 0.750865 18.0032 0.803964C18.0586 0.859046 18.114 0.914099 18.1694 0.969125C18.2849 1.08408 18.4 1.19943 18.5149 1.31507C18.6614 1.46256 18.8091 1.6089 18.957 1.75496C19.0715 1.86823 19.1853 1.98214 19.299 2.09624C19.3531 2.15044 19.4075 2.20444 19.4621 2.25821C19.8872 2.678 20.1019 2.97283 20.1338 3.5843C20.1392 3.67737 20.1392 3.67737 20.1447 3.77233C20.1467 3.81859 20.1488 3.86484 20.1509 3.9125C20.1739 3.8732 20.197 3.83391 20.2208 3.79342C20.469 3.3712 20.7187 2.94984 20.97 2.52945C21.0217 2.44294 21.0733 2.35637 21.1249 2.2698C21.2096 2.1285 21.2954 1.98791 21.3816 1.84755C21.4058 1.80698 21.43 1.76642 21.455 1.72462C21.7286 1.2853 22.1081 0.9391 22.6124 0.794563C23.1702 0.682854 23.6635 0.757895 24.165 1.02918C24.5482 1.29001 24.8098 1.69137 24.9387 2.1343C25.1114 3.05077 24.7116 3.67121 24.2219 4.39805C24.1037 4.57437 23.9887 4.75271 23.8739 4.9313C23.8173 5.01867 23.8173 5.01867 23.7596 5.1078C23.724 5.16463 23.6884 5.22146 23.6517 5.28002C23.6294 5.31157 23.6072 5.34312 23.5842 5.37562C23.5084 5.48456 23.5084 5.48456 23.4329 5.66292C23.4732 5.83029 23.4732 5.83029 23.5765 5.98087C23.8457 6.42248 23.8871 6.88259 23.8848 7.39042C23.885 7.4402 23.8852 7.48998 23.8854 7.54127C23.886 7.70648 23.8858 7.87169 23.8855 8.03691C23.8858 8.15602 23.8861 8.27512 23.8864 8.39423C23.8871 8.71667 23.8872 9.03912 23.887 9.36156C23.887 9.63125 23.8872 9.90093 23.8875 10.1706C23.8881 10.8071 23.8881 11.4437 23.8878 12.0802C23.8875 12.7357 23.8881 13.3912 23.8893 14.0467C23.8903 14.6105 23.8906 15.1744 23.8904 15.7382C23.8903 16.0745 23.8904 16.4108 23.8912 16.7471C23.8919 17.0635 23.8918 17.3798 23.8911 17.6962C23.891 17.8119 23.8911 17.9276 23.8916 18.0433C23.8953 19.0868 23.8143 19.8973 23.0712 20.6896C22.6006 21.1416 21.9919 21.424 21.3353 21.4233C21.2774 21.4234 21.2195 21.4234 21.1598 21.4235C21.0969 21.4233 21.0339 21.4231 20.9691 21.4229C20.9023 21.4229 20.8356 21.4229 20.7669 21.4229C20.5844 21.4229 20.4019 21.4226 20.2194 21.4223C20.0284 21.4219 19.8375 21.4219 19.6466 21.4218C19.2853 21.4217 18.924 21.4212 18.5627 21.4207C18.1513 21.42 17.7399 21.4197 17.3285 21.4195C16.4824 21.4189 15.6363 21.4179 14.7902 21.4167C14.7902 21.9763 14.7902 22.5359 14.7902 23.1124C14.9346 23.1305 15.079 23.1485 15.2278 23.1671C16.3468 23.4044 17.9192 23.8937 18.7287 24.7535C18.843 24.9865 18.8789 25.2074 18.8381 25.4646C18.7134 25.7092 18.5932 25.841 18.3457 25.9569C18.1836 25.9728 18.0331 25.9797 17.871 25.9788C17.8233 25.9792 17.7755 25.9796 17.7263 25.9799C17.5663 25.981 17.4062 25.9808 17.2462 25.9807C17.1315 25.9812 17.0167 25.9818 16.902 25.9824C16.5903 25.9838 16.2786 25.9842 15.9669 25.9843C15.7067 25.9845 15.4465 25.9851 15.1863 25.9857C14.5725 25.987 13.9587 25.9874 13.3448 25.9873C12.7115 25.9872 12.0783 25.9889 11.445 25.9915C10.9013 25.9936 10.3577 25.9945 9.81399 25.9944C9.48926 25.9944 9.16455 25.9949 8.83982 25.9966C8.53442 25.9982 8.22905 25.9982 7.92364 25.997C7.8116 25.9968 7.69956 25.9972 7.58752 25.9982C7.43444 25.9995 7.28149 25.9987 7.12841 25.9974C7.08417 25.9983 7.03992 25.9991 6.99434 26C6.69864 25.9946 6.54554 25.9154 6.32883 25.7151C6.20526 25.5666 6.19122 25.4149 6.18511 25.2287C6.18204 25.1681 6.18204 25.1681 6.17891 25.1062C6.22412 24.8462 6.37214 24.6833 6.57335 24.5216C7.28292 24.0725 8.02137 23.7163 8.81758 23.4475C8.8619 23.4325 8.90622 23.4175 8.95188 23.402C9.34651 23.2748 9.72938 23.2006 10.1406 23.1124C10.1406 22.5528 10.1406 21.9933 10.1406 21.4167C9.4547 21.4167 8.76876 21.4167 8.06202 21.4167C8.06202 21.6694 8.06202 21.9221 8.06202 22.1825C7.97682 22.474 7.85252 22.6401 7.62442 22.8389C7.48735 22.9075 7.39377 22.901 7.24033 22.9017C7.15314 22.9023 7.15314 22.9023 7.06419 22.9029C7.00014 22.903 6.93609 22.9032 6.87009 22.9033C6.76922 22.9039 6.76922 22.9039 6.66632 22.9044C6.44295 22.9055 6.21959 22.9061 5.99622 22.9067C5.91932 22.9069 5.84241 22.9071 5.76551 22.9073C5.40417 22.9084 5.04282 22.9092 4.68148 22.9096C4.26448 22.9102 3.84749 22.9116 3.4305 22.9138C3.10814 22.9155 2.78579 22.9163 2.46343 22.9164C2.27093 22.9166 2.07844 22.9171 1.88594 22.9184C1.67105 22.92 1.45617 22.9197 1.24127 22.9193C1.14586 22.9204 1.14586 22.9204 1.04852 22.9215C0.707145 22.9193 0.498399 22.906 0.239828 22.6748C-0.00124128 22.4088 0.0127127 22.1369 0.0122112 21.7916C0.0119396 21.7469 0.011668 21.7021 0.0113882 21.656C0.0105901 21.5081 0.0102166 21.3602 0.00991416 21.2122C0.00959941 21.1092 0.00928446 21.0062 0.00896932 20.9032C0.0083949 20.6872 0.00807499 20.4712 0.00788425 20.2552C0.00758436 19.979 0.0062703 19.7027 0.00471336 19.4265C0.00369284 19.2136 0.00340944 19.0008 0.00332573 18.788C0.00316051 18.6862 0.00272249 18.5844 0.00200278 18.4825C0.00106613 18.3398 0.00117324 18.1972 0.00152744 18.0545C0.000771357 17.9918 0.000771357 17.9918 0 17.9279C0.002169 17.6479 0.0542659 17.4536 0.185127 17.2048C0.411028 16.9954 0.544247 16.9239 0.848373 16.9278C0.898155 16.9283 0.947937 16.9288 0.999227 16.9293C1.05655 16.9303 1.05655 16.9303 1.11504 16.9313C1.11484 16.8789 1.11464 16.8265 1.11443 16.7725C1.10956 15.4959 1.10597 14.2194 1.1037 12.9428C1.10258 12.3254 1.10104 11.7081 1.09853 11.0907C1.09635 10.5525 1.09494 10.0142 1.09445 9.47596C1.09417 9.19111 1.0935 8.90628 1.0919 8.62144C1.09041 8.35295 1.08996 8.08448 1.09029 7.81598C1.09023 7.71782 1.0898 7.61965 1.08896 7.52149C1.08189 6.65641 1.22779 5.90504 1.83298 5.24241C2.48363 4.63619 3.218 4.48585 4.07913 4.50395C4.18072 4.50506 4.18072 4.50506 4.28437 4.5062C4.4496 4.50811 4.61478 4.51079 4.77998 4.51421C4.7795 4.47076 4.77901 4.42731 4.77851 4.38254C4.77411 3.97135 4.77079 3.56017 4.76865 3.14896C4.76751 2.93759 4.76597 2.72625 4.76348 2.5149C4.76109 2.3106 4.75979 2.10633 4.75922 1.90202C4.75882 1.8244 4.75804 1.74679 4.75685 1.66919C4.74975 1.18621 4.74565 0.732162 5.09614 0.364136C5.40324 0.0840829 5.63979 0.0124986 6.0558 0.014125Z" fill="#111111"/>
<path d="M6.19809 0.405187C6.24331 0.405141 6.28852 0.405094 6.33511 0.405046C6.48747 0.404955 6.63983 0.405257 6.79219 0.405555C6.90106 0.405571 7.00994 0.405562 7.11882 0.405531C7.41514 0.405515 7.71145 0.405838 8.00777 0.406219C8.31716 0.40656 8.62656 0.406593 8.93596 0.406658C9.52217 0.406828 10.1084 0.407277 10.6946 0.407826C11.3618 0.408436 12.0291 0.408738 12.6963 0.409013C14.0692 0.409585 15.4421 0.410547 16.815 0.411765C16.8162 0.518552 16.8162 0.518552 16.8174 0.627496C16.8206 0.892361 16.8248 1.1572 16.8293 1.42204C16.8312 1.53653 16.8327 1.65103 16.8339 1.76553C16.8358 1.93039 16.8386 2.09521 16.8417 2.26005C16.8422 2.33648 16.8422 2.33648 16.8428 2.41445C16.8491 2.69746 16.8721 2.90397 17.0338 3.1468C17.2061 3.26166 17.2496 3.27026 17.4466 3.27277C17.5219 3.27414 17.5219 3.27414 17.5987 3.27553C17.6527 3.27599 17.7068 3.27645 17.7624 3.27693C17.8457 3.27832 17.8457 3.27832 17.9306 3.27974C18.108 3.28265 18.2854 3.28486 18.4628 3.28697C18.6407 3.28937 18.8185 3.29192 18.9963 3.29478C19.107 3.29654 19.2178 3.298 19.3285 3.29917C19.4033 3.30028 19.4033 3.30028 19.4795 3.30141C19.5236 3.30193 19.5677 3.30245 19.6131 3.30298C19.7141 3.3109 19.7141 3.3109 19.7688 3.3656C19.9499 4.25027 19.7108 4.90416 19.2322 5.63034C19.1456 5.75997 19.0578 5.88866 18.9695 6.01712C18.7586 6.32552 18.5677 6.64632 18.374 6.96559C18.302 7.08281 18.2299 7.19997 18.1577 7.31708C18.1245 7.37114 18.0912 7.4252 18.057 7.48089C17.974 7.6155 17.8907 7.74986 17.8073 7.88418C17.5092 8.36714 17.2753 8.80362 17.1926 9.37199C17.1832 9.43559 17.1738 9.49918 17.1641 9.5647C17.1572 9.61294 17.1503 9.66118 17.1432 9.71088C17.0898 9.71118 17.0898 9.71118 17.0353 9.71148C16.6644 9.71377 16.2935 9.71757 15.9226 9.72223C15.7842 9.72377 15.6458 9.72493 15.5075 9.7257C15.3084 9.72688 15.1094 9.72943 14.9103 9.73225C14.8486 9.73231 14.7869 9.73238 14.7233 9.73245C14.3832 9.73877 14.1735 9.75459 13.9159 9.98438C13.709 10.2192 13.6357 10.3454 13.6335 10.6557C13.633 10.716 13.6325 10.7762 13.6319 10.8383C13.6317 10.9037 13.6315 10.9691 13.6312 11.0365C13.6309 11.1036 13.6306 11.1706 13.6303 11.2397C13.6298 11.3819 13.6294 11.5241 13.6292 11.6663C13.6289 11.8836 13.627 12.1008 13.6253 12.3181C13.6249 12.4562 13.6246 12.5942 13.6244 12.7322C13.6234 12.8297 13.6234 12.8297 13.6224 12.9291C13.6233 13.2909 13.6313 13.571 13.8904 13.8487C14.1461 14.0442 14.2605 14.0939 14.5809 14.0975C14.6518 14.0984 14.7227 14.0992 14.7957 14.1001C14.8735 14.1008 14.9513 14.1014 15.0291 14.1019C15.0879 14.1023 15.0879 14.1023 15.1478 14.1028C15.3555 14.1042 15.5631 14.1053 15.7707 14.1061C15.9421 14.1068 16.1135 14.1083 16.2848 14.1106C16.4921 14.1133 16.6993 14.1146 16.9066 14.115C16.9853 14.1154 17.0641 14.1162 17.1428 14.1175C17.7126 14.1328 17.7126 14.1328 18.2127 13.8936C18.3957 13.7085 18.454 13.5557 18.4614 13.2977C18.4556 13.2303 18.4497 13.1628 18.4436 13.0933C18.374 11.9116 18.374 11.9116 18.6236 11.5889C18.9222 11.3467 19.3714 11.0784 19.7688 11.0784C19.7688 13.1543 19.7688 15.2302 19.7688 17.369C16.8031 17.38 16.8031 17.38 15.5627 17.3823C14.7054 17.384 13.8481 17.3859 12.9908 17.3896C12.3665 17.3923 11.7423 17.3941 11.1179 17.3947C10.7873 17.3951 10.4566 17.3959 10.126 17.3979C9.81488 17.3997 9.50381 17.4003 9.19271 17.3999C9.07841 17.4 8.96412 17.4005 8.84983 17.4016C8.69396 17.4029 8.53818 17.4026 8.3823 17.4019C8.33691 17.4027 8.29153 17.4035 8.24476 17.4043C8.01224 17.4013 7.92804 17.3942 7.74548 17.237C7.68598 17.1669 7.68598 17.1669 7.62528 17.0955C7.47333 17.0032 7.35755 16.972 7.18078 16.9686C7.13699 16.9675 7.0932 16.9665 7.04809 16.9653C7.00135 16.9647 6.95462 16.9641 6.90648 16.9634C6.85822 16.9624 6.80996 16.9613 6.76025 16.9602C6.60643 16.9569 6.45261 16.9544 6.29879 16.9519C6.19437 16.9498 6.08995 16.9477 5.98554 16.9455C5.72985 16.9402 5.47416 16.9356 5.21845 16.9314C5.21469 14.9091 5.2118 12.8869 5.21007 10.8646C5.20986 10.6259 5.20965 10.3872 5.20943 10.1485C5.20939 10.101 5.20935 10.0535 5.2093 10.0045C5.20859 9.23489 5.20729 8.46523 5.20579 7.69557C5.20425 6.90598 5.20334 6.11639 5.20301 5.32679C5.20278 4.83947 5.20207 4.35216 5.20074 3.86484C5.19987 3.53078 5.19961 3.19672 5.19982 2.86266C5.19993 2.66985 5.19976 2.47706 5.19889 2.28425C5.19794 2.07524 5.19827 1.86625 5.19871 1.65725C5.19824 1.59627 5.19776 1.53529 5.19727 1.47246C5.19903 1.16986 5.20665 0.94403 5.38255 0.685269C5.66055 0.434387 5.8334 0.403826 6.19809 0.405187Z" fill="#FDFDFD"/>
<path d="M5.21875 1.01318C5.2368 1.01318 5.25485 1.01318 5.27345 1.01318C5.27323 1.08123 5.27301 1.14929 5.27278 1.2194C5.26762 2.83564 5.26529 4.45186 5.26642 6.06811C5.26656 6.26714 5.26667 6.46618 5.26677 6.66521C5.26679 6.70483 5.26681 6.74445 5.26683 6.78528C5.2671 7.42643 5.26545 8.06756 5.26307 8.70871C5.26068 9.36684 5.26036 10.0249 5.26197 10.6831C5.26281 11.0526 5.2627 11.4222 5.26019 11.7917C5.25792 12.1397 5.25821 12.4875 5.26046 12.8354C5.26084 12.9631 5.26028 13.0907 5.25871 13.2183C5.22841 13.8819 5.22841 13.8819 5.4457 14.4873C5.58341 14.6143 5.71226 14.7063 5.87516 14.7978C5.95787 14.8542 6.04045 14.9109 6.12281 14.9678C6.20286 15.0166 6.28327 15.0647 6.36405 15.1123C6.42322 15.1486 6.42322 15.1486 6.4836 15.1856C6.60745 15.26 6.73331 15.3296 6.85977 15.3995C6.89904 15.4233 6.93831 15.4471 6.97877 15.4716C7.47616 15.7403 7.97837 15.7158 8.52857 15.7151C8.63218 15.7157 8.73579 15.7163 8.8394 15.717C9.05595 15.7182 9.27248 15.7182 9.48903 15.7176C9.764 15.717 10.0388 15.7196 10.3138 15.7231C10.5277 15.7253 10.7416 15.7255 10.9555 15.7251C11.0567 15.7253 11.158 15.726 11.2592 15.7276C12.2852 15.7414 13.0653 15.3854 13.8615 14.7431C13.9046 14.6919 13.9477 14.6408 13.9921 14.5881C14.2736 14.2745 14.5042 14.1312 14.9305 14.092C15.3263 14.0742 15.7215 14.0801 16.1173 14.0906C16.3799 14.0973 16.6425 14.1006 16.9052 14.1023C17.0444 14.1035 17.1837 14.1062 17.3229 14.1105C17.6671 14.1152 17.9281 14.1054 18.2097 13.8937C18.3967 13.7111 18.4543 13.5558 18.4617 13.2974C18.4559 13.23 18.45 13.1625 18.4439 13.0931C18.3743 11.9113 18.3743 11.9113 18.6239 11.5886C18.9225 11.3464 19.3717 11.0781 19.7691 11.0781C19.7691 13.154 19.7691 15.2299 19.7691 17.3687C16.8034 17.3797 16.8034 17.3797 15.5631 17.382C14.7057 17.3837 13.8484 17.3856 12.9911 17.3893C12.3668 17.392 11.7426 17.3938 11.1182 17.3944C10.7876 17.3948 10.4569 17.3956 10.1263 17.3976C9.81519 17.3995 9.50411 17.4 9.19301 17.3996C9.07872 17.3997 8.96442 17.4002 8.85014 17.4013C8.69426 17.4026 8.53848 17.4023 8.38261 17.4016C8.33722 17.4024 8.29183 17.4032 8.24506 17.404C8.01254 17.401 7.92835 17.3939 7.74579 17.2367C7.68628 17.1667 7.68628 17.1667 7.62558 17.0952C6.90634 16.7356 6.02264 16.9512 5.21875 16.9311C5.21875 11.6782 5.21875 6.42527 5.21875 1.01318Z" fill="#DADADA"/>
<path d="M4.8341 4.95188C4.8341 8.9051 4.8341 12.8583 4.8341 16.9313C3.75103 16.9313 2.66796 16.9313 1.55206 16.9313C1.54341 15.5966 1.53636 14.2619 1.53222 12.9271C1.53025 12.3073 1.52757 11.6875 1.52318 11.0677C1.51935 10.5273 1.51689 9.98681 1.51604 9.44633C1.51554 9.16037 1.51438 8.87445 1.51158 8.5885C1.50896 8.31884 1.50818 8.04922 1.50875 7.77954C1.50865 7.68107 1.5079 7.58259 1.50642 7.48413C1.49483 6.67235 1.6615 6.12038 2.20847 5.49889C2.32364 5.40273 2.32364 5.40273 2.43753 5.32795C2.47441 5.30299 2.51129 5.27803 2.54928 5.25231C3.40189 4.79293 3.67504 4.95188 4.8341 4.95188Z" fill="#8592DF"/>
<path d="M1.36232 17.2785C1.42586 17.278 1.4894 17.2775 1.55486 17.277C1.76492 17.2758 1.97492 17.2766 2.18498 17.2775C2.33098 17.2774 2.47697 17.2771 2.62296 17.2767C2.92898 17.2762 3.23498 17.2769 3.541 17.2782C3.89434 17.2797 4.24763 17.2792 4.60096 17.2777C4.90474 17.2765 5.20851 17.2763 5.51229 17.277C5.69354 17.2774 5.87477 17.2774 6.05602 17.2766C6.25822 17.2759 6.46033 17.2769 6.66252 17.2785C6.72229 17.2779 6.78206 17.2774 6.84364 17.2768C7.2969 17.2831 7.2969 17.2831 7.49928 17.4248C7.65913 17.6295 7.67197 17.786 7.66694 18.0359C7.66734 18.0803 7.66774 18.1247 7.66815 18.1705C7.66903 18.3169 7.66755 18.4632 7.66595 18.6096C7.66589 18.7116 7.66595 18.8135 7.66611 18.9155C7.6661 19.1291 7.66497 19.3426 7.66298 19.5561C7.6605 19.8296 7.66044 20.1031 7.66118 20.3766C7.66155 20.5872 7.66082 20.7977 7.65974 21.0082C7.65932 21.109 7.6592 21.2099 7.65937 21.3107C7.65941 21.4517 7.65803 21.5927 7.65625 21.7337C7.65652 21.7753 7.6568 21.8168 7.65707 21.8596C7.65169 22.1279 7.59923 22.2676 7.4074 22.4557C7.27366 22.5226 7.18667 22.5177 7.03712 22.5185C6.98205 22.5189 6.92699 22.5193 6.87025 22.5197C6.80961 22.5198 6.74897 22.52 6.68649 22.5201C6.6228 22.5205 6.55912 22.5208 6.4935 22.5212C6.28204 22.5223 6.07058 22.5229 5.85912 22.5235C5.78707 22.5237 5.71503 22.5239 5.6408 22.5241C5.29896 22.5252 4.95713 22.526 4.61529 22.5264C4.22055 22.5269 3.82583 22.5284 3.43109 22.5306C3.12606 22.5322 2.82104 22.5331 2.51601 22.5332C2.33378 22.5334 2.15158 22.534 1.96935 22.5352C1.76608 22.5366 1.56286 22.5365 1.35959 22.5361C1.26896 22.5372 1.26896 22.5372 1.17649 22.5383C1.09343 22.5377 1.09343 22.5377 1.0087 22.5371C0.960633 22.5372 0.912571 22.5374 0.863053 22.5375C0.691215 22.5015 0.625981 22.4244 0.515119 22.2916C0.429859 22.1211 0.450903 21.9396 0.449868 21.7523C0.449421 21.708 0.448973 21.6636 0.448513 21.6178C0.447153 21.4706 0.446249 21.3233 0.445461 21.176C0.44517 21.1258 0.444879 21.0755 0.444579 21.0238C0.443116 20.7578 0.442056 20.4918 0.441268 20.2259C0.440357 19.951 0.437907 19.6763 0.435121 19.4014C0.433281 19.1902 0.432648 18.979 0.432339 18.7678C0.431971 18.6665 0.431138 18.5652 0.429829 18.4639C0.428101 18.3221 0.428095 18.1803 0.428501 18.0385C0.427603 17.9967 0.426706 17.9549 0.425781 17.9118C0.428095 17.714 0.456366 17.594 0.55989 17.4246C0.821675 17.258 1.05785 17.2757 1.36232 17.2785Z" fill="#72BEC1"/>
<path d="M23.104 6.0459C23.5175 6.56292 23.4548 7.21061 23.4508 7.83791C23.4508 7.94146 23.4508 8.04501 23.4509 8.14856C23.451 8.42836 23.45 8.70814 23.4488 8.98794C23.4478 9.28083 23.4477 9.57372 23.4475 9.86662C23.447 10.4207 23.4457 10.9747 23.444 11.5287C23.4422 12.1598 23.4413 12.7908 23.4405 13.4218C23.4387 14.7193 23.4357 16.0167 23.4322 17.3142C22.3311 17.3142 21.23 17.3142 20.0955 17.3142C20.0779 15.6936 20.0779 15.6936 20.0735 14.8916C20.071 14.4583 20.068 14.0251 20.0624 13.5918C20.0581 13.2487 20.0553 12.9056 20.0543 12.5624C20.0537 12.3809 20.0522 12.1994 20.0492 12.0178C20.046 11.8147 20.0456 11.6118 20.0458 11.4086C20.0442 11.349 20.0426 11.2894 20.041 11.228C20.0445 10.9 20.0883 10.7227 20.3095 10.4742C20.3839 10.402 20.4584 10.3298 20.5331 10.2579C20.6185 10.1438 20.6862 10.0282 20.7585 9.90465C20.7772 9.87308 20.7959 9.84151 20.8152 9.80899C20.8755 9.70704 20.935 9.60467 20.9946 9.5023C21.0373 9.42987 21.0801 9.35749 21.1229 9.28514C21.2111 9.13617 21.2991 8.98709 21.3869 8.83793C21.5895 8.49469 21.7962 8.15398 22.0031 7.81341C22.0223 7.78183 22.0415 7.75024 22.0612 7.7177C22.4021 7.15616 22.7502 6.59941 23.104 6.0459Z" fill="#C2C8FA"/>
<path d="M8.00586 17.8064C13.0783 17.8064 18.1506 17.8064 23.3767 17.8064C22.8605 18.426 22.1564 18.6629 21.4075 18.9004C21.3606 18.9159 21.3137 18.9314 21.2654 18.9474C21.1312 18.99 20.9964 19.0277 20.8605 19.0645C20.8263 19.074 20.7921 19.0835 20.7569 19.0933C19.0836 19.5533 17.2558 19.8661 15.5142 19.8256C15.4717 19.8248 15.4291 19.824 15.3853 19.8231C15.3046 19.8211 15.2238 19.8181 15.1431 19.8139C14.9539 19.8087 14.8651 19.8119 14.7182 19.9369C14.6719 19.9925 14.6719 19.9925 14.6246 20.0491C14.4338 20.1127 14.2819 20.1123 14.0806 20.1144C14.0421 20.1148 14.0037 20.1153 13.9641 20.1157C13.8369 20.1171 13.7097 20.118 13.5826 20.1188C13.5173 20.1192 13.5173 20.1192 13.4507 20.1197C13.2205 20.1211 12.9903 20.1222 12.7601 20.123C12.5698 20.1237 12.3795 20.1252 12.1892 20.1275C11.9592 20.1302 11.7292 20.1315 11.4991 20.1319C11.4116 20.1323 11.3241 20.1331 11.2366 20.1344C11.1139 20.1361 10.9913 20.1361 10.8686 20.1357C10.7989 20.1362 10.7292 20.1366 10.6573 20.1371C10.4079 20.0934 10.3258 19.998 10.1392 19.8303C10.022 19.7849 10.022 19.7849 9.90609 19.7792C9.86341 19.7748 9.82072 19.7705 9.77674 19.766C9.70929 19.7609 9.70929 19.7609 9.64047 19.7557C9.59358 19.7513 9.5467 19.7468 9.49839 19.7422C9.34967 19.7283 9.20087 19.716 9.05201 19.7038C8.95072 19.6946 8.84944 19.6853 8.74816 19.6759C8.50082 19.653 8.25343 19.6323 8.00586 19.6115C8.00586 19.0158 8.00586 18.4201 8.00586 17.8064Z" fill="#5A5375"/>
<path d="M8.00586 17.7517C13.0963 17.7517 18.1867 17.7517 23.4314 17.7517C23.4314 19.7717 23.4314 19.7717 22.775 20.432C22.2484 20.8512 21.7895 20.9876 21.129 20.9856C21.0729 20.9857 21.0168 20.9857 20.959 20.9858C20.7709 20.9859 20.5828 20.9856 20.3946 20.9853C20.2599 20.9852 20.1251 20.9853 19.9903 20.9853C19.7001 20.9853 19.4098 20.9851 19.1195 20.9848C18.6998 20.9844 18.2802 20.9842 17.8605 20.9842C17.1796 20.9841 16.4986 20.9837 15.8177 20.9832C15.1563 20.9827 14.4949 20.9823 13.8335 20.9821C13.7927 20.982 13.7519 20.982 13.7099 20.982C13.5054 20.9819 13.3008 20.9819 13.0962 20.9818C11.3995 20.9812 9.70266 20.9803 8.00586 20.979C8.00586 20.5278 8.00586 20.0765 8.00586 19.6115C8.26708 19.6253 8.52795 19.6399 8.78895 19.6569C8.89016 19.6633 8.99139 19.6694 9.09263 19.6752C9.25356 19.6846 9.41429 19.6958 9.57508 19.7073C9.65152 19.7113 9.65152 19.7113 9.72949 19.7155C9.77803 19.7192 9.82657 19.723 9.87658 19.7269C9.94075 19.7311 9.94075 19.7311 10.0062 19.7354C10.1392 19.7756 10.1392 19.7756 10.2867 19.9129C10.4743 20.0724 10.6182 20.0829 10.866 20.0819C10.9045 20.0821 10.9429 20.0824 10.9826 20.0826C11.1089 20.0829 11.2351 20.0814 11.3614 20.0797C11.4497 20.0795 11.5379 20.0793 11.6262 20.0793C11.8109 20.079 11.9955 20.0777 12.1802 20.0758C12.4163 20.0733 12.6525 20.0725 12.8887 20.0723C13.0708 20.0721 13.253 20.0712 13.4352 20.0702C13.5222 20.0697 13.6093 20.0693 13.6964 20.0691C13.8182 20.0686 13.9401 20.0673 14.0619 20.0659C14.1311 20.0653 14.2004 20.0647 14.2717 20.0641C14.4636 20.0489 14.6131 20.0185 14.7887 19.9397C14.8068 19.8856 14.8248 19.8314 14.8434 19.7756C14.8941 19.7769 14.9447 19.7782 14.9969 19.7795C17.5438 19.822 21.2998 19.5945 23.322 17.8611C18.2677 17.8431 13.2134 17.825 8.00586 17.8064C8.00586 17.7884 8.00586 17.7703 8.00586 17.7517Z" fill="#3E3A5A"/>
<path d="M7.83131 1.58787C7.90466 1.58786 7.97801 1.58778 8.05135 1.58763C8.20456 1.58755 8.35773 1.58823 8.51093 1.58949C8.70645 1.59104 8.90191 1.59089 9.09743 1.59019C9.24873 1.58981 9.40002 1.59024 9.55133 1.59092C9.65819 1.59128 9.76505 1.59105 9.87191 1.5908C10.5921 1.59843 10.5921 1.59843 10.8924 1.86308C11.0735 2.10728 11.1321 2.22219 11.1359 2.52434C11.1367 2.5888 11.1376 2.65327 11.1385 2.71969C11.141 3.01518 11.1432 3.31067 11.1445 3.60617C11.1452 3.76201 11.1467 3.91781 11.149 4.07364C11.1522 4.29819 11.1532 4.52269 11.154 4.74726C11.1552 4.81673 11.1564 4.8862 11.1577 4.95778C11.1568 5.3586 11.1377 5.59069 10.8518 5.88166C10.6383 6.03693 10.4884 6.0666 10.2261 6.06786C10.1209 6.0689 10.1209 6.0689 10.0136 6.06996C9.93755 6.06985 9.86146 6.06969 9.78537 6.06948C9.70683 6.06973 9.62829 6.07002 9.54975 6.07035C9.38537 6.07083 9.221 6.0707 9.05662 6.07016C8.8465 6.06953 8.63642 6.07064 8.42631 6.07223C8.26417 6.07324 8.10204 6.07322 7.9399 6.07291C7.86246 6.0729 7.78502 6.07323 7.70758 6.07391C7.59908 6.07473 7.49058 6.074 7.38208 6.0732C7.28966 6.07319 7.28966 6.07319 7.19538 6.07318C6.9221 6.02977 6.75266 5.88977 6.56807 5.69021C6.4231 5.47544 6.41393 5.29127 6.41051 5.03556C6.40963 4.97566 6.40875 4.91576 6.40785 4.85405C6.40541 4.58051 6.40317 4.30697 6.40191 4.03343C6.40101 3.88933 6.39951 3.74524 6.39742 3.60116C6.39442 3.39294 6.39323 3.18478 6.39243 2.97654C6.39119 2.91248 6.38995 2.84842 6.38867 2.78242C6.38966 2.39875 6.42411 2.11968 6.69457 1.83381C7.03589 1.54825 7.40175 1.58409 7.83131 1.58787Z" fill="#75C3C7"/>
<path d="M2.43931 17.3601C2.51896 17.3597 2.51896 17.3597 2.60021 17.3593C2.77672 17.3585 2.95322 17.3581 3.12972 17.3578C3.25189 17.3575 3.37406 17.3572 3.49623 17.3569C3.75274 17.3563 4.00924 17.356 4.26575 17.3558C4.59496 17.3555 4.92416 17.3542 5.25337 17.3526C5.50583 17.3516 5.75829 17.3513 6.01075 17.3512C6.13214 17.3511 6.25354 17.3506 6.37493 17.3499C6.54454 17.349 6.71413 17.3491 6.88374 17.3494C6.93422 17.3489 6.98469 17.3484 7.03669 17.3479C7.08286 17.3482 7.12904 17.3485 7.17661 17.3488C7.21672 17.3487 7.25684 17.3487 7.29817 17.3486C7.43565 17.3751 7.48406 17.4224 7.56774 17.533C7.58748 17.7023 7.58748 17.7023 7.58637 17.9132C7.58641 17.9709 7.58641 17.9709 7.58644 18.0297C7.58633 18.1567 7.58505 18.2836 7.58377 18.4106C7.58346 18.4987 7.58323 18.5867 7.58306 18.6748C7.58244 18.9065 7.58083 19.1383 7.57901 19.37C7.57733 19.6065 7.57658 19.843 7.57575 20.0795C7.57399 20.5435 7.57119 21.0075 7.56774 21.4715C7.32549 21.5789 7.1226 21.6578 6.85663 21.6903C6.85159 21.6541 6.84655 21.6179 6.84136 21.5807C6.77828 21.1815 6.6602 20.8333 6.50108 20.4629C6.47901 20.4101 6.45694 20.3572 6.4342 20.3028C6.37551 20.163 6.31646 20.0237 6.25493 19.8852C6.22938 19.8245 6.22938 19.8245 6.20332 19.7627C6.14846 19.6476 6.14846 19.6476 5.98142 19.6117C5.77799 19.5791 5.64858 19.5802 5.47181 19.6914C5.34677 19.7892 5.22638 19.8908 5.10621 19.9946C4.99232 20.0926 4.99232 20.0926 4.88741 20.1587C4.68032 20.0896 4.67047 20.0332 4.57331 19.8431C4.54546 19.7899 4.5176 19.7368 4.48891 19.6821C4.43128 19.5697 4.37373 19.4573 4.31626 19.3449C4.12071 18.9567 4.12071 18.9567 3.7934 18.6817C3.57073 18.6499 3.45996 18.6469 3.27417 18.7777C3.14531 18.8931 3.04362 19.0062 2.9387 19.1433C2.75934 19.3727 2.57608 19.5977 2.38827 19.8202C2.36358 19.8497 2.3389 19.8791 2.31346 19.9095C2.15812 20.0932 1.99621 20.2645 1.82417 20.4322C1.41635 19.9683 1.16803 19.4103 1.20003 18.7858C1.30496 18.0433 1.66574 17.361 2.43931 17.3601Z" fill="#A9EAED"/>
<path d="M20.696 3.85791C20.927 3.94127 21.1309 4.0572 21.3387 4.18611C21.3709 4.20558 21.4032 4.22504 21.4364 4.24509C21.6738 4.39139 21.6738 4.39139 21.7353 4.51432C21.6858 4.62158 21.6858 4.62158 21.6062 4.75363C21.577 4.80258 21.5478 4.85152 21.5177 4.90195C21.4857 4.95454 21.4537 5.00714 21.4208 5.06132C21.3887 5.11498 21.3566 5.16863 21.3235 5.2239C21.1657 5.48703 21.0055 5.7486 20.8428 6.00876C20.8012 6.0755 20.8012 6.0755 20.7589 6.14359C20.7065 6.22736 20.6537 6.31085 20.6004 6.39401C20.5769 6.4316 20.5534 6.46918 20.5291 6.5079C20.5084 6.54035 20.4877 6.57279 20.4664 6.60622C20.4073 6.71789 20.4073 6.71789 20.4225 6.92115C20.5127 6.9392 20.603 6.95725 20.696 6.97585C20.7168 6.91881 20.7168 6.91881 20.738 6.86062C20.814 6.682 20.907 6.52372 21.0079 6.3579C21.0277 6.32546 21.0474 6.29302 21.0677 6.25959C21.1093 6.19113 21.1511 6.12272 21.1929 6.05438C21.2559 5.95142 21.3186 5.84827 21.3812 5.74508C21.6009 5.38422 21.8248 5.02708 22.0635 4.67842C22.4308 4.85371 22.7687 5.04772 23.1028 5.28013C22.9265 5.64756 22.7327 5.99573 22.5148 6.33995C22.4515 6.44098 22.3884 6.54205 22.3253 6.64316C22.2918 6.69677 22.2583 6.75039 22.2238 6.80563C22.0546 7.07846 21.8883 7.35311 21.7221 7.62778C21.6635 7.72452 21.6048 7.82121 21.5461 7.91787C21.5266 7.94995 21.5071 7.98202 21.4871 8.01507C21.4675 8.04725 21.448 8.07944 21.4278 8.1126C21.2854 8.3471 21.1434 8.58188 21.002 8.81698C20.9218 8.95003 20.8412 9.08283 20.7605 9.21558C20.7038 9.3092 20.6476 9.40311 20.5914 9.49703C20.5573 9.55315 20.5231 9.60926 20.4879 9.66708C20.458 9.71663 20.4281 9.76617 20.3973 9.81722C20.3131 9.92968 20.3131 9.92968 20.149 9.98438C20.001 9.91218 20.001 9.91218 19.8229 9.80169C19.7908 9.78201 19.7588 9.76233 19.7257 9.74206C19.6226 9.67863 19.52 9.61443 19.4174 9.5502C19.3504 9.5088 19.2833 9.46745 19.2163 9.42616C19.083 9.34396 18.9499 9.26145 18.817 9.17865C18.6157 9.05329 18.4138 8.92888 18.2118 8.80469C18.153 8.76855 18.0942 8.7324 18.0337 8.69517C17.9916 8.66933 17.9496 8.64349 17.9062 8.61687C17.9381 8.38369 18.0196 8.22524 18.1428 8.02584C18.1705 7.98057 18.1705 7.98057 18.1988 7.93439C18.2593 7.83572 18.3204 7.73741 18.3815 7.63909C18.4239 7.57005 18.4664 7.50099 18.5088 7.4319C18.5948 7.29172 18.6811 7.15167 18.7676 7.01172C18.9411 6.73054 19.1125 6.44804 19.284 6.16559C19.3457 6.0643 19.4074 5.96302 19.4691 5.86175C19.6011 5.645 19.733 5.42818 19.8648 5.21132C19.8992 5.15476 19.9336 5.0982 19.969 5.03992C20.0344 4.93237 20.0998 4.82481 20.1651 4.71724C20.3401 4.42954 20.5169 4.14307 20.696 3.85791Z" fill="#ADEFB4"/>
<path d="M4.78183 5.06128C4.78183 7.76896 4.78183 10.4766 4.78183 13.2664C3.72416 12.4731 2.97445 11.4753 2.59381 10.2031C2.58154 10.1623 2.56927 10.1215 2.55663 10.0794C2.321 9.12883 2.5066 8.11811 2.92201 7.24931C2.94556 7.19995 2.96911 7.15059 2.99338 7.09973C3.23262 6.63206 4.17545 5.06128 4.78183 5.06128Z" fill="#C2C8FA"/>
<path d="M14.5722 10.0812C14.6281 10.0812 14.6839 10.0812 14.7415 10.0812C14.8016 10.0818 14.8618 10.0823 14.9238 10.0829C15.0163 10.0831 15.0163 10.0831 15.1107 10.0834C15.308 10.084 15.5053 10.0854 15.7026 10.0868C15.8363 10.0873 15.97 10.0878 16.1036 10.0883C16.4315 10.0895 16.7594 10.0913 17.0873 10.0936C17.0881 10.1543 17.0889 10.2151 17.0897 10.2776C17.0928 10.5025 17.0971 10.7274 17.1016 10.9523C17.1034 11.0497 17.105 11.1471 17.1062 11.2445C17.108 11.3844 17.1109 11.5242 17.114 11.6641C17.1143 11.7078 17.1147 11.7515 17.115 11.7965C17.1168 11.9322 17.1168 11.9322 17.142 12.1175C17.2974 12.2443 17.2974 12.2443 17.4804 12.2201C17.653 12.1805 17.767 12.1394 17.9208 12.0598C17.9595 12.0399 17.9983 12.0201 18.0382 11.9996C18.0673 11.9844 18.0965 11.9691 18.1266 11.9534C18.133 12.1745 18.1368 12.3955 18.1402 12.6167C18.1421 12.6791 18.1439 12.7416 18.1458 12.806C18.1526 13.3946 18.1526 13.3946 17.9078 13.6491C17.7308 13.7081 17.5992 13.7122 17.413 13.7144C17.3449 13.7153 17.2768 13.7161 17.2067 13.717C17.1323 13.7177 17.0578 13.7183 16.9834 13.7188C16.9459 13.7191 16.9084 13.7194 16.8697 13.7197C16.6711 13.7211 16.4725 13.7222 16.274 13.723C16.1098 13.7237 15.9457 13.7252 15.7815 13.7275C15.583 13.7302 15.3846 13.7315 15.1861 13.7319C15.1106 13.7323 15.0351 13.7331 14.9596 13.7344C14.8539 13.7362 14.7481 13.736 14.6423 13.7358C14.5822 13.7362 14.5221 13.7366 14.4601 13.7371C14.2446 13.693 14.1631 13.5963 14.024 13.4303C13.9563 13.2948 13.9617 13.2033 13.9605 13.0517C13.96 12.9957 13.9595 12.9396 13.9589 12.8819C13.9587 12.8211 13.9584 12.7603 13.9582 12.6976C13.9579 12.6353 13.9576 12.573 13.9573 12.5088C13.9567 12.3766 13.9564 12.2445 13.9562 12.1124C13.9556 11.9104 13.954 11.7083 13.9522 11.5063C13.9519 11.3781 13.9516 11.2498 13.9514 11.1216C13.9507 11.0611 13.95 11.0007 13.9493 10.9384C13.9495 10.8818 13.9497 10.8252 13.9498 10.7669C13.9496 10.7173 13.9494 10.6677 13.9492 10.6166C13.9739 10.4444 14.0316 10.3432 14.1334 10.203C14.3131 10.0832 14.3641 10.0801 14.5722 10.0812Z" fill="#F46087"/>
<path d="M23.3797 13.1567C23.3977 13.1567 23.4158 13.1567 23.4344 13.1567C23.4344 14.5286 23.4344 15.9005 23.4344 17.314C22.3333 17.314 21.2321 17.314 20.0977 17.314C20.0977 16.5558 20.0977 15.7977 20.0977 15.0166C20.3222 14.9195 20.5467 14.8225 20.778 14.7225C21.6769 14.3266 22.6744 13.8621 23.3797 13.1567Z" fill="#8592E1"/>
<path d="M12.37 23.3169C12.4948 23.3175 12.6195 23.3169 12.7443 23.3162C14.3656 23.3146 16.0494 23.6801 17.4689 24.4798C15.885 25.5358 12.4654 25.1215 10.7068 24.7766C8.96715 24.3997 8.96715 24.3997 8.60742 23.9875C9.05112 23.7826 9.50785 23.6765 9.98266 23.5726C10.0623 23.5548 10.1417 23.5356 10.2209 23.5157C10.9213 23.341 11.6515 23.3129 12.37 23.3169Z" fill="#5A5375"/>
<path d="M9.2653 24.3159C10.586 24.8595 12.1034 24.9482 13.5114 24.9381C13.5739 24.9379 13.6364 24.9376 13.7007 24.9374C15.3107 24.9355 15.3107 24.9355 16.8813 24.6191C17.4778 24.436 17.4778 24.436 17.7606 24.5702C17.977 24.6975 18.168 24.8493 18.3456 25.027C18.3627 25.2116 18.3627 25.2116 18.3456 25.4099C18.2121 25.5615 18.1258 25.5741 17.9235 25.5947C17.8396 25.5956 17.7557 25.5956 17.6717 25.5948C17.6254 25.5951 17.5791 25.5954 17.5314 25.5956C17.376 25.5963 17.2206 25.5958 17.0652 25.5952C16.9538 25.5955 16.8425 25.5958 16.7312 25.5961C16.4286 25.5969 16.1261 25.5966 15.8236 25.5961C15.5073 25.5956 15.1911 25.596 14.8748 25.5963C14.3437 25.5966 13.8127 25.5962 13.2816 25.5954C12.667 25.5945 12.0525 25.5948 11.438 25.5957C10.9108 25.5964 10.3837 25.5966 9.85658 25.5961C9.54152 25.5959 9.22647 25.5958 8.91141 25.5964C8.61531 25.5968 8.31922 25.5965 8.02312 25.5956C7.91425 25.5954 7.80538 25.5954 7.69651 25.5958C7.54829 25.5962 7.40011 25.5957 7.2519 25.5948C7.20847 25.5952 7.16504 25.5956 7.12029 25.596C6.83173 25.5928 6.83173 25.5928 6.69649 25.5018C6.5875 25.3256 6.59605 25.2283 6.63967 25.027C6.97806 24.6848 7.48438 24.469 7.91269 24.2551C7.99546 24.2125 8.07612 24.1659 8.15633 24.1187C8.58695 23.8907 8.8652 24.1044 9.2653 24.3159Z" fill="#3E3A59"/>
<path d="M15.4453 0.411621C15.8966 0.411621 16.3479 0.411621 16.8128 0.411621C16.8149 0.581556 16.8169 0.751492 16.819 0.926577C16.8216 1.09169 16.8244 1.25679 16.8272 1.4219C16.829 1.53639 16.8305 1.65089 16.8318 1.76538C16.8336 1.93024 16.8365 2.09506 16.8395 2.25991C16.8399 2.31086 16.8402 2.36181 16.8406 2.41431C16.847 2.69732 16.87 2.90383 17.0316 3.14665C17.2039 3.26152 17.2474 3.27011 17.4445 3.27263C17.5198 3.27399 17.5198 3.27399 17.5966 3.27539C17.6506 3.27585 17.7046 3.27631 17.7603 3.27678C17.8435 3.27818 17.8435 3.27818 17.9284 3.2796C18.1058 3.28251 18.2833 3.28471 18.4607 3.28682C18.6385 3.28922 18.8163 3.29178 18.9941 3.29464C19.1049 3.29639 19.2156 3.29786 19.3263 3.29903C19.4011 3.30013 19.4011 3.30013 19.4774 3.30126C19.5215 3.30178 19.5655 3.3023 19.611 3.30284C19.712 3.31076 19.712 3.31076 19.7667 3.36546C19.9478 4.25012 19.7087 4.90401 19.23 5.63019C19.1435 5.75983 19.0556 5.88852 18.9673 6.01697C18.7565 6.32538 18.5656 6.6462 18.3718 6.96544C18.2999 7.08208 18.228 7.19868 18.156 7.31523C17.9527 7.64553 17.7536 7.9782 17.5568 8.31245C17.4692 8.45262 17.4692 8.45262 17.3598 8.56202C17.3637 8.50608 17.3675 8.45013 17.3714 8.3925C17.4064 7.85771 17.4247 7.32498 17.4247 6.78906C17.4248 6.66764 17.4258 6.54626 17.4268 6.42485C17.4299 5.67433 17.3366 4.95743 17.1581 4.22699C17.1439 4.16847 17.1296 4.10994 17.1149 4.04964C16.98 3.51348 16.808 2.99977 16.594 2.49025C16.5775 2.45081 16.5611 2.41138 16.5441 2.37075C16.2935 1.7823 15.9765 1.25296 15.6154 0.725869C15.5515 0.625366 15.4986 0.518159 15.4453 0.411621Z" fill="#DADADA"/>
<path d="M10.8645 18.603C10.9228 18.6022 10.9228 18.6022 10.9823 18.6013C11.1104 18.5998 11.2385 18.5994 11.3666 18.5993C11.4561 18.5987 11.5455 18.5982 11.6349 18.5976C11.8223 18.5966 12.0096 18.5963 12.1969 18.5964C12.4364 18.5964 12.6757 18.5942 12.9151 18.5914C13.0999 18.5895 13.2846 18.5892 13.4693 18.5893C13.5575 18.5891 13.6457 18.5884 13.734 18.5871C14.5091 18.577 14.5091 18.577 14.7574 18.7796C14.9209 18.9529 15.0018 19.1183 15.0286 19.355C15.0048 19.589 14.9506 19.7653 14.7892 19.9396C14.5393 20.0886 14.3527 20.125 14.0633 20.1276C14.0249 20.1281 13.9865 20.1287 13.947 20.1292C13.821 20.1308 13.695 20.1311 13.569 20.1313C13.4808 20.1318 13.3927 20.1324 13.3045 20.133C13.1201 20.1339 12.9357 20.1342 12.7513 20.1341C12.5156 20.1341 12.2799 20.1364 12.0443 20.1392C11.8623 20.141 11.6804 20.1414 11.4984 20.1413C11.4116 20.1415 11.3247 20.1422 11.2379 20.1435C10.4754 20.1536 10.4754 20.1536 10.2271 19.951C10.0628 19.7777 9.98194 19.6128 9.95508 19.3755C9.98144 19.1163 10.0433 19.0033 10.1944 18.7909C10.4165 18.6211 10.5884 18.6054 10.8645 18.603Z" fill="#101010"/>
<path d="M3.51999 19.01C3.57415 19.01 3.6283 19.01 3.68409 19.01C3.70478 19.0473 3.72546 19.0845 3.74677 19.1229C3.84069 19.2917 3.93504 19.4603 4.02939 19.6288C4.06193 19.6874 4.09448 19.7461 4.128 19.8065C4.15956 19.8627 4.19111 19.9189 4.22362 19.9769C4.25255 20.0287 4.28149 20.0806 4.3113 20.134C4.38691 20.2549 4.44696 20.3452 4.5593 20.4322C4.81641 20.4617 4.93945 20.4633 5.16785 20.3399C5.24986 20.274 5.33167 20.2076 5.41058 20.138C5.63631 19.9399 5.63631 19.9399 5.87212 19.9399C5.96409 20.1527 6.05495 20.3659 6.14562 20.5792C6.17171 20.6396 6.1978 20.6999 6.22468 20.762C6.24936 20.8204 6.27404 20.8787 6.29947 20.9388C6.32239 20.9924 6.3453 21.046 6.36891 21.1012C6.41963 21.2542 6.43358 21.3663 6.41913 21.5262C6.32129 21.6241 6.18932 21.5875 6.05908 21.5877C5.99339 21.5875 5.99339 21.5875 5.92638 21.5872C5.88049 21.5872 5.8346 21.5872 5.78732 21.5872C5.63489 21.5871 5.48246 21.5867 5.33003 21.5863C5.22464 21.5862 5.11924 21.5861 5.01385 21.586C4.73589 21.5858 4.45792 21.5853 4.17996 21.5847C3.89654 21.5841 3.61313 21.5839 3.32971 21.5836C2.7732 21.583 2.21668 21.5821 1.66017 21.5809C1.62514 21.4551 1.62514 21.4551 1.60547 21.3074C1.70028 21.1724 1.79116 21.061 1.9029 20.9416C1.96458 20.8729 2.02619 20.8041 2.08773 20.7352C2.11792 20.7019 2.14811 20.6685 2.17921 20.6342C2.28204 20.519 2.37851 20.3998 2.47384 20.2784C2.68135 20.0158 2.89354 19.7572 3.10632 19.4989C3.14068 19.4571 3.17505 19.4154 3.21046 19.3723C3.45827 19.0717 3.45827 19.0717 3.51999 19.01Z" fill="#FCFCFC"/>
<path d="M1.88129 0.0285645C2.00765 0.0285645 2.13401 0.0285645 2.2642 0.0285645C2.30185 0.118574 2.30185 0.118574 2.34027 0.210401C2.37415 0.289969 2.40805 0.369527 2.44198 0.449076C2.45841 0.488528 2.47483 0.527979 2.49176 0.568627C2.76081 1.19545 3.2509 1.48668 3.86804 1.73924C3.95992 1.77899 3.95992 1.77899 4.01462 1.83369C4.01685 1.94307 4.01695 2.05251 4.01462 2.16189C3.96988 2.18082 3.96988 2.18082 3.92424 2.20014C3.78935 2.25847 3.65572 2.31906 3.52231 2.38069C3.45949 2.40946 3.45949 2.40946 3.39539 2.43881C2.91031 2.6822 2.62651 3.01825 2.43856 3.52599C2.41902 3.58628 2.39949 3.64657 2.37937 3.70868C2.3189 3.85761 2.3189 3.85761 2.1548 3.96701C2.02146 3.97727 2.02146 3.97727 1.88129 3.91231C1.81596 3.7995 1.7701 3.68385 1.72189 3.56274C1.49246 3.01143 1.2081 2.64848 0.656619 2.41355C0.55507 2.37195 0.452701 2.33237 0.350316 2.29287C0.185573 2.21659 0.185573 2.21659 0.0761719 2.05249C0.0776676 1.91381 0.0776676 1.91381 0.130873 1.77899C0.264419 1.70399 0.264419 1.70399 0.435145 1.64565C1.01257 1.4262 1.40023 1.08602 1.66719 0.522794C1.7408 0.358903 1.81219 0.194414 1.88129 0.0285645Z" fill="#101110"/>
<path d="M7.83131 1.58787C7.90466 1.58786 7.97801 1.58778 8.05135 1.58763C8.20456 1.58755 8.35773 1.58823 8.51093 1.58949C8.70645 1.59104 8.90191 1.59089 9.09743 1.59019C9.24873 1.58981 9.40002 1.59024 9.55133 1.59092C9.65819 1.59128 9.76505 1.59105 9.87191 1.5908C10.5921 1.59843 10.5921 1.59843 10.8924 1.86308C11.0735 2.10728 11.1321 2.22219 11.1359 2.52434C11.1367 2.5888 11.1376 2.65327 11.1385 2.71969C11.141 3.01518 11.1432 3.31067 11.1445 3.60617C11.1452 3.76201 11.1467 3.91781 11.149 4.07364C11.1522 4.29819 11.1532 4.52269 11.154 4.74726C11.1552 4.81673 11.1564 4.8862 11.1577 4.95778C11.1568 5.3586 11.1377 5.59069 10.8518 5.88166C10.6383 6.03693 10.4884 6.0666 10.2261 6.06786C10.1209 6.0689 10.1209 6.0689 10.0136 6.06996C9.93755 6.06985 9.86146 6.06969 9.78537 6.06948C9.70683 6.06973 9.62829 6.07002 9.54975 6.07035C9.38537 6.07083 9.221 6.0707 9.05662 6.07016C8.8465 6.06953 8.63642 6.07064 8.42631 6.07223C8.26417 6.07324 8.10204 6.07322 7.9399 6.07291C7.86246 6.0729 7.78502 6.07323 7.70758 6.07391C7.59908 6.07473 7.49058 6.074 7.38208 6.0732C7.28966 6.07319 7.28966 6.07319 7.19538 6.07318C6.9221 6.02977 6.75266 5.88977 6.56807 5.69021C6.4231 5.47544 6.41393 5.29127 6.41051 5.03556C6.40963 4.97566 6.40875 4.91576 6.40785 4.85405C6.40541 4.58051 6.40317 4.30697 6.40191 4.03343C6.40101 3.88933 6.39951 3.74524 6.39742 3.60116C6.39442 3.39294 6.39323 3.18478 6.39243 2.97654C6.39119 2.91248 6.38995 2.84842 6.38867 2.78242C6.38966 2.39875 6.42411 2.11968 6.69457 1.83381C7.03589 1.54825 7.40175 1.58409 7.83131 1.58787ZM6.85867 2.27141C6.82539 2.41679 6.82539 2.41679 6.82949 2.57813C6.82862 2.63965 6.82775 2.70118 6.82686 2.76457C6.82713 2.83078 6.8274 2.89699 6.82768 2.96521C6.82735 3.03346 6.82701 3.10171 6.82666 3.17203C6.82627 3.31639 6.82634 3.46067 6.82714 3.60502C6.82808 3.7896 6.82679 3.97408 6.82487 4.15864C6.82337 4.33519 6.82392 4.51173 6.82427 4.68829C6.82318 4.78744 6.82318 4.78744 6.82207 4.8886C6.82495 5.14812 6.83073 5.33572 6.95163 5.56777C7.2462 5.72291 7.53947 5.70068 7.86721 5.69726C7.97493 5.69745 7.97493 5.69745 8.08482 5.69766C8.23657 5.69781 8.38828 5.69701 8.54002 5.69551C8.73409 5.69364 8.92807 5.69397 9.12214 5.695C9.30783 5.69571 9.49349 5.69471 9.67917 5.69384C9.74869 5.69411 9.81821 5.69438 9.88984 5.69466C9.98705 5.69336 9.98705 5.69336 10.0862 5.69204C10.1431 5.6917 10.2 5.69136 10.2586 5.69101C10.4536 5.65574 10.5459 5.57966 10.6877 5.44405C10.7571 5.30524 10.7509 5.20581 10.753 5.0504C10.7543 4.96138 10.7543 4.96138 10.7556 4.87057C10.7581 4.59906 10.7603 4.32756 10.7616 4.05604C10.7625 3.91273 10.764 3.76942 10.7661 3.62612C10.769 3.41977 10.7702 3.21347 10.771 3.00709C10.7729 2.91102 10.7729 2.91102 10.7748 2.81299C10.7741 2.55852 10.7686 2.37719 10.6514 2.14895C10.3495 1.98958 10.044 2.01483 9.70802 2.01821C9.63289 2.01816 9.55777 2.01803 9.48265 2.01781C9.32552 2.01765 9.16844 2.01845 9.01132 2.01996C8.81013 2.02183 8.60903 2.02149 8.40784 2.02047C8.25283 2.01989 8.09784 2.02038 7.94284 2.0212C7.83267 2.02162 7.72249 2.02122 7.61232 2.02081C7.51182 2.02211 7.51182 2.02211 7.40929 2.02343C7.32089 2.02394 7.32089 2.02394 7.23069 2.02446C7.03673 2.0601 6.97268 2.11171 6.85867 2.27141Z" fill="#161818"/>
<path d="M10.5801 21.4167C11.8437 21.4167 13.1072 21.4167 14.4091 21.4167C14.4091 21.9583 14.4091 22.4998 14.4091 23.0578C14.1745 23.0397 13.9398 23.0217 13.698 23.0031C13.5119 22.9984 13.327 22.9953 13.141 22.9958C13.0916 22.9958 13.0422 22.9957 12.9913 22.9956C12.888 22.9956 12.7848 22.9957 12.6815 22.9959C12.5259 22.9962 12.3702 22.9959 12.2146 22.9956C12.1131 22.9956 12.0117 22.9957 11.9102 22.9958C11.8649 22.9957 11.8197 22.9956 11.773 22.9955C11.3714 22.997 10.9839 23.0289 10.5801 23.0578C10.5801 22.5162 10.5801 21.9747 10.5801 21.4167Z" fill="#FCFCFC"/>
<path d="M15.1051 10.0874C15.1974 10.0874 15.2897 10.0877 15.382 10.0883C15.4547 10.0884 15.4547 10.0884 15.5289 10.0885C15.6845 10.0888 15.84 10.0895 15.9955 10.0902C16.1006 10.0905 16.2058 10.0907 16.311 10.0909C16.5693 10.0915 16.8277 10.0925 17.0861 10.0936C17.0869 10.1544 17.0877 10.2151 17.0885 10.2777C17.0916 10.5026 17.0959 10.7274 17.1004 10.9523C17.1022 11.0497 17.1038 11.1471 17.105 11.2446C17.1068 11.3844 17.1097 11.5243 17.1128 11.6641C17.1131 11.7078 17.1135 11.7515 17.1138 11.7966C17.1156 11.9323 17.1156 11.9323 17.1408 12.1175C17.2967 12.2453 17.2967 12.2453 17.4826 12.2167C17.6992 12.1698 17.8709 12.1019 18.0707 12.0081C18.0707 12.2248 18.0707 12.4414 18.0707 12.6645C16.9457 12.6873 15.8825 12.6141 15.016 11.8045C14.7228 11.489 14.591 11.14 14.6045 10.709C14.656 10.393 14.7707 10.0974 15.1051 10.0874Z" fill="#FE839F"/>
<path d="M3.79498 18.6271C4.1388 18.8481 4.28741 19.1634 4.4719 19.5194C4.50173 19.5755 4.53156 19.6317 4.56229 19.6896C4.63536 19.8274 4.70777 19.9655 4.77959 20.104C4.98394 20.0267 5.12137 19.9487 5.28216 19.7997C5.4565 19.6394 5.53994 19.5638 5.7813 19.5365C5.98301 19.557 5.98301 19.557 6.1266 19.6561C6.30724 19.8986 6.41511 20.1537 6.53001 20.4322C6.56001 20.501 6.59007 20.5697 6.62019 20.6384C6.65061 20.7098 6.68095 20.7812 6.71121 20.8527C6.7392 20.9184 6.7672 20.984 6.79604 21.0516C6.8685 21.286 6.87702 21.4466 6.85822 21.6903C6.75592 21.8233 6.67872 21.8895 6.53001 21.9638C6.37458 21.9698 6.22046 21.9724 6.06499 21.9726C5.9928 21.973 5.9928 21.973 5.91915 21.9735C5.75945 21.9743 5.59976 21.9746 5.44006 21.9749C5.32927 21.9752 5.21848 21.9756 5.10769 21.9759C4.87514 21.9764 4.6426 21.9768 4.41006 21.977C4.11207 21.9773 3.81409 21.9786 3.51611 21.9801C3.28715 21.9811 3.0582 21.9814 2.82925 21.9815C2.71939 21.9817 2.60954 21.9821 2.49969 21.9828C2.34595 21.9838 2.19225 21.9837 2.03851 21.9833C1.99312 21.9838 1.94773 21.9843 1.90096 21.9848C1.64877 21.983 1.48368 21.9634 1.27875 21.7997C1.17839 21.599 1.17534 21.4116 1.22405 21.198C1.36511 20.9768 1.54017 20.79 1.71636 20.5963C1.79672 20.4988 1.8765 20.4008 1.95567 20.3023C2.16401 20.0474 2.37621 19.7961 2.58972 19.5455C2.78502 19.3156 2.97294 19.0806 3.15738 18.8418C3.3522 18.6153 3.50676 18.5929 3.79498 18.6271ZM3.42703 19.0965C3.39277 19.1368 3.3585 19.177 3.32319 19.2185C3.26533 19.2861 3.26533 19.2861 3.20631 19.3551C2.99977 19.6034 2.79492 19.853 2.59157 20.104C2.50957 20.2043 2.42752 20.3046 2.34541 20.4048C2.3055 20.4541 2.26559 20.5033 2.22447 20.554C2.137 20.66 2.04766 20.7644 1.95695 20.8677C1.9114 20.9203 1.86585 20.9729 1.81892 21.0271C1.77704 21.0743 1.73515 21.1216 1.692 21.1702C1.59001 21.3016 1.59001 21.3016 1.62899 21.4527C1.63977 21.495 1.65055 21.5373 1.66166 21.5809C2.27407 21.5822 2.88648 21.5832 3.4989 21.5837C3.78324 21.584 4.06757 21.5844 4.35191 21.585C4.62607 21.5856 4.90023 21.586 5.17439 21.5861C5.27924 21.5862 5.38408 21.5864 5.48892 21.5867C5.63524 21.5871 5.78155 21.5871 5.92787 21.5871C5.99355 21.5874 5.99355 21.5874 6.06057 21.5877C6.25679 21.6058 6.25679 21.6058 6.42061 21.5262C6.4011 21.1615 6.2578 20.8506 6.11634 20.5177C6.09311 20.462 6.06987 20.4063 6.04594 20.349C5.98889 20.2124 5.93144 20.0761 5.87361 19.9399C5.64477 19.9789 5.52353 20.037 5.34369 20.186C5.10967 20.378 4.98688 20.4382 4.67938 20.4662C4.40243 20.3868 4.26224 20.0682 4.12895 19.8326C4.07538 19.7341 4.02218 19.6354 3.96934 19.5365C3.94188 19.4858 3.91441 19.4351 3.88611 19.3828C3.81894 19.2587 3.75211 19.1344 3.68558 19.01C3.52029 18.9915 3.52029 18.9915 3.42703 19.0965Z" fill="#131515"/>
<path d="M23.7125 1.33599C24.0655 1.53956 24.3644 1.81553 24.4734 2.21675C24.5919 2.93357 24.2621 3.44914 23.8717 4.02187C23.6913 3.9862 23.5566 3.91935 23.399 3.82551C23.3498 3.79638 23.3007 3.76725 23.25 3.73723C23.1979 3.70593 23.1458 3.67464 23.0922 3.64239C23.0389 3.61053 22.9855 3.57866 22.9306 3.54583C22.77 3.44959 22.6097 3.35286 22.4494 3.25606C22.4029 3.22819 22.3563 3.20031 22.3084 3.17158C22.1853 3.09773 22.0626 3.02321 21.94 2.94837C21.9035 2.92645 21.8669 2.90452 21.8292 2.88193C21.5806 2.72804 21.5806 2.72804 21.5195 2.54496C21.58 2.39191 21.6741 2.25622 21.7623 2.11761C21.7998 2.0582 21.7998 2.0582 21.8381 1.9976C22.2643 1.34584 22.9481 1.0001 23.7125 1.33599Z" fill="#FDD7AE"/>
<path d="M7.89864 2.05294C8.26077 2.04878 8.62289 2.0459 8.98504 2.04392C9.10824 2.0431 9.23145 2.04198 9.35464 2.04056C9.5317 2.03857 9.70874 2.03764 9.88581 2.03691C9.96847 2.03564 9.96847 2.03564 10.0528 2.03434C10.1043 2.03433 10.1557 2.03432 10.2087 2.03431C10.2539 2.03394 10.2991 2.03358 10.3457 2.0332C10.5025 2.05818 10.5764 2.10512 10.6884 2.21704C10.7147 2.31984 10.7147 2.31984 10.7132 2.43652C10.7132 2.48032 10.7132 2.52411 10.7132 2.56923C10.712 2.61624 10.7109 2.66326 10.7097 2.7117C10.7094 2.76003 10.7091 2.80836 10.7088 2.85816C10.7076 3.01257 10.7048 3.16692 10.702 3.32131C10.701 3.42597 10.7 3.53064 10.6991 3.6353C10.6966 3.89192 10.6929 4.14848 10.6884 4.40507C10.4536 4.46633 10.2362 4.47185 9.99436 4.47344C9.93159 4.47513 9.93159 4.47513 9.86754 4.47686C9.52262 4.47919 9.34396 4.41277 8.99265 4.29566C8.99265 3.88049 8.99265 3.46531 8.99265 3.03755C9.19122 3.03755 9.38978 3.03755 9.59436 3.03755C9.59436 2.92924 9.59436 2.82093 9.59436 2.70935C9.05282 2.70935 8.51129 2.70935 7.95334 2.70935C7.95334 2.8357 7.95334 2.96206 7.95334 3.09225C8.1519 3.09225 8.35047 3.09225 8.55505 3.09225C8.55505 3.39912 8.55505 3.70599 8.55505 4.02216C8.20331 3.84629 7.92788 3.55053 7.78924 3.17772C7.67532 2.7546 7.6979 2.4403 7.89864 2.05294Z" fill="#AAEAED"/>
<path d="M23.8915 22.3775C24.1743 22.543 24.4074 22.8068 24.5274 23.1126C24.5768 23.5298 24.5762 23.9132 24.3379 24.2702C24.0815 24.5769 23.8156 24.6892 23.4208 24.7448C23.0305 24.7674 22.7341 24.6616 22.4341 24.4113C22.1619 24.1373 22.1058 23.878 22.0898 23.4955C22.1022 23.0961 22.2 22.8726 22.4757 22.5918C22.8615 22.2451 23.4146 22.1634 23.8915 22.3775Z" fill="#111010"/>
<path d="M6.8039 7.61761C6.8611 7.61798 6.8611 7.61798 6.91945 7.61835C6.98012 7.61809 6.98012 7.61809 7.04202 7.61783C7.17825 7.61739 7.31447 7.61774 7.4507 7.61809C7.54809 7.61794 7.64547 7.61774 7.74285 7.6175C8.00787 7.617 8.27289 7.6172 8.53791 7.61755C8.81477 7.61782 9.09162 7.61757 9.36848 7.61739C9.83348 7.6172 10.2985 7.61746 10.7635 7.61798C11.3017 7.61857 11.8399 7.61838 12.3782 7.61778C12.8396 7.61728 13.301 7.61721 13.7625 7.6175C14.0384 7.61767 14.3143 7.61769 14.5902 7.61733C14.8495 7.61702 15.1088 7.61723 15.3681 7.61787C15.4635 7.61801 15.5589 7.61797 15.6543 7.61773C15.7841 7.61743 15.9139 7.6178 16.0437 7.61835C16.0818 7.61811 16.1199 7.61786 16.1592 7.61761C16.4195 7.61975 16.4195 7.61975 16.5414 7.74164C16.5516 7.88181 16.5516 7.88181 16.5414 8.01515C16.4502 8.1063 16.3396 8.07667 16.2179 8.07716C16.1791 8.07704 16.1404 8.07692 16.1004 8.07679C16.0391 8.07692 16.0391 8.07692 15.9765 8.07705C15.8385 8.07727 15.7005 8.0771 15.5624 8.07692C15.4639 8.077 15.3653 8.0771 15.2668 8.07722C14.9984 8.07747 14.73 8.07737 14.4616 8.07719C14.1813 8.07706 13.9011 8.07718 13.6209 8.07727C13.1501 8.07737 12.6794 8.07724 12.2087 8.07698C11.6637 8.07668 11.1187 8.07678 10.5736 8.07708C10.1066 8.07733 9.63951 8.07736 9.17246 8.07722C8.89311 8.07713 8.61377 8.07712 8.33442 8.0773C8.07186 8.07746 7.8093 8.07735 7.54674 8.07703C7.45009 8.07696 7.35344 8.07698 7.25678 8.0771C7.12542 8.07725 6.99406 8.07707 6.86269 8.07679C6.80456 8.07698 6.80456 8.07698 6.74526 8.07716C6.4827 8.07609 6.4827 8.07609 6.42175 8.01515C6.4115 7.88181 6.4115 7.88181 6.42175 7.74164C6.55429 7.60911 6.62307 7.6191 6.8039 7.61761Z" fill="#1D1D1D"/>
<path d="M6.79696 15.7204C6.8544 15.7206 6.8544 15.7206 6.91299 15.7208C6.97359 15.7207 6.97359 15.7207 7.03542 15.7205C7.17182 15.7203 7.30821 15.7205 7.44461 15.7207C7.54199 15.7206 7.63936 15.7205 7.73674 15.7204C8.00199 15.7201 8.26723 15.7202 8.53248 15.7204C8.80949 15.7205 9.08649 15.7204 9.36349 15.7203C9.82882 15.7202 10.2942 15.7204 10.7595 15.7206C11.2981 15.7209 11.8367 15.7208 12.3754 15.7205C12.837 15.7203 13.2987 15.7202 13.7604 15.7204C14.0365 15.7205 14.3125 15.7205 14.5886 15.7203C14.8482 15.7201 15.1077 15.7202 15.3673 15.7206C15.4627 15.7206 15.5582 15.7206 15.6537 15.7205C15.7836 15.7203 15.9135 15.7205 16.0434 15.7208C16.1007 15.7206 16.1007 15.7206 16.1591 15.7204C16.4196 15.7215 16.4196 15.7215 16.5415 15.7824C16.5438 15.8918 16.5437 16.0013 16.5415 16.1106C16.4507 16.2015 16.341 16.1723 16.2197 16.1729C16.1812 16.1728 16.1427 16.1727 16.103 16.1727C16.0624 16.1728 16.0218 16.1729 15.9799 16.173C15.8427 16.1734 15.7056 16.1733 15.5684 16.1733C15.4705 16.1735 15.3726 16.1736 15.2747 16.1738C15.008 16.1743 14.7413 16.1745 14.4745 16.1745C14.2523 16.1745 14.03 16.1747 13.8077 16.1749C13.2836 16.1754 12.7594 16.1755 12.2352 16.1755C11.6936 16.1755 11.152 16.176 10.6104 16.1769C10.1462 16.1776 9.68193 16.1779 9.21771 16.1779C8.9401 16.1779 8.6625 16.178 8.38489 16.1786C8.1239 16.1791 7.86292 16.1791 7.60193 16.1787C7.50592 16.1787 7.40991 16.1788 7.31389 16.1791C7.18326 16.1795 7.05265 16.1793 6.92201 16.1789C6.88363 16.1792 6.84525 16.1794 6.80571 16.1797C6.54376 16.1778 6.54376 16.1778 6.42188 16.0559C6.45893 15.7521 6.49527 15.7217 6.79696 15.7204Z" fill="#141414"/>
<path d="M10.9407 18.9886C10.9772 18.9883 11.0137 18.988 11.0513 18.9877C11.1719 18.987 11.2925 18.9875 11.4131 18.988C11.4969 18.9879 11.5808 18.9877 11.6647 18.9875C11.8405 18.9873 12.0162 18.9876 12.192 18.9884C12.4173 18.9893 12.6424 18.9888 12.8676 18.9878C13.0409 18.9872 13.2141 18.9874 13.3873 18.9878C13.4703 18.988 13.5533 18.9878 13.6363 18.9874C13.7525 18.987 13.8686 18.9877 13.9847 18.9886C14.0839 18.9888 14.0839 18.9888 14.185 18.989C14.3682 19.0116 14.4458 19.0408 14.5723 19.1739C14.5996 19.3654 14.5996 19.3654 14.5723 19.5568C14.4458 19.6899 14.3682 19.7191 14.185 19.7417C14.1189 19.7419 14.0528 19.742 13.9847 19.7421C13.9482 19.7424 13.9116 19.7427 13.8739 19.743C13.7533 19.7437 13.6328 19.7433 13.5122 19.7427C13.4283 19.7428 13.3444 19.743 13.2605 19.7432C13.0848 19.7434 12.9091 19.7431 12.7334 19.7423C12.5081 19.7414 12.2829 19.7419 12.0576 19.7429C11.8844 19.7435 11.7112 19.7433 11.538 19.7429C11.4549 19.7428 11.3718 19.7429 11.2888 19.7433C11.1727 19.7437 11.0568 19.7431 10.9407 19.7421C10.8747 19.742 10.8087 19.7419 10.7407 19.7417C10.5791 19.7209 10.5791 19.7209 10.4757 19.6495C10.3731 19.4929 10.3956 19.3547 10.415 19.1739C10.5497 18.9683 10.7093 18.989 10.9407 18.9886Z" fill="#D5D5D5"/>
<path d="M17.6904 8.94482C18.0925 9.17276 18.486 9.41255 18.8767 9.65935C18.9196 9.68638 18.9624 9.7134 19.0065 9.74124C19.3 9.92738 19.59 10.1184 19.8784 10.3123C19.6663 10.7711 19.0607 11.0335 18.6203 11.2423C18.5842 11.2423 18.5481 11.2423 18.5109 11.2423C18.2921 10.9462 18.2921 10.9462 18.2921 10.8046C18.1269 10.719 17.9592 10.6473 17.7861 10.579C17.713 10.55 17.713 10.55 17.6383 10.5205C17.6013 10.5059 17.5644 10.4914 17.5263 10.4764C17.5218 10.3134 17.5186 10.1506 17.5161 9.98756C17.5147 9.94211 17.5133 9.89666 17.5119 9.84984C17.508 9.51907 17.5671 9.25141 17.6904 8.94482Z" fill="#FAD5AC"/>
<path d="M5.87212 20.0491C6.01485 20.2632 6.10677 20.4897 6.20716 20.726C6.22754 20.7725 6.24792 20.8191 6.26891 20.867C6.28816 20.9123 6.30741 20.9576 6.32725 21.0042C6.34488 21.0453 6.36252 21.0863 6.38069 21.1286C6.42395 21.268 6.42979 21.3808 6.41913 21.526C6.32129 21.6238 6.18932 21.5872 6.05908 21.5875C5.99339 21.5872 5.99339 21.5872 5.92638 21.5869C5.88049 21.5869 5.8346 21.5869 5.78732 21.5869C5.63489 21.5869 5.48246 21.5865 5.33003 21.586C5.22464 21.5859 5.11924 21.5859 5.01385 21.5858C4.73589 21.5856 4.45792 21.5851 4.17996 21.5844C3.89654 21.5839 3.61313 21.5836 3.32971 21.5834C2.7732 21.5828 2.21668 21.5818 1.66017 21.5807C1.62449 21.4536 1.62449 21.4536 1.60547 21.3072C1.7388 21.1533 1.7388 21.1533 1.87897 21.0337C1.91134 21.0449 1.9437 21.0561 1.97705 21.0677C2.02027 21.0824 2.0635 21.0971 2.10803 21.1123C2.15055 21.1269 2.19307 21.1415 2.23688 21.1565C3.17608 21.4447 4.25229 21.2545 5.10631 20.8149C5.4363 20.6079 5.6645 20.3772 5.87212 20.0491Z" fill="#D2D2D2"/>
<path d="M17.1985 0.739746C17.2346 0.739746 17.2707 0.739746 17.3079 0.739746C17.388 0.820997 17.388 0.820997 17.4807 0.932814C17.6766 1.1631 17.884 1.3768 18.0991 1.5891C18.1362 1.62599 18.1733 1.66288 18.2115 1.70089C18.3284 1.81711 18.4455 1.93315 18.5626 2.04914C18.7182 2.20333 18.8737 2.3577 19.029 2.51218C19.0649 2.54761 19.1008 2.58305 19.1378 2.61956C19.2217 2.70304 19.3043 2.78791 19.3865 2.87307C19.3865 2.89112 19.3865 2.90917 19.3865 2.92777C19.0925 2.93182 18.7985 2.9348 18.5044 2.93679C18.4044 2.93761 18.3043 2.93873 18.2042 2.94015C18.0606 2.94214 17.9169 2.94307 17.7733 2.9438C17.7284 2.94465 17.6835 2.94549 17.6372 2.94637C17.5111 2.9464 17.5111 2.9464 17.3079 2.92777C17.168 2.7179 17.1846 2.54786 17.1878 2.30491C17.188 2.26022 17.1881 2.21553 17.1883 2.16948C17.1889 2.0268 17.1903 1.88413 17.1917 1.74145C17.1922 1.64469 17.1927 1.54793 17.1931 1.45118C17.1944 1.21402 17.1962 0.976889 17.1985 0.739746Z" fill="#D9BBBB"/>
<path d="M2.04325 0.794434C2.07935 0.794434 2.11545 0.794434 2.15265 0.794434C2.17972 0.857613 2.2068 0.920792 2.2347 0.985886C2.45478 1.42373 2.82501 1.7099 3.24666 1.94315C3.1395 2.02412 3.03211 2.10425 2.9223 2.18161C2.57178 2.43219 2.30536 2.71159 2.09795 3.09186C1.94916 2.94951 1.82886 2.80597 1.71162 2.63716C1.48973 2.34454 1.21125 2.17596 0.894531 1.99785C1.02465 1.89242 1.15463 1.78863 1.2909 1.69123C1.63199 1.44498 1.85529 1.17035 2.04325 0.794434Z" fill="#ABEDB2"/>
<path d="M23.5959 22.7296C23.8172 22.8402 23.9579 22.9585 24.0882 23.1672C24.1364 23.4544 24.1229 23.6996 23.9925 23.9604C23.7819 24.1944 23.6247 24.3029 23.3053 24.333C23.0088 24.3079 22.86 24.1771 22.6489 23.9775C22.5217 23.7654 22.4915 23.5774 22.5019 23.3313C22.5767 23.1027 22.6956 22.9286 22.8882 22.7798C23.114 22.6729 23.3543 22.6904 23.5959 22.7296Z" fill="#D6B8B8"/>
<path d="M8.23632 13.6957C8.29714 13.6957 8.29714 13.6957 8.3592 13.6957C8.42297 13.6955 8.42297 13.6955 8.48803 13.6952C8.62928 13.6946 8.77053 13.6945 8.91178 13.6945C9.00955 13.6943 9.10732 13.6941 9.20509 13.6939C9.41032 13.6936 9.61555 13.6935 9.82079 13.6935C10.0843 13.6935 10.3477 13.6928 10.6112 13.6919C10.8132 13.6912 11.0152 13.6911 11.2173 13.6912C11.3144 13.6911 11.4116 13.6909 11.5087 13.6904C11.6444 13.6899 11.7801 13.6901 11.9158 13.6904C11.9563 13.6901 11.9967 13.6898 12.0384 13.6895C12.3166 13.6912 12.3166 13.6912 12.4385 13.8131C12.4081 14.0623 12.4081 14.0623 12.3291 14.1413C12.1949 14.1471 12.0622 14.1493 11.9279 14.1492C11.8859 14.1494 11.8439 14.1496 11.8007 14.1498C11.6612 14.1503 11.5218 14.1504 11.3823 14.1505C11.2857 14.1506 11.1892 14.1508 11.0926 14.151C10.89 14.1513 10.6873 14.1514 10.4847 14.1514C10.2245 14.1514 9.96434 14.1522 9.70417 14.1531C9.50469 14.1537 9.30522 14.1538 9.10574 14.1538C9.00979 14.1539 8.91385 14.1541 8.81791 14.1545C8.68392 14.1551 8.54995 14.1549 8.41596 14.1546C8.37603 14.1549 8.3361 14.1552 8.29496 14.1555C8.02021 14.1538 8.02021 14.1538 7.89832 14.0319C7.88806 13.8917 7.88806 13.8917 7.89832 13.7584C7.99211 13.6646 8.11121 13.6964 8.23632 13.6957Z" fill="#131313"/>
<path d="M24.364 2.05273C24.546 2.32572 24.5181 2.60998 24.4734 2.92795C24.3401 3.32463 24.1058 3.67846 23.8717 4.02196C23.6913 3.98629 23.5566 3.91944 23.399 3.82559C23.3253 3.7819 23.3253 3.7819 23.25 3.73732C23.1979 3.70602 23.1458 3.67472 23.0922 3.64247C23.0389 3.61061 22.9855 3.57875 22.9306 3.54592C22.77 3.44968 22.6097 3.35294 22.4494 3.25615C22.4029 3.22827 22.3563 3.20039 22.3084 3.17167C22.1853 3.09781 22.0626 3.0233 21.94 2.94846C21.9035 2.92653 21.8669 2.90461 21.8292 2.88202C21.5806 2.72812 21.5806 2.72812 21.5195 2.54504C21.6255 2.39803 21.6255 2.39803 21.7383 2.27154C21.7383 2.30764 21.7383 2.34374 21.7383 2.38094C21.7748 2.39384 21.8112 2.40675 21.8488 2.42004C22.0553 2.50908 22.241 2.62243 22.4323 2.73991C22.8465 2.99217 23.1032 3.0999 23.5982 3.03735C23.9307 2.90462 24.1319 2.70319 24.2734 2.37709C24.3098 2.26994 24.3385 2.16297 24.364 2.05273Z" fill="#E9B27C"/>
<path d="M24.6096 14.8938C24.7463 14.9075 24.7463 14.9075 24.8557 15.0169C24.8696 15.1494 24.8696 15.1494 24.8699 15.3179C24.8702 15.3809 24.8706 15.4439 24.8709 15.5088C24.8707 15.5771 24.8705 15.6454 24.8702 15.7158C24.8703 15.7857 24.8705 15.8556 24.8706 15.9276C24.8706 16.0756 24.8705 16.2236 24.87 16.3716C24.8694 16.5613 24.8697 16.751 24.8704 16.9407C24.8709 17.1216 24.8705 17.3025 24.8702 17.4833C24.8705 17.5515 24.8707 17.6197 24.8709 17.69C24.8706 17.7532 24.8702 17.8163 24.8699 17.8814C24.8697 17.9649 24.8697 17.9649 24.8696 18.0501C24.8557 18.1895 24.8557 18.1895 24.7463 18.3536C24.5754 18.3639 24.5754 18.3639 24.4181 18.3536C24.3457 18.2089 24.3561 18.0994 24.3555 17.9373C24.3551 17.873 24.3548 17.8088 24.3544 17.7426C24.3543 17.6729 24.3543 17.6032 24.3542 17.5314C24.354 17.4602 24.3539 17.389 24.3537 17.3156C24.3533 17.1648 24.3532 17.0139 24.3533 16.8631C24.3533 16.6696 24.3525 16.4761 24.3516 16.2826C24.3508 16.0983 24.3509 15.914 24.3508 15.7297C24.3504 15.66 24.35 15.5903 24.3496 15.5185C24.3498 15.4543 24.3499 15.39 24.3501 15.3238C24.35 15.2671 24.35 15.2103 24.3499 15.1518C24.3689 14.9616 24.4197 14.9128 24.6096 14.8938Z" fill="#0E0E0E"/>
<path d="M0.24179 8.61682C0.378541 8.59973 0.378541 8.59973 0.515293 8.61682C0.660583 8.76211 0.638539 8.83032 0.63885 9.03317C0.639195 9.09742 0.63954 9.16167 0.639895 9.22787C0.639674 9.29756 0.639452 9.36725 0.639224 9.43904C0.639329 9.51026 0.639434 9.58148 0.639542 9.65486C0.639703 9.80569 0.639468 9.95651 0.638957 10.1073C0.638334 10.3009 0.638693 10.4944 0.639348 10.6879C0.639838 10.8722 0.639495 11.0565 0.639224 11.2407C0.639446 11.3104 0.639667 11.3801 0.639895 11.4519C0.639551 11.5162 0.639206 11.5804 0.63885 11.6466C0.63872 11.7318 0.63872 11.7318 0.638587 11.8186C0.624694 11.9536 0.624694 11.9536 0.515293 12.063C0.378541 12.0801 0.378541 12.0801 0.24179 12.063C0.118248 11.8777 0.118579 11.8138 0.118233 11.5966C0.117888 11.5347 0.117543 11.4729 0.117188 11.4091C0.117409 11.3423 0.11763 11.2754 0.117859 11.2066C0.117754 11.138 0.117649 11.0694 0.117541 10.9987C0.117467 10.8536 0.117614 10.7085 0.118126 10.5634C0.118749 10.3774 0.11839 10.1915 0.117735 10.0055C0.117244 9.82807 0.117588 9.65065 0.117859 9.47323C0.117637 9.40639 0.117416 9.33955 0.117188 9.27069C0.117532 9.20881 0.117877 9.14693 0.118233 9.08317C0.11832 9.02864 0.118407 8.97411 0.118496 8.91793C0.132388 8.78093 0.132388 8.78093 0.24179 8.61682Z" fill="#0E0E0E"/>
<path d="M21.2442 2.98267C21.7393 3.26321 22.2317 3.54785 22.7192 3.84157C22.7877 3.88276 22.8564 3.92375 22.9252 3.96454C23.0265 4.02461 23.1274 4.08529 23.2282 4.14612C23.2872 4.18144 23.3462 4.21675 23.407 4.25313C23.5416 4.35018 23.5416 4.35018 23.5963 4.51428C23.5377 4.65197 23.457 4.76963 23.3775 4.89719C23.1453 4.86546 22.989 4.78498 22.7912 4.66108C22.7311 4.62374 22.6711 4.58641 22.6092 4.54794C22.5462 4.50824 22.4832 4.46854 22.4203 4.42882C22.3596 4.39099 22.299 4.35316 22.2365 4.31418C22.1141 4.23779 21.9917 4.16125 21.8694 4.08456C21.571 3.89766 21.2708 3.71377 20.9707 3.52967C21.0437 3.33308 21.1326 3.16017 21.2442 2.98267Z" fill="#F9819C"/>
<path d="M10.5801 21.4167C11.8437 21.4167 13.1072 21.4167 14.4091 21.4167C14.4091 21.9583 14.4091 22.4998 14.4091 23.0578C14.3189 23.0578 14.2286 23.0578 14.1356 23.0578C14.2078 23.0397 14.28 23.0217 14.3544 23.0031C14.3544 22.6059 14.3544 22.2088 14.3544 21.7997C13.1269 21.7997 11.8995 21.7997 10.6348 21.7997C10.6348 22.2148 10.6348 22.63 10.6348 23.0578C10.6167 23.0578 10.5987 23.0578 10.5801 23.0578C10.5801 22.5162 10.5801 21.9747 10.5801 21.4167Z" fill="#D6D6D6"/>
<path d="M6.86214 11.6721C6.96838 11.6716 6.96838 11.6716 7.07677 11.6711C7.15469 11.671 7.23262 11.6709 7.31055 11.6709C7.38992 11.6707 7.4693 11.6705 7.54867 11.6703C7.71528 11.67 7.88188 11.6699 8.04849 11.6699C8.2623 11.6699 8.4761 11.6692 8.68991 11.6682C8.85392 11.6676 9.01792 11.6675 9.18193 11.6676C9.26077 11.6675 9.33961 11.6673 9.41845 11.6668C9.52859 11.6663 9.63874 11.6665 9.74888 11.6668C9.84301 11.6667 9.84301 11.6667 9.93905 11.6665C10.0868 11.6801 10.0868 11.6801 10.1962 11.7895C10.1658 12.0387 10.1658 12.0387 10.0868 12.1177C9.97665 12.1234 9.86628 12.1253 9.75596 12.1256C9.68513 12.126 9.6143 12.1263 9.54133 12.1267C9.4634 12.1268 9.38548 12.1268 9.30755 12.1269C9.22817 12.127 9.1488 12.1272 9.06942 12.1274C8.90282 12.1277 8.73621 12.1278 8.56961 12.1278C8.3558 12.1278 8.14199 12.1286 7.92818 12.1295C7.76418 12.1301 7.60018 12.1302 7.43617 12.1302C7.35733 12.1302 7.27848 12.1305 7.19964 12.1309C7.0895 12.1314 6.97936 12.1312 6.86922 12.131C6.77508 12.1311 6.77508 12.1311 6.67905 12.1312C6.53128 12.1177 6.53128 12.1177 6.42188 12.0083C6.46361 11.6661 6.5314 11.6732 6.86214 11.6721Z" fill="#151515"/>
<path d="M5.32746 17.9159C5.52252 18.0363 5.625 18.1428 5.71036 18.3536C5.72913 18.6225 5.69253 18.8016 5.51891 19.01C5.47378 19.0461 5.42866 19.0822 5.38216 19.1194C5.36411 19.1374 5.34606 19.1555 5.32746 19.1741C5.03393 19.2085 4.8017 19.2299 4.55823 19.051C4.3857 18.8061 4.30591 18.6613 4.34285 18.3536C4.57784 17.9097 4.85112 17.788 5.32746 17.9159Z" fill="#181B1B"/>
<path d="M10.9891 19.0462C11.042 19.0461 11.042 19.0461 11.0959 19.0461C11.212 19.0462 11.3279 19.0475 11.444 19.0488C11.5246 19.0491 11.6052 19.0493 11.6859 19.0495C11.8977 19.0501 12.1096 19.0517 12.3215 19.0535C12.5378 19.0552 12.7541 19.0559 12.9705 19.0568C13.3947 19.0585 13.8189 19.0613 14.2431 19.0648C14.1668 19.2492 14.0902 19.3495 13.9149 19.4477C13.7557 19.4674 13.7557 19.4674 13.5687 19.4663C13.4986 19.4663 13.4286 19.4663 13.3564 19.4663C13.2801 19.4654 13.2039 19.4646 13.1277 19.4637C13.0496 19.4634 12.9714 19.4632 12.8932 19.463C12.6878 19.4624 12.4824 19.4608 12.277 19.459C12.0673 19.4573 11.8576 19.4565 11.6478 19.4557C11.2366 19.4539 10.8253 19.4511 10.4141 19.4477C10.4141 19.2289 10.4141 19.2289 10.5012 19.1343C10.6728 19.0437 10.7952 19.045 10.9891 19.0462Z" fill="#FEFEFE"/>
<path d="M7.95117 2.70923C8.49271 2.70923 9.03425 2.70923 9.59219 2.70923C9.59219 2.81754 9.59219 2.92584 9.59219 3.03743C9.39363 3.03743 9.19507 3.03743 8.99048 3.03743C8.99048 3.66923 8.99048 4.30102 8.99048 4.95196C8.86413 4.95196 8.73777 4.95196 8.60758 4.95196C8.60758 4.32016 8.60758 3.68837 8.60758 3.03743C8.39097 3.03743 8.17435 3.03743 7.95117 3.03743C7.95117 2.92913 7.95117 2.82082 7.95117 2.70923Z" fill="#070B0B"/>
<path d="M9.55842 9.70377C9.62066 9.7036 9.6829 9.70342 9.74703 9.70325C9.81478 9.70336 9.88253 9.70347 9.95233 9.70358C10.0213 9.70353 10.0903 9.70348 10.1614 9.70342C10.3076 9.70339 10.4539 9.70346 10.6001 9.70372C10.7879 9.70403 10.9757 9.70385 11.1636 9.70352C11.3421 9.70328 11.5207 9.70345 11.6993 9.70358C11.7671 9.70347 11.8348 9.70336 11.9046 9.70325C11.9669 9.70342 12.0291 9.70359 12.0932 9.70377C12.1483 9.70381 12.2034 9.70386 12.2602 9.7039C12.3848 9.71085 12.3848 9.71085 12.4395 9.76555C12.4463 9.9023 12.4463 9.9023 12.4395 10.0391C12.3455 10.133 12.2215 10.1007 12.0932 10.1008C12.031 10.101 11.9688 10.1012 11.9046 10.1014C11.8369 10.1012 11.7691 10.1011 11.6993 10.101C11.6303 10.1011 11.5613 10.1011 11.4902 10.1012C11.344 10.1012 11.1978 10.1011 11.0515 10.1009C10.8637 10.1006 10.6759 10.1008 10.4881 10.1011C10.3095 10.1013 10.1309 10.1012 9.95233 10.101C9.88458 10.1011 9.81683 10.1012 9.74703 10.1014C9.68479 10.1012 9.62255 10.101 9.55842 10.1008C9.50332 10.1008 9.44821 10.1007 9.39144 10.1007C9.26686 10.0938 9.26686 10.0938 9.21216 10.0391C9.20532 9.9023 9.20532 9.9023 9.21216 9.76555C9.30615 9.67156 9.4302 9.70387 9.55842 9.70377Z" fill="#0F0F0F"/>
<path d="M17.1985 0.739746C17.3079 0.739746 17.3079 0.739746 17.422 0.835259C17.5805 1.1048 17.5594 1.36575 17.5609 1.67308C17.5623 1.7911 17.5641 1.90912 17.5664 2.02713C17.5669 2.1053 17.5669 2.1053 17.5674 2.18505C17.582 2.33226 17.6111 2.42104 17.6908 2.54487C17.8341 2.61651 17.942 2.6065 18.1023 2.60726C18.1929 2.60885 18.1929 2.60885 18.2852 2.61047C18.4127 2.61231 18.5402 2.61331 18.6677 2.61346C18.7282 2.6148 18.7887 2.61614 18.851 2.61752C18.9065 2.61803 18.9619 2.61854 19.0191 2.61907C19.218 2.66617 19.2757 2.76154 19.3865 2.92777C19.0925 2.93182 18.7985 2.9348 18.5044 2.93679C18.4044 2.93761 18.3043 2.93873 18.2042 2.94015C18.0606 2.94214 17.9169 2.94307 17.7733 2.9438C17.7284 2.94465 17.6835 2.94549 17.6372 2.94637C17.5111 2.9464 17.5111 2.9464 17.3079 2.92777C17.168 2.7179 17.1846 2.54786 17.1878 2.30491C17.188 2.26022 17.1881 2.21553 17.1883 2.16948C17.1889 2.0268 17.1903 1.88413 17.1917 1.74145C17.1922 1.64469 17.1927 1.54793 17.1931 1.45118C17.1944 1.21402 17.1962 0.976889 17.1985 0.739746Z" fill="#B69191"/>
<path d="M12.6183 5.60033C12.6683 5.59999 12.7183 5.59964 12.7699 5.59928C12.8243 5.59922 12.8787 5.59915 12.9348 5.59909C12.9903 5.59891 13.0458 5.59873 13.103 5.59854C13.2207 5.59826 13.3383 5.59814 13.456 5.59814C13.6366 5.59802 13.8171 5.59703 13.9977 5.59599C14.1118 5.59583 14.2258 5.59572 14.3399 5.59567C14.3942 5.59528 14.4485 5.59489 14.5044 5.59448C14.5546 5.59465 14.6048 5.59482 14.6565 5.59499C14.7008 5.59491 14.7451 5.59484 14.7908 5.59476C14.8991 5.60828 14.8991 5.60828 15.0085 5.71768C15.0187 5.85785 15.0187 5.85785 15.0085 5.99118C14.9218 6.07781 14.8334 6.05328 14.7133 6.05383C14.6366 6.05436 14.6366 6.05436 14.5584 6.05489C14.5028 6.05495 14.4472 6.05501 14.3899 6.05507C14.3332 6.05526 14.2764 6.05544 14.218 6.05563C14.0977 6.0559 13.9775 6.05603 13.8572 6.05602C13.6727 6.05614 13.4882 6.05713 13.3037 6.05817C13.1871 6.05833 13.0706 6.05844 12.954 6.05849C12.8985 6.05889 12.843 6.05928 12.7858 6.05968C12.7345 6.05952 12.6832 6.05935 12.6304 6.05917C12.5851 6.05925 12.5399 6.05933 12.4932 6.05941C12.3828 6.04589 12.3828 6.04589 12.2734 5.93648C12.3083 5.6507 12.3361 5.60166 12.6183 5.60033Z" fill="#1C1C1C"/>
<path d="M14.6369 3.57528C14.6876 3.5751 14.7382 3.57492 14.7904 3.57473C14.8978 3.57445 15.0051 3.57432 15.1125 3.57433C15.2772 3.57421 15.4419 3.57322 15.6067 3.57218C15.7108 3.57202 15.8148 3.57191 15.9189 3.57186C15.9932 3.57127 15.9932 3.57127 16.069 3.57067C16.1148 3.57084 16.1606 3.57101 16.2078 3.57118C16.2482 3.5711 16.2886 3.57102 16.3303 3.57094C16.4303 3.58447 16.4303 3.58447 16.5397 3.69387C16.5499 3.83404 16.5499 3.83404 16.5397 3.96737C16.4561 4.05092 16.381 4.02943 16.2646 4.03002C16.2178 4.03037 16.1711 4.03072 16.123 4.03108C16.0721 4.03114 16.0213 4.0312 15.9689 4.03126C15.9171 4.03144 15.8652 4.03162 15.8118 4.03181C15.7018 4.03209 15.5919 4.03222 15.4819 4.03221C15.3132 4.03233 15.1446 4.03332 14.9759 4.03436C14.8693 4.03452 14.7627 4.03463 14.6561 4.03468C14.5801 4.03527 14.5801 4.03527 14.5024 4.03587C14.4555 4.0357 14.4086 4.03553 14.3603 4.03536C14.3189 4.03544 14.2776 4.03552 14.2349 4.0356C14.1328 4.02207 14.1328 4.02207 14.0234 3.91267C14.0738 3.49984 14.2714 3.57573 14.6369 3.57528Z" fill="#1A1A1A"/>
<path d="M12.6712 1.60742C12.7114 1.60753 12.7516 1.60764 12.7931 1.60776C12.8342 1.60771 12.8752 1.60765 12.9176 1.6076C13.0046 1.60756 13.0916 1.60766 13.1786 1.60789C13.3122 1.60818 13.4458 1.60789 13.5794 1.60754C13.6637 1.60758 13.7481 1.60765 13.8324 1.60776C13.8726 1.60765 13.9129 1.60754 13.9543 1.60742C14.2364 1.60873 14.2364 1.60873 14.2974 1.66972C14.2996 1.7791 14.2997 1.88855 14.2974 1.99793C14.0517 2.12077 13.7143 2.06279 13.4409 2.06276C13.3168 2.06288 13.1929 2.06388 13.0688 2.06491C12.9901 2.06507 12.9114 2.06518 12.8326 2.06523C12.7608 2.06546 12.6891 2.06568 12.6151 2.06592C12.4375 2.05263 12.4375 2.05263 12.2734 1.94323C12.33 1.62834 12.3459 1.60894 12.6712 1.60742Z" fill="#1B1B1B"/>
<path d="M6.78283 9.70307C6.82545 9.70318 6.86807 9.70329 6.91198 9.7034C6.95549 9.70335 6.99899 9.7033 7.04381 9.70324C7.13596 9.70321 7.22811 9.70331 7.32026 9.70354C7.46181 9.70383 7.60334 9.70354 7.74489 9.70319C7.8342 9.70322 7.92352 9.70329 8.01284 9.7034C8.05546 9.70329 8.09808 9.70318 8.14199 9.70307C8.44073 9.70438 8.44073 9.70438 8.50172 9.76537C8.50856 9.90212 8.50856 9.90212 8.50172 10.0389C8.4039 10.1367 8.27221 10.1006 8.14199 10.1012C8.09937 10.1011 8.05675 10.101 8.01284 10.1008C7.94758 10.1009 7.94758 10.1009 7.88101 10.101C7.78886 10.101 7.69671 10.1009 7.60456 10.1007C7.46301 10.1004 7.32148 10.1007 7.17993 10.101C7.09062 10.101 7.0013 10.1009 6.91198 10.1008C6.86936 10.1009 6.82674 10.1011 6.78283 10.1012C6.48409 10.0999 6.48409 10.0999 6.4231 10.0389C6.41626 9.90212 6.41626 9.90212 6.4231 9.76537C6.52092 9.66755 6.65261 9.70364 6.78283 9.70307Z" fill="#111111"/>
<path d="M11.1762 11.6728C11.2421 11.6728 11.3081 11.6727 11.3761 11.6726C11.4455 11.6728 11.515 11.673 11.5866 11.6732C11.6559 11.673 11.7252 11.6728 11.7966 11.6726C11.8626 11.6727 11.9286 11.6727 11.9967 11.6728C12.0576 11.6729 12.1186 11.6729 12.1814 11.673C12.3285 11.6801 12.3285 11.6801 12.4379 11.7348C12.4379 11.8431 12.4379 11.9514 12.4379 12.063C12.1938 12.185 11.8581 12.1278 11.59 12.1279C11.521 12.1286 11.452 12.1293 11.3809 12.13C11.3151 12.1301 11.2493 12.1302 11.1815 12.1303C11.0906 12.1306 11.0906 12.1306 10.9978 12.131C10.8516 12.1177 10.8516 12.1177 10.7422 12.0083C10.7835 11.6694 10.8484 11.6732 11.1762 11.6728Z" fill="#161616"/>
<path d="M2.64477 1.5603C2.94261 1.74984 2.94261 1.74984 3.24648 1.94321C3.02767 2.10731 3.02767 2.10731 2.92212 2.18167C2.57159 2.43225 2.30518 2.71165 2.09776 3.09192C1.9197 2.92658 1.79044 2.74965 1.66016 2.54491C1.70754 2.53138 1.75493 2.51784 1.80375 2.50389C2.22957 2.34618 2.40494 2.1249 2.59007 1.7244C2.60812 1.67025 2.62617 1.6161 2.64477 1.5603Z" fill="#7DD182"/>
<path d="M23.8714 22.9482C23.9808 23.02 23.9808 23.02 24.0902 23.167C24.1374 23.4583 24.1269 23.6953 23.9944 23.9602C23.7838 24.1943 23.6266 24.3027 23.3073 24.3329C23.0697 24.3127 22.9608 24.2455 22.7774 24.097C22.7593 24.0609 22.7413 24.0248 22.7227 23.9876C22.7821 23.9795 22.7821 23.9795 22.8427 23.9713C23.159 23.9224 23.4075 23.88 23.6526 23.6594C23.8013 23.4286 23.8442 23.2196 23.8714 22.9482Z" fill="#B79191"/>
<path d="M17.7648 15.7175C17.8232 15.7169 17.8816 15.7162 17.9417 15.7155C17.9977 15.7154 18.0537 15.7153 18.1114 15.7152C18.1887 15.7148 18.1887 15.7148 18.2675 15.7145C18.4007 15.7278 18.4007 15.7278 18.5648 15.8372C18.517 16.1038 18.517 16.1038 18.4554 16.1654C18.2381 16.1792 18.0201 16.1755 17.8024 16.1756C17.741 16.1763 17.6795 16.177 17.6162 16.1777C17.5576 16.1778 17.499 16.1779 17.4385 16.178C17.3574 16.1783 17.3574 16.1783 17.2747 16.1787C17.1426 16.1654 17.1426 16.1654 17.0332 16.056C17.0884 15.6035 17.3742 15.7178 17.7648 15.7175Z" fill="#171717"/>
<path d="M12.8991 3.57393C12.9475 3.57326 12.9959 3.57259 13.0458 3.5719C13.0921 3.57179 13.1383 3.57168 13.186 3.57158C13.2287 3.57135 13.2713 3.57113 13.3152 3.57089C13.4222 3.58418 13.4222 3.58418 13.5316 3.69358C13.5418 3.83375 13.5418 3.83375 13.5316 3.96709C13.4057 4.0929 13.1023 4.03193 12.9333 4.03204C12.8822 4.03271 12.8312 4.03338 12.7787 4.03407C12.7299 4.03418 12.6812 4.03429 12.6309 4.03439C12.586 4.03462 12.5411 4.03484 12.4948 4.03508C12.3828 4.02179 12.3828 4.02179 12.2734 3.91239C12.3247 3.49217 12.5308 3.57419 12.8991 3.57393Z" fill="#1B1B1B"/>
<path d="M15.8367 5.59314C15.8796 5.59356 15.9226 5.59398 15.9668 5.59442C16.0312 5.59378 16.0312 5.59378 16.0969 5.59314C16.4179 5.59424 16.4179 5.59424 16.5412 5.7175C16.5514 5.85767 16.5514 5.85767 16.5412 5.991C16.4561 6.07612 16.3738 6.05279 16.2557 6.05296C16.186 6.05307 16.186 6.05307 16.1149 6.05318C16.0416 6.05286 16.0416 6.05286 15.9668 6.05254C15.9179 6.05275 15.8691 6.05296 15.8187 6.05318C15.7723 6.05311 15.7258 6.05304 15.6779 6.05296C15.635 6.0529 15.5921 6.05284 15.5479 6.05278C15.4472 6.0457 15.4472 6.0457 15.3925 5.991C15.3822 5.85767 15.3822 5.85767 15.3925 5.7175C15.5362 5.57378 15.6409 5.59381 15.8367 5.59314Z" fill="#1B1B1B"/>
<path d="M6.93811 13.6937C6.97608 13.693 7.01405 13.6924 7.05318 13.6917C7.1528 13.6914 7.25239 13.6973 7.35179 13.7039C7.38789 13.74 7.42399 13.7762 7.46119 13.8133C7.4308 14.0625 7.4308 14.0625 7.35179 14.1416C7.21545 14.1485 7.08131 14.1517 6.94495 14.1518C6.88799 14.1528 6.88799 14.1528 6.82989 14.1538C6.73027 14.1541 6.63067 14.1482 6.53128 14.1416C6.49517 14.1054 6.45907 14.0693 6.42188 14.0322C6.46747 13.6583 6.59829 13.694 6.93811 13.6937Z" fill="#1D1D1D"/>
<path d="M15.03 1.60773C15.0685 1.60795 15.1069 1.60816 15.1465 1.60838C15.1849 1.60816 15.2233 1.60795 15.2629 1.60773C15.5498 1.60829 15.5498 1.60829 15.6114 1.66991C15.6217 1.80325 15.6217 1.80325 15.6114 1.94342C15.502 2.05282 15.502 2.05282 15.3396 2.06735C15.2759 2.06707 15.2122 2.06678 15.1465 2.06649C15.0827 2.06678 15.019 2.06706 14.9533 2.06735C14.7909 2.05282 14.7909 2.05282 14.6815 1.94342C14.6713 1.80325 14.6713 1.80325 14.6815 1.66991C14.7776 1.57388 14.9023 1.60798 15.03 1.60773Z" fill="#1E1E1E"/>
<path d="M0.241119 7.63221C0.37787 7.61511 0.37787 7.61511 0.514622 7.63221C0.624023 7.74161 0.624023 7.74161 0.638553 7.8681C0.638271 7.91661 0.637989 7.96513 0.637699 8.01511C0.637981 8.06362 0.638263 8.11214 0.638553 8.16212C0.624023 8.28861 0.624023 8.28861 0.514622 8.39801C0.37787 8.41169 0.37787 8.41169 0.241119 8.39801C0.131717 8.28861 0.131717 8.28861 0.117188 8.17601C0.11747 8.13306 0.117752 8.09012 0.118042 8.04588C0.11776 8.00308 0.117478 7.96028 0.117188 7.91618C0.131717 7.79631 0.131717 7.79631 0.241119 7.63221Z" fill="#0E0E0E"/>
<path d="M24.4155 13.9775C24.5418 13.9775 24.6682 13.9775 24.7984 13.9775C24.8853 14.1513 24.8755 14.3353 24.8531 14.5245C24.771 14.6613 24.771 14.6613 24.689 14.7433C24.4223 14.6955 24.4223 14.6955 24.3608 14.6339C24.3554 14.5441 24.3537 14.4539 24.3539 14.3639C24.3538 14.3149 24.3537 14.2659 24.3535 14.2154C24.3608 14.0869 24.3608 14.0869 24.4155 13.9775Z" fill="#0E0E0E"/>
<path d="M5.02594 18.2849C5.16269 18.2986 5.16269 18.2986 5.27209 18.408C5.28577 18.5447 5.28577 18.5447 5.27209 18.6815C5.16269 18.7909 5.16269 18.7909 5.02594 18.8046C4.88919 18.7909 4.88919 18.7909 4.77979 18.6815C4.76611 18.5447 4.76611 18.5447 4.77979 18.408C4.88919 18.2986 4.88919 18.2986 5.02594 18.2849Z" fill="#FCFCFC"/>
</svg>
