<svg width="21" height="26" viewBox="0 0 21 26" fill="none" xmlns="http://www.w3.org/2000/svg">
<path d="M2.49183 0.0178961C2.59845 0.0174251 2.59845 0.0174251 2.70723 0.0169445C2.94547 0.016067 3.1837 0.0161806 3.42194 0.0162951C3.59273 0.0158804 3.76353 0.0154087 3.93432 0.0148844C4.35014 0.0137342 4.76595 0.0133521 5.18177 0.0132748C5.51986 0.0132089 5.85794 0.0129238 6.19603 0.0124846C7.15509 0.0112643 8.11414 0.0106245 9.07319 0.0107285C9.12487 0.010734 9.17655 0.0107396 9.22979 0.0107453C9.3074 0.0107538 9.3074 0.0107538 9.38658 0.0107625C10.225 0.0108188 11.0634 0.00949249 11.9018 0.00753809C12.7632 0.00554602 13.6246 0.0045899 14.486 0.00470959C14.9694 0.00475557 15.4528 0.00437648 15.9362 0.00288299C16.3908 0.00148724 16.8455 0.00152995 17.3001 0.00253877C17.4669 0.00268376 17.6337 0.00235603 17.8005 0.00151854C18.0283 0.000448458 18.2562 0.00109223 18.484 0.00216045C18.5828 0.00109102 18.5828 0.00109102 18.6835 0C19.3249 0.00663379 19.8626 0.259552 20.3276 0.729478C20.9622 1.54089 20.9928 2.32707 20.9915 3.34235C20.9917 3.42951 20.9918 3.51667 20.992 3.60647C20.9924 3.84697 20.9924 4.08746 20.9923 4.32796C20.9923 4.58789 20.9927 4.84783 20.993 5.10776C20.9935 5.61645 20.9937 6.12513 20.9937 6.63382C20.9938 7.04742 20.9939 7.46103 20.9941 7.87464C20.9947 9.04832 20.995 10.222 20.9949 11.3957C20.9949 11.4905 20.9949 11.4905 20.9949 11.5872C20.9949 11.6505 20.9949 11.7138 20.9949 11.779C20.9949 12.8047 20.9955 13.8305 20.9964 14.8562C20.9974 15.9104 20.9978 16.9646 20.9978 18.0189C20.9978 18.6103 20.9979 19.2018 20.9986 19.7933C20.9992 20.2968 20.9994 20.8003 20.9989 21.3038C20.9987 21.5605 20.9987 21.8172 20.9993 22.0738C20.9999 22.3526 20.9995 22.6314 20.999 22.9101C20.9993 22.9905 20.9997 23.0709 21 23.1538C20.9968 23.9591 20.9332 24.7074 20.4093 25.3308C19.8806 25.8629 19.3469 25.9857 18.6309 26C17.9005 25.9252 17.1688 25.4043 16.5214 25.0592C16.3619 24.9742 16.2022 24.8897 16.0424 24.8052C15.5182 24.5273 14.9968 24.2446 14.4786 23.9542C13.833 23.5924 13.1807 23.2452 12.5269 22.9002C12.3313 22.7968 12.1357 22.6932 11.9402 22.5896C11.8151 22.5235 11.6901 22.4574 11.565 22.3913C11.5069 22.3605 11.4488 22.3296 11.3889 22.2979C11.3352 22.2696 11.2815 22.2413 11.2262 22.2122C11.1557 22.1749 11.1557 22.1749 11.0837 22.1369C10.7553 21.9748 10.4345 21.936 10.0905 22.0588C9.92113 22.1383 9.75639 22.2244 9.59139 22.3136C9.49603 22.3635 9.49603 22.3635 9.39874 22.4144C9.21684 22.5099 9.03546 22.6064 8.85418 22.7032C8.63037 22.8222 8.40576 22.9394 8.18128 23.057C7.36524 23.4851 6.55074 23.9155 5.74701 24.3691C5.25015 24.6478 4.74786 24.9152 4.24524 25.1821C4.1441 25.2358 4.043 25.2896 3.94195 25.3436C3.7993 25.4196 3.65648 25.4953 3.51361 25.5709C3.4495 25.6052 3.4495 25.6052 3.38409 25.6402C2.75939 25.969 2.15864 26.0703 1.46703 25.9136C0.904962 25.703 0.474354 25.3113 0.214575 24.7436C0.00745409 24.2384 0.00772269 23.7012 0.00702609 23.1596C0.00680803 23.0997 0.00658997 23.0397 0.0063653 22.978C0.00603572 22.8523 0.00587987 22.7265 0.00589046 22.6008C0.00574637 22.4087 0.00455194 22.2167 0.00331529 22.0246C0.00312319 21.9019 0.00299308 21.7792 0.00293141 21.6565C0.00246066 21.5994 0.0019899 21.5423 0.00150487 21.4835C0.00289752 21.1126 0.0202466 20.8255 0.28009 20.5506C0.36657 20.5506 0.453049 20.5506 0.542149 20.5506C0.542149 19.8188 0.542149 19.0869 0.542149 18.3329C0.41243 18.2871 0.28271 18.2414 0.14906 18.1943C0.0645433 18.0155 0.0701737 17.8784 0.0671667 17.6788C0.0646331 17.5782 0.0646331 17.5782 0.0620483 17.4755C0.0835454 17.2933 0.0835454 17.2933 0.166463 17.1653C0.28009 17.0854 0.28009 17.0854 0.542149 17.0854C0.542149 16.3993 0.542149 15.7132 0.542149 15.0063C0.41243 14.9605 0.28271 14.9148 0.14906 14.8677C-0.008134 14.601 0.00156587 14.3355 0.00139191 14.0272C0.00118751 13.9783 0.00098321 13.9293 0.000772611 13.8789C0.000251009 13.7153 0.000663524 13.5516 0.00107601 13.388C0.000898412 13.2705 0.000665084 13.153 0.000380238 13.0355C-0.000217253 12.7164 1.47227e-05 12.3974 0.000429971 12.0783C0.000761988 11.7439 0.000453877 11.4094 0.00024828 11.075C9.81925e-06 10.5128 0.0003241 9.95066 0.000948054 9.3885C0.00165947 8.74008 0.00143129 8.09167 0.000708631 7.44325C0.000112239 6.88567 3.12563e-05 6.3281 0.00037324 5.77053C0.000576754 5.43793 0.00060678 5.10532 0.000171805 4.77272C-0.000209234 4.45945 6.04764e-05 4.14619 0.000813098 3.83292C0.000985077 3.7185 0.000938805 3.60407 0.000647651 3.48964C-0.00183645 2.41336 0.0273865 1.47372 0.743556 0.64799C1.26093 0.129553 1.79929 0.0156527 2.49183 0.0178961Z" fill="#FEB22C"/>
<path d="M2.49183 0.0178961C2.59845 0.0174251 2.59845 0.0174251 2.70723 0.0169445C2.94547 0.016067 3.1837 0.0161806 3.42194 0.0162951C3.59273 0.0158804 3.76353 0.0154087 3.93432 0.0148844C4.35014 0.0137342 4.76595 0.0133521 5.18177 0.0132748C5.51986 0.0132089 5.85794 0.0129238 6.19603 0.0124846C7.15509 0.0112643 8.11414 0.0106245 9.07319 0.0107285C9.12487 0.010734 9.17655 0.0107396 9.22979 0.0107453C9.3074 0.0107538 9.3074 0.0107538 9.38658 0.0107625C10.225 0.0108188 11.0634 0.00949249 11.9018 0.00753809C12.7632 0.00554602 13.6246 0.0045899 14.486 0.00470959C14.9694 0.00475557 15.4528 0.00437648 15.9362 0.00288299C16.3908 0.00148724 16.8455 0.00152995 17.3001 0.00253877C17.4669 0.00268376 17.6337 0.00235603 17.8005 0.00151854C18.0283 0.000448458 18.2562 0.00109223 18.484 0.00216045C18.5828 0.00109102 18.5828 0.00109102 18.6835 0C19.3249 0.00663379 19.8626 0.259552 20.3276 0.729478C20.9622 1.54089 20.9928 2.32707 20.9915 3.34235C20.9917 3.42951 20.9918 3.51667 20.992 3.60647C20.9924 3.84697 20.9924 4.08746 20.9923 4.32796C20.9923 4.58789 20.9927 4.84783 20.993 5.10776C20.9935 5.61645 20.9937 6.12513 20.9937 6.63382C20.9938 7.04742 20.9939 7.46103 20.9941 7.87464C20.9947 9.04832 20.995 10.222 20.9949 11.3957C20.9949 11.4905 20.9949 11.4905 20.9949 11.5872C20.9949 11.6505 20.9949 11.7138 20.9949 11.779C20.9949 12.8047 20.9955 13.8305 20.9964 14.8562C20.9974 15.9104 20.9978 16.9646 20.9978 18.0189C20.9978 18.6103 20.9979 19.2018 20.9986 19.7933C20.9992 20.2968 20.9994 20.8003 20.9989 21.3038C20.9987 21.5605 20.9987 21.8172 20.9993 22.0738C20.9999 22.3526 20.9995 22.6314 20.999 22.9101C20.9993 22.9905 20.9997 23.0709 21 23.1538C20.9968 23.9591 20.9332 24.7074 20.4093 25.3308C19.8806 25.8629 19.3469 25.9857 18.6309 26C17.9005 25.9252 17.1688 25.4043 16.5214 25.0592C16.3619 24.9742 16.2022 24.8897 16.0424 24.8052C15.5182 24.5273 14.9968 24.2446 14.4786 23.9542C13.833 23.5924 13.1807 23.2452 12.5269 22.9002C12.3313 22.7968 12.1357 22.6932 11.9402 22.5896C11.8151 22.5235 11.6901 22.4574 11.565 22.3913C11.5069 22.3605 11.4488 22.3296 11.3889 22.2979C11.3352 22.2696 11.2815 22.2413 11.2262 22.2122C11.1557 22.1749 11.1557 22.1749 11.0837 22.1369C10.7553 21.9748 10.4345 21.936 10.0905 22.0588C9.92113 22.1383 9.75639 22.2244 9.59139 22.3136C9.49603 22.3635 9.49603 22.3635 9.39874 22.4144C9.21684 22.5099 9.03546 22.6064 8.85418 22.7032C8.63037 22.8222 8.40576 22.9394 8.18128 23.057C7.36524 23.4851 6.55074 23.9155 5.74701 24.3691C5.25015 24.6478 4.74786 24.9152 4.24524 25.1821C4.1441 25.2358 4.043 25.2896 3.94195 25.3436C3.7993 25.4196 3.65648 25.4953 3.51361 25.5709C3.4495 25.6052 3.4495 25.6052 3.38409 25.6402C2.75939 25.969 2.15864 26.0703 1.46703 25.9136C0.904962 25.703 0.474354 25.3113 0.214575 24.7436C0.00745409 24.2384 0.00772269 23.7012 0.00702609 23.1596C0.00680803 23.0997 0.00658997 23.0397 0.0063653 22.978C0.00603572 22.8523 0.00587987 22.7265 0.00589046 22.6008C0.00574637 22.4087 0.00455194 22.2167 0.00331529 22.0246C0.00312319 21.9019 0.00299308 21.7792 0.00293141 21.6565C0.00246066 21.5994 0.0019899 21.5423 0.00150487 21.4835C0.00289752 21.1126 0.0202466 20.8255 0.28009 20.5506C0.510772 20.5181 0.639758 20.5324 0.847555 20.6456C1.08251 20.9251 1.04478 21.1907 1.04016 21.5529C1.04069 21.6238 1.04121 21.6947 1.04175 21.7678C1.04327 21.9945 1.04264 22.2211 1.0417 22.4479C1.04145 22.6741 1.04168 22.9003 1.04305 23.1265C1.04384 23.2672 1.04367 23.4079 1.04241 23.5486C1.04399 23.9704 1.07862 24.2923 1.36339 24.615C1.67021 24.8632 1.84583 24.9596 2.23063 24.954C2.71471 24.8689 3.14816 24.5855 3.58014 24.35C3.69074 24.2909 3.80139 24.232 3.9121 24.1731C4.20313 24.0181 4.49333 23.8614 4.78338 23.7043C5.07452 23.547 5.36647 23.3914 5.65832 23.2357C6.56331 22.7518 7.46681 22.2655 8.362 21.7616C8.70917 21.5669 9.06041 21.383 9.41531 21.2047C9.48412 21.1701 9.48412 21.1701 9.55431 21.1348C10.1971 20.8177 10.674 20.8456 11.3392 21.0886C11.6687 21.2235 11.9757 21.3945 12.2857 21.5729C12.4074 21.6419 12.5293 21.7109 12.6511 21.7797C12.7117 21.8139 12.7723 21.8482 12.8347 21.8834C13.0678 22.0129 13.3029 22.1379 13.5387 22.2618C13.9451 22.4761 14.3503 22.6925 14.7548 22.9106C15.1379 23.1171 15.5215 23.3226 15.9052 23.5277C16.1616 23.6647 16.4177 23.8022 16.6734 23.9406C16.9239 24.0761 17.1749 24.2105 17.4263 24.3442C17.5212 24.3949 17.6158 24.4459 17.7103 24.4974C17.842 24.5691 17.9744 24.6394 18.1069 24.7093C18.2191 24.7696 18.2191 24.7696 18.3336 24.8311C18.6829 24.9641 18.9658 24.9546 19.3244 24.8389C19.6319 24.6548 19.8203 24.4478 19.9345 24.0852C19.9408 23.9629 19.9431 23.8405 19.9433 23.718C19.9438 23.6031 19.9438 23.6031 19.9442 23.4859C19.9442 23.4014 19.9442 23.3169 19.9442 23.2299C19.9445 23.0956 19.9445 23.0956 19.9449 22.9586C19.9456 22.7097 19.9458 22.4608 19.946 22.2118C19.9462 21.9435 19.9469 21.6752 19.9474 21.4069C19.9487 20.7587 19.9494 20.1105 19.95 19.4623C19.9503 19.1571 19.9506 18.8519 19.951 18.5467C19.9521 17.5323 19.953 16.5178 19.9535 15.5034C19.9536 15.2401 19.9538 14.9768 19.9539 14.7135C19.9539 14.6481 19.9539 14.5826 19.954 14.5152C19.9545 13.455 19.9562 12.3949 19.9583 11.3347C19.9605 10.2464 19.9617 9.15811 19.9619 8.06983C19.962 7.45873 19.9626 6.84763 19.9643 6.23652C19.9657 5.7161 19.9662 5.19568 19.9656 4.67525C19.9653 4.40975 19.9654 4.14427 19.9667 3.87877C19.968 3.5908 19.9674 3.30287 19.9665 3.0149C19.9672 2.93117 19.9679 2.84745 19.9687 2.76118C19.965 2.24899 19.9214 1.85094 19.5823 1.45612C19.1688 1.05919 18.7305 1.0557 18.2034 1.05747C18.1346 1.05715 18.0659 1.05684 17.9951 1.05652C17.7649 1.05564 17.5346 1.05575 17.3044 1.05587C17.1393 1.05545 16.9742 1.05498 16.8091 1.05446C16.4072 1.05336 16.0054 1.05292 15.6035 1.05285C15.2768 1.05278 14.9501 1.0525 14.6234 1.05206C13.6966 1.05084 12.7698 1.0502 11.8431 1.0503C11.7682 1.05031 11.7682 1.05031 11.6918 1.05032C11.6418 1.05032 11.5918 1.05033 11.5403 1.05033C10.73 1.05039 9.9197 1.04906 9.10942 1.04711C8.27698 1.04512 7.44455 1.04416 6.61211 1.04428C6.14493 1.04433 5.67777 1.04395 5.21059 1.04245C4.77125 1.04106 4.33194 1.0411 3.8926 1.04211C3.73139 1.04226 3.57018 1.04193 3.40897 1.04109C3.18882 1.04002 2.96873 1.04066 2.74858 1.04173C2.68486 1.04102 2.62115 1.04031 2.5555 1.03957C2.11681 1.04428 1.75791 1.1306 1.42501 1.44862C1.10186 1.82785 1.04991 2.21139 1.04979 2.70661C1.04959 2.75771 1.0494 2.80881 1.0492 2.86146C1.0487 3.03193 1.04912 3.20238 1.04954 3.37284C1.04936 3.49535 1.04912 3.61787 1.04882 3.74038C1.04829 4.00381 1.04814 4.26723 1.04829 4.53066C1.04848 4.94708 1.04754 5.36349 1.04639 5.77991C1.04331 6.96388 1.04174 8.14785 1.04132 9.33183C1.04107 9.98603 1.03989 10.6402 1.03771 11.2944C1.03638 11.7085 1.03623 12.1226 1.03694 12.5367C1.03711 12.794 1.03619 13.0513 1.03497 13.3086C1.03462 13.4281 1.03472 13.5476 1.0353 13.667C1.03602 13.8299 1.03515 13.9927 1.03387 14.1556C1.0338 14.2468 1.03373 14.338 1.03366 14.432C0.995348 14.6972 0.938631 14.7777 0.738694 14.937C0.555006 15.005 0.454938 15.0195 0.267806 14.9629C0.106152 14.8332 0.0790766 14.7257 0.0180305 14.5211C0.00154161 14.2925 0.00154161 14.2925 0.00139191 14.0272C0.00118751 13.9783 0.00098321 13.9293 0.000772611 13.8789C0.000251009 13.7153 0.000663524 13.5516 0.00107601 13.388C0.000898412 13.2705 0.000665084 13.153 0.000380238 13.0355C-0.000217253 12.7164 1.47227e-05 12.3974 0.000429971 12.0783C0.000761988 11.7439 0.000453877 11.4094 0.00024828 11.075C9.81925e-06 10.5128 0.0003241 9.95066 0.000948054 9.3885C0.00165947 8.74008 0.00143129 8.09167 0.000708631 7.44325C0.000112239 6.88567 3.12563e-05 6.3281 0.00037324 5.77053C0.000576754 5.43793 0.00060678 5.10532 0.000171805 4.77272C-0.000209234 4.45945 6.04764e-05 4.14619 0.000813098 3.83292C0.000985077 3.7185 0.000938805 3.60407 0.000647651 3.48964C-0.00183645 2.41336 0.0273865 1.47372 0.743556 0.64799C1.26093 0.129553 1.79929 0.0156527 2.49183 0.0178961Z" fill="#01014C"/>
<path d="M10.4353 6.41235C10.4785 6.41235 10.5218 6.41235 10.5663 6.41235C10.6168 6.523 10.6168 6.523 10.6684 6.63589C10.7941 6.91085 10.9212 7.18515 11.0486 7.45929C11.1034 7.57776 11.1579 7.6964 11.2121 7.81522C11.2903 7.98652 11.3696 8.15715 11.4493 8.32771C11.473 8.3805 11.4968 8.43328 11.5213 8.48767C11.6791 8.82191 11.8321 9.05017 12.1387 9.25385C12.3499 9.32112 12.5604 9.35118 12.779 9.37865C12.8395 9.38739 12.9 9.39613 12.9624 9.40513C13.1545 9.43256 13.3467 9.45802 13.5391 9.48342C13.6699 9.50175 13.8006 9.5202 13.9314 9.53878C14.2509 9.58391 14.5705 9.62726 14.8903 9.66968C14.774 9.93629 14.6334 10.0813 14.4235 10.2761C14.0729 10.6071 13.7364 10.9512 13.4039 11.3027C13.3576 11.3514 13.3113 11.4001 13.2635 11.4503C13.2204 11.496 13.1773 11.5417 13.1329 11.5888C13.0751 11.6501 13.0751 11.6501 13.0161 11.7127C12.8118 11.9489 12.8442 12.1841 12.8468 12.4899C12.87 12.9143 12.9487 13.3285 13.0231 13.7457C13.0542 13.9222 13.0849 14.0988 13.1153 14.2755C13.129 14.3526 13.1427 14.4298 13.1569 14.5093C13.1863 14.7246 13.1923 14.9276 13.1869 15.1448C12.9123 15.0547 12.6652 14.9445 12.411 14.8028C12.3401 14.7636 12.2693 14.7243 12.1963 14.6839C12.1232 14.643 12.0502 14.6021 11.9749 14.56C11.8296 14.4792 11.6842 14.3984 11.5388 14.3177C11.4748 14.2819 11.4107 14.2462 11.3447 14.2093C11.2824 14.1749 11.2201 14.1406 11.156 14.1052C11.0954 14.0665 11.0348 14.0278 10.9724 13.9879C10.6569 13.8514 10.3626 13.8291 10.0365 13.9465C9.89786 14.0148 9.76587 14.0901 9.63301 14.1702C9.58471 14.1978 9.53641 14.2255 9.48665 14.2541C9.33405 14.3418 9.18244 14.4313 9.03083 14.521C8.87742 14.6103 8.72383 14.6993 8.5701 14.788C8.47487 14.8431 8.37985 14.8986 8.28508 14.9546C7.96003 15.1448 7.96003 15.1448 7.81471 15.1448C7.85617 14.4914 7.94555 13.8551 8.05233 13.2106C8.08572 13.0009 8.1154 12.7912 8.14229 12.5805C8.15022 12.5235 8.15814 12.4665 8.16631 12.4079C8.18489 12.1745 8.17983 12.021 8.06185 11.819C7.94273 11.6707 7.8163 11.5371 7.68368 11.4023C7.5818 11.2915 7.47994 11.1807 7.37812 11.0699C7.26995 10.9552 7.16161 10.8408 7.0531 10.7266C6.99855 10.6686 6.94399 10.6106 6.88778 10.5509C6.80823 10.4669 6.80823 10.4669 6.72707 10.3811C6.67955 10.3309 6.63203 10.2808 6.58308 10.2291C6.43716 10.0791 6.43716 10.0791 6.25711 9.93708C6.209 9.89458 6.16089 9.85208 6.11133 9.80829C6.11133 9.76255 6.11133 9.7168 6.11133 9.66968C6.19262 9.6589 6.27392 9.64811 6.35768 9.63701C6.66043 9.59647 6.96291 9.55404 7.26536 9.51105C7.39607 9.49274 7.52684 9.47493 7.65768 9.45765C7.84619 9.43266 8.0344 9.40584 8.22265 9.37865C8.28081 9.37134 8.33897 9.36404 8.39889 9.35651C8.77281 9.30015 8.99186 9.21171 9.25604 8.90733C9.37057 8.72134 9.46224 8.52793 9.55239 8.32771C9.57801 8.27282 9.60363 8.21793 9.63003 8.16138C9.71098 7.98742 9.79062 7.81283 9.87024 7.63818C9.92518 7.51952 9.9802 7.40089 10.0353 7.28232C10.1696 6.99282 10.3028 6.70276 10.4353 6.41235Z" fill="#FCF9EC"/>
<path d="M10.696 5.23411C11.1227 5.4308 11.272 5.6602 11.4698 6.09609C11.4972 6.15304 11.5246 6.20998 11.5529 6.26866C11.704 6.58628 11.8441 6.9079 11.9789 7.23366C12.0068 7.29973 12.0347 7.3658 12.0635 7.43388C12.1172 7.56195 12.1691 7.69084 12.2191 7.82057C12.2436 7.87909 12.2681 7.93761 12.2934 7.99791C12.3139 8.04978 12.3345 8.10164 12.3556 8.15508C12.6164 8.46166 13.1694 8.45482 13.5423 8.50172C13.6463 8.51575 13.7502 8.52983 13.8542 8.54395C14.0158 8.56556 14.1773 8.58684 14.339 8.6073C14.4967 8.62743 14.6541 8.64894 14.8116 8.67065C14.8595 8.67637 14.9075 8.68208 14.9568 8.68797C15.3447 8.74312 15.6158 8.8831 15.8634 9.20614C15.9601 9.45054 15.9677 9.61444 15.9371 9.87753C15.7496 10.2295 15.5124 10.4616 15.227 10.72C14.2134 11.5695 14.2134 11.5695 13.6869 12.7355C13.7127 13.061 13.7997 13.3579 13.9125 13.6609C14.0024 13.9144 14.0409 14.1724 14.0823 14.4387C14.0982 14.5261 14.1142 14.6136 14.1306 14.7037C14.2065 15.1736 14.2324 15.5626 13.9717 15.9763C13.7436 16.195 13.51 16.2875 13.1991 16.282C12.8603 16.2154 12.5593 16.0065 12.2601 15.8334C12.1872 15.7924 12.1142 15.7515 12.0391 15.7093C11.7346 15.5377 11.4318 15.3638 11.1338 15.1799C11.0609 15.1354 10.9881 15.0909 10.913 15.0451C10.8533 15.0066 10.7936 14.9681 10.732 14.9284C10.4478 14.8248 10.2193 14.9822 9.958 15.1139C9.88255 15.1555 9.80709 15.197 9.72935 15.2397C9.68852 15.2621 9.64768 15.2845 9.6056 15.3075C9.51981 15.3546 9.43409 15.4019 9.34844 15.4493C9.21807 15.5214 9.08749 15.593 8.95687 15.6646C8.51812 15.9034 8.51812 15.9034 8.0902 16.1628C7.85062 16.3119 7.62383 16.3082 7.3547 16.2536C7.12235 16.1177 6.97748 15.9322 6.83058 15.6991C6.73905 15.0381 6.91665 14.3414 7.03122 13.6936C7.06029 13.5286 7.08916 13.3636 7.11736 13.1985C7.13477 13.0965 7.15268 12.9946 7.17116 12.8928C7.21269 12.6498 7.23677 12.4674 7.15815 12.2339C7.0774 12.1196 7.0774 12.1196 6.97237 12.016C6.93345 11.9753 6.89453 11.9345 6.85443 11.8926C6.81219 11.8494 6.76994 11.8062 6.72642 11.7618C6.6832 11.7167 6.63998 11.6716 6.59545 11.6251C6.45726 11.481 6.31845 11.3376 6.17952 11.1943C6.04089 11.051 5.9024 10.9075 5.76431 10.7636C5.67838 10.674 5.59213 10.5848 5.50554 10.496C5.46641 10.4553 5.42728 10.4146 5.38696 10.3727C5.35254 10.3372 5.31811 10.3017 5.28264 10.2652C5.11918 10.0645 5.0648 9.90724 5.03711 9.64363C5.06658 9.34225 5.14043 9.20716 5.32374 8.97657C5.58433 8.77482 5.83604 8.71866 6.14984 8.67498C6.19742 8.66775 6.245 8.66052 6.29402 8.65307C6.44549 8.63023 6.59707 8.60847 6.74868 8.58673C6.84953 8.57164 6.95036 8.55648 7.05118 8.54125C7.14928 8.52662 7.24738 8.51201 7.34548 8.49739C7.41668 8.48656 7.41668 8.48656 7.48932 8.47552C7.73587 8.43901 7.97751 8.41747 8.2261 8.40859C8.4847 8.37706 8.4847 8.37706 8.63198 8.1395C8.67666 8.04428 8.71892 7.94777 8.75917 7.85037C8.78276 7.79884 8.80634 7.74731 8.83064 7.69423C8.90881 7.5221 8.98355 7.34857 9.05808 7.17464C9.14373 6.97894 9.22987 6.78351 9.31658 6.58833C9.37247 6.46186 9.42748 6.33494 9.48148 6.20756C9.73531 5.62367 10.0343 5.16412 10.696 5.23411ZM10.4339 6.41229C10.4002 6.48606 10.3666 6.55982 10.3319 6.63582C10.2061 6.91078 10.0791 7.18509 9.95165 7.45922C9.8968 7.57769 9.84229 7.69634 9.78812 7.81515C9.70995 7.98646 9.63059 8.15709 9.55098 8.32765C9.52721 8.38043 9.50345 8.43322 9.47896 8.48761C9.3211 8.82185 9.16816 9.05011 8.86154 9.25379C8.65038 9.32105 8.43986 9.35112 8.22123 9.37859C8.13045 9.3917 8.13045 9.3917 8.03784 9.40507C7.84576 9.4325 7.65349 9.45796 7.46116 9.48336C7.33037 9.50168 7.19959 9.52014 7.06884 9.53872C6.74937 9.58385 6.42972 9.6272 6.10992 9.66962C6.21387 9.90323 6.31548 10.0307 6.503 10.1981C6.85669 10.5259 7.18999 10.873 7.52258 11.2246C7.57566 11.2805 7.62874 11.3363 7.68342 11.3939C7.73312 11.4466 7.78282 11.4993 7.83403 11.5536C7.87892 11.6011 7.92381 11.6487 7.97007 11.6977C8.15892 11.9136 8.15648 12.0892 8.15342 12.3784C8.1265 12.812 8.04735 13.2399 7.97709 13.6676C7.9535 13.8124 7.93005 13.9571 7.90699 14.102C7.88614 14.2328 7.86477 14.3636 7.84337 14.4943C7.81512 14.7147 7.8077 14.9227 7.8133 15.1447C8.08835 15.0544 8.33653 14.944 8.59155 14.8028C8.6627 14.7635 8.73385 14.7242 8.80716 14.6838C8.8805 14.6429 8.95385 14.602 9.02942 14.5599C9.10302 14.5193 9.17662 14.4787 9.25245 14.4369C9.63992 14.2245 9.63992 14.2245 10.016 13.9909C10.2707 13.8378 10.4827 13.8346 10.7615 13.8972C11.124 14.0564 11.4651 14.2535 11.8097 14.4516C11.9799 14.5477 12.1504 14.6432 12.3209 14.7385C12.432 14.8007 12.5429 14.8633 12.6536 14.9263C12.7039 14.9548 12.7543 14.9833 12.8062 15.0126C12.851 15.0381 12.8958 15.0636 12.942 15.0899C13.0537 15.1544 13.0537 15.1544 13.1855 15.1447C13.1602 14.5225 13.0604 13.9211 12.9478 13.3108C12.7453 12.1614 12.7453 12.1614 12.9397 11.8081C13.0579 11.6621 13.1833 11.5329 13.3165 11.4022C13.4131 11.2975 13.5094 11.1925 13.6055 11.0874C13.7069 10.9799 13.8085 10.8726 13.9103 10.7655C13.9866 10.6844 13.9866 10.6844 14.0645 10.6016C14.2792 10.3748 14.492 10.1528 14.729 9.95198C14.8081 9.88082 14.8081 9.88082 14.8889 9.80822C14.8889 9.76248 14.8889 9.71674 14.8889 9.66962C14.8076 9.65883 14.7263 9.64805 14.6426 9.63694C14.3398 9.5964 14.0373 9.55398 13.7349 9.51099C13.6042 9.49268 13.4734 9.47487 13.3426 9.45759C13.154 9.4326 12.9658 9.40577 12.7776 9.37859C12.6903 9.36763 12.6903 9.36763 12.6013 9.35645C12.2274 9.30009 12.0084 9.21165 11.7442 8.90726C11.6297 8.72128 11.538 8.52787 11.4478 8.32765C11.4222 8.27276 11.3966 8.21787 11.3702 8.16132C11.2893 7.98736 11.2096 7.81277 11.13 7.63812C11.0751 7.51945 11.02 7.40083 10.9649 7.28226C10.8306 6.99276 10.6975 6.7027 10.5649 6.41229C10.5217 6.41229 10.4784 6.41229 10.4339 6.41229Z" fill="#05054C"/>
<path d="M0.673631 17.0853C0.861986 17.1849 0.861986 17.1849 1.0012 17.3625C1.04435 17.5788 1.04185 17.7697 1.0012 17.9863C0.873651 18.1862 0.788711 18.2451 0.575358 18.3241C0.388423 18.334 0.303283 18.3046 0.149512 18.1942C0.0649949 18.0154 0.0706253 17.8783 0.0676183 17.6787C0.0659293 17.6116 0.0642402 17.5445 0.0625 17.4754C0.0839971 17.2932 0.0839971 17.2932 0.171521 17.1671C0.344594 17.0373 0.467267 17.0547 0.673631 17.0853Z" fill="#04034B"/>
</svg>
