<svg width="81" height="80" viewBox="0 0 81 80" fill="none" xmlns="http://www.w3.org/2000/svg">
<path d="M38.2705 0.01689C38.4075 0.0157573 38.5445 0.0146247 38.6856 0.0134577C44.4187 -0.0231831 44.4187 -0.0231831 47.175 0.530804C47.4194 0.578618 47.4194 0.578618 47.6688 0.627398C55.2991 2.15814 62.2105 5.70687 67.818 11.1199C67.9097 11.2083 68.0013 11.2967 68.0958 11.3878C69.3158 12.5713 70.4671 13.7754 71.4986 15.131C71.5989 15.2613 71.5989 15.2613 71.7013 15.3944C72.9305 16.9977 74.0097 18.6756 75.0191 20.4255C75.083 20.5359 75.147 20.6463 75.2129 20.76C77.5425 24.8309 78.945 29.4402 79.6598 34.0631C79.6785 34.1782 79.6973 34.2933 79.7166 34.4118C80.3499 38.4536 80.1925 42.8804 79.4997 46.8984C79.474 47.0492 79.4482 47.2 79.4217 47.3553C77.7549 56.7028 72.4897 65.648 64.9376 71.4459C64.8507 71.5133 64.7637 71.5806 64.6742 71.6499C63.0749 72.8823 61.3992 73.9587 59.6568 74.9756C59.5588 75.0337 59.4608 75.0918 59.3598 75.1516C55.9087 77.179 51.9991 78.4322 48.1051 79.2674C47.9571 79.2994 47.8091 79.3313 47.6566 79.3642C45.1715 79.8701 42.7233 80.0099 40.1939 79.9995C40.0464 79.9992 39.8988 79.9989 39.7467 79.9986C37.4992 79.9911 35.3031 79.9109 33.0929 79.468C32.9456 79.4388 32.7982 79.4095 32.6464 79.3794C31.6145 79.169 30.5926 78.9269 29.5724 78.6658C29.455 78.6365 29.3376 78.6072 29.2167 78.577C24.9562 77.4962 20.8127 75.4564 17.2506 72.8899C17.0853 72.7714 16.9201 72.6529 16.7499 72.5308C15.1143 71.3271 13.5303 70.0327 12.1298 68.558C12.0044 68.4322 11.879 68.3065 11.7497 68.1769C11.6111 68.038 11.4725 67.899 11.3297 67.7558C11.2282 67.6596 11.1267 67.5634 11.0221 67.4643C9.93837 66.4182 9.031 65.2681 8.12921 64.0656C8.06132 63.9761 7.99342 63.8865 7.92347 63.7943C1.72415 55.5749 -0.85537 44.8754 0.479681 34.7039C1.65514 26.4506 5.1233 19.3215 10.5296 13.0452C10.6453 12.9092 10.761 12.7731 10.8802 12.6329C11.4624 11.959 12.0634 11.3511 12.743 10.7765C13.1368 10.4378 13.5118 10.0821 13.8901 9.7261C15.842 7.94938 18.0049 6.49149 20.291 5.18361C20.419 5.11019 20.547 5.03676 20.6789 4.96112C25.9616 1.9711 32.1687 0.0507952 38.2705 0.01689Z" fill="#FEDA48"/>
<path d="M26.692 31.496C27.9435 32.2519 28.9594 33.2912 29.4599 34.6841C29.8374 36.3684 29.7954 38.0818 28.9048 39.5901C27.9623 40.9087 26.7284 41.9472 25.0918 42.2456C23.0678 42.3912 21.5665 42.1231 19.9773 40.7972C18.7565 39.6131 18.2134 38.1387 18.1508 36.4496C18.1737 35.6526 18.3936 34.9579 18.6908 34.2235C18.5786 34.1902 18.4664 34.1569 18.3508 34.1226C17.2328 33.7586 16.4727 33.2996 15.6504 32.4586C16.1683 32.2856 16.2726 32.3162 16.7706 32.4586C18.2355 32.6013 19.4463 32.0632 20.7909 31.5397C22.84 30.7489 24.6742 30.475 26.692 31.496Z" fill="#353534"/>
<path d="M60.3318 32.0888C61.4543 32.616 62.618 32.5514 63.818 32.2981C63.2546 33.0292 62.7841 33.5668 61.8977 33.9025C61.7393 33.9025 61.5809 33.9025 61.4176 33.9025C61.4968 34.0614 61.576 34.2202 61.6577 34.3838C62.1932 35.8302 62.0881 37.7067 61.4908 39.1119C60.6934 40.5008 59.5305 41.5907 58.0115 42.1013C56.4477 42.4805 54.8223 42.4223 53.4164 41.6037C51.976 40.6958 51.0395 39.5109 50.6117 37.849C50.3107 36.1905 50.6544 34.8405 51.4662 33.3811C52.2651 32.374 53.0221 31.6684 54.2166 31.175C54.3618 31.1088 54.507 31.0427 54.6566 30.9745C56.7564 30.4886 58.4629 31.191 60.3318 32.0888Z" fill="#353434"/>
<path d="M27.4922 49.4653C28.3899 49.4653 29.2877 49.4653 30.2126 49.4653C30.4453 49.9319 30.4453 49.9319 30.6827 50.4079C31.2372 51.4677 31.9228 52.3121 32.773 53.1555C32.8674 53.2556 32.9619 53.3557 33.0593 53.4588C34.8449 55.2097 37.4404 56.0259 39.884 56.1036C43.1367 56.0123 45.8536 54.7863 48.1121 52.4567C48.8446 51.551 49.3769 50.5052 49.8955 49.4653C50.7932 49.4653 51.691 49.4653 52.6159 49.4653C51.9183 52.4959 49.7819 55.0269 47.2201 56.6965C45.3791 57.782 43.2551 58.6754 41.0942 58.7709C40.842 58.7861 40.842 58.7861 40.5847 58.8016C36.9897 58.9199 33.6836 57.6366 31.0127 55.2412C29.3444 53.6627 28.0119 51.7235 27.4922 49.4653Z" fill="#363634"/>
</svg>
