<svg width="81" height="80" viewBox="0 0 81 80" fill="none" xmlns="http://www.w3.org/2000/svg">
<path d="M38.2937 0.0168629C38.431 0.0157303 38.5683 0.0145976 38.7097 0.0134306C44.4476 -0.0231547 44.4476 -0.0231547 47.219 0.530777C47.3798 0.5618 47.5406 0.592823 47.7062 0.624786C54.1618 1.90148 60.0512 4.59028 65.1836 8.71329C65.2771 8.78821 65.3705 8.86314 65.4668 8.94033C67.7152 10.7626 69.8554 12.8167 71.5995 15.131C71.6659 15.2172 71.7323 15.3034 71.8007 15.3922C73.0339 16.9967 74.1109 18.6773 75.1283 20.4255C75.1864 20.5238 75.2444 20.6221 75.3042 20.7233C77.3415 24.2013 78.6117 28.1458 79.419 32.0776C79.4509 32.2323 79.4828 32.387 79.5157 32.5464C79.9921 34.9998 80.1624 37.4439 80.1508 39.9392C80.1504 40.1375 80.1504 40.1375 80.1499 40.3397C80.1417 42.5551 80.015 44.7146 79.6195 46.8984C79.5937 47.0462 79.5678 47.194 79.5412 47.3463C78.1276 55.2057 74.3422 62.1636 68.8728 67.9162C68.7865 68.0071 68.7002 68.098 68.6113 68.1917C67.2929 69.5707 65.916 70.7947 64.3816 71.9273C64.2898 71.9959 64.1981 72.0645 64.1035 72.1352C62.7017 73.1801 61.2495 74.1117 59.7301 74.9756C59.5755 75.0646 59.5755 75.0646 59.4178 75.1554C55.9213 77.1524 52.0773 78.4289 48.1513 79.2674C48.003 79.2994 47.8546 79.3313 47.7018 79.3641C45.2109 79.8702 42.7569 80.0099 40.2216 79.9995C40.0737 79.9992 39.9258 79.9989 39.7734 79.9986C37.5204 79.9911 35.3196 79.9102 33.1039 79.468C32.9554 79.4388 32.8069 79.4095 32.6538 79.3794C30.7354 78.9917 28.8594 78.4998 27.0088 77.8636C26.8113 77.7968 26.6139 77.73 26.4104 77.6612C21.0794 75.7951 15.9983 72.6621 12.0917 68.558C11.966 68.4322 11.8403 68.3065 11.7108 68.1769C11.5718 68.0379 11.4329 67.899 11.2897 67.7558C11.188 67.6596 11.0863 67.5634 10.9815 67.4643C9.89517 66.4182 8.98567 65.2681 8.08177 64.0656C8.01372 63.9761 7.94567 63.8865 7.87555 63.7942C4.35318 59.135 2.10199 53.7032 0.863838 48.0215C0.823247 47.837 0.823247 47.837 0.781837 47.6487C-1.32003 37.7408 0.908944 26.8452 6.35122 18.3636C7.09017 17.2473 7.89494 16.1819 8.72336 15.131C8.79167 15.0438 8.85998 14.9567 8.93036 14.8669C9.66559 13.9336 10.4327 13.0649 11.2897 12.243C11.6902 11.8457 12.0869 11.4459 12.4771 11.0384C13.6028 9.87602 14.8077 8.88006 16.1017 7.91109C16.189 7.84434 16.2764 7.77759 16.3664 7.70881C22.4897 3.03921 30.5669 0.0596975 38.2937 0.0168629Z" fill="#FEDA48"/>
<path d="M26.3672 48.5027C35.2597 48.5027 44.1522 48.5027 53.3141 48.5027C53.0689 51.4457 52.1623 53.9048 50.2666 56.2039C49.6335 56.0981 49.1741 55.7853 48.6325 55.4518C44.8263 53.197 39.8211 52.4524 35.5274 53.5136C33.338 54.1029 31.4334 55.0736 29.5752 56.3643C27.6995 53.9764 26.6704 51.5361 26.3672 48.5027Z" fill="#343434"/>
<path d="M43.3682 53.316C43.5596 53.359 43.7511 53.402 43.9484 53.4463C46.2156 54.0029 48.1645 54.9336 50.1049 56.2039C49.1821 58.3056 46.6803 59.4085 44.7253 60.3234C43.111 60.9412 41.6081 61.1088 39.8895 61.0974C39.7758 61.0971 39.6622 61.0968 39.545 61.0965C37.8129 61.0869 36.2931 60.9685 34.7066 60.215C34.5243 60.1298 34.3419 60.0446 34.154 59.9568C32.6701 59.206 30.6567 58.1312 29.7343 56.6853C29.7236 56.3763 29.7236 56.3763 29.8947 56.0435C30.2294 55.7765 30.5448 55.5539 30.9072 55.3315C31.0089 55.2682 31.1105 55.2049 31.2152 55.1396C32.9198 54.1023 34.7015 53.5869 36.6314 53.1555C36.7581 53.127 36.8847 53.0984 37.0152 53.069C39.0129 52.7159 41.402 52.8641 43.3682 53.316Z" fill="#FD896E"/>
<path d="M26.5277 33.4213C27.8324 34.1844 28.9568 35.349 29.4694 36.7849C29.8212 38.4027 29.7736 40.1462 28.9337 41.6038C28.7733 41.7643 28.7733 41.7643 28.3886 41.7836C28.218 41.7832 28.0474 41.7828 27.8716 41.7825C27.679 41.7825 27.4863 41.7825 27.2878 41.7824C27.0781 41.7816 26.8684 41.7808 26.6524 41.7799C26.4368 41.7796 26.2213 41.7794 26.0058 41.7792C25.4375 41.7786 24.8693 41.7771 24.301 41.7753C23.7215 41.7736 23.142 41.7729 22.5625 41.7721C21.4248 41.7704 20.2871 41.7676 19.1494 41.7643C18.3821 40.4617 18.0016 39.2885 18.187 37.7532C18.6971 35.8201 19.6984 34.5839 21.3342 33.4746C22.8796 32.609 24.9371 32.6855 26.5277 33.4213Z" fill="#343434"/>
<path d="M59.2717 33.6226C60.5641 34.5297 61.626 35.7026 61.9753 37.272C62.1281 38.8082 62.0383 40.1972 61.3337 41.6039C61.053 41.8846 60.6609 41.7906 60.2793 41.7953C59.9926 41.7991 59.9926 41.7991 59.7001 41.8031C58.8254 41.8102 57.9506 41.8169 57.0759 41.8205C56.4988 41.8232 55.922 41.8304 55.345 41.8385C54.9019 41.8439 54.4589 41.8458 54.0158 41.8467C53.6995 41.8483 53.3833 41.8538 53.0671 41.8593C52.7789 41.8586 52.7789 41.8586 52.4849 41.8579C52.2308 41.8599 52.2308 41.8599 51.9715 41.8619C51.5494 41.7643 51.5494 41.7643 51.2598 41.3807C50.5697 39.8733 50.3163 38.4576 50.8476 36.8608C51.5756 35.0682 52.6239 33.9285 54.3965 33.1105C55.9454 32.6056 57.8692 32.8023 59.2717 33.6226Z" fill="#343434"/>
</svg>
