<svg width="81" height="80" viewBox="0 0 81 80" fill="none" xmlns="http://www.w3.org/2000/svg">
<path d="M38.2333 0.01689C38.3704 0.0157573 38.5075 0.0146247 38.6488 0.0134577C44.388 -0.0231831 44.388 -0.0231831 47.1471 0.530804C47.3918 0.578618 47.3918 0.578618 47.6415 0.627398C55.386 2.17942 62.2935 5.79783 67.9721 11.2804C68.0612 11.3661 68.1503 11.4518 68.242 11.5401C69.4133 12.6728 70.5047 13.834 71.4963 15.131C71.5635 15.2181 71.6308 15.3053 71.7 15.3951C72.9305 16.9986 74.0052 18.6786 75.0206 20.4255C75.0785 20.5238 75.1365 20.6221 75.1962 20.7233C77.2309 24.2013 78.4995 28.1458 79.3057 32.0776C79.3376 32.2323 79.3694 32.387 79.4023 32.5464C79.8781 34.9998 80.0481 37.4439 80.0366 39.9392C80.0361 40.1375 80.0361 40.1375 80.0357 40.3397C80.0275 42.5551 79.901 44.7146 79.5059 46.8984C79.4801 47.0462 79.4544 47.194 79.4278 47.3463C77.7473 56.7012 72.4991 65.6398 64.9285 71.4459C64.8414 71.5133 64.7544 71.5806 64.6648 71.6499C63.0638 72.8823 61.3864 73.9587 59.6421 74.9756C59.544 75.0337 59.4459 75.0918 59.3448 75.1516C55.8901 77.179 51.9763 78.4322 48.0782 79.2674C47.9301 79.2994 47.7819 79.3313 47.6292 79.3642C45.1415 79.8701 42.6908 80.0099 40.1587 79.9995C40.011 79.9992 39.8632 79.9989 39.7109 79.9986C37.4581 79.9911 35.2672 79.8976 33.0502 79.468C32.9035 79.4413 32.7568 79.4146 32.6056 79.3872C29.0083 78.724 25.599 77.5486 22.3173 75.9383C22.2 75.8811 22.0826 75.8238 21.9617 75.7648C18.6446 74.1281 15.6531 71.961 12.9655 69.426C12.5539 69.0375 12.5539 69.0375 12.1226 68.7034C11.7827 68.4283 11.5142 68.1599 11.2341 67.826C10.7933 67.3075 10.3377 66.8084 9.87243 66.3118C3.06304 58.7995 -0.31098 48.39 0.0906939 38.3248C0.55406 28.9735 4.09088 20.001 10.4444 13.0941C10.7818 12.7262 11.1079 12.3501 11.4343 11.9723C11.9157 11.4307 12.4147 10.9439 12.968 10.4769C13.2595 10.2308 13.5456 9.98127 13.8303 9.72736C20.3986 3.9077 29.3983 0.065931 38.2333 0.01689Z" fill="#FEDA49"/>
<path d="M26.7088 31.5424C28.1314 32.432 28.9984 33.5993 29.5266 35.1861C29.6609 37.2526 29.5742 38.7648 28.1749 40.3905C27.7031 40.9025 27.2535 41.2685 26.6431 41.6038C26.553 41.4878 26.553 41.4878 26.461 41.3694C26.379 41.2681 26.297 41.1667 26.2126 41.0623C26.0927 40.9115 26.0927 40.9115 25.9704 40.7577C25.2867 40.1011 24.4985 40.1182 23.5988 40.1272C23.3488 40.1255 23.0988 40.1237 22.8489 40.1216C22.4572 40.1199 22.0657 40.1197 21.6741 40.1229C21.2943 40.1253 20.9149 40.1217 20.5351 40.1172C20.4183 40.1197 20.3015 40.1221 20.1811 40.1247C19.849 40.1183 19.849 40.1183 19.2743 39.9994C18.3412 38.8837 18.0675 37.5284 18.1041 36.0999C18.179 35.436 18.3788 34.8384 18.6335 34.2235C18.5212 34.1902 18.4088 34.1569 18.2931 34.1226C17.1739 33.7586 16.413 33.2996 15.5898 32.4586C16.0704 32.2982 16.0704 32.2982 16.551 32.4586C18.0374 32.607 19.311 32.0486 20.6794 31.5397C22.7559 30.7738 24.6823 30.4568 26.7088 31.5424Z" fill="#353534"/>
<path d="M60.3177 32.089C61.4643 32.627 62.5864 32.5065 63.8075 32.2984C63.2435 33.0295 62.7726 33.567 61.8852 33.9028C61.7266 33.9028 61.568 33.9028 61.4046 33.9028C61.4839 34.0616 61.5632 34.2204 61.6449 34.3841C62.2184 35.9314 62.0199 37.714 61.4002 39.2067C61.2444 39.5182 61.2444 39.5182 61.0842 39.6787C60.7073 39.6964 60.3343 39.7046 59.9572 39.7069C59.7227 39.7106 59.4881 39.7145 59.2536 39.7185C58.8838 39.7241 58.5141 39.7288 58.1443 39.731C56.2301 39.7145 56.2301 39.7145 54.5163 40.4809C54.2443 40.7684 54.2443 40.7684 54.1159 41.0825C54.0366 41.2546 53.9573 41.4267 53.8756 41.604C53.0167 41.5518 52.5218 41.0792 51.9533 40.4809C50.8964 39.188 50.4049 37.7905 50.4546 36.1176C50.6743 34.3813 51.587 32.9254 52.9144 31.817C53.3268 31.559 53.7469 31.3605 54.196 31.1753C54.3413 31.1091 54.4867 31.0429 54.6365 30.9747C56.7385 30.4889 58.4468 31.1912 60.3177 32.089Z" fill="#353434"/>
<path d="M48.1038 52.1235C50.2037 53.8142 51.7369 55.8806 52.5935 58.4503C52.5935 58.5562 52.5935 58.6621 52.5935 58.7712C51.6948 58.7712 50.7962 58.7712 49.8703 58.7712C49.6885 58.4072 49.5068 58.0432 49.3196 57.6681C48.0338 55.2154 46.0947 53.6171 43.5051 52.67C40.4912 51.7709 37.4882 52.0021 34.6983 53.486C32.5379 54.7632 31.2034 56.5081 30.1666 58.7712C29.2679 58.7712 28.3693 58.7712 27.4434 58.7712C27.9497 56.8273 28.8448 55.3024 30.1666 53.7975C30.2734 53.6752 30.3801 53.553 30.4901 53.4271C35.1125 48.4711 42.7912 48.2233 48.1038 52.1235Z" fill="#363634"/>
<path d="M18.9543 39.9735C19.0826 39.9719 19.211 39.9704 19.3432 39.9688C19.4814 39.9681 19.6196 39.9674 19.7619 39.9667C19.9048 39.9658 20.0476 39.9649 20.1947 39.964C20.497 39.9624 20.7993 39.9614 21.1016 39.9608C21.5625 39.9592 22.0234 39.9542 22.4843 39.9492C22.7783 39.9481 23.0723 39.9473 23.3663 39.9467C23.5035 39.9447 23.6406 39.9427 23.782 39.9407C24.8391 39.9446 25.5004 40.1622 26.2916 40.9018C26.7549 41.5104 26.866 42.1321 26.8023 42.8873C26.5881 43.638 26.281 44.0755 25.6709 44.5619C24.887 44.9795 24.2203 45.0033 23.3512 45.0112C23.2163 45.0125 23.0813 45.0138 22.9423 45.0152C22.6564 45.0174 22.3706 45.0191 22.0847 45.0204C21.7937 45.0222 21.5027 45.0255 21.2118 45.0302C20.7902 45.0371 20.3688 45.0397 19.9472 45.0413C19.8186 45.0441 19.6901 45.0469 19.5577 45.0498C18.6517 45.0464 17.9409 44.8553 17.1907 44.3312C16.5633 43.6296 16.448 42.9105 16.4874 41.9835C16.6068 41.259 16.985 40.8222 17.5211 40.3503C18.0009 40.0557 18.4036 39.9788 18.9543 39.9735Z" fill="#97D2F8"/>
<path d="M57.1743 39.5988C57.301 39.5986 57.4277 39.5984 57.5582 39.5981C57.8242 39.5984 58.0902 39.6002 58.3562 39.6036C58.7602 39.6082 59.1638 39.6069 59.5678 39.6048C59.8279 39.6058 60.088 39.6071 60.3481 39.6089C60.4671 39.6084 60.5861 39.6079 60.7087 39.6074C61.6139 39.6235 62.5692 39.7544 63.2574 40.3927C63.9107 41.1622 64.0246 41.6568 64.0118 42.6403C63.925 43.4369 63.5113 43.8551 62.9199 44.3522C62.1904 44.7468 61.6201 44.7448 60.8042 44.7374C60.6554 44.738 60.5065 44.7386 60.3531 44.7392C60.0393 44.7397 59.7254 44.7385 59.4116 44.7358C58.9334 44.7324 58.4556 44.7358 57.9774 44.7399C57.6715 44.7394 57.3656 44.7386 57.0597 44.7374C56.9179 44.7387 56.776 44.74 56.6298 44.7413C55.6864 44.7271 55.1321 44.5544 54.3559 44.0104C53.9052 43.4616 53.7364 42.8594 53.625 42.1653C53.7437 41.4256 53.9864 40.8563 54.5161 40.3202C55.3944 39.7579 56.1432 39.5832 57.1743 39.5988Z" fill="#95D1F7"/>
</svg>
