<svg width="81" height="80" viewBox="0 0 81 80" fill="none" xmlns="http://www.w3.org/2000/svg">
<path d="M40.0257 0.000504538C40.1738 0.000850309 40.3219 0.00119608 40.4745 0.00155233C42.7287 0.00998173 44.9268 0.0875215 47.1432 0.531959C47.3883 0.579772 47.3883 0.579772 47.6382 0.628552C55.3926 2.18055 62.3089 5.7989 67.9947 11.2814C68.0839 11.3671 68.1731 11.4528 68.265 11.5411C69.4378 12.6738 70.5306 13.835 71.5234 15.1319C71.5907 15.2191 71.658 15.3062 71.7274 15.396C72.9595 16.9995 74.0355 18.6794 75.0522 20.4264C75.1102 20.5247 75.1683 20.6229 75.2281 20.7242C78.5899 26.4634 80.1052 33.3319 80.0746 39.9398C80.0741 40.1381 80.0741 40.1381 80.0737 40.3403C80.0655 42.5556 79.9388 44.7151 79.5432 46.8989C79.5174 47.0467 79.4916 47.1945 79.465 47.3468C77.7824 56.7016 72.5275 65.64 64.9472 71.4461C64.8601 71.5134 64.773 71.5807 64.6832 71.6501C63.0806 72.8821 61.4033 73.9639 59.6541 74.9757C59.5438 75.0398 59.4335 75.1039 59.3198 75.17C55.8392 77.1676 51.9869 78.432 48.0755 79.2675C47.9272 79.2994 47.7789 79.3313 47.626 79.3641C45.1352 79.8702 42.6812 80.0099 40.146 79.9995C39.998 79.9992 39.8501 79.9989 39.6977 79.9986C37.4445 79.9911 35.2445 79.9088 33.0284 79.468C32.8824 79.4396 32.7364 79.4112 32.586 79.382C27.073 78.2825 21.7218 76.1968 17.1492 72.89C16.984 72.7717 16.8188 72.6534 16.6486 72.5315C16.1667 72.178 15.6941 71.8155 15.2244 71.4461C15.0712 71.3259 14.918 71.2057 14.7602 71.0819C12.2488 69.0342 9.90395 66.6961 8.0066 64.0659C7.87576 63.8931 7.7446 63.7205 7.61313 63.5482C3.06528 57.4983 0.154503 49.5542 0.114616 41.9585C0.113484 41.814 0.112351 41.6695 0.111185 41.5207C0.0744018 35.4506 0.0744018 35.4506 0.628384 32.7802C0.677464 32.5411 0.677464 32.5411 0.727536 32.2971C2.27259 24.9893 5.51741 18.2985 10.6519 12.8406C10.9362 12.5323 11.2048 12.2253 11.4695 11.9012C11.7821 11.5297 12.078 11.2207 12.4476 10.9104C12.9303 10.5001 13.3975 10.0786 13.8611 9.64691C17.6174 6.27327 22.1814 3.78233 26.9333 2.13635C27.121 2.06973 27.121 2.06973 27.3126 2.00176C28.8534 1.45921 30.4051 1.05786 32.0059 0.732508C32.2407 0.684675 32.2407 0.684675 32.4803 0.635876C34.9988 0.150485 37.4659 -0.0102882 40.0257 0.000504538Z" fill="#FEDA48"/>
<path d="M59.3791 31.7198C60.628 32.6071 61.4186 33.7431 61.8997 35.1868C62.0328 37.2325 61.951 38.7514 60.5764 40.371C59.5526 41.4421 58.4837 42.1534 56.9813 42.3056C55.1706 42.336 53.5664 42.0643 52.1995 40.757C51.0009 39.4044 50.4005 37.9359 50.4545 36.1181C50.6727 34.3959 51.5796 32.9028 52.9175 31.8175C54.9952 30.5719 57.2599 30.4298 59.3791 31.7198Z" fill="#353434"/>
<path d="M26.9733 31.7141C28.2166 32.5926 29.1577 33.6768 29.4996 35.1867C29.7019 36.9217 29.6142 38.511 28.5391 39.9435C27.4557 41.2199 26.2819 42.1459 24.5699 42.2999C22.5155 42.3464 21.0781 41.9019 19.555 40.4812C18.5566 39.4469 18.09 37.9564 18.0312 36.5404C18.1024 34.7823 18.9469 33.2936 20.1859 32.0863C22.169 30.4777 24.8124 30.4119 26.9733 31.7141Z" fill="#353434"/>
<path d="M27.4141 50.9099C35.7242 50.9099 44.0343 50.9099 52.5962 50.9099C52.5962 51.8629 52.5962 52.8159 52.5962 53.7978C44.2861 53.7978 35.976 53.7978 27.4141 53.7978C27.4141 52.8448 27.4141 51.8918 27.4141 50.9099Z" fill="#353434"/>
</svg>
