<svg width="80" height="80" viewBox="0 0 80 80" fill="none" xmlns="http://www.w3.org/2000/svg">
<path d="M38.1425 0.0168607C38.2797 0.01573 38.417 0.0145993 38.5585 0.0134344C44.305 -0.023143 44.305 -0.0231429 47.0678 0.529884C47.3128 0.577615 47.3128 0.577615 47.5627 0.626311C55.3173 2.17564 62.2336 5.78778 67.9195 11.2608C68.0087 11.3464 68.0979 11.4319 68.1898 11.5201C69.3626 12.6508 70.4554 13.81 71.4483 15.1048C71.5156 15.1918 71.5829 15.2787 71.6523 15.3684C72.8843 16.9691 73.9604 18.6462 74.9771 20.3901C75.0351 20.4882 75.0932 20.5863 75.153 20.6874C78.5149 26.4168 80.0302 33.2734 79.9995 39.87C79.9991 40.0679 79.9991 40.0679 79.9987 40.2698C79.9905 42.4813 79.8638 44.6371 79.4682 46.8171C79.4424 46.9647 79.4166 47.1123 79.39 47.2643C77.4958 57.7768 71.3367 66.7097 62.737 72.8882C62.509 73.0529 62.283 73.2204 62.0575 73.3886C57.6565 76.6088 52.3641 78.3138 47.0678 79.3303C46.9213 79.3592 46.7748 79.3882 46.6239 79.418C42.2773 80.2417 37.2889 80.1718 32.9527 79.3303C32.6883 79.2813 32.6883 79.2813 32.4185 79.2313C27.0428 78.2208 21.729 76.2771 17.3317 72.9581C17.0829 72.7708 16.8312 72.5872 16.5795 72.4038C13.3306 70.0217 10.294 67.2277 7.93055 63.9546C7.79777 63.7784 7.66473 63.6024 7.53143 63.4266C2.99556 57.3659 0.0784186 49.4844 0.0384442 41.8852C0.0373119 41.741 0.0361795 41.5968 0.0350128 41.4482C-0.00177045 35.3885 -0.00177044 35.3885 0.55222 32.7227C0.601301 32.484 0.601301 32.484 0.651373 32.2404C2.19644 24.9452 5.44132 18.2658 10.5759 12.8174C10.8695 12.4996 11.1406 12.183 11.4104 11.8464C11.5324 11.706 11.6544 11.5656 11.7801 11.421C11.886 11.421 11.9918 11.421 12.1009 11.421C12.1009 11.3153 12.1009 11.2096 12.1009 11.1007C12.3083 10.8861 12.3083 10.8861 12.6122 10.6302C12.7304 10.5303 12.8487 10.4303 12.9706 10.3274C13.107 10.2126 13.2435 10.0978 13.3841 9.97953C13.5338 9.84822 13.6835 9.71691 13.8377 9.58162C20.3999 3.85164 29.3629 0.0654467 38.1425 0.0168607Z" fill="#FED948"/>
<path d="M39.3392 57.3479C39.6167 57.3495 39.6167 57.3495 39.8998 57.3511C41.146 57.3663 42.3225 57.4253 43.5396 57.7082C43.8122 57.7643 43.8122 57.7643 44.0904 57.8215C46.221 58.3145 48.3963 59.2234 50.1159 60.5912C50.1159 60.6969 50.1159 60.8026 50.1159 60.9115C50.3806 60.9115 50.6453 60.9115 50.9179 60.9115C51.1235 64.4506 51.0689 67.9815 51.015 71.5241C51.0035 72.2984 50.9932 73.0728 50.9828 73.8472C50.9624 75.3546 50.9406 76.862 50.9179 78.3693C50.0868 78.6605 49.277 78.9131 48.4073 79.0663C48.2166 79.1001 48.0259 79.134 47.8293 79.1689C47.6345 79.2023 47.4396 79.2358 47.2388 79.2702C47.0445 79.3049 46.8503 79.3396 46.6502 79.3753C45.0572 79.6544 43.4962 79.8344 41.8786 79.8433C41.7413 79.8444 41.604 79.8456 41.4625 79.8467C41.0221 79.8495 40.5816 79.8505 40.1412 79.8508C39.915 79.851 39.915 79.851 39.6843 79.8512C37.4084 79.8486 35.1922 79.7729 32.9533 79.3303C32.7876 79.2977 32.622 79.2651 32.4513 79.2315C29.4715 78.633 29.4715 78.633 28.9434 78.3693C28.9434 72.6082 28.9434 66.8472 28.9434 60.9115C29.2609 60.8058 29.5785 60.7001 29.9057 60.5912C30.134 60.3831 30.134 60.3831 30.3669 60.1707C31.7881 58.8898 33.8522 58.1503 35.6801 57.7082C35.7942 57.6799 35.9083 57.6517 36.0259 57.6225C37.1344 57.3712 38.2055 57.3383 39.3392 57.3479Z" fill="#FED949"/>
<path d="M59.2567 39.8493C59.8888 40.3202 60.4662 40.8149 61.0236 41.3715C61.2618 41.1336 61.2618 41.1336 61.5048 40.891C61.5385 45.1553 61.564 49.4196 61.5796 53.684C61.587 55.6641 61.5972 57.644 61.6137 59.624C61.6281 61.3496 61.6374 63.0751 61.6406 64.8008C61.6425 65.7147 61.6469 66.6284 61.6574 67.5422C61.6672 68.4023 61.6702 69.2621 61.6681 70.1222C61.6685 70.438 61.6713 70.7537 61.6769 71.0694C61.7166 73.4545 61.7166 73.4545 61.1987 74.1145C60.8243 74.3701 60.4849 74.5281 60.0612 74.6854C59.81 74.8251 59.5604 74.9676 59.3131 75.114C53.2591 78.3692 53.2591 78.3692 50.9185 78.3692C50.9185 72.6081 50.9185 66.847 50.9185 60.9114C51.6595 60.9114 52.4006 60.9114 53.1641 60.9114C52.7014 57.6765 52.7014 57.6765 51.1456 54.8759C50.8125 54.3316 50.8553 53.801 50.8639 53.1824C50.8638 53.0495 50.8637 52.9167 50.8636 52.7797C50.864 52.3412 50.8677 51.9028 50.8715 51.4642C50.8724 51.1599 50.8731 50.8556 50.8736 50.5513C50.8754 49.7508 50.8801 48.9504 50.8854 48.15C50.8904 47.333 50.8926 46.516 50.895 45.699C50.9001 44.0963 50.9084 42.4936 50.9185 40.891C51.1831 41.1552 51.4478 41.4195 51.7205 41.6918C51.7618 41.5976 51.8032 41.5035 51.8458 41.4065C52.3735 40.4472 53.4043 39.7574 54.4203 39.3957C55.9971 39.0656 57.8475 38.9858 59.2567 39.8493Z" fill="#96D2F8"/>
<path d="M27.2375 40.7408C27.338 40.8224 27.4385 40.9039 27.542 40.988C27.8807 41.2611 28.2419 41.4789 28.6209 41.6918C28.7268 41.4275 28.8327 41.1633 28.9417 40.891C28.9947 40.891 29.0476 40.891 29.1021 40.891C29.1283 42.5103 29.1482 44.1295 29.1603 45.7489C29.1662 46.501 29.1741 47.253 29.1868 48.0051C29.1991 48.732 29.2058 49.4589 29.2087 50.1859C29.2107 50.4621 29.2148 50.7382 29.2209 51.0143C29.2582 52.7751 29.1288 53.8835 27.9794 55.3057C27.0063 57.0812 26.5006 58.9151 26.215 60.9114C27.1148 60.9114 28.0146 60.9114 28.9417 60.9114C28.9417 66.6725 28.9417 72.4336 28.9417 78.3692C27.8731 78.1321 26.9587 77.8846 25.9543 77.4983C25.8109 77.4433 25.6674 77.3883 25.5196 77.3316C19.9356 75.1421 19.9356 75.1421 18.5158 73.7245C18.5002 73.3012 18.495 72.8821 18.4966 72.4587C18.4964 72.3245 18.4963 72.1903 18.4961 72.052C18.4959 71.5988 18.4968 71.1455 18.4976 70.6923C18.4977 70.3688 18.4977 70.0453 18.4976 69.7218C18.4975 68.8406 18.4985 67.9594 18.4996 67.0782C18.5006 66.1584 18.5007 65.2386 18.5009 64.3188C18.5014 62.5757 18.5027 60.8326 18.5043 59.0895C18.5061 57.1056 18.507 55.1217 18.5078 53.1378C18.5095 49.0555 18.5123 44.9732 18.5158 40.891C18.6746 41.1024 18.8334 41.3138 18.997 41.5316C19.438 41.3453 19.7227 41.1385 20.0898 40.8209C22.0835 39.1371 25.2071 39.2069 27.2375 40.7408Z" fill="#96D2F9"/>
<path d="M47.7452 50.9127C50.6203 53.0802 52.5947 56.2232 53.1617 59.7904C53.1656 60.1641 53.1662 60.5378 53.1617 60.9115C52.6672 60.9302 52.1728 60.9415 51.678 60.9516C51.5381 60.9569 51.3981 60.9623 51.2539 60.9678C50.2025 60.9839 50.2025 60.9839 49.7739 60.6331C49.6745 60.5136 49.575 60.394 49.4726 60.2709C49.0709 60.0044 48.6465 59.7832 48.2194 59.5601C48.0994 59.4972 47.9794 59.4342 47.8557 59.3693C43.9683 57.3846 38.9252 56.7828 34.7258 58.0777C33.1106 58.6201 31.1284 59.3347 30.0161 60.6841C29.6428 60.9956 29.4061 60.9668 28.9247 60.9584C28.767 60.9569 28.6093 60.9553 28.4469 60.9538C28.2826 60.9497 28.1184 60.9457 27.9491 60.9416C27.783 60.9394 27.6168 60.9372 27.4457 60.935C27.0353 60.9293 26.6251 60.9214 26.2148 60.9115C26.1186 57.7668 27.8334 54.6853 29.904 52.4229C34.555 47.5325 42.3335 47.0297 47.7452 50.9127Z" fill="#343434"/>
<path d="M26.6971 33.5235C27.7211 34.2514 28.5498 35.1137 29.1031 36.2463C29.1909 36.4219 29.1909 36.4219 29.2804 36.601C29.4711 37.1938 29.4785 37.7622 29.474 38.3785C29.4736 38.4999 29.4731 38.6213 29.4727 38.7465C29.4564 39.6143 29.3418 40.2695 28.9427 41.0512C28.8798 41.1833 28.817 41.3155 28.7522 41.4516C28.6877 41.5705 28.6877 41.5705 28.6219 41.6918C28.0685 41.5192 27.6816 41.2716 27.2385 40.9111C26.289 40.1812 25.0791 39.6431 23.8569 39.7186C22.0545 39.97 20.5625 40.2947 19.3188 41.6918C18.8376 41.5317 18.8376 41.5317 18.6559 41.1826C18.6034 41.0401 18.5509 40.8977 18.4967 40.7509C18.4434 40.6093 18.3901 40.4676 18.3351 40.3217C17.7802 38.7593 17.9824 37.4159 18.6772 35.926C20.337 33.039 23.7005 31.9798 26.6971 33.5235Z" fill="#353534"/>
<path d="M59.1212 33.5643C60.4118 34.4686 61.4791 35.6414 61.8248 37.2074C61.9422 38.5416 61.986 39.8397 61.3436 41.0513C61.1879 41.216 61.0283 41.3773 60.8624 41.5318C60.7566 41.3898 60.6507 41.2477 60.5416 41.1014C59.8491 40.2704 58.7455 39.5338 57.6517 39.4143C55.6344 39.3123 54.0945 39.3949 52.5117 40.751C52.0511 41.1736 52.0511 41.1736 51.7197 41.692C51.2385 41.5318 51.2385 41.5318 51.0568 41.2234C51.0043 41.0972 50.9518 40.9711 50.8977 40.8411C50.8443 40.7162 50.791 40.5913 50.736 40.4626C50.2161 39.0711 50.3168 37.7128 50.8776 36.3478C51.6259 34.7741 52.6515 33.7877 54.246 33.0532C55.795 32.5491 57.7188 32.7455 59.1212 33.5643Z" fill="#353534"/>
</svg>
