<svg width="18" height="12" viewBox="0 0 18 12" fill="none" xmlns="http://www.w3.org/2000/svg">
<path d="M18 2.72925V9.22875C18 9.705 17.7352 10.1333 17.31 10.3455C17.1315 10.4348 16.9403 10.4783 16.7498 10.4783C16.485 10.4783 16.2233 10.3935 16.002 10.2278L14.25 8.4825V8.625C14.25 10.4857 12.7357 12 10.875 12H3.375C1.51425 12 0 10.4857 0 8.625V3.375C0 1.51425 1.51425 0 3.375 0H10.875C12.7357 0 14.25 1.51425 14.25 3.375V3.49275L15.9608 1.767C16.383 1.446 16.8832 1.40025 17.31 1.61325C17.736 1.82625 18 2.253 18 2.72925ZM13.5 3.37425C13.5 1.92675 12.3225 0.74925 10.875 0.74925H3.375C1.9275 0.74925 0.75 1.92675 0.75 3.37425V8.62425C0.75 10.0718 1.9275 11.2493 3.375 11.2493H10.875C12.3225 11.2493 13.5 10.0718 13.5 8.62425V3.37425ZM17.25 2.72925C17.25 2.5365 17.1465 2.36925 16.974 2.283C16.8015 2.19675 16.6058 2.21475 16.4513 2.3295L14.2493 4.557V7.42275L16.491 9.66225C16.605 9.74325 16.8 9.762 16.9733 9.675C17.1458 9.58875 17.2493 9.42225 17.2493 9.22875L17.25 2.72925Z" fill="black"/>
</svg>
