<svg width="14" height="16" viewBox="0 0 14 16" fill="none" xmlns="http://www.w3.org/2000/svg">
<path d="M10 9C10 9.184 9.85067 9.33333 9.66667 9.33333H3.66667C3.48267 9.33333 3.33333 9.184 3.33333 9C3.33333 8.816 3.48267 8.66667 3.66667 8.66667H9.66667C9.85067 8.66667 10 8.816 10 9ZM7.66667 11.3333H3.66667C3.48267 11.3333 3.33333 11.4827 3.33333 11.6667C3.33333 11.8507 3.48267 12 3.66667 12H7.66667C7.85067 12 8 11.8507 8 11.6667C8 11.4827 7.85067 11.3333 7.66667 11.3333ZM13.3333 6.65667V13C13.3333 14.654 11.9873 16 10.3333 16H3C1.346 16 0 14.654 0 13V3C0 1.346 1.346 0 3 0H6.67667C7.83333 0 8.922 0.450667 9.74133 1.26933L12.064 3.59267C12.8827 4.41067 13.3333 5.49867 13.3333 6.65667ZM9.26933 1.74C8.902 1.37333 8.46933 1.10067 8 0.919333V4.33267C8 4.884 8.44867 5.33267 9 5.33267H12.414C12.232 4.86333 11.9593 4.43 11.5927 4.06333L9.26933 1.74ZM12.6667 6.65667C12.6667 6.43333 12.6413 6.21467 12.6027 6H9C8.08067 6 7.33333 5.252 7.33333 4.33333V0.730667C7.118 0.692 6.89933 0.666667 6.67667 0.666667H3C1.71333 0.666667 0.666667 1.71333 0.666667 3V13C0.666667 14.2867 1.71333 15.3333 3 15.3333H10.3333C11.62 15.3333 12.6667 14.2867 12.6667 13V6.65667Z" fill="black"/>
</svg>
