<svg width="23" height="21" viewBox="0 0 23 21" fill="none" xmlns="http://www.w3.org/2000/svg">
<path d="M1.78152 1.00391L4.68534 3.90772M20.2786 19.501L17.3748 16.5972M17.3748 16.5972C15.7871 17.7009 13.6895 18.4734 11.0301 18.4734C3.83676 18.4734 0.753906 12.8215 0.753906 10.2525C0.753906 8.63322 1.97862 5.78927 4.68534 3.90772M17.3748 16.5972L13.2099 12.4323M4.68534 3.90772L8.85013 8.07251M8.85013 8.07251C8.29221 8.6304 7.94713 9.40113 7.94713 10.2525C7.94713 11.9551 9.32737 13.3353 11.03 13.3353C11.8813 13.3353 12.652 12.9902 13.2099 12.4323M8.85013 8.07251L13.2099 12.4323M19.6823 14.3629C19.8091 14.1925 19.9282 14.0209 20.0397 13.8491C20.9004 12.5225 21.3063 11.1846 21.3063 10.2525C21.3063 7.68342 18.2234 2.03152 11.0301 2.03152C9.9028 2.03152 8.87647 2.17033 7.94713 2.41431C7.77248 2.46017 7.60125 2.50974 7.43342 2.5628" stroke="white" stroke-opacity="0.8" stroke-width="1.5" stroke-linecap="round"/>
</svg>
