<svg width="24" height="24" viewBox="0 0 24 24" fill="none" xmlns="http://www.w3.org/2000/svg">
<path d="M20.8827 21.6948L21.413 22.2252L20.8827 21.6948ZM19.4612 22.8687L19.728 23.5696H19.728L19.4612 22.8687ZM21.6936 20.8839L21.1632 20.3535L21.6936 20.8839ZM22.8673 19.4623L23.5683 19.729L22.8673 19.4623ZM22.9589 18.3562L22.2236 18.5042L22.2236 18.5042L22.9589 18.3562ZM22.0348 16.761L21.4245 17.1969V17.1969L22.0348 16.761ZM20.9684 15.2679L21.5787 14.832L20.9684 15.2679ZM20.6244 13.5277L21.363 13.6577V13.6577L20.6244 13.5277ZM20.6244 10.4713L19.8858 10.6012V10.6012L20.6244 10.4713ZM20.9685 8.73109L21.5788 9.16699L20.9685 8.73109ZM22.0344 7.23863L22.6447 7.67454L22.6447 7.67454L22.0344 7.23863ZM22.9585 5.6434L22.2232 5.49547L22.9585 5.6434ZM22.8669 4.53737L23.5679 4.27059L23.5679 4.27058L22.8669 4.53737ZM21.6932 3.11577L21.1629 3.64608V3.64608L21.6932 3.11577ZM20.8823 2.30478L21.4126 1.77447L21.4126 1.77447L20.8823 2.30478ZM19.4608 1.13096L19.194 1.83189V1.83189L19.4608 1.13096ZM18.3549 1.03942L18.5028 1.77468V1.77468L18.3549 1.03942ZM16.7598 1.96356L16.3238 1.35327V1.35327L16.7598 1.96356ZM15.2673 3.02967L15.7033 3.63995V3.63995L15.2673 3.02967ZM13.527 3.37382L13.657 2.63516V2.63516L13.527 3.37382ZM10.4716 3.37393L10.3417 2.63527V2.63527L10.4716 3.37393ZM8.73119 3.0298L9.16715 2.41952L8.73119 3.0298ZM7.23839 1.96343L6.80244 2.57371L6.80244 2.57371L7.23839 1.96343ZM5.64328 1.0393L5.79123 0.304035V0.304035L5.64328 1.0393ZM4.53734 1.13083L4.27052 0.429902L4.53734 1.13083ZM3.11585 2.30465L3.6462 2.83496V2.83496L3.11585 2.30465ZM2.30492 3.11564L1.77457 2.58533V2.58533L2.30492 3.11564ZM1.1312 4.53725L1.83215 4.80403L1.83215 4.80403L1.1312 4.53725ZM1.03967 5.64327L1.77494 5.49534L1.03967 5.64327ZM1.96373 7.23851L2.57405 6.8026L1.96373 7.23851ZM3.03058 8.73221L2.42026 9.16812L2.42026 9.16812L3.03058 8.73221ZM3.37468 10.4721L2.63601 10.3423H2.63601L3.37468 10.4721ZM3.37471 13.5268L4.11338 13.3969L3.37471 13.5268ZM3.03062 15.2668L3.64094 15.7027H3.64094L3.03062 15.2668ZM1.96336 16.7611L2.57367 17.197H2.57367L1.96336 16.7611ZM1.03929 18.3564L1.77456 18.5043L1.03929 18.3564ZM1.13082 19.4624L0.429878 19.7292L0.429878 19.7292L1.13082 19.4624ZM2.30455 20.884L2.8349 20.3537H2.8349L2.30455 20.884ZM3.11547 21.695L3.64583 21.1647H3.64583L3.11547 21.695ZM4.53697 22.8688L4.80379 22.1679L4.80379 22.1679L4.53697 22.8688ZM5.64291 22.9603L5.49496 22.2251H5.49496L5.64291 22.9603ZM7.23802 22.0362L6.80207 21.4259L6.80206 21.4259L7.23802 22.0362ZM8.73181 20.9691L8.29586 20.3588H8.29586L8.73181 20.9691ZM10.4721 20.625L10.3422 21.3636L10.4721 20.625ZM13.5266 20.6251L13.3967 19.8864L13.5266 20.6251ZM15.2667 20.9692L14.8307 21.5795V21.5795L15.2667 20.9692ZM16.7601 22.0361L17.2482 21.4666C17.2315 21.4522 17.2141 21.4386 17.1961 21.4258L16.7601 22.0361ZM16.7601 22.0361L16.2721 22.6055C16.295 22.6252 16.319 22.6434 16.3441 22.6601L16.7601 22.0361ZM16.7602 22.0361L17.1961 21.4258C17.1896 21.4211 17.1829 21.4165 17.1762 21.4121L16.7602 22.0361ZM18.3552 22.9602L18.5032 22.2249H18.5032L18.3552 22.9602ZM20.3523 21.1645C20.0039 21.513 19.7715 21.7447 19.5777 21.9112C19.3911 22.0716 19.2813 22.1346 19.1944 22.1677L19.728 23.5696C20.041 23.4504 20.3016 23.267 20.5554 23.0488C20.8021 22.8368 21.0805 22.5577 21.413 22.2252L20.3523 21.1645ZM21.1632 20.3535L20.3523 21.1645L21.413 22.2252L22.224 21.4142L21.1632 20.3535ZM22.1664 19.1955C22.1333 19.2825 22.0703 19.3923 21.9099 19.5789C21.7434 19.7727 21.5117 20.0051 21.1632 20.3535L22.224 21.4142C22.5565 21.0816 22.8355 20.8032 23.0476 20.5565C23.2657 20.3026 23.4491 20.0421 23.5683 19.729L22.1664 19.1955ZM22.2236 18.5042C22.2701 18.7354 22.2503 18.975 22.1664 19.1955L23.5683 19.729C23.7528 19.2441 23.7965 18.7169 23.6941 18.2083L22.2236 18.5042ZM21.4245 17.1969C21.7109 17.5979 21.9012 17.8652 22.0336 18.0838C22.1611 18.2942 22.2052 18.4129 22.2236 18.5042L23.6941 18.2083C23.6281 17.8799 23.49 17.5928 23.3165 17.3065C23.1479 17.0282 22.9184 16.7078 22.6451 16.3251L21.4245 17.1969ZM20.3581 15.7039L21.4245 17.1969L22.6451 16.3251L21.5787 14.832L20.3581 15.7039ZM19.8857 13.3977C19.7524 14.1556 19.8593 15.0055 20.3581 15.7039L21.5787 14.832C21.3629 14.5299 21.2833 14.1108 21.363 13.6577L19.8857 13.3977ZM20.0073 11.9994C20.0073 12.477 19.9655 12.9442 19.8857 13.3978L21.363 13.6577C21.4579 13.1187 21.5073 12.5645 21.5073 11.9994H20.0073ZM19.8858 10.6012C19.9656 11.0547 20.0073 11.5219 20.0073 11.9994H21.5073C21.5073 11.4344 21.4579 10.8803 21.3631 10.3413L19.8858 10.6012ZM20.3581 8.29518C19.8594 8.99352 19.7524 9.84339 19.8858 10.6012L21.3631 10.3413C21.2834 9.88826 21.363 9.46915 21.5788 9.16699L20.3581 8.29518ZM21.4241 6.80273L20.3581 8.29518L21.5788 9.16699L22.6447 7.67454L21.4241 6.80273ZM22.2232 5.49547C22.2048 5.58675 22.1608 5.70539 22.0332 5.91585C21.9008 6.13439 21.7105 6.40169 21.4241 6.80273L22.6447 7.67454C22.9181 7.29186 23.1476 6.97138 23.3161 6.69314C23.4896 6.40683 23.6277 6.11971 23.6937 5.79133L22.2232 5.49547ZM22.166 4.80416C22.2499 5.02458 22.2697 5.26425 22.2232 5.49547L23.6937 5.79133C23.7961 5.28269 23.7524 4.75548 23.5679 4.27059L22.166 4.80416ZM21.1629 3.64608C21.5113 3.99456 21.743 4.22694 21.9095 4.42073C22.0699 4.60737 22.1329 4.71714 22.166 4.80416L23.5679 4.27058C23.4487 3.95753 23.2654 3.69701 23.0472 3.44312C22.8352 3.19638 22.5561 2.91799 22.2236 2.58546L21.1629 3.64608ZM20.3519 2.83508L21.1629 3.64608L22.2236 2.58546L21.4126 1.77447L20.3519 2.83508ZM19.194 1.83189C19.281 1.86501 19.3907 1.92799 19.5774 2.08838C19.7711 2.25492 20.0035 2.4866 20.3519 2.83508L21.4126 1.77447C21.0801 1.44193 20.8018 1.16284 20.555 0.950796C20.3012 0.732607 20.0407 0.549195 19.7276 0.430028L19.194 1.83189ZM18.5028 1.77468C18.734 1.72817 18.9736 1.748 19.194 1.83189L19.7276 0.430028C19.2427 0.245449 18.7155 0.201813 18.2069 0.30416L18.5028 1.77468ZM17.1957 2.57384C17.5967 2.28739 17.864 2.09707 18.0825 1.96465C18.293 1.83713 18.4116 1.79305 18.5028 1.77468L18.2069 0.30416C17.8785 0.370238 17.5914 0.508325 17.3051 0.681807C17.0269 0.850403 16.7065 1.07993 16.3238 1.35327L17.1957 2.57384ZM15.7033 3.63995L17.1957 2.57384L16.3238 1.35327L14.8314 2.41938L15.7033 3.63995ZM13.3971 4.11248C14.155 4.24579 15.0049 4.13881 15.7033 3.63995L14.8314 2.41938C14.5292 2.63523 14.1101 2.71486 13.657 2.63516L13.3971 4.11248ZM11.9996 3.99108C12.4769 3.99108 12.9438 4.03275 13.3971 4.11248L13.657 2.63516C13.1183 2.54041 12.5644 2.49108 11.9996 2.49108V3.99108ZM10.6016 4.11258C11.0551 4.03278 11.5222 3.99108 11.9996 3.99108V2.49108C11.4346 2.49108 10.8806 2.54044 10.3417 2.63527L10.6016 4.11258ZM8.29524 3.64009C8.99366 4.13899 9.84367 4.24595 10.6016 4.11258L10.3417 2.63527C9.88852 2.71501 9.46933 2.63538 9.16715 2.41952L8.29524 3.64009ZM6.80244 2.57371L8.29524 3.64009L9.16715 2.41952L7.67434 1.35315L6.80244 2.57371ZM5.49533 1.77456C5.58658 1.79292 5.70519 1.837 5.91564 1.96453C6.13415 2.09694 6.40144 2.28726 6.80244 2.57371L7.67434 1.35315C7.29169 1.0798 6.97124 0.850277 6.69301 0.681682C6.40673 0.5082 6.11962 0.370112 5.79123 0.304035L5.49533 1.77456ZM4.80417 1.83177C5.02455 1.74787 5.26416 1.72804 5.49533 1.77456L5.79123 0.304035C5.28261 0.201687 4.7554 0.245324 4.27052 0.429902L4.80417 1.83177ZM3.6462 2.83496C3.99466 2.48647 4.22702 2.2548 4.42079 2.08826C4.60742 1.92787 4.71718 1.86488 4.80417 1.83177L4.27052 0.429902C3.95747 0.54907 3.69697 0.732481 3.4431 0.95067C3.19638 1.16271 2.91801 1.4418 2.5855 1.77434L3.6462 2.83496ZM2.83527 3.64595L3.6462 2.83496L2.5855 1.77434L1.77457 2.58533L2.83527 3.64595ZM1.83215 4.80403C1.86527 4.71702 1.92825 4.60724 2.08863 4.4206C2.25516 4.22682 2.48682 3.99444 2.83527 3.64595L1.77457 2.58533C1.44206 2.91787 1.16299 3.19625 0.950967 3.443C0.732795 3.69689 0.549405 3.9574 0.430254 4.27046L1.83215 4.80403ZM1.77494 5.49534C1.72842 5.26412 1.74825 5.02446 1.83215 4.80403L0.430254 4.27046C0.2457 4.75535 0.20207 5.28256 0.304403 5.7912L1.77494 5.49534ZM2.57405 6.8026C2.28762 6.40157 2.09731 6.13426 1.96491 5.91573C1.83739 5.70526 1.7933 5.58662 1.77494 5.49534L0.304403 5.7912C0.370471 6.11958 0.508538 6.4067 0.682005 6.69301C0.850586 6.97125 1.08009 7.29173 1.35341 7.67441L2.57405 6.8026ZM3.6409 8.29631L2.57405 6.8026L1.35341 7.67441L2.42026 9.16812L3.6409 8.29631ZM4.11335 10.602C4.24659 9.84428 4.1396 8.99454 3.6409 8.29631L2.42026 9.16812C2.63604 9.47023 2.71566 9.88928 2.63601 10.3423L4.11335 10.602ZM3.99199 11.9994C3.99199 11.5222 4.03365 11.0553 4.11335 10.602L2.63601 10.3423C2.5413 10.8809 2.49199 11.4347 2.49199 11.9994H3.99199ZM4.11338 13.3969C4.03366 12.9436 3.99199 12.4767 3.99199 11.9994H2.49199C2.49199 12.5642 2.54131 13.118 2.63605 13.6567L4.11338 13.3969ZM3.64094 15.7027C4.13966 15.0045 4.24664 14.1547 4.11338 13.3969L2.63605 13.6567C2.71571 14.1097 2.63609 14.5288 2.42031 14.8309L3.64094 15.7027ZM2.57367 17.197L3.64094 15.7027L2.42031 14.8309L1.35304 16.3252L2.57367 17.197ZM1.77456 18.5043C1.79293 18.413 1.83701 18.2944 1.96453 18.0839C2.09693 17.8654 2.28724 17.5981 2.57367 17.197L1.35304 16.3252C1.07972 16.7079 0.85021 17.0284 0.681629 17.3066C0.508162 17.5929 0.370095 17.88 0.304027 18.2084L1.77456 18.5043ZM1.83177 19.1956C1.74787 18.9752 1.72804 18.7355 1.77456 18.5043L0.304027 18.2084C0.201694 18.7171 0.245324 19.2443 0.429878 19.7292L1.83177 19.1956ZM2.8349 20.3537C2.48644 20.0052 2.25478 19.7728 2.08826 19.579C1.92788 19.3924 1.86489 19.2826 1.83177 19.1956L0.429878 19.7292C0.549029 20.0422 0.732419 20.3027 0.950592 20.5566C1.16262 20.8034 1.44169 21.0818 1.7742 21.4143L2.8349 20.3537ZM3.64583 21.1647L2.8349 20.3537L1.7742 21.4143L2.58512 22.2253L3.64583 21.1647ZM4.80379 22.1679C4.7168 22.1347 4.60704 22.0718 4.42042 21.9114C4.22665 21.7448 3.99428 21.5131 3.64583 21.1647L2.58512 22.2253C2.91763 22.5578 3.196 22.8369 3.44272 23.049C3.69659 23.2671 3.9571 23.4506 4.27015 23.5697L4.80379 22.1679ZM5.49496 22.2251C5.26378 22.2716 5.02417 22.2517 4.80379 22.1679L4.27015 23.5697C4.75503 23.7543 5.28223 23.7979 5.79086 23.6956L5.49496 22.2251ZM6.80206 21.4259C6.40106 21.7124 6.13378 21.9027 5.91527 22.0351C5.70482 22.1626 5.5862 22.2067 5.49496 22.2251L5.79086 23.6956C6.11924 23.6295 6.40635 23.4914 6.69264 23.3179C6.97086 23.1493 7.29132 22.9198 7.67397 22.6465L6.80206 21.4259ZM8.29586 20.3588L6.80207 21.4259L7.67397 22.6465L9.16776 21.5794L8.29586 20.3588ZM10.6021 19.8863C9.84416 19.753 8.99422 19.86 8.29586 20.3588L9.16776 21.5794C9.46993 21.3635 9.88908 21.2839 10.3422 21.3636L10.6021 19.8863ZM11.9996 20.0077C11.5223 20.0077 11.0554 19.966 10.6021 19.8863L10.3422 21.3636C10.8809 21.4584 11.4348 21.5077 11.9996 21.5077V20.0077ZM13.3967 19.8864C12.9435 19.9661 12.4767 20.0077 11.9996 20.0077V21.5077C12.5642 21.5077 13.1179 21.4584 13.6564 21.3637L13.3967 19.8864ZM15.7026 20.359C15.0044 19.8601 14.1545 19.7531 13.3967 19.8864L13.6564 21.3637C14.1095 21.2841 14.5286 21.3637 14.8307 21.5795L15.7026 20.359ZM17.1961 21.4258L15.7026 20.359L14.8307 21.5795L16.3242 22.6464L17.1961 21.4258ZM17.2482 21.4666L17.2482 21.4666L16.272 22.6055L16.2721 22.6055L17.2482 21.4666ZM17.1762 21.4121L17.1762 21.412L16.3441 22.6601L16.3442 22.6601L17.1762 21.4121ZM18.5032 22.2249C18.4119 22.2066 18.2933 22.1625 18.0829 22.035C17.8644 21.9026 17.5971 21.7123 17.1961 21.4258L16.3242 22.6464C16.7069 22.9197 17.0273 23.1492 17.3055 23.3178C17.5918 23.4913 17.8789 23.6294 18.2073 23.6955L18.5032 22.2249ZM19.1944 22.1677C18.974 22.2516 18.7344 22.2715 18.5032 22.2249L18.2073 23.6955C18.7159 23.7978 19.2431 23.7542 19.728 23.5696L19.1944 22.1677ZM14.5311 11.9997C14.5311 13.3995 13.3965 14.5341 11.997 14.5341V16.0341C14.225 16.0341 16.0311 14.2278 16.0311 11.9997H14.5311ZM11.997 9.46533C13.3965 9.46533 14.5311 10.6 14.5311 11.9997H16.0311C16.0311 9.77164 14.225 7.96533 11.997 7.96533V9.46533ZM9.46289 11.9997C9.46289 10.6 10.5975 9.46533 11.997 9.46533V7.96533C9.76897 7.96533 7.96289 9.77164 7.96289 11.9997H9.46289ZM11.997 14.5341C10.5975 14.5341 9.46289 13.3995 9.46289 11.9997H7.96289C7.96289 14.2278 9.76897 16.0341 11.997 16.0341V14.5341Z" fill="white" fill-opacity="0.8"/>
</svg>
