<svg width="25" height="25" viewBox="0 0 25 25" fill="none" xmlns="http://www.w3.org/2000/svg">
<path d="M10.9136 2.33877C11.4679 1.86361 11.7451 1.62602 12.056 1.53547C12.3299 1.45566 12.621 1.45566 12.895 1.53547C13.2058 1.62602 13.483 1.86361 14.0374 2.33877L15.4527 3.55189C15.7022 3.76577 15.827 3.87272 15.9677 3.94889C16.0926 4.01645 16.2264 4.06595 16.3652 4.09591C16.5216 4.12968 16.6859 4.12968 17.0146 4.12968H18.4213C19.2614 4.12968 19.6814 4.12968 20.0023 4.29317C20.2845 4.43698 20.514 4.66645 20.6578 4.94869C20.8213 5.26956 20.8213 5.6896 20.8213 6.52968V7.93637C20.8213 8.26502 20.8213 8.42935 20.855 8.58579C20.885 8.72456 20.9345 8.85837 21.0021 8.98322C21.0782 9.12398 21.1852 9.24874 21.3991 9.49827L22.6122 10.9136C23.0873 11.4679 23.3249 11.7451 23.4155 12.056C23.4953 12.3299 23.4953 12.621 23.4155 12.895C23.3249 13.2058 23.0873 13.483 22.6122 14.0374L21.3991 15.4527C21.1852 15.7022 21.0782 15.827 21.0021 15.9677C20.9345 16.0926 20.885 16.2264 20.855 16.3652C20.8213 16.5216 20.8213 16.6859 20.8213 17.0146V18.4213C20.8213 19.2614 20.8213 19.6814 20.6578 20.0023C20.514 20.2845 20.2845 20.514 20.0023 20.6578C19.6814 20.8213 19.2614 20.8213 18.4213 20.8213H17.0146C16.6859 20.8213 16.5216 20.8213 16.3652 20.855C16.2264 20.885 16.0926 20.9345 15.9677 21.0021C15.827 21.0782 15.7022 21.1852 15.4527 21.3991L14.0374 22.6122C13.483 23.0873 13.2058 23.3249 12.895 23.4155C12.621 23.4953 12.3299 23.4953 12.056 23.4155C11.7451 23.3249 11.4679 23.0873 10.9136 22.6122L9.49827 21.3991C9.24874 21.1852 9.12398 21.0782 8.98322 21.0021C8.85837 20.9345 8.72456 20.885 8.58579 20.855C8.42935 20.8213 8.26502 20.8213 7.93637 20.8213H6.49398C5.6539 20.8213 5.23386 20.8213 4.91299 20.6578C4.63075 20.514 4.40128 20.2845 4.25747 20.0023C4.09398 19.6814 4.09398 19.2614 4.09398 18.4213V17.0069C4.09398 16.681 4.09398 16.5181 4.06075 16.3628C4.03127 16.2251 3.98255 16.0923 3.91601 15.9681C3.84101 15.8282 3.73568 15.7039 3.52501 15.4553L2.31474 14.027C1.84766 13.4758 1.61412 13.2002 1.52501 12.8917C1.44647 12.6198 1.44647 12.3312 1.52501 12.0592C1.61412 11.7507 1.84766 11.4751 2.31474 10.9239L3.52501 9.49564C3.73568 9.24703 3.84101 9.12273 3.91601 8.98281C3.98255 8.85869 4.03127 8.72582 4.06075 8.58812C4.09398 8.43288 4.09398 8.26995 4.09398 7.94409V6.52968C4.09398 5.6896 4.09398 5.26956 4.25747 4.94869C4.40128 4.66645 4.63075 4.43698 4.91299 4.29317C5.23386 4.12968 5.6539 4.12968 6.49398 4.12968H7.93637C8.26502 4.12968 8.42935 4.12968 8.58579 4.09591C8.72456 4.06595 8.85837 4.01645 8.98322 3.94889C9.12398 3.87272 9.24874 3.76577 9.49827 3.55189L10.9136 2.33877Z" stroke="#22272F" stroke-width="1.5" stroke-linecap="round" stroke-linejoin="round"/>
<path d="M12.4766 13.5186V8.30249" stroke="#22272F" stroke-width="1.5" stroke-linecap="round" stroke-linejoin="round"/>
<ellipse cx="12.4807" cy="16.6484" rx="1.04323" ry="1.04323" fill="#22272F"/>
</svg>
