<svg width="22" height="22" viewBox="0 0 22 22" fill="none" xmlns="http://www.w3.org/2000/svg">
<path fill-rule="evenodd" clip-rule="evenodd" d="M1.5 10.7551C1.5 5.64581 5.6419 1.50391 10.7512 1.50391C12.2295 1.50391 13.6248 1.85009 14.8624 2.46513C15.2333 2.64947 15.6835 2.4982 15.8678 2.12727C16.0521 1.75634 15.9009 1.3062 15.5299 1.12186C14.0895 0.406046 12.4663 0.00390625 10.7512 0.00390625C4.81347 0.00390625 0 4.81738 0 10.7551C0 16.6928 4.81347 21.5063 10.7512 21.5063C16.6889 21.5063 21.5024 16.6928 21.5024 10.7551C21.5024 10.3519 21.4802 9.95362 21.4368 9.56145C21.3913 9.14974 21.0206 8.85288 20.6089 8.8984C20.1972 8.94391 19.9004 9.31456 19.9459 9.72626C19.9832 10.0638 20.0024 10.4071 20.0024 10.7551C20.0024 15.8644 15.8605 20.0063 10.7512 20.0063C5.6419 20.0063 1.5 15.8644 1.5 10.7551ZM21.2838 3.28468C21.5767 2.99179 21.5767 2.51691 21.2838 2.22402C20.9909 1.93113 20.5161 1.93113 20.2232 2.22402L10.7523 11.6949L8.28228 9.22485C7.98939 8.93196 7.51452 8.93196 7.22162 9.22485C6.92873 9.51775 6.92873 9.99262 7.22162 10.2855L10.222 13.2859C10.5149 13.5788 10.9897 13.5788 11.2826 13.2859L21.2838 3.28468Z" fill="white" fill-opacity="0.8"/>
</svg>
