<svg width="25" height="25" viewBox="0 0 25 25" fill="none" xmlns="http://www.w3.org/2000/svg">
<path d="M10.9175 2.34268C11.4718 1.86751 11.749 1.62993 12.0599 1.53938C12.3339 1.45957 12.6249 1.45957 12.8989 1.53938C13.2097 1.62993 13.4869 1.86751 14.0413 2.34268L15.4566 3.5558C15.7061 3.76968 15.8309 3.87662 15.9716 3.95279C16.0965 4.02036 16.2303 4.06986 16.3691 4.09981C16.5255 4.13358 16.6898 4.13358 17.0185 4.13358H18.4252C19.2653 4.13358 19.6853 4.13358 20.0062 4.29707C20.2884 4.44088 20.5179 4.67035 20.6617 4.9526C20.8252 5.27346 20.8252 5.6935 20.8252 6.53358V7.94028C20.8252 8.26893 20.8252 8.43325 20.859 8.58969C20.8889 8.72846 20.9384 8.86227 21.006 8.98713C21.0821 9.12788 21.1891 9.25265 21.403 9.50218L22.6161 10.9175C23.0913 11.4718 23.3288 11.749 23.4194 12.0599C23.4992 12.3339 23.4992 12.6249 23.4194 12.8989C23.3288 13.2097 23.0913 13.4869 22.6161 14.0413L21.403 15.4566C21.1891 15.7061 21.0821 15.8309 21.006 15.9716C20.9384 16.0965 20.8889 16.2303 20.859 16.3691C20.8252 16.5255 20.8252 16.6898 20.8252 17.0185V18.4252C20.8252 19.2653 20.8252 19.6853 20.6617 20.0062C20.5179 20.2884 20.2884 20.5179 20.0062 20.6617C19.6853 20.8252 19.2653 20.8252 18.4252 20.8252H17.0185C16.6898 20.8252 16.5255 20.8252 16.3691 20.859C16.2303 20.8889 16.0965 20.9384 15.9716 21.006C15.8309 21.0821 15.7061 21.1891 15.4566 21.403L14.0413 22.6161C13.4869 23.0913 13.2097 23.3288 12.8989 23.4194C12.6249 23.4992 12.3339 23.4992 12.0599 23.4194C11.749 23.3288 11.4718 23.0913 10.9175 22.6161L9.50218 21.403C9.25265 21.1891 9.12788 21.0821 8.98713 21.006C8.86227 20.9384 8.72846 20.8889 8.58969 20.859C8.43325 20.8252 8.26893 20.8252 7.94028 20.8252H6.49789C5.65781 20.8252 5.23777 20.8252 4.9169 20.6617C4.63466 20.5179 4.40519 20.2884 4.26138 20.0062C4.09789 19.6853 4.09789 19.2653 4.09789 18.4252V17.0108C4.09789 16.6849 4.09789 16.522 4.06465 16.3667C4.03518 16.229 3.98645 16.0962 3.91992 15.9721C3.84491 15.8321 3.73958 15.7078 3.52892 15.4592L2.31864 14.0309C1.85157 13.4797 1.61803 13.2041 1.52892 12.8956C1.45037 12.6237 1.45037 12.3351 1.52892 12.0631C1.61803 11.7546 1.85157 11.479 2.31864 10.9278L3.52892 9.49955C3.73958 9.25094 3.84491 9.12663 3.91992 8.98671C3.98645 8.8626 4.03518 8.72973 4.06465 8.59203C4.09789 8.43679 4.09789 8.27386 4.09789 7.94799V6.53358C4.09789 5.6935 4.09789 5.27346 4.26138 4.9526C4.40519 4.67035 4.63466 4.44088 4.9169 4.29707C5.23777 4.13358 5.65781 4.13358 6.49789 4.13358H7.94028C8.26893 4.13358 8.43325 4.13358 8.58969 4.09981C8.72846 4.06986 8.86227 4.02036 8.98713 3.95279C9.12788 3.87662 9.25265 3.76968 9.50218 3.5558L10.9175 2.34268Z" stroke="white" stroke-opacity="0.8" stroke-width="1.5" stroke-linecap="round" stroke-linejoin="round"/>
<path d="M12.4824 13.5225V8.3064" stroke="white" stroke-opacity="0.8" stroke-width="1.5" stroke-linecap="round" stroke-linejoin="round"/>
<ellipse cx="12.4827" cy="16.6524" rx="1.04323" ry="1.04323" fill="white" fill-opacity="0.8" stroke="white" stroke-opacity="0.8" stroke-width="1.5" stroke-linecap="round" stroke-linejoin="round"/>
</svg>
