<svg width="23" height="23" viewBox="0 0 23 23" fill="none" xmlns="http://www.w3.org/2000/svg">
<path d="M0.996094 10.6C0.996094 7.23968 0.996094 5.55953 1.65005 4.27606C2.22529 3.14708 3.14318 2.2292 4.27215 1.65396C5.55562 1 7.23578 1 10.5961 1H11.8969C15.2572 1 16.9374 1 18.2209 1.65396C19.3498 2.2292 20.2677 3.14708 20.843 4.27606C21.4969 5.55953 21.4969 7.23968 21.4969 10.6V14.5014C21.4969 14.9083 21.4969 15.1117 21.4841 15.3076C21.3977 16.6257 20.8788 17.8785 20.0078 18.8716C19.8784 19.0192 19.7345 19.1631 19.4468 19.4507V19.4507C19.1591 19.7384 19.0153 19.8823 18.8677 20.0117C17.8746 20.8827 16.6218 21.4017 15.3037 21.488C15.1078 21.5008 14.9044 21.5008 14.4975 21.5008H10.5961C7.23578 21.5008 5.55562 21.5008 4.27215 20.8469C3.14318 20.2716 2.22529 19.3537 1.65005 18.2248C0.996094 16.9413 0.996094 15.2611 0.996094 11.9008V10.6Z" stroke="#22272F" stroke-width="1.5" stroke-linecap="round" stroke-linejoin="round"/>
<path d="M15.3477 20.9883V18.5505C15.3477 17.4304 15.3477 16.8704 15.5656 16.4425C15.7574 16.0662 16.0634 15.7603 16.4397 15.5685C16.8675 15.3505 17.4276 15.3505 18.5477 15.3505H20.9854" stroke="#22272F" stroke-width="1.5" stroke-linecap="round" stroke-linejoin="round"/>
<path d="M6.125 6.12524H14.3253" stroke="#22272F" stroke-width="1.5" stroke-linecap="round" stroke-linejoin="round"/>
<path d="M6.125 10.2253H12.2752" stroke="#22272F" stroke-width="1.5" stroke-linecap="round" stroke-linejoin="round"/>
<path d="M6.125 14.3254H8.17508" stroke="#22272F" stroke-width="1.5" stroke-linecap="round" stroke-linejoin="round"/>
</svg>
