<svg width="22" height="24" viewBox="0 0 22 24" fill="none" xmlns="http://www.w3.org/2000/svg">
<path fill-rule="evenodd" clip-rule="evenodd" d="M9.91657 1.85294e-07H9.94868H11.3476H11.3797H11.3797C12.1926 -7.02692e-06 12.8482 -1.2844e-05 13.3791 0.043364C13.9257 0.088026 14.4059 0.182385 14.8501 0.408726C15.5557 0.768251 16.1294 1.34193 16.4889 2.04754C16.7152 2.49175 16.8096 2.9719 16.8543 3.51853C16.8976 4.04942 16.8976 4.705 16.8976 5.51779V5.51788V5.55V6.66191C17.5827 6.72226 18.1663 6.84487 18.7006 7.11712C19.5944 7.57252 20.3211 8.29917 20.7765 9.19294C21.0573 9.74412 21.1789 10.3477 21.2372 11.0611C21.2942 11.7587 21.2942 12.6242 21.2942 13.7164V13.7494V16.3479V16.3809C21.2942 17.4731 21.2942 18.3386 21.2372 19.0362C21.1789 19.7496 21.0573 20.3532 20.7765 20.9044C20.3211 21.7981 19.5944 22.5248 18.7006 22.9802C18.1495 23.261 17.5458 23.3826 16.8325 23.4409C16.1348 23.4979 15.2693 23.4979 14.1772 23.4979H14.1442H7.14609H7.11307C6.02094 23.4979 5.15545 23.4979 4.45783 23.4409C3.74444 23.3826 3.14081 23.261 2.58964 22.9802C1.69587 22.5248 0.969212 21.7981 0.513813 20.9044C0.232976 20.3532 0.111368 19.7496 0.0530817 19.0362C-0.00391627 18.3386 -0.00391174 17.4731 -0.00390614 16.3809V16.3479V13.7494V13.7164C-0.00391174 12.6243 -0.00391627 11.7588 0.0530817 11.0611C0.111368 10.3477 0.232976 9.74412 0.513813 9.19294C0.969212 8.29917 1.69587 7.57252 2.58964 7.11712C3.12551 6.84407 3.71097 6.72155 4.39868 6.66139V5.55V5.5179C4.39867 4.70506 4.39866 4.04944 4.44204 3.51853C4.4867 2.9719 4.58106 2.49175 4.8074 2.04754C5.16693 1.34193 5.7406 0.768251 6.44621 0.408726C6.89043 0.182386 7.37057 0.088026 7.91721 0.043364C8.44812 -1.28458e-05 9.10373 -7.02692e-06 9.91656 1.85294e-07H9.91657ZM15.3976 5.55V6.60319C15.0255 6.59939 14.62 6.5994 14.1772 6.5994H14.1772H14.1442H7.14609H7.11309H7.11308C6.67271 6.5994 6.2692 6.59939 5.89868 6.60313V5.55C5.89868 4.69755 5.89926 4.10331 5.93706 3.64068C5.97414 3.18681 6.04327 2.92604 6.14391 2.72852C6.35963 2.30516 6.70383 1.96095 7.1272 1.74524C7.32471 1.6446 7.58548 1.57547 8.03936 1.53838C8.50199 1.50058 9.09622 1.5 9.94868 1.5H11.3476C12.2001 1.5 12.7943 1.50058 13.2569 1.53838C13.7108 1.57547 13.9716 1.6446 14.1691 1.74524C14.5925 1.96095 14.9367 2.30516 15.1524 2.72852C15.253 2.92604 15.3222 3.18681 15.3592 3.64068C15.397 4.10331 15.3976 4.69755 15.3976 5.55ZM4.57998 8.1514C3.95935 8.20211 3.5751 8.29849 3.27062 8.45363C2.6591 8.76521 2.16191 9.2624 1.85032 9.87393C1.69519 10.1784 1.59881 10.5627 1.5481 11.1833C1.49668 11.8127 1.49609 12.6169 1.49609 13.7494V16.3479C1.49609 17.4804 1.49668 18.2847 1.5481 18.914C1.59881 19.5347 1.69519 19.9189 1.85032 20.2234C2.16191 20.8349 2.6591 21.3321 3.27062 21.6437C3.5751 21.7988 3.95935 21.8952 4.57998 21.9459C5.20936 21.9973 6.01361 21.9979 7.14609 21.9979H14.1442C15.2767 21.9979 16.0809 21.9973 16.7103 21.9459C17.3309 21.8952 17.7152 21.7988 18.0197 21.6437C18.6312 21.3321 19.1284 20.8349 19.44 20.2234C19.5951 19.9189 19.6915 19.5347 19.7422 18.914C19.7936 18.2847 19.7942 17.4804 19.7942 16.3479V13.7494C19.7942 12.6169 19.7936 11.8127 19.7422 11.1833C19.6915 10.5627 19.5951 10.1784 19.44 9.87393C19.1284 9.2624 18.6312 8.76521 18.0197 8.45363C17.7152 8.29849 17.3309 8.20211 16.7103 8.1514C16.0809 8.09998 15.2767 8.0994 14.1442 8.0994H7.14609C6.01361 8.0994 5.20936 8.09998 4.57998 8.1514ZM11.3946 13.9487C11.3946 13.5345 11.0588 13.1987 10.6446 13.1987C10.2304 13.1987 9.89457 13.5345 9.89457 13.9487V16.1485C9.89457 16.5627 10.2304 16.8985 10.6446 16.8985C11.0588 16.8985 11.3946 16.5627 11.3946 16.1485V13.9487Z" fill="black"/>
</svg>
