<svg width="23" height="21" viewBox="0 0 23 21" fill="none" xmlns="http://www.w3.org/2000/svg">
<path d="M14.4102 8.55584C16.5646 8.55584 18.3111 6.80932 18.3111 4.65487C18.3111 2.50043 16.5646 0.753906 14.4102 0.753906" stroke="white" stroke-opacity="0.8" stroke-width="1.5" stroke-linecap="round" stroke-linejoin="round"/>
<circle cx="7.58066" cy="4.65487" r="3.90097" stroke="white" stroke-opacity="0.8" stroke-width="1.5" stroke-linecap="round" stroke-linejoin="round"/>
<path d="M0.753906 17.1379C0.753906 14.5526 2.84974 12.4568 5.43507 12.4568H9.72613C12.3115 12.4568 14.4073 14.5526 14.4073 17.1379V17.1379C14.4073 18.8615 13.0101 20.2587 11.2865 20.2587H3.87468C2.15113 20.2587 0.753906 18.8615 0.753906 17.1379V17.1379Z" stroke="white" stroke-opacity="0.8" stroke-width="1.5" stroke-linecap="round" stroke-linejoin="round"/>
<path d="M16.3555 20.2587H19.0861C20.8097 20.2587 22.2069 18.8615 22.2069 17.1379V17.1379C22.2069 14.5526 20.1111 12.4568 17.5258 12.4568H16.3555" stroke="white" stroke-opacity="0.8" stroke-width="1.5" stroke-linecap="round" stroke-linejoin="round"/>
</svg>
