<svg width="23" height="21" viewBox="0 0 23 21" fill="none" xmlns="http://www.w3.org/2000/svg">
<path d="M1.77762 1L4.68143 3.90382M20.2747 19.4971L17.3709 16.5933M17.3709 16.5933C15.7832 17.697 13.6856 18.4695 11.0262 18.4695C3.83285 18.4695 0.75 12.8176 0.75 10.2486C0.75 8.62931 1.97471 5.78536 4.68143 3.90382M17.3709 16.5933L13.206 12.4284M4.68143 3.90382L8.84622 8.0686M8.84622 8.0686C8.28831 8.62649 7.94323 9.39723 7.94323 10.2486C7.94323 11.9512 9.32347 13.3314 11.0261 13.3314C11.8774 13.3314 12.6481 12.9863 13.206 12.4284M8.84622 8.0686L13.206 12.4284M19.6784 14.359C19.8052 14.1885 19.9243 14.017 20.0358 13.8452C20.8965 12.5186 21.3023 11.1807 21.3023 10.2486C21.3023 7.67951 18.2195 2.02762 11.0262 2.02762C9.8989 2.02762 8.87256 2.16642 7.94323 2.41041C7.76857 2.45626 7.59734 2.50583 7.42951 2.55889" stroke="#22272F" stroke-width="1.5" stroke-linecap="round"/>
</svg>
