<svg width="24" height="24" viewBox="0 0 24 24" fill="none" xmlns="http://www.w3.org/2000/svg">
<path d="M20.8788 21.6909L21.4091 22.2213L20.8788 21.6909ZM19.4573 22.8648L19.7241 23.5657H19.7241L19.4573 22.8648ZM21.6897 20.88L21.1593 20.3496L21.6897 20.88ZM22.8634 19.4583L23.5644 19.7251L22.8634 19.4583ZM22.9549 18.3523L22.2197 18.5002L22.2197 18.5003L22.9549 18.3523ZM22.0309 16.7571L21.4206 17.193V17.193L22.0309 16.7571ZM20.9645 15.264L21.5748 14.8281L20.9645 15.264ZM20.6205 13.5238L21.3591 13.6538V13.6538L20.6205 13.5238ZM20.6205 10.4674L19.8819 10.5973V10.5973L20.6205 10.4674ZM20.9646 8.72718L21.5749 9.16309L20.9646 8.72718ZM22.0305 7.23473L22.6408 7.67063L22.6408 7.67063L22.0305 7.23473ZM22.9546 5.63949L22.2193 5.49156L22.9546 5.63949ZM22.863 4.53346L23.564 4.26668L23.564 4.26668L22.863 4.53346ZM21.6893 3.11186L21.159 3.64217V3.64217L21.6893 3.11186ZM20.8784 2.30087L21.4087 1.77056L21.4087 1.77056L20.8784 2.30087ZM19.4569 1.12705L19.1901 1.82799V1.82799L19.4569 1.12705ZM18.351 1.03552L18.4989 1.77078V1.77078L18.351 1.03552ZM16.7558 1.95965L16.3199 1.34937V1.34937L16.7558 1.95965ZM15.2634 3.02576L15.6994 3.63604V3.63604L15.2634 3.02576ZM13.5231 3.36992L13.6531 2.63126V2.63126L13.5231 3.36992ZM10.4677 3.37002L10.3377 2.63137V2.63137L10.4677 3.37002ZM8.72729 3.0259L9.16324 2.41561L8.72729 3.0259ZM7.23449 1.95952L6.79853 2.56981L6.79854 2.56981L7.23449 1.95952ZM5.63938 1.03539L5.78733 0.300129V0.300128L5.63938 1.03539ZM4.53344 1.12693L4.26662 0.425996L4.53344 1.12693ZM3.11194 2.30074L3.6423 2.83105V2.83105L3.11194 2.30074ZM2.30102 3.11173L1.77067 2.58143V2.58143L2.30102 3.11173ZM1.12729 4.53334L1.82824 4.80012L1.82824 4.80012L1.12729 4.53334ZM1.03576 5.63936L1.77103 5.49144L1.03576 5.63936ZM1.95982 7.2346L2.57014 6.79869L1.95982 7.2346ZM3.02667 8.72831L2.41636 9.16421L2.41636 9.16421L3.02667 8.72831ZM3.37077 10.4682L2.63211 10.3384H2.63211L3.37077 10.4682ZM3.37081 13.5229L4.10947 13.393L3.37081 13.5229ZM3.02672 15.2629L3.63703 15.6988H3.63703L3.02672 15.2629ZM1.95945 16.7572L2.56976 17.1931H2.56976L1.95945 16.7572ZM1.03539 18.3524L1.77065 18.5004L1.03539 18.3524ZM1.12692 19.4585L0.425972 19.7253L0.425972 19.7253L1.12692 19.4585ZM2.30064 20.8801L2.83099 20.3498H2.83099L2.30064 20.8801ZM3.11157 21.6911L3.64192 21.1608H3.64192L3.11157 21.6911ZM4.53306 22.8649L4.79988 22.1639L4.79988 22.1639L4.53306 22.8649ZM5.639 22.9564L5.49105 22.2212H5.49105L5.639 22.9564ZM7.23411 22.0323L6.79816 21.422L6.79816 21.422L7.23411 22.0323ZM8.72791 20.9652L8.29196 20.3549H8.29196L8.72791 20.9652ZM10.4682 20.621L10.3383 21.3597L10.4682 20.621ZM13.5226 20.6212L13.3928 19.8825L13.5226 20.6212ZM15.2628 20.9653L14.8268 21.5756V21.5756L15.2628 20.9653ZM16.7562 22.0322L17.2443 21.4627C17.2275 21.4483 17.2101 21.4347 17.1922 21.4219L16.7562 22.0322ZM16.7562 22.0322L16.2682 22.6016C16.2911 22.6213 16.3151 22.6395 16.3402 22.6562L16.7562 22.0322ZM16.7563 22.0322L17.1922 21.4219C17.1857 21.4172 17.179 21.4126 17.1723 21.4082L16.7563 22.0322ZM18.3513 22.9563L18.4993 22.221H18.4993L18.3513 22.9563ZM20.3484 21.1606C20 21.5091 19.7676 21.7408 19.5738 21.9073C19.3872 22.0677 19.2774 22.1307 19.1905 22.1638L19.7241 23.5657C20.0371 23.4465 20.2976 23.2631 20.5515 23.0449C20.7982 22.8329 21.0766 22.5538 21.4091 22.2213L20.3484 21.1606ZM21.1593 20.3496L20.3484 21.1606L21.4091 22.2213L22.22 21.4103L21.1593 20.3496ZM22.1625 19.1916C22.1294 19.2786 22.0664 19.3884 21.906 19.575C21.7395 19.7688 21.5078 20.0012 21.1593 20.3496L22.22 21.4103C22.5526 21.0777 22.8316 20.7993 23.0436 20.5526C23.2618 20.2987 23.4452 20.0382 23.5644 19.7251L22.1625 19.1916ZM22.2197 18.5003C22.2662 18.7315 22.2464 18.9711 22.1625 19.1916L23.5644 19.7251C23.7489 19.2402 23.7925 18.713 23.6902 18.2044L22.2197 18.5003ZM21.4206 17.193C21.707 17.594 21.8973 17.8613 22.0297 18.0799C22.1572 18.2903 22.2013 18.409 22.2197 18.5002L23.6902 18.2044C23.6241 17.876 23.4861 17.5889 23.3126 17.3026C23.144 17.0243 22.9145 16.7039 22.6412 16.3212L21.4206 17.193ZM20.3542 15.6999L21.4206 17.193L22.6412 16.3212L21.5748 14.8281L20.3542 15.6999ZM19.8818 13.3938C19.7485 14.1517 19.8554 15.0016 20.3542 15.6999L21.5748 14.8281C21.359 14.526 21.2794 14.1068 21.3591 13.6538L19.8818 13.3938ZM20.0034 11.9955C20.0034 12.4731 19.9616 12.9403 19.8818 13.3938L21.3591 13.6538C21.454 13.1148 21.5034 12.5606 21.5034 11.9955H20.0034ZM19.8819 10.5973C19.9616 11.0508 20.0034 11.518 20.0034 11.9955H21.5034C21.5034 11.4305 21.454 10.8763 21.3592 10.3374L19.8819 10.5973ZM20.3542 8.29127C19.8555 8.98961 19.7485 9.83948 19.8819 10.5973L21.3592 10.3374C21.2795 9.88435 21.3591 9.46524 21.5749 9.16309L20.3542 8.29127ZM21.4202 6.79882L20.3542 8.29127L21.5749 9.16309L22.6408 7.67063L21.4202 6.79882ZM22.2193 5.49156C22.2009 5.58284 22.1569 5.70148 22.0293 5.91195C21.8969 6.13048 21.7066 6.39779 21.4202 6.79882L22.6408 7.67063C22.9142 7.28795 23.1437 6.96747 23.3122 6.68923C23.4857 6.40292 23.6238 6.1158 23.6898 5.78742L22.2193 5.49156ZM22.1621 4.80025C22.246 5.02068 22.2658 5.26034 22.2193 5.49156L23.6898 5.78742C23.7922 5.27878 23.7485 4.75157 23.564 4.26668L22.1621 4.80025ZM21.159 3.64217C21.5074 3.99065 21.7391 4.22304 21.9056 4.41682C22.066 4.60346 22.129 4.71324 22.1621 4.80025L23.564 4.26668C23.4448 3.95362 23.2614 3.69311 23.0433 3.43921C22.8312 3.19247 22.5522 2.91409 22.2197 2.58155L21.159 3.64217ZM20.348 2.83118L21.159 3.64217L22.2197 2.58155L21.4087 1.77056L20.348 2.83118ZM19.1901 1.82799C19.2771 1.8611 19.3868 1.92409 19.5734 2.08448C19.7672 2.25102 19.9996 2.48269 20.348 2.83118L21.4087 1.77056C21.0762 1.43802 20.7979 1.15893 20.5511 0.946889C20.2973 0.7287 20.0368 0.545289 19.7237 0.426121L19.1901 1.82799ZM18.4989 1.77078C18.7301 1.72426 18.9697 1.74409 19.1901 1.82799L19.7237 0.426122C19.2388 0.241543 18.7116 0.197907 18.203 0.300254L18.4989 1.77078ZM17.1918 2.56993C17.5928 2.28348 17.8601 2.09316 18.0786 1.96075C18.289 1.83322 18.4077 1.78914 18.4989 1.77078L18.203 0.300254C17.8746 0.366332 17.5875 0.504419 17.3012 0.677901C17.023 0.846497 16.7025 1.07602 16.3199 1.34937L17.1918 2.56993ZM15.6994 3.63604L17.1918 2.56993L16.3199 1.34937L14.8275 2.41548L15.6994 3.63604ZM13.3932 4.10858C14.1511 4.24189 15.001 4.1349 15.6994 3.63604L14.8275 2.41547C14.5253 2.63132 14.1062 2.71096 13.6531 2.63126L13.3932 4.10858ZM11.9957 3.98717C12.473 3.98717 12.9399 4.02884 13.3932 4.10858L13.6531 2.63126C13.1143 2.5365 12.5605 2.48717 11.9957 2.48717V3.98717ZM10.5977 4.10867C11.0512 4.02888 11.5183 3.98717 11.9957 3.98717V2.48717C11.4307 2.48717 10.8767 2.53654 10.3377 2.63137L10.5977 4.10867ZM8.29134 3.63618C8.98975 4.13509 9.83976 4.24204 10.5977 4.10867L10.3377 2.63137C9.88462 2.7111 9.46542 2.63147 9.16324 2.41561L8.29134 3.63618ZM6.79854 2.56981L8.29134 3.63618L9.16324 2.41561L7.67044 1.34924L6.79854 2.56981ZM5.49143 1.77065C5.58267 1.78901 5.70129 1.8331 5.91174 1.96062C6.13025 2.09303 6.39753 2.28335 6.79853 2.56981L7.67044 1.34924C7.28779 1.0759 6.96733 0.846371 6.68911 0.677775C6.40282 0.504294 6.11571 0.366206 5.78733 0.300129L5.49143 1.77065ZM4.80026 1.82786C5.02064 1.74397 5.26025 1.72414 5.49143 1.77065L5.78733 0.300128C5.2787 0.197781 4.7515 0.241418 4.26662 0.425996L4.80026 1.82786ZM3.6423 2.83105C3.99075 2.48257 4.22312 2.25089 4.41689 2.08435C4.60351 1.92396 4.71327 1.86097 4.80026 1.82786L4.26662 0.425996C3.95357 0.545163 3.69306 0.728575 3.43919 0.946764C3.19247 1.15881 2.9141 1.4379 2.58159 1.77043L3.6423 2.83105ZM2.83137 3.64204L3.6423 2.83105L2.58159 1.77043L1.77067 2.58143L2.83137 3.64204ZM1.82824 4.80012C1.86136 4.71311 1.92435 4.60334 2.08473 4.4167C2.25125 4.22291 2.48291 3.99053 2.83137 3.64204L1.77067 2.58143C1.43815 2.91396 1.15909 3.19235 0.947061 3.43909C0.728889 3.69298 0.545499 3.9535 0.426348 4.26655L1.82824 4.80012ZM1.77103 5.49144C1.72451 5.26021 1.74434 5.02055 1.82824 4.80012L0.426348 4.26655C0.241794 4.75145 0.198164 5.27866 0.300497 5.78729L1.77103 5.49144ZM2.57014 6.79869C2.28371 6.39766 2.0934 6.13035 1.961 5.91182C1.83348 5.70135 1.78939 5.58272 1.77103 5.49144L0.300497 5.78729C0.366565 6.11568 0.504632 6.4028 0.678099 6.6891C0.84668 6.96735 1.07619 7.28783 1.34951 7.67051L2.57014 6.79869ZM3.63699 8.2924L2.57014 6.79869L1.34951 7.67051L2.41636 9.16421L3.63699 8.2924ZM4.10944 10.5981C4.24268 9.84037 4.13569 8.99064 3.63699 8.2924L2.41636 9.16421C2.63213 9.46632 2.71176 9.88537 2.63211 10.3384L4.10944 10.5981ZM3.98808 11.9955C3.98808 11.5183 4.02974 11.0514 4.10944 10.5981L2.63211 10.3384C2.53739 10.877 2.48808 11.4308 2.48808 11.9955H3.98808ZM4.10947 13.393C4.02975 12.9397 3.98808 12.4728 3.98808 11.9955H2.48808C2.48808 12.5603 2.5374 13.1141 2.63214 13.6528L4.10947 13.393ZM3.63703 15.6988C4.13575 15.0006 4.24273 14.1508 4.10947 13.393L2.63214 13.6528C2.7118 14.1058 2.63219 14.5249 2.4164 14.827L3.63703 15.6988ZM2.56976 17.1931L3.63703 15.6988L2.4164 14.827L1.34913 16.3213L2.56976 17.1931ZM1.77065 18.5004C1.78902 18.4091 1.83311 18.2905 1.96062 18.08C2.09303 17.8615 2.28333 17.5941 2.56976 17.1931L1.34913 16.3213C1.07581 16.704 0.846304 17.0245 0.677723 17.3027C0.504256 17.589 0.366189 17.8761 0.300121 18.2045L1.77065 18.5004ZM1.82786 19.1917C1.74397 18.9713 1.72413 18.7316 1.77065 18.5004L0.300121 18.2045C0.197788 18.7132 0.241418 19.2404 0.425972 19.7253L1.82786 19.1917ZM2.83099 20.3498C2.48253 20.0013 2.25087 19.7689 2.08435 19.5751C1.92397 19.3885 1.86098 19.2787 1.82786 19.1917L0.425972 19.7253C0.545123 20.0383 0.728513 20.2988 0.946685 20.5527C1.15871 20.7995 1.43778 21.0778 1.77029 21.4104L2.83099 20.3498ZM3.64192 21.1608L2.83099 20.3498L1.77029 21.4104L2.58122 22.2214L3.64192 21.1608ZM4.79988 22.1639C4.71289 22.1308 4.60313 22.0679 4.41651 21.9075C4.22274 21.7409 3.99038 21.5092 3.64192 21.1608L2.58122 22.2214C2.91373 22.5539 3.19209 22.833 3.43881 23.045C3.69269 23.2632 3.95319 23.4466 4.26624 23.5658L4.79988 22.1639ZM5.49105 22.2212C5.25988 22.2677 5.02027 22.2478 4.79988 22.1639L4.26624 23.5658C4.75112 23.7504 5.27832 23.794 5.78695 23.6917L5.49105 22.2212ZM6.79816 21.422C6.39716 21.7085 6.12987 21.8988 5.91136 22.0312C5.70091 22.1587 5.5823 22.2028 5.49105 22.2212L5.78695 23.6917C6.11533 23.6256 6.40245 23.4875 6.68873 23.314C6.96696 23.1454 7.28741 22.9159 7.67006 22.6426L6.79816 21.422ZM8.29196 20.3549L6.79816 21.422L7.67006 22.6426L9.16386 21.5755L8.29196 20.3549ZM10.5981 19.8824C9.84026 19.7491 8.99032 19.8561 8.29196 20.3549L9.16386 21.5755C9.46602 21.3596 9.88518 21.28 10.3383 21.3597L10.5981 19.8824ZM11.9957 20.0038C11.5184 20.0038 11.0515 19.9621 10.5981 19.8824L10.3383 21.3597C10.877 21.4545 11.4309 21.5038 11.9957 21.5038V20.0038ZM13.3928 19.8825C12.9396 19.9622 12.4728 20.0038 11.9957 20.0038V21.5038C12.5603 21.5038 13.114 21.4545 13.6525 21.3598L13.3928 19.8825ZM15.6987 20.3551C15.0004 19.8562 14.1506 19.7492 13.3928 19.8825L13.6525 21.3598C14.1056 21.2802 14.5247 21.3598 14.8268 21.5756L15.6987 20.3551ZM17.1922 21.4219L15.6987 20.3551L14.8268 21.5756L16.3203 22.6424L17.1922 21.4219ZM17.2443 21.4627L17.2443 21.4627L16.2681 22.6016L16.2682 22.6016L17.2443 21.4627ZM17.1723 21.4082L17.1723 21.4081L16.3402 22.6562L16.3403 22.6562L17.1723 21.4082ZM18.4993 22.221C18.408 22.2027 18.2894 22.1586 18.079 22.0311C17.8605 21.8987 17.5932 21.7084 17.1922 21.4219L16.3203 22.6425C16.703 22.9158 17.0234 23.1453 17.3016 23.3139C17.5879 23.4874 17.875 23.6255 18.2034 23.6916L18.4993 22.221ZM19.1905 22.1638C18.9701 22.2477 18.7305 22.2675 18.4993 22.221L18.2034 23.6916C18.712 23.7939 19.2392 23.7503 19.7241 23.5657L19.1905 22.1638ZM14.5272 11.9958C14.5272 13.3955 13.3926 14.5302 11.9931 14.5302V16.0302C14.2211 16.0302 16.0272 14.2239 16.0272 11.9958H14.5272ZM11.9931 9.46143C13.3926 9.46143 14.5272 10.596 14.5272 11.9958H16.0272C16.0272 9.76773 14.2211 7.96143 11.9931 7.96143V9.46143ZM9.45898 11.9958C9.45898 10.596 10.5936 9.46143 11.9931 9.46143V7.96143C9.76506 7.96143 7.95898 9.76773 7.95898 11.9958H9.45898ZM11.9931 14.5302C10.5936 14.5302 9.45898 13.3955 9.45898 11.9958H7.95898C7.95898 14.2239 9.76506 16.0302 11.9931 16.0302V14.5302Z" fill="black"/>
</svg>
