<svg width="23" height="23" viewBox="0 0 23 23" fill="none" xmlns="http://www.w3.org/2000/svg">
<path d="M1 10.6039C1 7.24359 1 5.56343 1.65396 4.27996C2.2292 3.15099 3.14708 2.23311 4.27606 1.65787C5.55953 1.00391 7.23969 1.00391 10.6 1.00391H11.9008C15.2611 1.00391 16.9413 1.00391 18.2248 1.65787C19.3537 2.23311 20.2716 3.15099 20.8469 4.27996C21.5008 5.56343 21.5008 7.24359 21.5008 10.6039V14.5053C21.5008 14.9122 21.5008 15.1156 21.488 15.3115C21.4017 16.6296 20.8827 17.8824 20.0117 18.8755C19.8823 19.0231 19.7384 19.167 19.4507 19.4547V19.4547C19.1631 19.7423 19.0192 19.8862 18.8716 20.0156C17.8785 20.8866 16.6257 21.4056 15.3076 21.4919C15.1117 21.5047 14.9083 21.5047 14.5014 21.5047H10.6C7.23968 21.5047 5.55953 21.5047 4.27606 20.8508C3.14708 20.2755 2.2292 19.3576 1.65396 18.2287C1 16.9452 1 15.265 1 11.9047V10.6039Z" stroke="white" stroke-opacity="0.8" stroke-width="1.5" stroke-linecap="round" stroke-linejoin="round"/>
<path d="M15.3516 20.9922V18.5544C15.3516 17.4343 15.3516 16.8743 15.5695 16.4464C15.7613 16.0701 16.0673 15.7642 16.4436 15.5724C16.8714 15.3544 17.4315 15.3544 18.5516 15.3544H20.9893" stroke="white" stroke-opacity="0.8" stroke-width="1.5" stroke-linecap="round" stroke-linejoin="round"/>
<path d="M6.12695 6.12891H14.3273" stroke="white" stroke-opacity="0.8" stroke-width="1.5" stroke-linecap="round" stroke-linejoin="round"/>
<path d="M6.12695 10.2295H12.2772" stroke="white" stroke-opacity="0.8" stroke-width="1.5" stroke-linecap="round" stroke-linejoin="round"/>
<path d="M6.12695 14.3296H8.17704" stroke="white" stroke-opacity="0.8" stroke-width="1.5" stroke-linecap="round" stroke-linejoin="round"/>
</svg>
