<svg width="22" height="22" viewBox="0 0 22 22" fill="none" xmlns="http://www.w3.org/2000/svg">
<path fill-rule="evenodd" clip-rule="evenodd" d="M1.49609 10.7512C1.49609 5.6419 5.63799 1.5 10.7473 1.5C12.2256 1.5 13.6209 1.84619 14.8585 2.46123C15.2294 2.64556 15.6796 2.4943 15.8639 2.12336C16.0482 1.75243 15.897 1.30229 15.526 1.11795C14.0856 0.40214 12.4624 0 10.7473 0C4.80957 0 -0.00390625 4.81347 -0.00390625 10.7512C-0.00390625 16.6889 4.80957 21.5024 10.7473 21.5024C16.685 21.5024 21.4985 16.6889 21.4985 10.7512C21.4985 10.348 21.4763 9.94971 21.4329 9.55754C21.3874 9.14584 21.0167 8.84898 20.605 8.89449C20.1933 8.94 19.8965 9.31065 19.942 9.72235C19.9793 10.0599 19.9985 10.4032 19.9985 10.7512C19.9985 15.8605 15.8566 20.0024 10.7473 20.0024C5.63799 20.0024 1.49609 15.8605 1.49609 10.7512ZM21.2799 3.28077C21.5728 2.98788 21.5728 2.51301 21.2799 2.22011C20.987 1.92722 20.5122 1.92722 20.2193 2.22011L10.7484 11.691L8.27838 9.22095C7.98548 8.92805 7.51061 8.92805 7.21772 9.22095C6.92482 9.51384 6.92482 9.98871 7.21772 10.2816L10.2181 13.282C10.511 13.5749 10.9858 13.5749 11.2787 13.282L21.2799 3.28077Z" fill="#22272F"/>
</svg>
