<svg width="23" height="22" viewBox="0 0 23 22" fill="none" xmlns="http://www.w3.org/2000/svg">
<path fill-rule="evenodd" clip-rule="evenodd" d="M7.69329 1.50005C9.27605 1.50005 9.88532 1.50972 10.3559 1.66636C11.3276 1.98973 12.0899 2.75211 12.4133 3.72373C12.5699 4.19435 12.5796 4.80361 12.5796 6.38637V6.89931C12.5796 7.31352 12.9154 7.64931 13.3296 7.64931C13.7438 7.64931 14.0796 7.31352 14.0796 6.89931V6.38637L14.0796 6.23033V6.23032C14.08 4.8575 14.0802 3.98206 13.8366 3.25004C13.3639 1.82999 12.2497 0.715738 10.8296 0.243113C10.0976 -0.000518856 9.22216 -0.000307498 7.84934 2.39638e-05L7.69329 4.89381e-05L7.03981 4.89381e-05L7.00837 4.88189e-05C5.96685 4.35141e-05 5.14145 3.93418e-05 4.47516 0.05201C3.79402 0.105139 3.21647 0.215934 2.68562 0.472104C1.71884 0.938637 0.938591 1.71888 0.472058 2.68566C0.215887 3.21651 0.105093 3.79406 0.0519633 4.47521C-6.3037e-06 5.14148 -3.46956e-06 5.96686 1.06861e-07 7.00834L1.06861e-07 7.00841L1.06861e-07 7.03985L1.06861e-07 14.9578L1.06861e-07 14.9892C-5.19795e-06 16.0307 -9.42988e-06 16.8561 0.0519596 17.5224C0.105087 18.2035 0.215878 18.7811 0.472042 19.3119C0.938578 20.2787 1.71884 21.059 2.68564 21.5255C3.21649 21.7817 3.79403 21.8925 4.47516 21.9456C5.14143 21.9976 5.9668 21.9976 7.00828 21.9976H7.03977H7.6923L7.84843 21.9976C9.22206 21.9979 10.098 21.9981 10.8304 21.7542C12.2498 21.2815 13.3636 20.1678 13.8362 18.7484C14.0801 18.016 14.0799 17.14 14.0796 15.7664V15.7664L14.0796 15.6103V15.6102L14.0796 15.0984C14.0797 14.6842 13.7439 14.3484 13.3297 14.3483C12.9155 14.3483 12.5797 14.684 12.5796 15.0982L12.5796 15.6102L13.3296 15.6103L12.5796 15.6103C12.5796 17.1939 12.5699 17.8036 12.4131 18.2744C12.0897 19.2456 11.3276 20.0077 10.3565 20.3311C9.8856 20.4879 9.27598 20.4976 7.6923 20.4976H7.03977C5.95984 20.4976 5.19292 20.497 4.59181 20.4502C3.99886 20.4039 3.63045 20.3159 3.33754 20.1746C2.67605 19.8554 2.14218 19.3215 1.82298 18.66C1.68163 18.3671 1.59367 17.9987 1.54742 17.4058C1.50053 16.8047 1.5 16.0377 1.5 14.9578L1.5 7.03985C1.5 5.95991 1.50053 5.19297 1.54742 4.59185C1.59367 3.9989 1.68164 3.63049 1.82299 3.33757C2.14219 2.67609 2.67605 2.14224 3.33753 1.82303C3.63044 1.68168 3.99885 1.59372 4.59181 1.54747C5.19293 1.50058 5.95986 1.50005 7.03981 1.50005L7.69329 1.50005ZM18.0468 6.36252C17.7506 6.07296 17.2758 6.07832 16.9862 6.37451C16.6967 6.67069 16.702 7.14553 16.9982 7.4351L19.8757 10.2483L8.0878 10.2483C7.67358 10.2483 7.3378 10.5841 7.3378 10.9983C7.3378 11.4125 7.67358 11.7483 8.0878 11.7483L19.8757 11.7483L16.9982 14.5615C16.702 14.8511 16.6967 15.3259 16.9862 15.6221C17.2758 15.9183 17.7506 15.9237 18.0468 15.6341L22.24 11.5346C22.3844 11.3935 22.4657 11.2002 22.4657 10.9983C22.4657 10.7965 22.3844 10.6031 22.24 10.462L18.0468 6.36252Z" fill="#E62F2F"/>
</svg>
