<svg width="24" height="22" viewBox="0 0 24 22" fill="none" xmlns="http://www.w3.org/2000/svg">
<path fill-rule="evenodd" clip-rule="evenodd" d="M4.5 4.75C4.5 2.95507 5.95507 1.5 7.75 1.5C9.54493 1.5 11 2.95507 11 4.75C11 6.54493 9.54493 8 7.75 8C5.95507 8 4.5 6.54493 4.5 4.75ZM7.75 0C5.12665 0 3 2.12665 3 4.75C3 7.37335 5.12665 9.5 7.75 9.5C10.3734 9.5 12.5 7.37335 12.5 4.75C12.5 2.12665 10.3734 0 7.75 0ZM14.75 0C14.3358 0 14 0.335786 14 0.75C14 1.16421 14.3358 1.5 14.75 1.5C16.5449 1.5 18 2.95507 18 4.75C18 6.54493 16.5449 8 14.75 8C14.3358 8 14 8.33579 14 8.75C14 9.16421 14.3358 9.5 14.75 9.5C17.3734 9.5 19.5 7.37335 19.5 4.75C19.5 2.12665 17.3734 0 14.75 0ZM0 17.55C0 14.4848 2.48482 12 5.55 12H9.95C13.0152 12 15.5 14.4848 15.5 17.55C15.5 19.7315 13.7315 21.5 11.55 21.5H3.95C1.76848 21.5 0 19.7315 0 17.55ZM5.55 13.5C3.31325 13.5 1.5 15.3132 1.5 17.55C1.5 18.9031 2.5969 20 3.95 20H11.55C12.9031 20 14 18.9031 14 17.55C14 15.3132 12.1868 13.5 9.95 13.5H5.55ZM16.75 12C16.3358 12 16 12.3358 16 12.75C16 13.1642 16.3358 13.5 16.75 13.5H17.95C20.1868 13.5 22 15.3132 22 17.55C22 18.9031 20.9031 20 19.55 20H16.75C16.3358 20 16 20.3358 16 20.75C16 21.1642 16.3358 21.5 16.75 21.5H19.55C21.7315 21.5 23.5 19.7315 23.5 17.55C23.5 14.4848 21.0152 12 17.95 12H16.75Z" fill="#22272F"/>
</svg>
