<svg width="22" height="24" viewBox="0 0 22 24" fill="none" xmlns="http://www.w3.org/2000/svg">
<path fill-rule="evenodd" clip-rule="evenodd" d="M9.92048 0.00390625H9.95258H11.3515H11.3836H11.3836C12.1965 0.00389904 12.8521 0.00389322 13.383 0.0472701C13.9296 0.0919321 14.4098 0.186292 14.854 0.412632C15.5596 0.772157 16.1333 1.34583 16.4928 2.05144C16.7191 2.49566 16.8135 2.9758 16.8582 3.52244C16.9015 4.05333 16.9015 4.70891 16.9015 5.5217V5.52178V5.55391V6.66582C17.5866 6.72617 18.1702 6.84878 18.7045 7.12102C19.5983 7.57642 20.325 8.30308 20.7804 9.19685C21.0612 9.74802 21.1828 10.3516 21.2411 11.065C21.2981 11.7627 21.2981 12.6281 21.2981 13.7203V13.7533V16.3518V16.3848C21.2981 17.477 21.2981 18.3425 21.2411 19.0401C21.1828 19.7535 21.0612 20.3571 20.7804 20.9083C20.325 21.802 19.5983 22.5287 18.7045 22.9841C18.1534 23.2649 17.5498 23.3865 16.8364 23.4448C16.1387 23.5018 15.2733 23.5018 14.1811 23.5018H14.1481H7.15H7.11698C6.02484 23.5018 5.15935 23.5018 4.46173 23.4448C3.74834 23.3865 3.14472 23.2649 2.59355 22.9841C1.69978 22.5287 0.973118 21.802 0.517719 20.9083C0.236882 20.3571 0.115274 19.7535 0.0569878 19.0401C-1.01328e-05 18.3425 -5.60284e-06 17.477 0 16.3848V16.3518V13.7533V13.7203C-5.60284e-06 12.6282 -1.01328e-05 11.7627 0.0569878 11.065C0.115274 10.3516 0.236882 9.74802 0.517719 9.19685C0.973118 8.30308 1.69978 7.57642 2.59355 7.12102C3.12942 6.84798 3.71488 6.72545 4.40258 6.66529V5.55391V5.5218C4.40258 4.70896 4.40257 4.05335 4.44595 3.52244C4.49061 2.9758 4.58497 2.49566 4.81131 2.05144C5.17083 1.34583 5.74451 0.772157 6.45012 0.412632C6.89434 0.186292 7.37448 0.0919321 7.92111 0.0472701C8.45202 0.00389322 9.10763 0.00389904 9.92047 0.00390625H9.92048ZM15.4015 5.55391V6.6071C15.0294 6.6033 14.6239 6.6033 14.1811 6.6033H14.1811H14.1481H7.15H7.117H7.11699C6.67662 6.6033 6.2731 6.6033 5.90258 6.60703V5.55391C5.90258 4.70145 5.90317 4.10722 5.94096 3.64459C5.97805 3.19071 6.04718 2.92994 6.14782 2.73243C6.36353 2.30906 6.70774 1.96486 7.1311 1.74914C7.32862 1.6485 7.58939 1.57937 8.04326 1.54229C8.50589 1.50449 9.10013 1.50391 9.95258 1.50391H11.3515C12.204 1.50391 12.7982 1.50449 13.2608 1.54229C13.7147 1.57937 13.9755 1.6485 14.173 1.74914C14.5964 1.96486 14.9406 2.30906 15.1563 2.73243C15.2569 2.92994 15.3261 3.19071 15.3631 3.64459C15.4009 4.10722 15.4015 4.70145 15.4015 5.55391ZM4.58388 8.15531C3.96325 8.20602 3.579 8.3024 3.27453 8.45753C2.663 8.76912 2.16582 9.26631 1.85423 9.87783C1.69909 10.1823 1.60271 10.5666 1.55201 11.1872C1.50058 11.8166 1.5 12.6208 1.5 13.7533V16.3518C1.5 17.4843 1.50058 18.2886 1.55201 18.9179C1.60271 19.5386 1.69909 19.9228 1.85423 20.2273C2.16582 20.8388 2.663 21.336 3.27453 21.6476C3.579 21.8027 3.96325 21.8991 4.58388 21.9498C5.21327 22.0012 6.01752 22.0018 7.15 22.0018H14.1481C15.2806 22.0018 16.0848 22.0012 16.7142 21.9498C17.3348 21.8991 17.7191 21.8027 18.0236 21.6476C18.6351 21.336 19.1323 20.8388 19.4439 20.2273C19.599 19.9228 19.6954 19.5386 19.7461 18.9179C19.7975 18.2886 19.7981 17.4843 19.7981 16.3518V13.7533C19.7981 12.6208 19.7975 11.8166 19.7461 11.1872C19.6954 10.5666 19.599 10.1823 19.4439 9.87783C19.1323 9.26631 18.6351 8.76912 18.0236 8.45753C17.7191 8.3024 17.3348 8.20602 16.7142 8.15531C16.0848 8.10389 15.2806 8.1033 14.1481 8.1033H7.15C6.01752 8.1033 5.21327 8.10389 4.58388 8.15531ZM11.3985 13.9526C11.3985 13.5384 11.0627 13.2026 10.6485 13.2026C10.2343 13.2026 9.89848 13.5384 9.89848 13.9526V16.1524C9.89848 16.5666 10.2343 16.9024 10.6485 16.9024C11.0627 16.9024 11.3985 16.5666 11.3985 16.1524V13.9526Z" fill="white" fill-opacity="0.8"/>
</svg>
