<svg width="3" height="18" viewBox="0 0 3 18" fill="none" xmlns="http://www.w3.org/2000/svg">
<path d="M1.5 2.99998C2.32843 2.99998 3 2.32841 3 1.49999C3 0.671568 2.32843 0 1.5 0C0.671573 0 0 0.671568 0 1.49999C0 2.32841 0.671573 2.99998 1.5 2.99998Z" fill="black" fill-opacity="0.7"/>
<path d="M1.5 10.5C2.32843 10.5 3 9.82841 3 8.99999C3 8.17157 2.32843 7.5 1.5 7.5C0.671573 7.5 0 8.17157 0 8.99999C0 9.82841 0.671573 10.5 1.5 10.5Z" fill="black" fill-opacity="0.7"/>
<path d="M1.5 18C2.32843 18 3 17.3284 3 16.5C3 15.6716 2.32843 15 1.5 15C0.671573 15 0 15.6716 0 16.5C0 17.3284 0.671573 18 1.5 18Z" fill="black" fill-opacity="0.7"/>
</svg>
