<svg width="12" height="12" viewBox="0 0 12 12" fill="none" xmlns="http://www.w3.org/2000/svg">
<path d="M5.99445 0C3.97454 0 2.10011 1.03296 0.994661 2.70639V0.24999C0.994661 0.111995 0.882665 0 0.744671 0C0.606677 0 0.494681 0.111995 0.494681 0.24999V2.74989C0.494681 3.16337 0.831167 3.49985 1.24465 3.49985H3.74455C3.88254 3.49985 3.99454 3.38786 3.99454 3.24986C3.99454 3.11187 3.88254 2.99988 3.74455 2.99988H1.39864C2.4101 1.45444 4.13553 0.499979 5.99445 0.499979C9.02683 0.499979 11.4942 2.96738 11.4942 5.99975C11.4942 9.03212 9.02683 11.4995 5.99445 11.4995C3.03958 11.4995 0.626176 9.18912 0.500181 6.23924C0.493681 6.10125 0.395186 5.98825 0.239692 6.00025C0.102198 6.00625 -0.00529779 6.12275 0.000201979 6.26074C0.137696 9.4791 2.77109 12 5.99445 12C9.30281 12 11.9942 9.30861 11.9942 6.00025C11.9942 2.69189 9.30281 0 5.99445 0Z" fill="black"/>
<path d="M5.74413 3C5.60614 3 5.49414 3.112 5.49414 3.24999V5.99988C5.49414 6.06637 5.52064 6.12987 5.56714 6.17687L7.06707 7.67681C7.11607 7.7258 7.18007 7.7498 7.24407 7.7498C7.30806 7.7498 7.37206 7.7253 7.42106 7.67681C7.51856 7.57931 7.51856 7.42082 7.42106 7.32332L5.99412 5.89638V3.24999C5.99412 3.112 5.88212 3 5.74413 3Z" fill="black"/>
</svg>
