<svg width="11" height="12" viewBox="0 0 11 12" fill="none" xmlns="http://www.w3.org/2000/svg">
<path d="M1.46396 11.9494C0.887663 11.8065 0.472195 11.3341 0.373555 10.7412C-0.077295 8.02646 -0.119646 5.58989 0.244357 3.29186C0.478092 1.81639 1.50309 0.637644 2.85564 0.288549C3.58901 0.0992739 4.35829 0.00218185 5.14205 0C5.92742 0.00218185 6.69671 0.0998194 7.43008 0.288549C8.78262 0.637644 9.80762 1.81639 10.0414 3.29186C10.4054 5.58989 10.363 8.02701 9.91216 10.7412C9.81352 11.3341 9.39591 11.7978 8.82176 11.9494C8.24761 12.1016 7.66006 11.9047 7.28908 11.4351C6.93312 10.9845 5.56931 9.22157 5.56931 9.22157C5.36131 8.95484 4.9244 8.95484 4.7164 9.22157C4.7164 9.22157 3.35259 10.9845 2.99663 11.4351C2.70822 11.7994 2.17427 12.1256 1.46396 11.9494ZM5.14205 0.544916C4.40386 0.547098 3.678 0.638735 2.98752 0.817101C1.84243 1.11274 0.973437 2.11803 0.773476 3.37859C0.418586 5.61716 0.460937 7.99537 0.902137 10.6501C0.977189 11.1029 1.31117 11.3456 1.59905 11.422C1.88586 11.4978 2.29596 11.452 2.57902 11.0936C2.93391 10.6447 4.29611 8.88393 4.29611 8.88393C4.70836 8.3532 5.57789 8.3532 5.98961 8.88393C5.98961 8.88393 7.35181 10.6452 7.7067 11.0936C7.99029 11.452 8.39825 11.4983 8.68667 11.422C8.97454 11.3456 9.30853 11.1034 9.38358 10.6501C9.82478 7.99537 9.86713 5.61662 9.51224 3.37859C9.31228 2.11803 8.44328 1.11274 7.2982 0.817101C6.60772 0.638735 5.88185 0.547098 5.14205 0.544916Z" fill="black"/>
</svg>
