<svg width="20" height="20" viewBox="0 0 20 20" fill="none" xmlns="http://www.w3.org/2000/svg">
<path d="M12.6942 9.54548H10.4544V7.30367C10.4544 7.05276 10.2502 6.84912 9.99874 6.84912C9.74724 6.84912 9.54312 7.05276 9.54312 7.30367V9.54548H7.30328C7.05178 9.54548 6.84766 9.74912 6.84766 10C6.84766 10.2509 7.05178 10.4546 7.30328 10.4546H9.54312V12.6964C9.54312 12.9473 9.74724 13.1509 9.99874 13.1509C10.2502 13.1509 10.4544 12.9473 10.4544 12.6964V10.4546H12.6942C12.9457 10.4546 13.1498 10.2509 13.1498 10C13.1498 9.74912 12.9457 9.54548 12.6942 9.54548Z" fill="white" fill-opacity="0.8"/>
<path d="M9.99726 0C3.57299 0.04 0 3.82 0 9.99182C0 16.3245 3.48369 19.9618 10.0027 20C16.5154 19.9618 19.8797 16.6 20 9.99182C19.8888 3.59 16.3386 0.0409091 9.99726 0ZM10.0027 19.0909C3.99945 19.0555 1.02515 16.0818 0.911245 10C1.02059 4.00455 4.07964 0.946364 9.99635 0.909091C14.0724 0.935455 18.9584 2.53636 19.0878 9.99182C18.9767 16.0791 16.0033 19.0555 10.0018 19.0909H10.0027Z" fill="white" fill-opacity="0.8"/>
</svg>
