<svg width="12" height="12" viewBox="0 0 12 12" fill="none" xmlns="http://www.w3.org/2000/svg">
<path d="M9.378 4.024C9.4745 4.1225 9.4735 4.281 9.375 4.378L6.7125 7C6.3695 7.3355 5.9285 7.5035 5.4875 7.5035C5.051 7.5035 4.614 7.339 4.2725 7.0095L3.1245 5.8775C3.0265 5.7805 3.0255 5.6225 3.122 5.524C3.22 5.4255 3.378 5.4245 3.476 5.5215L4.622 6.6515C5.109 7.122 5.8745 7.12 6.362 6.6425L9.024 4.021C9.1215 3.9245 9.2805 3.9255 9.3775 4.0235L9.378 4.024ZM12 6C12 9.3085 9.3085 12 6 12C2.6915 12 0 9.3085 0 6C0 2.6915 2.6915 0 6 0C9.3085 0 12 2.6915 12 6ZM11.5 6C11.5 2.9675 9.0325 0.5 6 0.5C2.9675 0.5 0.5 2.9675 0.5 6C0.5 9.0325 2.9675 11.5 6 11.5C9.0325 11.5 11.5 9.0325 11.5 6Z" fill="#7DC55D"/>
</svg>
