<svg width="16" height="16" viewBox="0 0 16 16" fill="none" xmlns="http://www.w3.org/2000/svg">
<path d="M16 8C16 8 16 8.00133 16 8.002C15.9987 8.45067 15.8227 8.87133 15.5027 9.186L12.7413 11.904C12.6767 11.968 12.592 12 12.5073 12C12.4213 12 12.3353 11.9667 12.27 11.9007C12.1413 11.77 12.1427 11.5587 12.274 11.4293L15.0353 8.71133C15.1447 8.60333 15.2227 8.474 15.2727 8.334H4.33333C4.14933 8.334 4 8.18467 4 8.00067C4 7.81667 4.14933 7.66733 4.33333 7.66733H15.2733C15.2233 7.52533 15.1453 7.39467 15.0347 7.286L12.274 4.57133C12.1427 4.44267 12.1407 4.23133 12.27 4.1C12.3987 3.968 12.61 3.96667 12.7413 4.096L15.502 6.81067C15.8227 7.12667 16 7.548 16 7.99867C16 7.99867 16 7.99933 16 8ZM7.66667 10C7.48267 10 7.33333 10.1493 7.33333 10.3333V13C7.33333 14.2867 6.28667 15.3333 5 15.3333H3C1.71333 15.3333 0.666667 14.2867 0.666667 13V3C0.666667 1.71333 1.71333 0.666667 3 0.666667H5C6.28667 0.666667 7.33333 1.71333 7.33333 3V5.66667C7.33333 5.85067 7.48267 6 7.66667 6C7.85067 6 8 5.85067 8 5.66667V3C8 1.346 6.654 0 5 0H3C1.346 0 0 1.346 0 3V13C0 14.654 1.346 16 3 16H5C6.654 16 8 14.654 8 13V10.3333C8 10.1493 7.85067 10 7.66667 10Z" fill="#FC4444"/>
</svg>
