<svg width="12" height="12" viewBox="0 0 12 12" fill="none" xmlns="http://www.w3.org/2000/svg">
<path d="M7.927 4.427L6.354 6L7.927 7.573C8.0245 7.6705 8.0245 7.829 7.927 7.9265C7.878 7.9755 7.814 7.9995 7.75 7.9995C7.686 7.9995 7.622 7.975 7.573 7.9265L6 6.3535L4.427 7.9265C4.378 7.9755 4.314 7.9995 4.25 7.9995C4.186 7.9995 4.122 7.975 4.073 7.9265C3.9755 7.829 3.9755 7.6705 4.073 7.573L5.646 6L4.073 4.427C3.9755 4.3295 3.9755 4.171 4.073 4.0735C4.1705 3.976 4.329 3.976 4.4265 4.0735L5.9995 5.6465L7.5725 4.0735C7.67 3.976 7.8285 3.976 7.926 4.0735C8.0235 4.171 8.0235 4.3295 7.926 4.427H7.927ZM12 6C12 9.3085 9.3085 12 6 12C2.6915 12 0 9.3085 0 6C0 2.6915 2.6915 0 6 0C9.3085 0 12 2.6915 12 6ZM11.5 6C11.5 2.9675 9.0325 0.5 6 0.5C2.9675 0.5 0.5 2.9675 0.5 6C0.5 9.0325 2.9675 11.5 6 11.5C9.0325 11.5 11.5 9.0325 11.5 6Z" fill="#D13131"/>
</svg>
