<svg width="12" height="12" viewBox="0 0 12 12" fill="none" xmlns="http://www.w3.org/2000/svg">
<path d="M5.98418 0C2.13873 0.024 0 2.292 0 5.99509C0 9.79473 2.08527 11.9771 5.98745 12C9.88582 11.9771 11.8996 9.96 11.9716 5.99509C11.9051 2.154 9.78 0.0245455 5.98418 0ZM5.98745 11.4545C2.394 11.4333 0.613636 9.64909 0.545455 6C0.610909 2.40273 2.442 0.567818 5.98364 0.545455C8.42346 0.561273 11.3482 1.52182 11.4256 5.99509C11.3591 9.64746 9.57982 11.4333 5.98745 11.4545Z" fill="black"/>
<path d="M6.3094 5.3374H5.6614C5.51085 5.3374 5.38867 5.45958 5.38867 5.61013C5.38867 5.76068 5.51085 5.88286 5.6614 5.88286H6.03667V8.14813C6.03667 8.29868 6.15885 8.42086 6.3094 8.42086C6.45994 8.42086 6.58213 8.29868 6.58213 8.14813V5.61013C6.58213 5.45958 6.45994 5.3374 6.3094 5.3374Z" fill="black"/>
<path d="M5.98526 4.39924C6.2112 4.39924 6.39435 4.21608 6.39435 3.99015C6.39435 3.76421 6.2112 3.58105 5.98526 3.58105C5.75933 3.58105 5.57617 3.76421 5.57617 3.99015C5.57617 4.21608 5.75933 4.39924 5.98526 4.39924Z" fill="black"/>
</svg>
