<svg width="13" height="12" viewBox="0 0 13 12" fill="none" xmlns="http://www.w3.org/2000/svg">
<path d="M12.0495 2.27209C12.0434 2.23538 11.8977 1.36153 11.2945 0.752304C10.6858 0.15513 9.80869 0.00994536 9.77198 0.00391883C9.70678 -0.00758636 9.64104 0.00665821 9.58461 0.0411738C9.51777 0.0822638 7.91526 1.08924 4.62697 4.36165C1.16116 7.81101 0.263758 9.17301 0.227051 9.22944C0.202397 9.26779 0.187056 9.31162 0.183769 9.35709L0.000781796 11.7047C-0.00524473 11.7847 0.0237922 11.863 0.0802224 11.92C0.131722 11.9715 0.201301 12 0.274167 12C0.281289 12 0.288412 12 0.295534 11.9995L2.65465 11.817C2.70012 11.8137 2.7434 11.7989 2.78175 11.7743C2.83818 11.7381 4.2062 10.8446 7.67091 7.39628C10.9592 4.12333 11.9706 2.52794 12.0117 2.46165C12.0467 2.40522 12.0604 2.33838 12.05 2.27318L12.0495 2.27209ZM7.28357 7.00729C4.24839 10.0282 2.82394 11.0763 2.5385 11.2763L0.571658 11.4286L0.723965 9.47324C0.92558 9.1878 1.97967 7.76992 5.01266 4.75118C5.98403 3.78474 6.80857 3.01664 7.48792 2.41508C7.75309 2.47644 8.4308 2.67148 8.90964 3.14155C9.38519 3.60778 9.58351 4.26248 9.64706 4.52546C9.04003 5.20481 8.2637 6.03154 7.28357 7.00729ZM10.0749 4.03841C9.94565 3.66531 9.70843 3.15744 9.29314 2.74982C8.87841 2.34331 8.36013 2.11101 7.98046 1.98446C8.97045 1.13581 9.57036 0.710119 9.78403 0.565482C10.001 0.615886 10.5302 0.770932 10.9072 1.14019C11.277 1.51384 11.4348 2.04143 11.4868 2.25894C11.3416 2.47151 10.9176 3.0643 10.0749 4.03841Z" fill="black" fill-opacity="0.8"/>
</svg>
