<svg width="10" height="12" viewBox="0 0 10 12" fill="none" xmlns="http://www.w3.org/2000/svg">
<path d="M9.79652 2.04982C9.74143 2.03673 8.91616 1.84691 7.70143 1.70073L7.2367 0.360545C7.20452 0.268364 7.12598 0.200182 7.02943 0.182182C6.9907 0.174545 6.05634 0 5.00416 0C3.95198 0 3.01761 0.175091 2.97834 0.182182C2.88234 0.200727 2.80379 0.268364 2.77161 0.361091L2.30688 1.70073C1.0927 1.84691 0.266885 2.03673 0.211248 2.04982C0.0639757 2.08364 -0.0271153 2.23036 0.00724837 2.37709C0.0367029 2.50309 0.149067 2.58818 0.272885 2.58818C0.293067 2.58818 0.313794 2.586 0.334521 2.58109C0.339976 2.58 0.479612 2.54782 0.724521 2.50036C0.615976 3.41509 0.514521 4.83818 0.514521 6.17564C0.514521 9.06982 0.986339 11.1884 1.00652 11.2773C1.02834 11.3733 1.10034 11.4507 1.19525 11.4785C1.2667 11.4998 2.97779 12 5.00307 12C7.02834 12 8.73943 11.4998 8.81088 11.4785C8.90579 11.4507 8.97834 11.3733 9.00016 11.2767C9.01979 11.1867 9.49161 9.04527 9.49161 6.17564C9.49161 4.83382 9.3907 3.41182 9.2827 2.50036C9.52707 2.54782 9.66616 2.58 9.67161 2.58109C9.81943 2.61545 9.96452 2.52436 9.99943 2.37764C10.0332 2.23091 9.9427 2.08418 9.79543 2.04982H9.79652ZM3.2347 0.692182C3.53634 0.644182 4.24379 0.545455 5.00416 0.545455C5.76452 0.545455 6.47088 0.643636 6.77416 0.692182L7.10143 1.63636C6.46434 1.57582 5.75143 1.53273 5.00416 1.53273C4.25689 1.53273 3.54452 1.57527 2.90688 1.63636L3.2347 0.692182ZM8.94779 6.17618C8.94779 8.54509 8.61016 10.4498 8.50216 10.9985C8.03852 11.1191 6.60398 11.4551 5.0047 11.4551C3.40543 11.4551 1.96979 11.1191 1.5067 10.9985C1.3987 10.4536 1.06161 8.56364 1.06161 6.17618C1.06161 4.78473 1.17834 3.258 1.28852 2.4C2.15634 2.256 3.52543 2.07873 5.0047 2.07873C6.48398 2.07873 7.85525 2.256 8.72198 2.4C8.83543 3.27982 8.94779 4.77164 8.94779 6.17618Z" fill="black" fill-opacity="0.8"/>
<path d="M3.67312 4.42798C3.52257 4.42798 3.40039 4.55016 3.40039 4.70071V9.08725C3.40039 9.2378 3.52257 9.35998 3.67312 9.35998C3.82366 9.35998 3.94585 9.2378 3.94585 9.08725V4.70071C3.94585 4.55016 3.82366 4.42798 3.67312 4.42798Z" fill="black" fill-opacity="0.8"/>
<path d="M6.33718 9.35998C6.48773 9.35998 6.60991 9.2378 6.60991 9.08725V4.70071C6.60991 4.55016 6.48773 4.42798 6.33718 4.42798C6.18663 4.42798 6.06445 4.55016 6.06445 4.70071V9.08725C6.06445 9.2378 6.18663 9.35998 6.33718 9.35998Z" fill="black" fill-opacity="0.8"/>
</svg>
